<svg xmlns="http://www.w3.org/2000/svg" xmlns:xlink="http://www.w3.org/1999/xlink" viewBox="0 0 1853 681"><defs><style>.cls-1,.cls-22,.cls-24{fill:none;}.cls-2{clip-path:url(#clip-path);}.cls-3{opacity:0.5;}.cls-4{fill:#c7d5e4;}.cls-5{fill:#57a9a9;}.cls-6{fill:#8295a6;}.cls-7{fill:#3f7979;}.cls-8{fill:#231e2e;}.cls-9{fill:#96a3cc;}.cls-10{fill:#647ba9;}.cls-11{fill:#cfb37c;}.cls-12{fill:#ca5c5b;}.cls-13,.cls-16{fill:#fff;}.cls-14{fill:#f3b892;}.cls-15{fill:#488baf;}.cls-16{font-size:84.88px;font-family:SourceSansPro-Black, SourceSansPro Black;font-weight:800;}.cls-17{fill:#a44a4a;}.cls-18{fill:#fbd0af;}.cls-19{fill:#aa5e5d;}.cls-20{fill:#9ec3d6;}.cls-21{fill:#3a7899;}.cls-22{stroke:#231e2e;stroke-width:0.25px;}.cls-22,.cls-24{stroke-miterlimit:10;}.cls-23{fill:#2e586e;}.cls-24{stroke:#647ba9;}</style><clipPath id="clip-path"><rect class="cls-1" x="555.34" y="2.4" width="1297.66" height="679.11"/></clipPath></defs><g id="Layer_2" data-name="Layer 2"><g class="cls-2"><g class="cls-3"><rect class="cls-4" x="1355.34" y="412.66" width="113.56" height="220.28"/><rect class="cls-4" x="1582.47" y="421.16" width="113.56" height="211.78"/><rect class="cls-4" x="1468.9" y="210.9" width="113.56" height="422.04"/><rect class="cls-4" x="1809.59" y="421.16" width="113.56" height="211.78"/><rect class="cls-4" x="1696.03" y="271.3" width="113.56" height="361.64"/><rect class="cls-4" x="1809.59" y="165.98" width="68.09" height="466.96"/><rect class="cls-4" x="1400.81" y="93.24" width="68.09" height="539.7"/><rect class="cls-4" x="1582.47" y="295.44" width="68.09" height="337.5"/><rect class="cls-4" x="1241.78" y="165.98" width="113.56" height="466.96"/></g><g class="cls-3"><rect class="cls-4" x="595.62" y="410.32" width="113.56" height="220.28"/><rect class="cls-4" x="822.75" y="418.83" width="113.56" height="211.78"/><rect class="cls-4" x="1163.43" y="340.09" width="78.35" height="290.51"/><rect class="cls-4" x="709.18" y="208.57" width="113.56" height="422.04"/><rect class="cls-4" x="1049.87" y="418.83" width="113.56" height="211.78"/><rect class="cls-4" x="936.31" y="268.97" width="113.56" height="361.64"/><rect class="cls-4" x="1049.87" y="163.64" width="68.09" height="466.96"/><rect class="cls-4" x="641.09" y="90.91" width="68.09" height="539.7"/><rect class="cls-4" x="822.75" y="293.1" width="68.09" height="337.5"/><rect class="cls-4" x="482.06" y="163.64" width="113.56" height="466.96"/></g><path class="cls-5" d="M1806,608.15a101.59,101.59,0,0,1-2.33,22.27h-46.36a110.42,110.42,0,0,1-2.2-22.27,115.33,115.33,0,0,1,2.07-21.76c4-19.29,12.95-32.76,23.44-32.76,7.38,0,14.11,6.86,18.65,17.74a56.87,56.87,0,0,1,2.46,7A99.57,99.57,0,0,1,1806,608.15Z"/><path class="cls-5" d="M1838.06,624.2c-.38,2.07-.77,4.15-1.16,6.22h-50.5a93.46,93.46,0,0,1,1.29-14.25c2.07-13.2,6.35-25,11.53-33.79.77-1.43,1.68-2.85,2.46-4,6.08-8.41,13.08-13.08,19.81-12a13.26,13.26,0,0,1,6.73,3.37C1837.55,577.84,1842,599.73,1838.06,624.2Z"/><path class="cls-5" d="M1731.88,630.42h-52.44c-.65-1.43-1.3-2.72-2-4.15a113,113,0,0,1-6.6-18.38c-5.18-20.2-2.72-37.3,7.12-41.83,9.59-4.4,23.31,4.27,35,20.33a108.93,108.93,0,0,1,10.87,18.78A110.56,110.56,0,0,1,1731.88,630.42Z"/><path class="cls-5" d="M1760.5,613.2a104.14,104.14,0,0,1-1.3,17.22h-48.3a75.76,75.76,0,0,1-.9-8c-.26-3-.39-6.09-.39-9.19a100.85,100.85,0,0,1,3.37-26.81c4.27-16.57,12.56-27.71,22.14-27.71s17.74,11.14,22,27.71A101.27,101.27,0,0,1,1760.5,613.2Z"/><path class="cls-5" d="M1710,622.39a78.78,78.78,0,0,1,11.26,8h-88.7c-2.2-4.4-2.72-8.55-1.3-12.3,3.76-10,19.82-13.6,39.63-10.23a99.8,99.8,0,0,1,20.46,5.44A107.79,107.79,0,0,1,1710,622.39Z"/><path class="cls-5" d="M1899.57,608.15a109.7,109.7,0,0,1-2.2,22.27h-46.62a110.42,110.42,0,0,1-2.2-22.27,100.45,100.45,0,0,1,4.28-29.92c3.36-11.13,8.54-19.29,14.76-22.66a12.18,12.18,0,0,1,6.47-1.94c10.49,0,19.43,13.34,23.44,32.5A117.4,117.4,0,0,1,1899.57,608.15Z"/><path class="cls-5" d="M1877.56,630.42h-52.32a8.55,8.55,0,0,1-.64-1.56c-9.72-26.93-8-52.7,3.62-59.17a7.94,7.94,0,0,1,1.82-.91c6.73-2.33,15,1.42,22.79,9.45a83.05,83.05,0,0,1,14.76,21.63,95,95,0,0,1,4.92,11.65A122.21,122.21,0,0,1,1877,627.7C1877.17,628.6,1877.43,629.51,1877.56,630.42Z"/><rect class="cls-6" x="536.64" y="628.77" width="1465.37" height="63.79"/><g class="cls-3"><path class="cls-4" d="M1340.08,18a93,93,0,0,1-2.34,21h-50.42A93,93,0,0,1,1285,18c0-3,.13-5.86.38-8.68,2.18-24.66,13.51-43.44,27.17-43.44,13.12,0,24.11,17.39,26.87,40.66A96.73,96.73,0,0,1,1340.08,18Z"/><path class="cls-4" d="M1316.16,39h-49.68c-6.32-12.12-7.07-23.71-.89-29.17,4.51-4,11.8-3.89,19.78-.53,7.07,3,14.68,8.53,21.37,16.11A69.31,69.31,0,0,1,1316.16,39Z"/><path class="cls-4" d="M1368.33,24.45a63.18,63.18,0,0,1-4,14.59h-44A69.54,69.54,0,0,1,1325.21,26a63.9,63.9,0,0,1,14.2-19.41c7.43-6.67,15.36-9.44,21.33-6.52C1367.41,3.29,1370,12.83,1368.33,24.45Z"/><path class="cls-4" d="M1396.28,39h-47.06c.64-.68,1.29-1.36,2-2a66.24,66.24,0,0,1,17.15-12.56c10.2-5,19.75-5.55,24.88-.41C1396.63,27.45,1397.54,32.83,1396.28,39Z"/></g><g class="cls-3"><path class="cls-4" d="M1583.09,72.3a52.28,52.28,0,0,1-1.32,11.86h-28.44A52.28,52.28,0,0,1,1552,72.3c0-1.67.08-3.31.22-4.9,1.23-13.91,7.62-24.5,15.32-24.5,7.41,0,13.61,9.8,15.17,22.93A56.57,56.57,0,0,1,1583.09,72.3Z"/><path class="cls-4" d="M1569.6,84.16h-28c-3.56-6.84-4-13.38-.5-16.46,2.55-2.24,6.66-2.19,11.16-.3a34.65,34.65,0,0,1,12,9.09A38.55,38.55,0,0,1,1569.6,84.16Z"/><path class="cls-4" d="M1599,75.92a36.05,36.05,0,0,1-2.24,8.24H1572a39.2,39.2,0,0,1,2.75-7.38,36.15,36.15,0,0,1,8-11c4.19-3.76,8.66-5.32,12-3.68C1598.51,64,1600,69.37,1599,75.92Z"/><path class="cls-4" d="M1614.8,84.16h-26.55c.36-.39.73-.77,1.1-1.15a37.34,37.34,0,0,1,9.68-7.09c5.75-2.83,11.14-3.13,14-.23C1615,77.62,1615.51,80.65,1614.8,84.16Z"/></g><g class="cls-3"><path class="cls-4" d="M871.91,118.12a93.08,93.08,0,0,1-2.33,21H819.16a93.06,93.06,0,0,1-2.34-21c0-3,.14-5.86.39-8.69C819.39,84.78,830.72,66,844.37,66c13.13,0,24.12,17.38,26.88,40.66A98.93,98.93,0,0,1,871.91,118.12Z"/><path class="cls-4" d="M848,139.14H798.31C792,127,791.24,115.42,797.43,110c4.51-4,11.8-3.88,19.78-.53,7.07,3,14.68,8.54,21.36,16.11A69,69,0,0,1,848,139.14Z"/><path class="cls-4" d="M900.17,124.54a63.76,63.76,0,0,1-4,14.6h-44A70,70,0,0,1,857,126.07a63.8,63.8,0,0,1,14.21-19.41c7.43-6.68,15.36-9.44,21.33-6.53C899.25,103.39,901.82,112.93,900.17,124.54Z"/><path class="cls-4" d="M928.12,139.14H881.06c.64-.69,1.29-1.37,2-2a66.08,66.08,0,0,1,17.15-12.56c10.19-5,19.74-5.55,24.88-.41C928.46,127.55,929.37,132.92,928.12,139.14Z"/></g><g class="cls-3"><path class="cls-4" d="M1125.38,111.34a52.87,52.87,0,0,1-1.31,11.86h-28.45a52.87,52.87,0,0,1-1.31-11.86c0-1.67.07-3.31.21-4.9,1.23-13.91,7.62-24.5,15.33-24.5,7.4,0,13.6,9.8,15.16,22.93A56.57,56.57,0,0,1,1125.38,111.34Z"/><path class="cls-4" d="M1111.89,123.2h-28c-3.56-6.84-4-13.38-.5-16.46,2.55-2.24,6.66-2.19,11.16-.3a34.65,34.65,0,0,1,12,9.09A38.84,38.84,0,0,1,1111.89,123.2Z"/><path class="cls-4" d="M1141.32,115a35.55,35.55,0,0,1-2.24,8.24h-24.84a39.9,39.9,0,0,1,2.75-7.38,36.15,36.15,0,0,1,8-10.95c4.19-3.76,8.66-5.32,12-3.68C1140.8,103,1142.25,108.41,1141.32,115Z"/><path class="cls-4" d="M1157.09,123.2h-26.55c.36-.39.73-.77,1.11-1.15a37.3,37.3,0,0,1,9.67-7.09c5.75-2.83,11.14-3.13,14-.23C1157.28,116.66,1157.8,119.69,1157.09,123.2Z"/></g><g class="cls-3"><path class="cls-4" d="M1757.34,165.17a92.37,92.37,0,0,1-2.34,21h-50.41a92.37,92.37,0,0,1-2.34-21c0-3,.13-5.86.38-8.68,2.18-24.65,13.52-43.43,27.17-43.43,13.13,0,24.11,17.38,26.87,40.65A97,97,0,0,1,1757.34,165.17Z"/><path class="cls-4" d="M1733.42,186.19h-49.68c-6.32-12.11-7.07-23.71-.89-29.17,4.52-4,11.81-3.89,19.78-.53,7.08,3,14.69,8.54,21.37,16.11A69.18,69.18,0,0,1,1733.42,186.19Z"/><path class="cls-4" d="M1785.6,171.6a63.59,63.59,0,0,1-4,14.59h-44a70.15,70.15,0,0,1,4.88-13.06,64,64,0,0,1,14.2-19.42c7.44-6.67,15.36-9.43,21.33-6.52C1784.67,150.44,1787.25,160,1785.6,171.6Z"/><path class="cls-4" d="M1813.55,186.19h-47.06c.63-.68,1.28-1.36,2-2a66.11,66.11,0,0,1,17.16-12.56c10.19-5,19.74-5.55,24.88-.41C1813.89,174.61,1814.8,180,1813.55,186.19Z"/></g><path class="cls-5" d="M724.84,608.26a93.41,93.41,0,0,1-2.14,20.51H680a101.53,101.53,0,0,1-2-20.51,106,106,0,0,1,1.9-20c3.7-17.77,11.93-30.17,21.59-30.17,6.8,0,13,6.32,17.17,16.34a50.27,50.27,0,0,1,2.27,6.44A91.81,91.81,0,0,1,724.84,608.26Z"/><path class="cls-5" d="M754.42,623l-1.08,5.73H706.83a84.53,84.53,0,0,1,1.2-13.12c1.91-12.16,5.84-23,10.61-31.13.72-1.31,1.55-2.62,2.27-3.69,5.6-7.75,12-12.05,18.24-11.09a12.22,12.22,0,0,1,6.2,3.1C753.94,580.35,758,600.5,754.42,623Z"/><path class="cls-5" d="M656.61,628.77h-48.3c-.57-1.32-1.18-2.51-1.75-3.83A100.3,100.3,0,0,1,600.47,608c-4.78-18.62-2.51-34.35,6.56-38.51,8.75-4,21.27,3.83,32,18.43a1.49,1.49,0,0,1,.24.28,93.77,93.77,0,0,1,8.83,14.89c.43.8.81,1.61,1.18,2.41a99.56,99.56,0,0,1,7.09,21.83C656.42,627.82,656.51,628.3,656.61,628.77Z"/><path class="cls-5" d="M683,612.89a94.74,94.74,0,0,1-1.19,15.88H637.33a69,69,0,0,1-.85-7.37c-.24-2.79-.38-5.63-.38-8.51,0-1.37,0-2.69.09-4a88.79,88.79,0,0,1,3-20.65c0-.09,0-.19.09-.28,3.92-15.12,11.53-25.24,20.32-25.24s16.3,10.26,20.27,25.52a78.51,78.51,0,0,1,1.85,8.65A102.86,102.86,0,0,1,683,612.89Z"/><path class="cls-5" d="M646.87,628.77h-81.7c-2-4.07-2.51-7.89-1.19-11.34,3.45-9.17,18.25-12.53,36.49-9.41a76.59,76.59,0,0,1,10,2.18c2.93.75,5.86,1.75,8.84,2.83a94.53,94.53,0,0,1,9.17,4,80.44,80.44,0,0,1,8,4.4A71.49,71.49,0,0,1,646.87,628.77Z"/><path class="cls-5" d="M811.06,608.26a101.53,101.53,0,0,1-2,20.51H766.1a101.53,101.53,0,0,1-2-20.51A92.63,92.63,0,0,1,768,580.71c3.1-10.26,7.87-17.77,13.6-20.87a11.21,11.21,0,0,1,6-1.79c9.66,0,17.89,12.28,21.58,29.93A107.79,107.79,0,0,1,811.06,608.26Z"/><path class="cls-5" d="M838.85,628.77H789.72a17.53,17.53,0,0,1,.59-2.51,98.64,98.64,0,0,1,5.61-16.33A91,91,0,0,1,809.15,588c9.54-12,20.52-18.12,28.39-14.66,4.65,2,7.63,7.15,8.7,14.19C848.15,598.24,845.65,613.38,838.85,628.77Z"/><path class="cls-5" d="M790.79,628.77H742.61a7.52,7.52,0,0,1-.6-1.43c-8.94-24.81-7.39-48.54,3.34-54.5A7.46,7.46,0,0,1,747,572c6.2-2.14,13.84,1.32,21,8.71a76.68,76.68,0,0,1,13.6,19.91,87.45,87.45,0,0,1,4.53,10.74,111.72,111.72,0,0,1,4.17,14.9C790.43,627.1,790.67,627.93,790.79,628.77Z"/><path class="cls-7" d="M680.71,614.17a72.08,72.08,0,0,1-1.09,12.66c-.09.66-.19,1.32-.33,1.94H648.67a67.05,67.05,0,0,1-1.37-11.48c-.1-1-.1-2.08-.1-3.12a70.36,70.36,0,0,1,.85-11.06,56.82,56.82,0,0,1,2-8.6c2.17-7.33,5.57-12.67,9.69-14.89a7.81,7.81,0,0,1,4.25-1.27c6.28,0,11.81,7.37,14.65,18.38a28.26,28.26,0,0,1,.71,3A77,77,0,0,1,680.71,614.17Z"/><path class="cls-7" d="M700.53,628.77h-35a14.54,14.54,0,0,1,.43-1.79,70.28,70.28,0,0,1,4-11.65,65,65,0,0,1,9.44-15.64c6.81-8.59,14.63-12.93,20.24-10.46,3.32,1.44,5.44,5.1,6.21,10.12C707.16,607,705.37,617.8,700.53,628.77Z"/><path class="cls-7" d="M666.25,628.77H631.89a6.45,6.45,0,0,1-.42-1,69.58,69.58,0,0,1-3-10.73,53.7,53.7,0,0,1-1.13-12.19c.18-7.75,2.41-13.61,6.52-15.93a7.22,7.22,0,0,1,1.18-.61,8.31,8.31,0,0,1,3.92-.33h.33c3.4.57,7.18,2.88,10.73,6.57a56,56,0,0,1,9.69,14.17,71.82,71.82,0,0,1,3.21,7.66,81.36,81.36,0,0,1,3,10.63C666,627.59,666.15,628.15,666.25,628.77Z"/><path class="cls-7" d="M657.41,628.77H614.93c-4-7.14-5.67-13.85-4.45-18.57a9.77,9.77,0,0,1,1.47-3.12,5.65,5.65,0,0,1,.8-1c3.12-3,8.41-3.26,14.61-1.23.51.19,1,.38,1.6.57a52.75,52.75,0,0,1,7.23,3.49,68.23,68.23,0,0,1,7.52,5.34c1.18.95,2.41,2,3.59,3.08.85.85,1.7,1.65,2.55,2.55a75.87,75.87,0,0,1,6.47,7.51,8.15,8.15,0,0,1,.66.85Z"/><path class="cls-5" d="M882.49,626.86c-.11.6-.11,1.31-.23,1.91H835.39c0-2.27.24-4.53.48-6.92,1.43-13.71,5.36-25.76,10.37-34.34,5.37-8.71,11.81-13.84,18.37-13.12,10.73,1.07,18,17.53,18.36,38.64A90.37,90.37,0,0,1,882.49,626.86Z"/><path class="cls-5" d="M925.9,628.77H863.53a95.68,95.68,0,0,1,9.43-8.59q5-3.93,10-7.15c18.61-11.57,36.85-14.55,43.77-6C930.79,612,930.2,619.94,925.9,628.77Z"/><path class="cls-7" d="M785.53,614.14a72,72,0,0,1-1.44,14.63H753.48A72,72,0,0,1,752,614.14a65.76,65.76,0,0,1,2.81-19.64c2.21-7.31,5.61-12.67,9.69-14.88a8,8,0,0,1,4.25-1.28c6.89,0,12.76,8.76,15.4,21.35A77.29,77.29,0,0,1,785.53,614.14Z"/><path class="cls-7" d="M805.35,628.77h-35a14.54,14.54,0,0,1,.43-1.79,70.35,70.35,0,0,1,4-11.65,64.4,64.4,0,0,1,9.44-15.64c6.8-8.59,14.62-12.93,20.23-10.46,3.32,1.44,5.44,5.1,6.21,10.12C812,607,810.19,617.8,805.35,628.77Z"/><path class="cls-7" d="M899.92,628.42h-35a12.88,12.88,0,0,1,.42-1.79,70.35,70.35,0,0,1,4-11.65,64.71,64.71,0,0,1,9.44-15.64c6.8-8.59,14.62-12.93,20.23-10.46,3.32,1.45,5.45,5.1,6.21,10.12C906.55,606.65,904.77,617.45,899.92,628.42Z"/><path class="cls-7" d="M847.32,628.42h35a14.54,14.54,0,0,0-.43-1.79,70.35,70.35,0,0,0-4-11.65,64.4,64.4,0,0,0-9.44-15.64c-6.8-8.59-14.62-12.93-20.23-10.46-3.32,1.45-5.45,5.1-6.21,10.12C840.69,606.65,842.47,617.45,847.32,628.42Z"/><path class="cls-7" d="M771.08,628.77H736.73a5.55,5.55,0,0,1-.43-1c-6.38-17.69-5.27-34.61,2.38-38.86a5.11,5.11,0,0,1,1.19-.6c4.42-1.53,9.87.94,15,6.21a54.39,54.39,0,0,1,9.69,14.2,61.87,61.87,0,0,1,3.23,7.65,80.08,80.08,0,0,1,3,10.63C770.82,627.58,771,628.17,771.08,628.77Z"/><path class="cls-5" d="M1413.34,608.26a93.41,93.41,0,0,1-2.14,20.51h-42.7a101.53,101.53,0,0,1-2-20.51,106,106,0,0,1,1.9-20c3.7-17.77,11.93-30.17,21.59-30.17,6.8,0,13,6.32,17.17,16.34a50.27,50.27,0,0,1,2.27,6.44A91.81,91.81,0,0,1,1413.34,608.26Z"/><path class="cls-5" d="M1442.92,623l-1.08,5.73h-46.51a84.53,84.53,0,0,1,1.2-13.12,90,90,0,0,1,10.61-31.13c.72-1.31,1.55-2.62,2.27-3.69,5.6-7.75,12-12.05,18.24-11.09a12.22,12.22,0,0,1,6.2,3.1C1442.44,580.35,1446.49,600.5,1442.92,623Z"/><path class="cls-5" d="M1345.11,628.77h-48.3c-.57-1.32-1.18-2.51-1.75-3.83A100.3,100.3,0,0,1,1289,608c-4.78-18.62-2.51-34.35,6.56-38.51,8.75-4,21.27,3.83,32,18.43a1.49,1.49,0,0,1,.24.28,93.77,93.77,0,0,1,8.83,14.89c.43.8.81,1.61,1.18,2.41a99.56,99.56,0,0,1,7.09,21.83C1344.92,627.82,1345,628.3,1345.11,628.77Z"/><path class="cls-5" d="M1371.47,612.89a94.77,94.77,0,0,1-1.18,15.88h-44.47c-.37-2.36-.7-4.77-.85-7.37-.23-2.79-.37-5.63-.37-8.51,0-1.37,0-2.69.09-4a88.79,88.79,0,0,1,3-20.65c0-.09,0-.19.09-.28,3.92-15.12,11.53-25.24,20.32-25.24s16.3,10.26,20.27,25.52a78.51,78.51,0,0,1,1.85,8.65A102.89,102.89,0,0,1,1371.47,612.89Z"/><path class="cls-5" d="M1335.37,628.77h-81.7c-2-4.07-2.51-7.89-1.19-11.34,3.45-9.17,18.25-12.53,36.49-9.41a76.59,76.59,0,0,1,10,2.18c2.93.75,5.86,1.75,8.84,2.83a94.53,94.53,0,0,1,9.17,4,79.15,79.15,0,0,1,8,4.4A71.07,71.07,0,0,1,1335.37,628.77Z"/><path class="cls-5" d="M1499.56,608.26a100.8,100.8,0,0,1-2,20.51H1454.6a101.53,101.53,0,0,1-2-20.51,92.63,92.63,0,0,1,3.93-27.55c3.1-10.26,7.87-17.77,13.6-20.87a11.18,11.18,0,0,1,6-1.79c9.66,0,17.89,12.28,21.58,29.93A107.79,107.79,0,0,1,1499.56,608.26Z"/><path class="cls-5" d="M1527.35,628.77h-49.14a19,19,0,0,1,.6-2.51,97.72,97.72,0,0,1,5.61-16.33A91,91,0,0,1,1497.65,588c9.54-12,20.52-18.12,28.39-14.66,4.65,2,7.63,7.15,8.7,14.19C1536.65,598.24,1534.15,613.38,1527.35,628.77Z"/><path class="cls-5" d="M1479.29,628.77h-48.18a7.52,7.52,0,0,1-.6-1.43c-8.94-24.81-7.39-48.54,3.34-54.5a7.46,7.46,0,0,1,1.67-.84c6.2-2.14,13.84,1.32,21,8.71a76.68,76.68,0,0,1,13.6,19.91,87.45,87.45,0,0,1,4.53,10.74,111.72,111.72,0,0,1,4.17,14.9C1478.93,627.1,1479.17,627.93,1479.29,628.77Z"/><path class="cls-7" d="M1369.21,614.17a72.08,72.08,0,0,1-1.09,12.66c-.1.66-.19,1.32-.33,1.94h-30.62a67.05,67.05,0,0,1-1.37-11.48c-.1-1-.1-2.08-.1-3.12a70.36,70.36,0,0,1,.85-11.06,55.64,55.64,0,0,1,2-8.6c2.17-7.33,5.57-12.67,9.68-14.89a7.87,7.87,0,0,1,4.26-1.27c6.28,0,11.81,7.37,14.65,18.38a28.26,28.26,0,0,1,.71,3A77,77,0,0,1,1369.21,614.17Z"/><path class="cls-7" d="M1389,628.77h-35a14.54,14.54,0,0,1,.43-1.79,70.28,70.28,0,0,1,4-11.65,65,65,0,0,1,9.44-15.64c6.8-8.59,14.63-12.93,20.24-10.46,3.32,1.44,5.44,5.1,6.21,10.12C1395.66,607,1393.87,617.8,1389,628.77Z"/><path class="cls-7" d="M1354.75,628.77h-34.36a6.45,6.45,0,0,1-.42-1,69.58,69.58,0,0,1-3-10.73,54.33,54.33,0,0,1-1.14-12.19c.19-7.75,2.41-13.61,6.53-15.93a7.22,7.22,0,0,1,1.18-.61,8.31,8.31,0,0,1,3.92-.33h.33c3.4.57,7.18,2.88,10.73,6.57a55.74,55.74,0,0,1,9.68,14.17,69.84,69.84,0,0,1,3.22,7.66,79.73,79.73,0,0,1,3,10.63C1354.51,627.59,1354.65,628.15,1354.75,628.77Z"/><path class="cls-7" d="M1345.91,628.77h-42.48c-4-7.14-5.67-13.85-4.45-18.57a9.56,9.56,0,0,1,1.47-3.12,5.65,5.65,0,0,1,.8-1c3.12-3,8.41-3.26,14.6-1.23.52.19,1,.38,1.61.57a52.75,52.75,0,0,1,7.23,3.49,67.21,67.21,0,0,1,7.51,5.34c1.19.95,2.41,2,3.6,3.08.85.85,1.7,1.65,2.55,2.55a75.87,75.87,0,0,1,6.47,7.51,9.78,9.78,0,0,1,.66.85Z"/><path class="cls-5" d="M1571,626.86c-.12.6-.12,1.31-.23,1.91h-46.87c0-2.27.24-4.53.48-6.92,1.43-13.71,5.36-25.76,10.37-34.34,5.37-8.71,11.81-13.84,18.37-13.12,10.73,1.07,18,17.53,18.36,38.64A90.37,90.37,0,0,1,1571,626.86Z"/><path class="cls-5" d="M1614.4,628.77H1552a95.54,95.54,0,0,1,9.42-8.59q5-3.93,10-7.15c18.61-11.57,36.85-14.55,43.77-6C1619.29,612,1618.7,619.94,1614.4,628.77Z"/><path class="cls-7" d="M1474,614.14a72.73,72.73,0,0,1-1.44,14.63H1442a72,72,0,0,1-1.45-14.63,65.76,65.76,0,0,1,2.81-19.64c2.21-7.31,5.61-12.67,9.69-14.88a8,8,0,0,1,4.25-1.28c6.89,0,12.76,8.76,15.39,21.35A77.26,77.26,0,0,1,1474,614.14Z"/><path class="cls-7" d="M1493.85,628.77h-35a14.54,14.54,0,0,1,.43-1.79,70.35,70.35,0,0,1,4-11.65,64.69,64.69,0,0,1,9.43-15.64c6.81-8.59,14.63-12.93,20.24-10.46,3.32,1.44,5.44,5.1,6.21,10.12C1500.48,607,1498.69,617.8,1493.85,628.77Z"/><path class="cls-7" d="M1588.42,628.42h-35a12.88,12.88,0,0,1,.42-1.79,70.35,70.35,0,0,1,4-11.65,64.71,64.71,0,0,1,9.44-15.64c6.8-8.59,14.62-12.93,20.23-10.46,3.32,1.45,5.45,5.1,6.21,10.12C1595.05,606.65,1593.27,617.45,1588.42,628.42Z"/><path class="cls-7" d="M1535.82,628.42h35a12.88,12.88,0,0,0-.42-1.79,70.35,70.35,0,0,0-4-11.65,64.4,64.4,0,0,0-9.44-15.64c-6.8-8.59-14.62-12.93-20.23-10.46-3.32,1.45-5.45,5.1-6.21,10.12C1529.19,606.65,1531,617.45,1535.82,628.42Z"/><path class="cls-7" d="M1459.58,628.77h-34.35a5.55,5.55,0,0,1-.43-1c-6.38-17.69-5.27-34.61,2.38-38.86a5.11,5.11,0,0,1,1.19-.6c4.42-1.53,9.87.94,15,6.21a54.63,54.63,0,0,1,9.69,14.2,61.87,61.87,0,0,1,3.23,7.65,80.08,80.08,0,0,1,3,10.63C1459.32,627.58,1459.49,628.17,1459.58,628.77Z"/><circle class="cls-8" cx="1891.03" cy="586.38" r="43.44"/><circle class="cls-8" cx="1578.61" cy="586.38" r="43.44"/><circle class="cls-8" cx="1578.61" cy="586.38" r="25.16"/><path class="cls-9" d="M1990.14,576.89H1419.5a43.38,43.38,0,0,1-39.26-24.6A109.47,109.47,0,0,1,1374,536a91.69,91.69,0,0,1-3.26-36.7c.32-2.68.77-5.4,1.37-8.16A94.14,94.14,0,0,1,1396,446.59c1.18-1.92,2.39-3.84,3.63-5.79A677,677,0,0,1,1502,314.88a47.16,47.16,0,0,1,32.47-13.22l214.69-1.55a47.22,47.22,0,0,1,31.81,12L1925.31,440.8l2.82,2.51a139.7,139.7,0,0,1,60.56,36.33c2.64,2.72,5.11,5.5,7.41,8.3a136.94,136.94,0,0,1,21.48,36.7c1.34,3.37,2.5,6.69,3.51,9.91A32.5,32.5,0,0,1,1990.14,576.89Z"/><path class="cls-10" d="M1990.14,576.89H1419.5a43.38,43.38,0,0,1-39.26-24.6A109.47,109.47,0,0,1,1374,536a91.69,91.69,0,0,1-3.26-36.7c.32-2.68.77-5.4,1.37-8.16A94.14,94.14,0,0,1,1396,446.59c1.18-1.92,2.39-3.84,3.63-5.79h525.69l2.82,2.51a139.7,139.7,0,0,1,60.56,36.33c2.64,2.72,5.11,5.5,7.41,8.3a136.94,136.94,0,0,1,21.48,36.7c1.34,3.37,2.5,6.69,3.51,9.91A32.5,32.5,0,0,1,1990.14,576.89Z"/><circle class="cls-11" cx="1494.34" cy="572.95" r="56.87"/><circle class="cls-8" cx="1494.34" cy="572.95" r="41.89"/><circle class="cls-12" cx="1494.34" cy="572.95" r="26.17"/><circle class="cls-11" cx="1829.31" cy="572.95" r="56.87"/><circle class="cls-8" cx="1829.31" cy="572.95" r="41.89"/><circle class="cls-12" cx="1829.31" cy="572.95" r="26.17"/><path class="cls-13" d="M1878.05,440.8H1468.28c-19.87,0-31-20.88-18.73-35.13l69.22-80.39a24.72,24.72,0,0,1,18.73-8.3H1738a25.19,25.19,0,0,1,15.86,5.51l129.58,105.39C1889,432.4,1885.51,440.8,1878.05,440.8Z"/><rect class="cls-9" x="1648.44" y="310.89" width="17.03" height="129.91"/><rect class="cls-8" x="1656.2" y="455.57" width="1.52" height="87.37"/><path class="cls-14" d="M1355.54,499.25h33a9.91,9.91,0,0,1,9.91,9.91V536a0,0,0,0,1,0,0h-42.9a0,0,0,0,1,0,0v-36.7A0,0,0,0,1,1355.54,499.25Z"/><path class="cls-8" d="M1737.28,482.88H1705v-5.35a4.45,4.45,0,0,1,4.45-4.45h27.81Zm-30.74-1.53h29.22V474.6h-26.29a2.93,2.93,0,0,0-2.93,2.93Z"/><path class="cls-8" d="M1569.58,482.88h-32.26v-5.35a4.45,4.45,0,0,1,4.45-4.45h27.81Zm-30.74-1.53h29.22V474.6h-26.29a2.93,2.93,0,0,0-2.93,2.93Z"/><rect class="cls-15" x="1613.89" y="213.98" width="86.12" height="86.12"/><text class="cls-16" transform="translate(1645.27 287.17)">L</text><path class="cls-12" d="M934.3,616.39H830.42l12.83-33.95,5.12-13.56,7.22-19.09,5.13-13.57,13.94-36.88a8.23,8.23,0,0,1,15.39,0L904,536.22l5.13,13.57,7.22,19.09,5.12,13.56Z"/><path class="cls-12" d="M826.74,616.39H938a7.54,7.54,0,0,1,7.54,7.54v4.48a0,0,0,0,1,0,0H819.2a0,0,0,0,1,0,0v-4.48A7.54,7.54,0,0,1,826.74,616.39Z"/><polygon class="cls-14" points="909.12 549.79 855.6 549.79 860.72 536.22 903.99 536.22 909.12 549.79"/><polygon class="cls-14" points="921.46 582.44 843.25 582.44 848.37 568.88 916.34 568.88 921.46 582.44"/><polygon class="cls-17" points="830.42 616.39 887.48 616.3 832.4 611.15 830.42 616.39"/><path class="cls-12" d="M1285,616.13H1181.13l12.83-34,5.12-13.56,7.22-19.1,5.13-13.56,13.94-36.89a8.23,8.23,0,0,1,15.39,0L1254.7,536l5.13,13.56,7.22,19.1,5.12,13.56Z"/><path class="cls-12" d="M1177.45,616.13h111.23a7.54,7.54,0,0,1,7.54,7.54v4.48a0,0,0,0,1,0,0H1169.91a0,0,0,0,1,0,0v-4.48A7.54,7.54,0,0,1,1177.45,616.13Z"/><polygon class="cls-14" points="1259.83 549.52 1206.3 549.52 1211.43 535.96 1254.7 535.96 1259.83 549.52"/><polygon class="cls-14" points="1272.17 582.18 1193.96 582.18 1199.08 568.62 1267.05 568.62 1272.17 582.18"/><polygon class="cls-17" points="1181.13 616.13 1238.19 616.04 1183.11 610.89 1181.13 616.13"/><path class="cls-8" d="M1288.52,440.86c10.33-6.67,39.55-23.6,79.72-21.63a134.66,134.66,0,0,1,64.55,20.37,142.75,142.75,0,0,1-59.21,19.64C1332,463.32,1300.5,447.64,1288.52,440.86Z"/><path class="cls-15" d="M1472.21,697.05h-204c-6.18-28.61-14.39-86.78,8.6-152.46a273.21,273.21,0,0,1,39-73h108.87a339.63,339.63,0,0,1,33.19,71.06C1479,606.19,1476.66,662.57,1472.21,697.05Z"/><path class="cls-5" d="M1282.31,697.2a325.71,325.71,0,0,1,1.49-134.14l1.48.33a324.39,324.39,0,0,0-1.48,133.52Z"/><path class="cls-5" d="M1448.34,697.2l-1.49-.29a324.59,324.59,0,0,0-1.49-133.52l1.49-.33a326.18,326.18,0,0,1,1.49,134.14Z"/><rect class="cls-18" x="1315.79" y="285.21" width="108.88" height="186.35"/><rect class="cls-13" x="1368.55" y="588.36" width="1.52" height="108.7" transform="translate(-10.6 23.08) rotate(-0.96)"/><path class="cls-13" d="M1368.42,589c-9.59,0-14.87-7.94-15.09-8.29l1.27-.83c.05.08,5.37,8.06,14.65,7.57,8.09-.41,12.47-6.84,13-7.57l1.27.83c-.51.8-5.29,7.81-14.14,8.26Z"/><path class="cls-12" d="M1346.5,270.54a219.17,219.17,0,0,0-147.93,121.82,43.34,43.34,0,0,0-1.12,33.65,347.49,347.49,0,0,0,93.26,135.1,48,48,0,0,0,28.09-31.6A432.55,432.55,0,0,0,1252.54,414a119.09,119.09,0,0,0,41-28.18c9.07-9.66,16.39-18.67,22.28-34.21Q1331.14,311.09,1346.5,270.54Z"/><path class="cls-12" d="M1420.71,270.54a218.55,218.55,0,0,1,77.5,99A244.32,244.32,0,0,1,1531,336.73a247.67,247.67,0,0,1,71.72-41.21l15.22,22a227.9,227.9,0,0,1-61.47,90.1A224.77,224.77,0,0,1,1493.74,447a183.46,183.46,0,0,1-73-75.26Z"/><path class="cls-11" d="M1441.08,250.41l-6.86-.09q-1-5.83-2.07-11.68l-3.22,11.62-3.38,0c-.36-1.36-.71-2.75-1.08-4.12l-1.67,4.09-6-.07q-1.26-4.81-2.51-9.62l-3.88,9.54-36.3-.44q-1.07-6-2.12-12l-3.32,11.94q-9-.1-18-.21c-.19-1.06-.37-2.14-.57-3.21l-.88,3.18-9.66-.11q-1.18-6.66-2.36-13.32l-3.68,13.25c-2.61-.05-5.21-.08-7.83-.11v-8.49l-3.45,8.46-4.64-.06v-13.8L1312,248.81c-3.4,0-6.83-.07-10.23-.12-8.46-12-8.26-19-6.62-23,4-9.91,19.36-10.08,21.58-21,.9-4.41-1.11-6.81.87-12.38a22.65,22.65,0,0,1,7.27-9.84A49.76,49.76,0,0,1,1339.13,148a48.64,48.64,0,0,1,83,34.39c4.58,3.36,10.16,8.7,11.44,16.18,1.43,8.28-3.68,11.81-1.43,18.71,2.87,8.89,13.2,8.81,15.26,16.69C1448.29,237.36,1447.76,242.56,1441.08,250.41Z"/><rect class="cls-18" x="1354.34" y="217.19" width="47.17" height="55.64" transform="translate(2755.85 490.01) rotate(180)"/><path class="cls-8" d="M1401.51,217.19v42.16c-6.13,1.92-9.7,1-11.85-.26-4.5-2.61-3.22-6.92-8.62-11-4-3-6.52-2-10.45-5.65a19,19,0,0,1-4.6-6.57V217.19Z"/><ellipse class="cls-18" cx="1383.62" cy="195.58" rx="33.96" ry="47.11"/><circle class="cls-18" cx="1343.44" cy="195.55" r="10.91" transform="translate(255.21 1007.23) rotate(-45)"/><path class="cls-8" d="M1340,202.48c-4-2.78-5.32-8-3.1-11.8a8.87,8.87,0,0,1,8.43-4.09l-.09,1.14a7.71,7.71,0,0,0-7.36,3.53c-1.92,3.32-.7,7.84,2.78,10.29Z"/><circle class="cls-18" cx="1417.57" cy="195.42" r="10.91" transform="translate(277.02 1059.61) rotate(-45)"/><path class="cls-19" d="M1375.86,219.32A11.3,11.3,0,0,1,1390,223a12.78,12.78,0,0,1-8.18.26A12.64,12.64,0,0,1,1375.86,219.32Z"/><path class="cls-19" d="M1375.86,219.32A7.34,7.34,0,1,0,1390,223a12,12,0,0,1-14.14-3.7Z"/><path class="cls-8" d="M1390.07,214.39l-.67-.92c2.92-2.11,3.68-4.28,3.29-4.9s-2.24-.52-3.44-.25l-.69.15V192h1.14v15.1c1.15-.17,3.21-.29,4,.88C1394.6,209.47,1393.06,212.23,1390.07,214.39Z"/><path class="cls-8" d="M1398.63,195.42c0,2.34.41,4.25.92,4.25s.91-1.91.91-4.25-.41-4.25-.91-4.25S1398.63,193.07,1398.63,195.42Z"/><path class="cls-8" d="M1374.35,195.42c0,2.34.41,4.25.91,4.25s.92-1.91.92-4.25-.41-4.25-.92-4.25S1374.35,193.07,1374.35,195.42Z"/><circle class="cls-12" cx="1361.89" cy="208.67" r="7.55"/><path class="cls-12" d="M1398.63,210.51a7.56,7.56,0,1,0,7.56-7.55A7.56,7.56,0,0,0,1398.63,210.51Z"/><path class="cls-8" d="M1385.22,224.49a12.4,12.4,0,0,1-6.27-1.65,13.18,13.18,0,0,1-5.88-8l1.1-.29a12,12,0,0,0,5.36,7.28,12.44,12.44,0,0,0,13.49-1.1l.67.92A14.49,14.49,0,0,1,1385.22,224.49Z"/><path class="cls-8" d="M1371.26,216.67a4,4,0,0,1-1-.13l.31-1.1a2.5,2.5,0,0,0,2.19-.42,2.44,2.44,0,0,0,.42-3l1-.53a3.59,3.59,0,0,1-.68,4.36A3.37,3.37,0,0,1,1371.26,216.67Z"/><path class="cls-8" d="M1366,181.7c0,.54,3,1,6.75,1s6.75-.43,6.75-1-3-1-6.75-1S1366,181.16,1366,181.7Z"/><path class="cls-8" d="M1395.35,182.67c0,.54,3,1,6.75,1s6.75-.43,6.75-1-3-1-6.75-1S1395.35,182.13,1395.35,182.67Z"/><path class="cls-11" d="M1390,142.91c-15.51-1.74-30.13,5.22-37,17.49-6.56,11.76-3.46,23.86-2.64,26.73A59.15,59.15,0,0,0,1390,142.91Z"/><path class="cls-12" d="M1432.79,439.6c-29.34,8.11-50.83,5.81-65.2,2.06-17.8-4.64-31.69-13.31-52.68-10.39a69.59,69.59,0,0,0-26.39,9.59c7.61-28.28,16.6-58.13,27.27-89.23,9.87-28.79,20.22-55.84,30.71-81.09h74.21a337.78,337.78,0,0,1,12.08,169.06Z"/><rect class="cls-18" x="1365.28" y="268.87" width="28.41" height="185.58"/><rect class="cls-13" x="1365.28" y="280.94" width="28.41" height="154.88"/><path class="cls-9" d="M1408.06,296.32a4.44,4.44,0,1,1-4.43-4.44A4.43,4.43,0,0,1,1408.06,296.32Z"/><path class="cls-9" d="M1408.06,326.43a4.44,4.44,0,1,1-4.43-4.44A4.43,4.43,0,0,1,1408.06,326.43Z"/><path class="cls-9" d="M1408.06,358.49a4.44,4.44,0,1,1-4.43-4.44A4.43,4.43,0,0,1,1408.06,358.49Z"/><path class="cls-9" d="M1408.06,388.6a4.44,4.44,0,1,1-4.43-4.43A4.43,4.43,0,0,1,1408.06,388.6Z"/><path class="cls-9" d="M1408.06,418.8a4.44,4.44,0,1,1-4.43-4.44A4.43,4.43,0,0,1,1408.06,418.8Z"/><path class="cls-13" d="M1274.23,565.71l-.09-1.51c5.71-.34,20.28-2.41,32.08-14.4,14.5-14.72,14.21-33.25,13.78-38.58l1.52-.12c.44,5.49.74,24.58-14.21,39.77C1295.13,563.23,1280.12,565.37,1274.23,565.71Z"/><path class="cls-13" d="M1461.7,569.11c-5.89-.34-20.9-2.48-33.08-14.84-15-15.19-14.66-34.28-14.21-39.77l1.52.12c-.44,5.33-.73,23.85,13.77,38.58,11.81,12,26.37,14.06,32.09,14.4Z"/><rect class="cls-9" x="1359.08" y="278.36" width="3.16" height="158.89"/><path class="cls-15" d="M1314.41,473.42l-4-12.35h119.13l-3.53,12.77Z"/><path class="cls-20" d="M1375.17,472.18a4.95,4.95,0,1,1-5-4.95A4.94,4.94,0,0,1,1375.17,472.18Z"/><rect class="cls-20" x="1316.73" y="471.64" width="46.72" height="1.96"/><rect class="cls-20" x="1377.94" y="471.64" width="46.72" height="1.96"/><path class="cls-5" d="M1750.19,269.22,1733.59,394A18.32,18.32,0,0,1,1713,409.68l-218.21-29.05a18.31,18.31,0,0,1-15.73-20.56l16.61-124.73a18.3,18.3,0,0,1,20.55-15.73l218.21,29A18.31,18.31,0,0,1,1750.19,269.22Z"/><path class="cls-21" d="M1708.88,399.73a19.8,19.8,0,0,1-2.42-.16l-202.66-27a17.52,17.52,0,0,1-15.32-19.44l15-112.37A17.51,17.51,0,0,1,1523.32,226L1726,253a17.9,17.9,0,0,1,11.77,6.66,16.94,16.94,0,0,1,3.56,12.78l-15,112.37A17.45,17.45,0,0,1,1708.88,399.73Zm-188-172.34a15.93,15.93,0,0,0-16,13.59l-15,112.37a16,16,0,0,0,14,17.73l202.65,27a16,16,0,0,0,18.17-13.45l15-112.37a15.42,15.42,0,0,0-3.24-11.64,16.42,16.42,0,0,0-10.78-6.09l-202.65-27A16.8,16.8,0,0,0,1520.89,227.39Z"/><path class="cls-7" d="M1750.19,269.22l-2.3,17.28L1493.4,252.62l2.3-17.28a18.3,18.3,0,0,1,20.55-15.73l218.21,29A18.31,18.31,0,0,1,1750.19,269.22Z"/><rect class="cls-21" x="1504.85" y="274.28" width="55.15" height="55.15" transform="matrix(0.99, 0.13, -0.13, 0.99, 53.23, -199.58)"/><path class="cls-11" d="M1552.06,325.11l-45.38-6.62c-2.24-4.29-1.87-6.54-1.16-7.8,1.73-3.06,6.75-2.45,8-5.92.49-1.4-.06-2.27.82-4a7.44,7.44,0,0,1,2.81-2.89,16.3,16.3,0,0,1,6.14-10.6,16,16,0,0,1,11.84-3.16h0a16,16,0,0,1,13.75,18,8.83,8.83,0,0,1,3,5.78c.1,2.76-1.72,3.69-1.28,6,.55,3,3.92,3.45,4.25,6.11C1555,321.16,1554.58,322.83,1552.06,325.11Z"/><rect class="cls-18" x="1523.92" y="311.44" width="15.52" height="18.31" transform="translate(3007.67 840.52) rotate(-172.42)"/><path class="cls-8" d="M1540.59,312.55l-1.83,13.75c-2.09.37-3.21-.09-3.86-.59-1.35-1-.75-2.4-2.33-4-1.18-1.17-2-1-3.17-2.3a6.41,6.41,0,0,1-1.21-2.35L1529,311Z"/><path class="cls-18" d="M1524.61,303.25c-1.13,8.48,2.92,16,9,16.84s12-5.41,13.13-13.89-2.92-16-9-16.85S1525.74,294.76,1524.61,303.25Z"/><path class="cls-18" d="M1519,302.49a3.59,3.59,0,1,0,4-3.08A3.59,3.59,0,0,0,1519,302.49Z"/><path class="cls-22" d="M1523.55,300.31a2.72,2.72,0,0,0-2.74.9,2.82,2.82,0,0,0,.48,3.73"/><path class="cls-18" d="M1543.22,305.67a3.59,3.59,0,1,0,4-3.09A3.59,3.59,0,0,0,1543.22,305.67Z"/><path class="cls-12" d="M1532.13,312.13a3.73,3.73,0,0,1,2.5.07,3.78,3.78,0,0,1,1.95,1.75,4.14,4.14,0,0,1-4.45-1.82Z"/><path class="cls-12" d="M1532.13,312.13a2.41,2.41,0,1,0,4.45,1.82,4,4,0,0,1-2.55-.16A3.9,3.9,0,0,1,1532.13,312.13Z"/><path class="cls-22" d="M1537.64,303.79l-.68,5.14c.06,0,1.1-.08,1.3.34s-.32,1.14-1.37,1.7"/><path class="cls-8" d="M1540.6,305.32c-.11.77-.06,1.4.11,1.43s.38-.59.48-1.35,0-1.41-.11-1.43S1540.7,304.55,1540.6,305.32Z"/><path class="cls-8" d="M1532.67,304.27c-.1.76-.05,1.4.12,1.42s.38-.58.48-1.35,0-1.4-.11-1.42S1532.78,303.5,1532.67,304.27Z"/><path class="cls-12" d="M1540.07,310.11a2.69,2.69,0,1,0,3-2.31A2.68,2.68,0,0,0,1540.07,310.11Z"/><path class="cls-12" d="M1526.25,307.42a2.68,2.68,0,1,0,3-2.31A2.68,2.68,0,0,0,1526.25,307.42Z"/><path class="cls-22" d="M1537.75,313.51a4.29,4.29,0,0,1-4.65-.25,4.14,4.14,0,0,1-1.5-2.73"/><path class="cls-22" d="M1531.74,309.58a1,1,0,0,1-.34,1.17,1,1,0,0,1-.91.06"/><path class="cls-8" d="M1530.54,299.43c0,.17.94.44,2.16.61s2.22.15,2.25,0-1-.44-2.16-.61S1530.56,299.25,1530.54,299.43Z"/><path class="cls-8" d="M1540.08,301c0,.17.94.45,2.16.61s2.22.15,2.24,0-.94-.44-2.16-.6S1540.1,300.84,1540.08,301Z"/><path class="cls-11" d="M1543,289.53a4.37,4.37,0,0,1-.7,3.71,4.32,4.32,0,0,1-5,1.1,3.24,3.24,0,0,1-2.82,2.28,3.21,3.21,0,0,1-2.89-1.47A6.08,6.08,0,0,1,1525,301c-.06-.3-1.11-6.84,3.67-10.95A11.93,11.93,0,0,1,1543,289.53Z"/><rect class="cls-21" x="1596.22" y="292.81" width="132.87" height="6.5" transform="translate(53.61 -216.82) rotate(7.58)"/><rect class="cls-21" x="1593.96" y="309.85" width="132.87" height="6.5" transform="translate(55.84 -216.37) rotate(7.58)"/><rect class="cls-21" x="1498.38" y="342.73" width="134.84" height="6.5" transform="translate(59.35 -203.6) rotate(7.58)"/><circle class="cls-23" cx="1702.39" cy="364.16" r="18.06" transform="matrix(1, -0.05, 0.05, 1, -15.08, 79.5)"/><path class="cls-18" d="M1581.36,283.89h0a10.23,10.23,0,0,1-8.25-11.89l8.24-45.66a10.24,10.24,0,0,1,11.89-8.25h0a10.24,10.24,0,0,1,8.25,11.89l-8.24,45.66A10.24,10.24,0,0,1,1581.36,283.89Z"/><path class="cls-18" d="M1641.47,296.47h0a10.23,10.23,0,0,1-8.25-11.88l8.24-45.67a10.24,10.24,0,0,1,11.89-8.25h0a10.24,10.24,0,0,1,8.25,11.89l-8.24,45.66A10.23,10.23,0,0,1,1641.47,296.47Z"/><path class="cls-18" d="M1601.5,287.53h0a10.23,10.23,0,0,1-8.25-11.89l9.24-51.2a10.23,10.23,0,0,1,11.88-8.25h0a10.23,10.23,0,0,1,8.26,11.89l-9.24,51.19A10.25,10.25,0,0,1,1601.5,287.53Z"/><path class="cls-18" d="M1621.64,291.16h0a10.23,10.23,0,0,1-8.25-11.89l9.24-51.19a10.23,10.23,0,0,1,11.88-8.26h0a10.23,10.23,0,0,1,8.25,11.89l-9.24,51.2A10.23,10.23,0,0,1,1621.64,291.16Z"/><path class="cls-24" d="M1608.51,216.52a10.14,10.14,0,0,1,5.72-.61h0a10.22,10.22,0,0,1,8.25,11.88l-9.24,51.2a10.22,10.22,0,0,1-11.88,8.25"/><line class="cls-24" x1="1641.76" y1="237.28" x2="1633.52" y2="282.91"/><line class="cls-24" x1="1601.49" y1="229.99" x2="1593.25" y2="275.62"/><path class="cls-12" d="M1581.28,286.89h0a7,7,0,0,1-5.67-8.17l.87-4.8a7,7,0,0,1,8.17-5.67h0a7,7,0,0,1,5.67,8.17l-.87,4.8A7,7,0,0,1,1581.28,286.89Z"/><path class="cls-12" d="M1601,290.45h0a7,7,0,0,1-5.67-8.17l.87-4.81a7,7,0,0,1,8.17-5.67h0A7,7,0,0,1,1610,280l-.87,4.8A7,7,0,0,1,1601,290.45Z"/><path class="cls-12" d="M1621.11,294.08h0a7,7,0,0,1-5.67-8.17l.87-4.8a7,7,0,0,1,8.17-5.68h0a7,7,0,0,1,5.67,8.18l-.87,4.8A7,7,0,0,1,1621.11,294.08Z"/><path class="cls-12" d="M1642,298.66h0a7,7,0,0,1-5.67-8.18l.87-4.8a7,7,0,0,1,8.17-5.67h0a7,7,0,0,1,5.67,8.17l-.87,4.8A7,7,0,0,1,1642,298.66Z"/></g></g><g id="Layer_3" data-name="Layer 3"><g class="cls-3"><rect class="cls-4" x="481.55" y="163.64" width="73.28" height="464.61"/><rect class="cls-4" x="396.11" y="340.5" width="85.44" height="290.04"/><rect class="cls-4" x="308.05" y="256.66" width="88.06" height="389.11"/><rect class="cls-4" x="194.91" y="305.94" width="113.13" height="329.87"/><rect class="cls-4" x="105.04" y="262.79" width="89.87" height="376.85"/><rect class="cls-4" x="-10.36" y="368.85" width="115.4" height="259.4"/></g></g><g id="Layer_4" data-name="Layer 4"><ellipse class="cls-5" cx="112.7" cy="622.79" rx="26.81" ry="38.3" transform="translate(-520.19 619.52) rotate(-79.45)"/><ellipse class="cls-5" cx="130.32" cy="604.4" rx="25.28" ry="42.13" transform="translate(-197.42 80.12) rotate(-19.84)"/><ellipse class="cls-5" cx="204.62" cy="589.85" rx="37.53" ry="21.45" transform="translate(-414.21 507.14) rotate(-63.26)"/><ellipse class="cls-5" cx="169.38" cy="603.64" rx="30.64" ry="58.21"/><ellipse class="cls-5" cx="261.3" cy="612.83" rx="24.51" ry="38.3" transform="translate(-271.41 212.75) rotate(-30)"/><ellipse class="cls-5" cx="221.47" cy="618.19" rx="40.6" ry="24.51" transform="translate(-337.19 273.07) rotate(-38.58)"/><ellipse class="cls-5" cx="291.94" cy="608.23" rx="21.45" ry="47.49"/><ellipse class="cls-5" cx="403" cy="612.06" rx="39.06" ry="25.28" transform="translate(-314.76 464.23) rotate(-45)"/><ellipse class="cls-5" cx="332.1" cy="608.98" rx="26.04" ry="59.32" transform="translate(-118.86 81.93) rotate(-11.95)"/><ellipse class="cls-5" cx="384.62" cy="602.87" rx="34.47" ry="23.74" transform="translate(-316.69 742.71) rotate(-68.74)"/><ellipse class="cls-5" cx="357.81" cy="586.02" rx="26.04" ry="43.66"/><ellipse class="cls-7" cx="196.19" cy="621.26" rx="37.53" ry="23.74" transform="translate(-425.21 425.53) rotate(-54.99)"/><ellipse class="cls-7" cx="173.21" cy="610.53" rx="19.15" ry="28.34"/><ellipse class="cls-7" cx="141.04" cy="620.49" rx="22.21" ry="30.64" transform="translate(-329.49 192.12) rotate(-34.88)"/><ellipse class="cls-7" cx="292.7" cy="625.85" rx="20.68" ry="31.4" transform="translate(-273.71 230.2) rotate(-30)"/><ellipse class="cls-7" cx="374.03" cy="622.66" rx="32.03" ry="17.53" transform="translate(-350.16 678.74) rotate(-63.43)"/><ellipse class="cls-7" cx="325.64" cy="612.83" rx="24.51" ry="36.77" transform="translate(-123.92 84.15) rotate(-12.39)"/><ellipse class="cls-7" cx="350.91" cy="607.85" rx="36.38" ry="19.15" transform="translate(-345.12 698.17) rotate(-67.4)"/><rect class="cls-6" x="-0.17" y="628.76" width="555.34" height="52.75"/></g></svg>