<svg id="Layer_1" data-name="Layer 1" xmlns="http://www.w3.org/2000/svg" viewBox="0 0 1164.49 435.09"><defs><style>.cls-1{fill:#252131;}.cls-2{fill:#dd5e5c;}.cls-3{fill:#faf5ac;}.cls-4{fill:#56c4c0;}</style></defs><path class="cls-1" d="M55.35,141.22h37c5,0,6.71-2.13,6.71-6.08v-.21c0-13.11,10.24-22.7,23.34-22.7s23.34,9.59,23.34,22.7v.21c0,4,1.82,6.08,6.82,6.08h36.88V97.52H55.35Z" transform="translate(-55.35 -34.82)"/><path class="cls-1" d="M122.38,134.72A23.07,23.07,0,0,0,99,157.48v92.87h46.68V158.06a23.06,23.06,0,0,0-22.78-23.34Z" transform="translate(-55.35 -34.82)"/><path class="cls-1" d="M241.75,150.17a42.37,42.37,0,0,0-6.61,17.48c-1.6,9.59-6.82,15.24-15.13,15.24a15,15,0,0,1-15-15v-.24c0-9.17,7.46-15.14,16-15.14h7.56a5.84,5.84,0,0,0,6.17-5.48,3.9,3.9,0,0,0,0-.59v-9.59H196.24v113.5h45V203.88c0-17.9,13.74-26.43,26-26.43a38.83,38.83,0,0,1,10.23,1.28V135.78a29,29,0,0,0-6.29-.64C258.48,135.14,248.14,140.58,241.75,150.17Z" transform="translate(-55.35 -34.82)"/><path class="cls-1" d="M403.74,246.19c-3.09-2.34-4.37-13.1-4.37-21.63v-45.4c0-27.71-18.11-45.4-55.52-45.4-34.85,0-56.7,16-57.77,40h46.26c.21-7.14,4.58-11.93,12.25-11.93,6.29,0,10,3.62,10,8.84,0,6-3.73,8.74-13.11,9.91l-21.42,2.77c-23.34,3-36.87,12.69-36.87,34.75S299,253.48,320.7,253.48c17.16,0,28.46-7.67,34.64-17.8a94.59,94.59,0,0,0,2,14.71H403.7ZM369.85,203h-6.07c-4.59,0-6.5,1.07-7.68,5.22l-.64,2.35c-2.34,8.52-7.67,13.11-15.24,13.11-6.6,0-11.19-3.73-11.19-10,0-7,5-10.34,12.05-11.83l4.69-1,3.62-.75c4.58-1,5.86-3.73,5.86-8.1v-3.73A14.6,14.6,0,1,1,369.85,203Z" transform="translate(-55.35 -34.82)"/><path class="cls-1" d="M527.69,181c0-8.74,3.94-14.39,12-14.39,6.93,0,10.23,4.59,10.23,11.73v72h45V175.22c0-24.84-13.53-41.46-37.3-41.46-22.92,0-34.32,12.47-37.62,33.89-1.49,9.59-6.93,15.24-15.24,15.24-8.74,0-15-6.72-15-15.24,0-8.74,6.93-15.14,15.88-15.14h9c3.73,0,6.18-2.34,6.18-6.07v-9.59h-38v113.5h45Z" transform="translate(-55.35 -34.82)"/><path class="cls-1" d="M790.51,250.35V175.22c0-24.84-13.54-41.46-37.31-41.46-22.91,0-34.31,12.47-37.62,33.89-1.49,9.59-6.92,15.24-15.24,15.24-8.74,0-15-6.72-15-15.24,0-8.74,6.92-15.14,15.88-15.14h8.95c3.73,0,6.18-2.34,6.18-6.07v-9.59H678.28v113.5h45V181c0-8.74,3.94-14.39,12-14.39,6.93,0,10.23,4.59,10.23,11.73v72Z" transform="translate(-55.35 -34.82)"/><path class="cls-1" d="M850.83,244.7c11.08,0,19.5-3.3,24.94-9.59a30.36,30.36,0,0,0,6.28-14.17c1.5-8.53,7.25-14.71,15.78-14.71,8.95,0,15,6.39,15,15.35s-7.24,15-16.19,15h-9.17a5.58,5.58,0,0,0-5.45,5.69c0,.06,0,.12,0,.18v7.88c0,8.74-4.79,14.18-14,14.18-8.31,0-14-4.59-14.39-12.47h-46c.43,25.79,19.19,41.77,60.86,41.77,35.6,0,59.36-15.56,59.36-47.85V136.85h-45.4v15.56C876.41,140.47,866,133.76,851,133.76c-28.14,0-45.83,22.91-45.83,56S822.9,244.7,850.83,244.7Zm16.41-78.65c9.8,0,15.24,8.74,15.24,23.23s-5.44,23.13-15.24,23.13-15.35-8.74-15.35-23.13,5.55-23.23,15.35-23.23Z" transform="translate(-55.35 -34.82)"/><path class="cls-1" d="M613.66,209.08h0v39.37a22.56,22.56,0,0,1,45,0V209.08h.13v-92h37.69L636.16,34.82l-60.3,82.24h37.8Zm22.5-138.86A17.17,17.17,0,0,1,653.09,87.5c0,9.54-7.65,17.41-16.93,17.41S619.35,97,619.35,87.5A17.06,17.06,0,0,1,636.16,70.22Z" transform="translate(-55.35 -34.82)"/><path class="cls-1" d="M540.34,388.7c-1,5.76-.68,8.36,2.71,11.86l5.42,5.76a18.31,18.31,0,0,1,5.2,12.76,17.85,17.85,0,1,1-35.69.84q0-.42,0-.84a18.18,18.18,0,0,1,5.08-12.76l5.42-5.76c3.62-4.07,3.62-6.33,2.6-12.09l-12.65-83.8h-57.6l-14.46,83.8c-1,5.76-1,8,2.6,12.09l5.42,5.76a18.18,18.18,0,0,1,5.08,12.76,17.85,17.85,0,1,1-35.69.84q0-.42,0-.84a18.31,18.31,0,0,1,5.2-12.76l5.42-5.76c3.62-3.84,3.5-6,2.71-11.86l-11.86-84H375.67L409,466.7h58.84l16.61-89c.9-4.74.22-6.89-3.05-10.5l-5.54-5.88a18.86,18.86,0,0,1-5.08-12.87,17.85,17.85,0,1,1,35.69-.84q0,.42,0,.84a18.57,18.57,0,0,1-5.08,12.76l-5.65,6c-3.05,3.27-3.5,5.87-2.94,10.61L506,466.63h61l33.54-162H553.1Z" transform="translate(-55.35 -34.82)"/><path class="cls-1" d="M695.08,343.07c-22.93,0-35.57,13.89-40.66,35.92-2.37,10.16-8.13,16.15-16.94,16.15-9.26,0-15.92-7.12-15.92-16.15,0-9.27,7.34-16,16.83-16h9.48c6.78,0,10.84-4.29,10.84-11.3V316.16h0V269.34h0a22.55,22.55,0,0,0-45.09,0h0v35.33l-.33,162h48.27V393.1c0-9.26,4.63-15.24,12.76-15.24,7.34,0,10.84,4.85,10.84,12.42v76.35h47.67v-80.3C732.81,360,719.14,343.07,695.08,343.07Z" transform="translate(-55.35 -34.82)"/><path class="cls-1" d="M813.68,343.07C776,343.07,748,365,748,406.77c0,42,25.41,63.14,65.73,63.14,35.35,0,58.5-14.8,62.46-42.81H828.47c-1.13,7.68-5.87,12.31-14.57,12.31-9.93,0-15.13-7-15.69-15.13-.23-3.17-1.92-4.86-5.09-4.86h-3.27c-9,0-15.93-5.76-15.93-14.8s6.89-14.79,15.93-14.79h2.48c3.73,0,5.08-1.36,5.88-4.63,1.79-8.13,7.11-13.2,15.69-13.2s14.91,5,15,18.75H810c-9,0-15,5.31-15,13.89s6,13.9,15,13.9h66.41c.23-4,.23-8.59.23-13.22C876.59,364.87,849.71,343.07,813.68,343.07Z" transform="translate(-55.35 -34.82)"/><path class="cls-1" d="M954.3,343.07c-37.72,0-65.73,21.91-65.73,63.7,0,42,25.41,63.14,65.73,63.14,35.35,0,58.5-14.8,62.46-42.81H969.09c-1.13,7.68-5.87,12.31-14.57,12.31-9.93,0-15.13-7-15.69-15.13-.23-3.17-1.92-4.86-5.09-4.86h-3.27c-9,0-15.93-5.76-15.93-14.8s6.89-14.79,15.93-14.79H933c3.73,0,5.08-1.36,5.88-4.63,1.8-8.13,7.11-13.22,15.69-13.22s14.91,5,15,18.75h-19c-9,0-15,5.31-15,13.89s6,13.9,15,13.9H1017c.23-4,.23-8.59.23-13.22C1017.21,364.87,990.33,343.07,954.3,343.07Z" transform="translate(-55.35 -34.82)"/><rect class="cls-1" x="978.58" y="269.85" width="47.66" height="161.96"/><path class="cls-1" d="M1180.08,390.73l-23.15-4.4c-6.89-1.36-9.94-3.62-9.94-7.8,0-4.85,4.18-8.13,10.39-8.13,7.45,0,10.95,4.18,10.95,11.3h49.25c-1.36-20.78-19.65-38.63-59.07-38.63-38.06,0-59.64,16.72-59.64,41.68,0,19.65,11.64,31.73,39.42,37l23.27,4.41c6.55,1.24,9.94,2.93,9.94,7.79s-3.62,8.13-11.07,8.13c-8.36,0-13.22-4.86-13.22-12.31h-50.14c1.13,25.75,25,40.1,62.68,40.1,33.77,0,60.09-12.77,60.09-41.68C1219.84,408.35,1209.9,396.38,1180.08,390.73Zm-20.55,27.79a12.71,12.71,0,1,1,12.76-12.77,12.41,12.41,0,0,1-12,12.77Z" transform="translate(-55.35 -34.82)"/><path class="cls-1" d="M440.71,155.4a22.57,22.57,0,1,0-22.57-22.57,22.56,22.56,0,0,0,22.57,22.57Z" transform="translate(-55.35 -34.82)"/><path class="cls-1" d="M440.71,175.93a22.56,22.56,0,0,1-22.57-22.55v97h45.13v-97a22.56,22.56,0,0,1-22.55,22.57Z" transform="translate(-55.35 -34.82)"/><circle class="cls-2" cx="581.1" cy="52.34" r="17.74"/><circle class="cls-3" cx="580.87" cy="106.86" r="17.74"/><circle class="cls-4" cx="581.1" cy="161.38" r="17.74"/></svg>