<svg id="Layer_1" data-name="Layer 1" xmlns="http://www.w3.org/2000/svg" viewBox="0 0 1284.9 513.74"><defs><style>.cls-1{fill:#2d2f44;}.cls-2{fill:#fff;}.cls-3{fill:#dd5e5c;}.cls-4{fill:#faf5ac;}.cls-5{fill:#56c4c0;}</style></defs><path class="cls-1" d="M55.35,141.22h37c5,0,6.71-2.13,6.71-6.08v-.21c0-13.11,10.24-22.7,23.34-22.7s23.34,9.59,23.34,22.7v.21c0,4,1.82,6.08,6.82,6.08h36.88V97.52H55.35Z"/><path class="cls-1" d="M122.38,134.72A23.07,23.07,0,0,0,99,158.06v92.29h46.68V158.06A23.06,23.06,0,0,0,122.38,134.72Z"/><path class="cls-1" d="M241.75,150.17a42.42,42.42,0,0,0-6.61,17.48c-1.6,9.59-6.82,15.24-15.13,15.24a15,15,0,0,1-15-15.24c0-9.17,7.46-15.14,16-15.14h7.56a5.84,5.84,0,0,0,6.18-6.07v-9.59H196.24v113.5h45V203.88c0-17.9,13.74-26.43,26-26.43a38.51,38.51,0,0,1,10.23,1.28V135.78a28.91,28.91,0,0,0-6.29-.64C258.48,135.14,248.14,140.58,241.75,150.17Z"/><path class="cls-1" d="M403.74,246.19c-3.09-2.34-4.37-13.1-4.37-21.63v-45.4c0-27.71-18.11-45.4-55.52-45.4-34.85,0-56.7,16-57.77,40h46.26c.21-7.14,4.58-11.93,12.25-11.93,6.29,0,10,3.62,10,8.84,0,6-3.73,8.74-13.11,9.91l-21.42,2.77c-23.34,3-36.87,12.69-36.87,34.75s15.77,35.38,37.51,35.38c17.16,0,28.46-7.67,34.64-17.8a95.24,95.24,0,0,0,2,14.71h46.36ZM369.85,203h-6.07c-4.59,0-6.5,1.07-7.68,5.22l-.64,2.35c-2.34,8.52-7.67,13.11-15.24,13.11-6.6,0-11.19-3.73-11.19-10,0-7,5-10.34,12.05-11.83l4.69-1,3.62-.75c4.58-1,5.86-3.73,5.86-8.1v-3.73A14.6,14.6,0,1,1,369.85,203Z"/><path class="cls-1" d="M527.69,181c0-8.74,3.94-14.39,12-14.39,6.93,0,10.23,4.59,10.23,11.73v72h45V175.22c0-24.84-13.53-41.46-37.3-41.46-22.92,0-34.32,12.47-37.62,33.89-1.49,9.59-6.93,15.24-15.24,15.24-8.74,0-15-6.72-15-15.24,0-8.74,6.93-15.14,15.88-15.14h9c3.73,0,6.18-2.34,6.18-6.07v-9.59h-38v113.5h45Z"/><path class="cls-1" d="M790.51,250.35V175.22c0-24.84-13.54-41.46-37.31-41.46-22.91,0-34.31,12.47-37.62,33.89-1.49,9.59-6.92,15.24-15.24,15.24-8.74,0-15-6.72-15-15.24,0-8.74,6.92-15.14,15.88-15.14h8.95c3.73,0,6.18-2.34,6.18-6.07v-9.59H678.28v113.5h45V181c0-8.74,3.94-14.39,12-14.39,6.93,0,10.23,4.59,10.23,11.73v72Z"/><path class="cls-1" d="M850.83,244.7c11.08,0,19.5-3.3,24.94-9.59a30.37,30.37,0,0,0,6.28-14.17c1.5-8.53,7.25-14.71,15.78-14.71,8.95,0,15,6.39,15,15.35s-7.24,15-16.19,15h-9.17a5.57,5.57,0,0,0-5.44,5.87v7.88c0,8.74-4.79,14.18-14,14.18-8.31,0-14-4.59-14.39-12.47h-46c.43,25.79,19.19,41.77,60.86,41.77,35.6,0,59.36-15.56,59.36-47.85V136.85h-45.4v15.56C876.41,140.47,866,133.76,851,133.76c-28.14,0-45.83,22.91-45.83,56S822.9,244.7,850.83,244.7Zm16.41-78.65c9.8,0,15.24,8.74,15.24,23.23s-5.44,23.13-15.24,23.13-15.35-8.74-15.35-23.13S857.44,166.05,867.24,166.05Z"/><path class="cls-1" d="M613.66,209.08h0v39.37a22.56,22.56,0,0,1,45,0V209.08h.13v-92h37.69L636.16,34.82l-60.3,82.24h37.8Zm22.5-138.86A17.16,17.16,0,0,1,653.09,87.5c0,9.54-7.65,17.41-16.93,17.41S619.35,97,619.35,87.5A17.06,17.06,0,0,1,636.16,70.22Z"/><path class="cls-1" d="M540.34,388.7c-1,5.76-.68,8.36,2.71,11.86l5.42,5.76a18.32,18.32,0,0,1,5.2,12.76,17.85,17.85,0,1,1-35.69,0,18.18,18.18,0,0,1,5.08-12.76l5.42-5.76c3.62-4.07,3.62-6.33,2.6-12.09l-12.65-83.8h-57.6l-14.46,83.8c-1,5.76-1,8,2.6,12.09l5.42,5.76a18.18,18.18,0,0,1,5.08,12.76,17.85,17.85,0,1,1-35.69,0,18.32,18.32,0,0,1,5.2-12.76l5.42-5.76c3.62-3.84,3.5-6,2.71-11.86l-11.86-84H375.67l33.32,162h58.84l16.61-89c.9-4.74.22-6.89-3.05-10.5l-5.54-5.88a18.84,18.84,0,0,1-5.08-12.87,17.85,17.85,0,1,1,35.69,0,18.6,18.6,0,0,1-5.08,12.76l-5.65,6c-3.05,3.27-3.5,5.87-2.94,10.61L506,466.63h61l33.54-162H553.1Z"/><path class="cls-1" d="M695.08,343.07c-22.93,0-35.57,13.89-40.66,35.92-2.37,10.16-8.13,16.15-16.94,16.15-9.26,0-15.92-7.12-15.92-16.15,0-9.27,7.34-16,16.83-16h9.48c6.78,0,10.84-4.29,10.84-11.3V316.16h0V269.34h0a22.55,22.55,0,0,0-45.09,0h0v35.33l-.33,162h48.27V393.1c0-9.26,4.63-15.24,12.76-15.24,7.34,0,10.84,4.85,10.84,12.42v76.35h47.67v-80.3C732.81,360,719.14,343.07,695.08,343.07Z"/><path class="cls-1" d="M813.68,343.07C776,343.07,748,365,748,406.77c0,42,25.41,63.14,65.73,63.14,35.35,0,58.5-14.8,62.46-42.81H828.47c-1.13,7.68-5.87,12.31-14.57,12.31-9.93,0-15.13-7-15.69-15.13-.23-3.17-1.92-4.86-5.09-4.86h-3.27c-9,0-15.93-5.76-15.93-14.8s6.89-14.79,15.93-14.79h2.48c3.73,0,5.08-1.36,5.88-4.63C800,377.07,805.32,372,813.9,372s14.91,5,15,18.75H810c-9,0-15,5.31-15,13.89s6,13.9,15,13.9h66.41c.23-4,.23-8.59.23-13.22C876.59,364.87,849.71,343.07,813.68,343.07Z"/><path class="cls-1" d="M954.3,343.07c-37.72,0-65.73,21.91-65.73,63.7,0,42,25.41,63.14,65.73,63.14,35.35,0,58.5-14.8,62.46-42.81H969.09c-1.13,7.68-5.87,12.31-14.57,12.31-9.93,0-15.13-7-15.69-15.13-.23-3.17-1.92-4.86-5.09-4.86h-3.27c-9,0-15.93-5.76-15.93-14.8s6.89-14.79,15.93-14.79H933c3.73,0,5.08-1.36,5.88-4.63,1.8-8.13,7.11-13.22,15.69-13.22s14.91,5,15,18.75h-19c-9,0-15,5.31-15,13.89s6,13.9,15,13.9H1017c.23-4,.23-8.59.23-13.22C1017.21,364.87,990.33,343.07,954.3,343.07Z"/><rect class="cls-1" x="1033.93" y="304.67" width="47.66" height="161.96"/><path class="cls-1" d="M1180.08,390.73l-23.15-4.4c-6.89-1.36-9.94-3.62-9.94-7.8,0-4.85,4.18-8.13,10.39-8.13,7.45,0,10.95,4.18,10.95,11.3h49.25c-1.36-20.78-19.65-38.63-59.07-38.63-38.06,0-59.64,16.72-59.64,41.68,0,19.65,11.64,31.73,39.42,37l23.27,4.41c6.55,1.24,9.94,2.93,9.94,7.79s-3.62,8.13-11.07,8.13c-8.36,0-13.22-4.86-13.22-12.31h-50.14c1.13,25.75,25,40.1,62.68,40.1,33.77,0,60.09-12.77,60.09-41.68C1219.84,408.35,1209.9,396.38,1180.08,390.73Zm-20.55,27.79a12.71,12.71,0,1,1,12.76-12.77A12.41,12.41,0,0,1,1159.53,418.52Z"/><path class="cls-1" d="M440.71,155.4a22.57,22.57,0,1,0-22.57-22.57A22.56,22.56,0,0,0,440.71,155.4Z"/><path class="cls-1" d="M440.71,175.93a22.56,22.56,0,0,1-22.57-22.57v97h45.13v-97A22.56,22.56,0,0,1,440.71,175.93Z"/><path class="cls-2" d="M417.52,155.88a6.19,6.19,0,0,0,3.28-.17,1.63,1.63,0,0,0,.9-.69,1.52,1.52,0,0,0,.15-1.16,1.55,1.55,0,0,0-.69-.9,1.52,1.52,0,0,0-1.16-.15,4.67,4.67,0,0,1-.91.23l.4-.06a4.83,4.83,0,0,1-1.26,0l.4,0-.32,0a1.59,1.59,0,0,0-1.15.15,1.52,1.52,0,0,0-.69.9,1.49,1.49,0,0,0,.15,1.15,1.45,1.45,0,0,0,.9.69Z"/><path class="cls-2" d="M461.74,155.23a6.27,6.27,0,0,0,2.89,0,6.19,6.19,0,0,0,2.55-1.27,1.49,1.49,0,0,0,.43-1.06,1.49,1.49,0,0,0-1.5-1.5l-.39.06a1.54,1.54,0,0,0-.67.38l-.05,0,.31-.23a4.74,4.74,0,0,1-1,.57l.35-.15a5,5,0,0,1-1.2.33l.4-.05a5.23,5.23,0,0,1-1.25,0l.39.05-.49-.1a1.54,1.54,0,0,0-1.15.15,1.49,1.49,0,0,0-.69.9,1.51,1.51,0,0,0,1,1.84Z"/><path class="cls-2" d="M614.29,249.33l.07-.07-.3.24a1,1,0,0,1,.22-.13l-.36.15a1.09,1.09,0,0,1,.31-.08l-.4.05a1.71,1.71,0,0,1,.32,0l-.4-.05a1.11,1.11,0,0,1,.26.07l-.36-.15a.72.72,0,0,1,.21.12,1.12,1.12,0,0,0,.56.18,1.22,1.22,0,0,0,.6,0,1.26,1.26,0,0,0,.51-.27,1.18,1.18,0,0,0,.38-.42l.16-.36a1.55,1.55,0,0,0,0-.8l-.16-.36a1.5,1.5,0,0,0-.53-.53.75.75,0,0,0-.17-.1,2.66,2.66,0,0,0-.53-.21,3.75,3.75,0,0,0-.57-.09.74.74,0,0,0-.21,0,2.43,2.43,0,0,0-.76.13,3.08,3.08,0,0,0-.52.24l-.23.17a1.74,1.74,0,0,0-.22.18,1,1,0,0,0-.31.48,1.06,1.06,0,0,0-.13.58,1.08,1.08,0,0,0,.13.58,1.14,1.14,0,0,0,.31.48l.3.23a1.45,1.45,0,0,0,.76.21l.4-.06a1.57,1.57,0,0,0,.66-.38Z"/><path class="cls-2" d="M657.93,250l2.05.33a1.19,1.19,0,0,0,.59,0,1.34,1.34,0,0,0,1-.57,1,1,0,0,0,.27-.51,1.52,1.52,0,0,0-.15-1.16l-.23-.3a1.54,1.54,0,0,0-.67-.38l-2-.34a1.69,1.69,0,0,0-1.15.16,1,1,0,0,0-.42.38,1.06,1.06,0,0,0-.27.51,1.51,1.51,0,0,0,.15,1.16l.23.3a1.47,1.47,0,0,0,.67.39Z"/><path class="cls-2" d="M660.51,248.3v-.14a1.22,1.22,0,0,0-.13-.57,1.32,1.32,0,0,0-.8-.8,1.25,1.25,0,0,0-.57-.13l-.4.06a1.54,1.54,0,0,0-.67.38l-.23.31a1.41,1.41,0,0,0-.2.75v.14a1.14,1.14,0,0,0,.12.58,1.28,1.28,0,0,0,.31.48,1.11,1.11,0,0,0,.49.31,1.06,1.06,0,0,0,.58.13l.39-.05a1.47,1.47,0,0,0,.67-.39l.23-.3a1.58,1.58,0,0,0,.21-.76Z"/><path class="cls-2" d="M658.87,246.11h-.14a1.27,1.27,0,0,0-.58.13,1.24,1.24,0,0,0-.48.31,1.72,1.72,0,0,0-.44,1.06l0,.4a1.47,1.47,0,0,0,.39.66l.3.24a1.57,1.57,0,0,0,.76.2h.14a1.08,1.08,0,0,0,.58-.13,1.14,1.14,0,0,0,.48-.31,1.11,1.11,0,0,0,.31-.48,1.15,1.15,0,0,0,.13-.58l-.06-.4a1.57,1.57,0,0,0-.38-.66l-.3-.23a1.48,1.48,0,0,0-.76-.21Z"/><path class="cls-2" d="M614,249.39a1.5,1.5,0,0,0,0-3,1.5,1.5,0,0,0,0,3Z"/><circle class="cls-3" cx="636.45" cy="87.16" r="17.74"/><circle class="cls-4" cx="636.22" cy="141.68" r="17.74"/><circle class="cls-5" cx="636.45" cy="196.2" r="17.74"/></svg>