<svg id="Layer_1" data-name="Layer 1" xmlns="http://www.w3.org/2000/svg" viewBox="0 0 1800 1800"><defs><style>.cls-1{fill:#252131;}.cls-2{fill:#47a8a5;}.cls-3{fill:#ede99e;}.cls-4{fill:#c95655;}</style></defs><path class="cls-1" d="M1235.06,713.7l-33.53,228.71c-2.67,15.67-1.78,22.74,7.12,32.27l14.24,15.68a50.83,50.83,0,0,1,13.65,34.74c0,26.74-20.77,48.56-46.88,48.56s-46.88-21.82-46.88-48.56a50.56,50.56,0,0,1,13.35-34.74l14.24-15.68c9.5-11.06,9.5-17.21,6.83-32.89L1144,713.7H992.65l-38,228.09c-2.66,15.68-2.66,21.83,6.83,32.89l14.24,15.68a50.51,50.51,0,0,1,13.35,34.74c0,26.74-20.77,48.56-46.88,48.56s-46.88-21.82-46.88-48.56A50.88,50.88,0,0,1,909,990.36l14.25-15.68c9.49-10.45,9.19-16.29,7.12-32.27l-11.43-83.88H822.54a20.39,20.39,0,0,0-20,24.37l53.93,271.61h154.58l43.61-242.23c2.38-12.91.6-18.75-8-28.59l-14.54-16a52.34,52.34,0,0,1-13.35-35c0-27,21.07-48.57,46.88-48.57s46.88,21.52,46.88,48.57a51.59,51.59,0,0,1-13.35,34.73l-14.84,16.29c-8,8.92-9.19,16-7.71,28.9l34.71,241.92h160.22l88.12-440.81Z"/><path class="cls-1" d="M723,820.43c-37.66,0-67,29.56-67,67.43v266.65H790.07V887.86C790.07,850,760.69,820.43,723,820.43Z"/><path class="cls-1" d="M915.57,839.1V713.6H530.5V839.1H636.71C651.1,839.1,656,833,656,821.66V821c0-37.65,29.38-65.2,67-65.2s67,27.55,67,65.2v.62c0,11.32,5.21,17.44,19.59,17.44Z"/><circle class="cls-2" cx="1189.78" cy="1024.8" r="48.42"/><circle class="cls-3" cx="1065.72" cy="831.1" r="48.42"/><circle class="cls-4" cx="941.94" cy="1025.23" r="48.42"/></svg>