<svg xmlns="http://www.w3.org/2000/svg" viewBox="0 0 829.17 440.91"><defs><style>.cls-1{fill:#252131;}.cls-2{fill:#47a8a5;}.cls-3{fill:#ede99e;}.cls-4{fill:#c95655;}</style></defs><g id="Layer_2" data-name="Layer 2"><g id="Layer_1-2" data-name="Layer 1"><path class="cls-1" d="M704.56.1,671,228.8c-2.67,15.68-1.78,22.75,7.12,32.28l14.24,15.68A50.83,50.83,0,0,1,706,311.5c0,26.74-20.77,48.56-46.88,48.56s-46.87-21.82-46.87-48.56a50.51,50.51,0,0,1,13.35-34.74l14.24-15.68c9.49-11.07,9.49-17.21,6.82-32.89L613.47.1H462.15l-38,228.09c-2.67,15.68-2.67,21.82,6.82,32.89l14.24,15.68A50.52,50.52,0,0,1,458.6,311.5c0,26.74-20.77,48.56-46.88,48.56s-46.88-21.82-46.88-48.56a50.83,50.83,0,0,1,13.65-34.74l14.24-15.68c9.49-10.45,9.2-16.29,7.12-32.28l-11.43-83.87H292.05a20.4,20.4,0,0,0-20,24.36L326,440.91H480.55l43.62-242.23c2.37-12.91.59-18.75-8-28.59l-14.53-16a52.37,52.37,0,0,1-13.35-35.05c0-27,21.06-48.56,46.87-48.56S582,92,582,119.06a51.59,51.59,0,0,1-13.35,34.74l-14.83,16.29c-8,8.92-9.2,16-7.72,28.9l34.72,241.92H741.05L829.17.1Z"/><path class="cls-1" d="M192.54,108.79c-37.65,0-67,29.38-67,67V440.91H259.58V175.82C259.58,138.17,230.19,108.79,192.54,108.79Z"/><path class="cls-1" d="M385.08,125.5V0H0V125.5H106.22c14.38,0,19.28-6.12,19.28-17.45v-.61c0-37.65,29.39-65.2,67-65.2s67,27.55,67,65.2v.61c0,11.33,5.2,17.45,19.59,17.45Z"/><circle class="cls-2" cx="659.28" cy="312.19" r="48.42"/><circle class="cls-3" cx="535.22" cy="117.5" r="48.42"/><circle class="cls-4" cx="411.45" cy="311.63" r="48.42"/></g></g></svg>