<svg xmlns="http://www.w3.org/2000/svg" viewBox="0 0 361.91 192.45"><defs><style>.cls-1{fill:#2d2f44;}.cls-2{fill:#47a8a5;}.cls-3{fill:#ede99e;}.cls-4{fill:#c95655;}</style></defs><g id="Layer_2" data-name="Layer 2"><g id="Layer_1-2" data-name="Layer 1"><path class="cls-1" d="M307.52,0,292.89,99.87c-1.17,6.84-.78,9.93,3.11,14.09l6.21,6.84a22.15,22.15,0,0,1,6,15.16c0,11.67-9.07,21.2-20.46,21.2s-20.46-9.53-20.46-21.2a22,22,0,0,1,5.82-15.16l6.22-6.84c4.14-4.84,4.14-7.52,3-14.36L267.76,0h-66L185.14,99.6c-1.16,6.84-1.16,9.52,3,14.36l6.22,6.84A22.06,22.06,0,0,1,200.17,136c0,11.67-9.07,21.2-20.47,21.2s-20.46-9.53-20.46-21.2a22.2,22.2,0,0,1,6-15.16l6.22-6.84c4.14-4.57,4-7.12,3.1-14.09l-5-36.61H127.47a8.9,8.9,0,0,0-8.73,10.63l23.54,118.56h67.47l19-105.73c1-5.64.25-8.19-3.5-12.48l-6.35-7A22.84,22.84,0,0,1,213.12,52c0-11.81,9.19-21.2,20.46-21.2S254,40.16,254,52a22.56,22.56,0,0,1-5.83,15.16l-6.47,7.11c-3.5,3.89-4,7-3.37,12.61l15.15,105.6h69.93L361.91,0Z"/><path class="cls-1" d="M84,46.63A28.91,28.91,0,0,0,54.78,75.89v115.7H113.3V75.89A28.91,28.91,0,0,0,84,46.63Z"/><path class="cls-1" d="M168.08,54.78V0H0V54.78H46.36c6.28,0,8.42-2.67,8.42-7.62V46.9C54.78,30.46,67.6,18.44,84,18.44s29.26,12,29.26,28.46v.26c0,5,2.27,7.62,8.55,7.62Z"/><circle class="cls-2" cx="287.32" cy="136.7" r="21.14"/><circle class="cls-3" cx="233.61" cy="51.29" r="21.14"/><circle class="cls-4" cx="179.59" cy="135.58" r="21.14"/></g></g></svg>