<svg width="200" height="200" viewBox="0 0 200 200" fill="none" xmlns="http://www.w3.org/2000/svg">
<g clip-path="url(#clip0_695_1355)">
<path fill-rule="evenodd" clip-rule="evenodd" d="M145.597 89.311L178.133 145.664C185.346 158.159 179.498 168.287 165.071 168.287H100H34.9289C20.5015 168.287 14.6538 158.159 21.8674 145.664L54.4029 89.311L86.9386 32.9577C94.1521 20.4633 105.848 20.4633 113.061 32.9577L145.597 89.311Z" fill="white"/>
<path fill-rule="evenodd" clip-rule="evenodd" d="M143.443 90.5792L175.968 146.913C181.998 157.358 177.11 165.825 165.049 165.825H100H34.9511C22.8904 165.825 18.0018 157.358 24.0322 146.913L56.5566 90.5792L89.081 34.2452C95.1113 23.8003 104.889 23.8003 110.919 34.2452L143.443 90.5792Z" fill="#DE5E5D"/>
<path fill-rule="evenodd" clip-rule="evenodd" d="M98.4693 44.8239L129.333 98.2805L160.196 151.737H98.4693H36.7429L67.6062 98.2805L98.4693 44.8239Z" fill="white"/>
<path d="M72.1286 140.911C72.1286 140.911 69.6132 119.654 79.5257 107.727C84.2001 102.102 91.5468 100.33 103.366 99.8537C108.98 99.6273 115.834 100.187 124.101 100.962" stroke="#1E1C29" stroke-width="10" stroke-miterlimit="10" stroke-linecap="round" stroke-linejoin="round"/>
<path fill-rule="evenodd" clip-rule="evenodd" d="M72.1633 134.386L77.1447 141.127L82.1264 147.868L71.9861 147.703L61.8457 147.537L67.0045 140.962L72.1633 134.386Z" fill="white"/>
<path fill-rule="evenodd" clip-rule="evenodd" d="M129.98 110.334L122.973 101.342L117.533 94.2236L125.752 92.5004L130.598 100.844L129.98 110.334Z" fill="white"/>
<path fill-rule="evenodd" clip-rule="evenodd" d="M129.086 116.466L121.178 112.122L113.271 107.777L121.184 103.443L129.098 99.1088L129.092 107.788L129.086 116.466Z" fill="white"/>
</g>
<defs>
<clipPath id="clip0_695_1355">
<rect width="200" height="200" fill="white"/>
</clipPath>
</defs>
</svg>
