{
  "accessors": [
    {
      "bufferView": 2,
      "componentType": 5126,
      "count": 62347,
      "max": [
        4.027815818786621,
        1.9403231143951416,
        5.701014518737793
      ],
      "min": [
        -2.969327688217163,
        -1.9403232336044312,
        0.651624321937561
      ],
      "type": "VEC3"
    },
    {
      "bufferView": 2,
      "byteOffset": 748164,
      "componentType": 5126,
      "count": 62347,
      "max": [
        1.0,
        1.0,
        1.0
      ],
      "min": [
        -1.0,
        -1.0,
        -1.0
      ],
      "type": "VEC3"
    },
    {
      "bufferView": 1,
      "componentType": 5126,
      "count": 62347,
      "max": [
        1.0000001192092896,
        1.0000001192092896
      ],
      "min": [
        -1.8626454334480513e-07,
        0.0
      ],
      "type": "VEC2"
    },
    {
      "bufferView": 0,
      "componentType": 5125,
      "count": 308808,
      "type": "SCALAR"
    },
    {
      "bufferView": 2,
      "byteOffset": 1496328,
      "componentType": 5126,
      "count": 65532,
      "max": [
        4.771145343780518,
        1.511351466178894,
        4.833763122558594
      ],
      "min": [
        -3.5955536365509033,
        -1.5113517045974731,
        -0.0006190894637256861
      ],
      "type": "VEC3"
    },
    {
      "bufferView": 2,
      "byteOffset": 2282712,
      "componentType": 5126,
      "count": 65532,
      "max": [
        1.0,
        1.0,
        1.0
      ],
      "min": [
        -1.0,
        -1.0,
        -1.0
      ],
      "type": "VEC3"
    },
    {
      "bufferView": 1,
      "byteOffset": 498776,
      "componentType": 5126,
      "count": 65532,
      "max": [
        1.0000001192092896,
        1.0000017881393433
      ],
      "min": [
        -1.8626454334480513e-07,
        0.0
      ],
      "type": "VEC2"
    },
    {
      "bufferView": 0,
      "byteOffset": 1235232,
      "componentType": 5125,
      "count": 332859,
      "type": "SCALAR"
    },
    {
      "bufferView": 2,
      "byteOffset": 3069096,
      "componentType": 5126,
      "count": 3487,
      "max": [
        4.2176079750061035,
        0.27145692706108093,
        2.001142740249634
      ],
      "min": [
        -3.1487629413604736,
        -0.2714572250843048,
        0.03894251212477684
      ],
      "type": "VEC3"
    },
    {
      "bufferView": 2,
      "byteOffset": 3110940,
      "componentType": 5126,
      "count": 3487,
      "max": [
        0.9923318028450012,
        1.0,
        1.0
      ],
      "min": [
        -0.9923318028450012,
        -1.0,
        -0.9923318028450012
      ],
      "type": "VEC3"
    },
    {
      "bufferView": 1,
      "byteOffset": 1023032,
      "componentType": 5126,
      "count": 3487,
      "max": [
        0.9999996423721313,
        1.000000238418579
      ],
      "min": [
        0.0,
        0.7500000596046448
      ],
      "type": "VEC2"
    },
    {
      "bufferView": 0,
      "byteOffset": 2566668,
      "componentType": 5125,
      "count": 13884,
      "type": "SCALAR"
    },
    {
      "bufferView": 2,
      "byteOffset": 3152784,
      "componentType": 5126,
      "count": 46176,
      "max": [
        4.695296764373779,
        1.0765247344970703,
        5.150997161865234
      ],
      "min": [
        -3.6532723903656006,
        -1.0765247344970703,
        0.9117004871368408
      ],
      "type": "VEC3"
    },
    {
      "bufferView": 2,
      "byteOffset": 3706896,
      "componentType": 5126,
      "count": 46176,
      "max": [
        1.0,
        1.0,
        0.9999974966049194
      ],
      "min": [
        -0.9999771118164063,
        -1.0,
        -1.0
      ],
      "type": "VEC3"
    },
    {
      "bufferView": 1,
      "byteOffset": 1050928,
      "componentType": 5126,
      "count": 46176,
      "max": [
        1.0000001192092896,
        1.000000238418579
      ],
      "min": [
        -1.8626454334480513e-07,
        -0.0019330079667270184
      ],
      "type": "VEC2"
    },
    {
      "bufferView": 0,
      "byteOffset": 2622204,
      "componentType": 5125,
      "count": 215526,
      "type": "SCALAR"
    },
    {
      "bufferView": 2,
      "byteOffset": 4261008,
      "componentType": 5126,
      "count": 2162,
      "max": [
        4.337731838226318,
        1.8670296669006348,
        5.627722263336182
      ],
      "min": [
        -1.9575738906860352,
        -1.8670297861099243,
        1.7804036140441895
      ],
      "type": "VEC3"
    },
    {
      "bufferView": 2,
      "byteOffset": 4286952,
      "componentType": 5126,
      "count": 2162,
      "max": [
        1.0,
        0.9999139308929443,
        1.0
      ],
      "min": [
        -1.0,
        -0.9999139308929443,
        -1.0
      ],
      "type": "VEC3"
    },
    {
      "bufferView": 1,
      "byteOffset": 1420336,
      "componentType": 5126,
      "count": 2162,
      "max": [
        1.000000238418579,
        1.000000238418579
      ],
      "min": [
        -1.564622067462551e-07,
        0.0
      ],
      "type": "VEC2"
    },
    {
      "bufferView": 0,
      "byteOffset": 3484308,
      "componentType": 5125,
      "count": 9696,
      "type": "SCALAR"
    },
    {
      "bufferView": 2,
      "byteOffset": 4312896,
      "componentType": 5126,
      "count": 1383,
      "max": [
        4.735139846801758,
        0.3815600574016571,
        2.6428472995758057
      ],
      "min": [
        4.121044635772705,
        -0.3815600574016571,
        1.8991012573242188
      ],
      "type": "VEC3"
    },
    {
      "bufferView": 2,
      "byteOffset": 4329492,
      "componentType": 5126,
      "count": 1383,
      "max": [
        0.9947723746299744,
        0.9923268556594849,
        0.9993369579315186
      ],
      "min": [
        -0.2802555561065674,
        -0.9923268556594849,
        -0.6171013116836548
      ],
      "type": "VEC3"
    },
    {
      "bufferView": 1,
      "byteOffset": 1437632,
      "componentType": 5126,
      "count": 1383,
      "max": [
        0.6562501788139343,
        0.7123915553092957
      ],
      "min": [
        0.6318079829216003,
        0.6250000596046448
      ],
      "type": "VEC2"
    },
    {
      "bufferView": 0,
      "byteOffset": 3523092,
      "componentType": 5125,
      "count": 6528,
      "type": "SCALAR"
    },
    {
      "bufferView": 2,
      "byteOffset": 4346088,
      "componentType": 5126,
      "count": 6233,
      "max": [
        4.742275238037109,
        0.9469978213310242,
        2.1421587467193604
      ],
      "min": [
        -0.0007304046303033829,
        -0.9469974637031555,
        0.2401197850704193
      ],
      "type": "VEC3"
    },
    {
      "bufferView": 2,
      "byteOffset": 4420884,
      "componentType": 5126,
      "count": 6233,
      "max": [
        1.0,
        1.0,
        1.0
      ],
      "min": [
        -1.0,
        -1.0,
        -1.0
      ],
      "type": "VEC3"
    },
    {
      "bufferView": 1,
      "byteOffset": 1448696,
      "componentType": 5126,
      "count": 6233,
      "max": [
        1.0000001192092896,
        1.0000001192092896
      ],
      "min": [
        -1.564622067462551e-07,
        0.0
      ],
      "type": "VEC2"
    },
    {
      "bufferView": 0,
      "byteOffset": 3549204,
      "componentType": 5125,
      "count": 29814,
      "type": "SCALAR"
    },
    {
      "bufferView": 2,
      "byteOffset": 4495680,
      "componentType": 5126,
      "count": 241,
      "max": [
        -0.7770501375198364,
        0.10316620022058487,
        4.852719783782959
      ],
      "min": [
        -0.849112868309021,
        -0.10316752642393112,
        4.657891750335693
      ],
      "type": "VEC3"
    },
    {
      "bufferView": 2,
      "byteOffset": 4498572,
      "componentType": 5126,
      "count": 241,
      "max": [
        0.9960321187973022,
        0.714885950088501,
        0.8278716206550598
      ],
      "min": [
        0.5609176754951477,
        -0.714885950088501,
        -0.6051684021949768
      ],
      "type": "VEC3"
    },
    {
      "bufferView": 1,
      "byteOffset": 1498560,
      "componentType": 5126,
      "count": 241,
      "max": [
        1.0000001192092896,
        1.000000238418579
      ],
      "min": [
        0.019422104582190514,
        0.9999999403953552
      ],
      "type": "VEC2"
    },
    {
      "bufferView": 0,
      "byteOffset": 3668460,
      "componentType": 5125,
      "count": 936,
      "type": "SCALAR"
    }
  ],
  "asset": {
    "extras": {
      "author": "AK (https://sketchfab.com/skaf13)",
      "license": "CC-BY-4.0 (http://creativecommons.org/licenses/by/4.0/)",
      "source": "https://sketchfab.com/3d-models/vroomvroom-4210c0c20788480e9fe0d95643c386b4",
      "title": "vroom..vroom.."
    },
    "generator": "Sketchfab-12.65.0",
    "version": "2.0"
  },
  "bufferViews": [
    {
      "buffer": 0,
      "byteLength": 3672204,
      "name": "floatBufferViews",
      "target": 34963
    },
    {
      "buffer": 0,
      "byteLength": 1500488,
      "byteOffset": 3672204,
      "byteStride": 8,
      "name": "floatBufferViews",
      "target": 34962
    },
    {
      "buffer": 0,
      "byteLength": 4501464,
      "byteOffset": 5172692,
      "byteStride": 12,
      "name": "floatBufferViews",
      "target": 34962
    }
  ],
  "buffers": [
    {
      "byteLength": 9674156,
      "uri": "scene.bin"
    }
  ],
  "extensionsUsed": [
    "KHR_materials_clearcoat"
  ],
  "materials": [
    {
      "doubleSided": true,
      "name": "steel",
      "pbrMetallicRoughness": {
        "baseColorFactor": [
          0.433647,
          0.433647,
          0.433647,
          1.0
        ],
        "roughnessFactor": 0.4516428627887322
      }
    },
    {
      "doubleSided": true,
      "name": "tires",
      "pbrMetallicRoughness": {
        "baseColorFactor": [
          0.00945095,
          0.00945095,
          0.00945095,
          1.0
        ],
        "metallicFactor": 0.0,
        "roughnessFactor": 0.4
      }
    },
    {
      "doubleSided": true,
      "name": "yellow",
      "pbrMetallicRoughness": {
        "baseColorFactor": [
          0.7579697625090449,
          0.4157969232919753,
          0.05763444277175307,
          1.0
        ],
        "metallicFactor": 0.45772303595206393,
        "roughnessFactor": 0.5489256334020393
      }
    },
    {
      "doubleSided": true,
      "extensions": {
        "KHR_materials_clearcoat": {
          "clearcoatFactor": 1.0,
          "clearcoatRoughnessFactor": 0.04
        }
      },
      "name": "mirror",
      "pbrMetallicRoughness": {
        "baseColorFactor": [
          0.1323345444278253,
          0.18124912008494,
          0.2016247970742207,
          1.0
        ],
        "roughnessFactor": 0.0
      }
    },
    {
      "doubleSided": true,
      "emissiveFactor": [
        0.9629376071630518,
        0.040821603729274195,
        0.029650438684493755
      ],
      "name": "material",
      "pbrMetallicRoughness": {
        "baseColorFactor": [
          0.6726191561935683,
          0.009968804436550346,
          0.009315691235886398,
          1.0
        ],
        "metallicFactor": 0.0,
        "roughnessFactor": 0.7794037174178721
      }
    },
    {
      "doubleSided": true,
      "name": "dark_steel",
      "pbrMetallicRoughness": {
        "baseColorFactor": [
          0.178774,
          0.178774,
          0.178774,
          1.0
        ],
        "metallicFactor": 0.8711748110586189,
        "roughnessFactor": 0.28747818737877656
      }
    },
    {
      "doubleSided": true,
      "name": "white",
      "pbrMetallicRoughness": {
        "baseColorFactor": [
          0.8,
          0.8,
          0.8,
          1.0
        ],
        "metallicFactor": 0.0,
        "roughnessFactor": 0.1788854381999832
      }
    }
  ],
  "meshes": [
    {
      "name": "MOPED_steel_0",
      "primitives": [
        {
          "attributes": {
            "NORMAL": 1,
            "POSITION": 0,
            "TEXCOORD_0": 2
          },
          "indices": 3,
          "material": 0,
          "mode": 4
        }
      ]
    },
    {
      "name": "MOPED_tires_0",
      "primitives": [
        {
          "attributes": {
            "NORMAL": 5,
            "POSITION": 4,
            "TEXCOORD_0": 6
          },
          "indices": 7,
          "material": 1,
          "mode": 4
        }
      ]
    },
    {
      "name": "MOPED_tires_0",
      "primitives": [
        {
          "attributes": {
            "NORMAL": 9,
            "POSITION": 8,
            "TEXCOORD_0": 10
          },
          "indices": 11,
          "material": 1,
          "mode": 4
        }
      ]
    },
    {
      "name": "MOPED_yellow_0",
      "primitives": [
        {
          "attributes": {
            "NORMAL": 13,
            "POSITION": 12,
            "TEXCOORD_0": 14
          },
          "indices": 15,
          "material": 2,
          "mode": 4
        }
      ]
    },
    {
      "name": "MOPED_mirror_0",
      "primitives": [
        {
          "attributes": {
            "NORMAL": 17,
            "POSITION": 16,
            "TEXCOORD_0": 18
          },
          "indices": 19,
          "material": 3,
          "mode": 4
        }
      ]
    },
    {
      "name": "MOPED_red_0",
      "primitives": [
        {
          "attributes": {
            "NORMAL": 21,
            "POSITION": 20,
            "TEXCOORD_0": 22
          },
          "indices": 23,
          "material": 4,
          "mode": 4
        }
      ]
    },
    {
      "name": "MOPED_dark_steel_0",
      "primitives": [
        {
          "attributes": {
            "NORMAL": 25,
            "POSITION": 24,
            "TEXCOORD_0": 26
          },
          "indices": 27,
          "material": 5,
          "mode": 4
        }
      ]
    },
    {
      "name": "MOPED_white_0",
      "primitives": [
        {
          "attributes": {
            "NORMAL": 29,
            "POSITION": 28,
            "TEXCOORD_0": 30
          },
          "indices": 31,
          "material": 6,
          "mode": 4
        }
      ]
    }
  ],
  "nodes": [
    {
      "children": [
        1
      ],
      "matrix": [
        5.477506781277011e-19,
        5.477506781277011e-19,
        -0.0024668497499078512,
        0.0,
        -0.0024668497499078512,
        -3.9669968902644304e-19,
        -5.477506781277012e-19,
        0.0,
        -3.966996890264432e-19,
        0.0024668497499078512,
        5.477506781277011e-19,
        0.0,
        55.89302444458008,
        -1.2356472449442337e-06,
        55.89223098754883,
        1.0
      ],
      "name": "Sketchfab_model"
    },
    {
      "children": [
        2
      ],
      "matrix": [
        1.0,
        0.0,
        0.0,
        0.0,
        0.0,
        0.0,
        1.0,
        0.0,
        0.0,
        -1.0,
        0.0,
        0.0,
        0.0,
        0.0,
        0.0,
        1.0
      ],
      "name": "d3e855bc7ba341fba67f2993f24a1383.fbx"
    },
    {
      "children": [
        3
      ],
      "name": "RootNode"
    },
    {
      "children": [
        4,
        5,
        6,
        7,
        8,
        9,
        10,
        11
      ],
      "matrix": [
        100.0,
        0.0,
        0.0,
        0.0,
        0.0,
        -1.629206793918314e-05,
        -99.99999999999868,
        0.0,
        0.0,
        99.99999999999868,
        -1.629206793918314e-05,
        0.0,
        0.0,
        0.0,
        0.0,
        1.0
      ],
      "name": "MOPED"
    },
    {
      "mesh": 0,
      "name": "MOPED_steel_0"
    },
    {
      "mesh": 1,
      "name": "MOPED_tires_0"
    },
    {
      "mesh": 2,
      "name": "MOPED_tires_0"
    },
    {
      "mesh": 3,
      "name": "MOPED_yellow_0"
    },
    {
      "mesh": 4,
      "name": "MOPED_mirror_0"
    },
    {
      "mesh": 5,
      "name": "MOPED_red_0"
    },
    {
      "mesh": 6,
      "name": "MOPED_dark_steel_0"
    },
    {
      "mesh": 7,
      "name": "MOPED_white_0"
    }
  ],
  "scene": 0,
  "scenes": [
    {
      "name": "Sketchfab_Scene",
      "nodes": [
        0
      ]
    }
  ]
}
