<svg width="129" height="129" viewBox="0 0 129 129" fill="none" xmlns="http://www.w3.org/2000/svg">
<path d="M116.158 34.9386L108.56 27.3945L116.158 19.8504C117.165 18.8428 117.731 17.4764 117.731 16.0515C117.731 14.6267 117.165 13.2602 116.158 12.2527C115.15 11.2452 113.784 10.6792 112.359 10.6792C110.934 10.6792 109.568 11.2452 108.56 12.2527L52.1664 68.6464C46.6343 64.9965 39.9442 63.5301 33.3926 64.5313C26.841 65.5326 20.8942 68.9301 16.7046 74.0656C12.5151 79.2012 10.381 85.709 10.7158 92.3283C11.0507 98.9475 13.8307 105.207 18.5172 109.893C23.2037 114.58 29.463 117.36 36.0822 117.695C42.7014 118.03 49.2093 115.895 54.3448 111.706C59.4804 107.516 62.8779 101.57 63.8791 95.0179C64.8803 88.4662 63.4139 81.7762 59.764 76.2441L85.8742 50.0804L93.4183 57.678C93.9183 58.1739 94.5112 58.5662 95.1631 58.8325C95.815 59.0987 96.513 59.2337 97.2172 59.2296C97.9213 59.2337 98.6194 59.0987 99.2712 58.8325C99.9231 58.5662 100.516 58.1739 101.016 57.678C101.517 57.1806 101.916 56.5889 102.187 55.9369C102.459 55.2848 102.599 54.5855 102.599 53.8792C102.599 53.1729 102.459 52.4735 102.187 51.8215C101.916 51.1695 101.517 50.5778 101.016 50.0804L93.4183 42.8038L101.016 35.2061L108.56 42.8038C109.06 43.2997 109.653 43.692 110.305 43.9582C110.957 44.2245 111.655 44.3595 112.359 44.3554C113.063 44.3595 113.761 44.2245 114.413 43.9582C115.065 43.692 115.658 43.2997 116.158 42.8038C116.701 42.3027 117.134 41.6947 117.431 41.0178C117.727 40.341 117.88 39.6101 117.88 38.8712C117.88 38.1323 117.727 37.4014 117.431 36.7246C117.134 36.0477 116.701 35.4396 116.158 34.9386ZM37.4527 107.009C34.278 107.009 31.1747 106.068 28.535 104.304C25.8954 102.54 23.8381 100.033 22.6232 97.1004C21.4083 94.1674 21.0904 90.94 21.7098 87.8263C22.3291 84.7127 23.8578 81.8526 26.1027 79.6078C28.3475 77.363 31.2076 75.8342 34.3212 75.2149C37.4349 74.5955 40.6623 74.9134 43.5953 76.1283C46.5283 77.3432 49.0351 79.4005 50.7989 82.0401C52.5626 84.6798 53.504 87.7831 53.504 90.9578C53.504 95.2149 51.8129 99.2976 48.8027 102.308C45.7925 105.318 41.7098 107.009 37.4527 107.009Z" fill="black"/>
</svg>
