<svg width="141" height="141" viewBox="0 0 141 141" fill="none" xmlns="http://www.w3.org/2000/svg">
<path d="M74.0228 22.2646L69.1812 17.4571L74.0228 12.6495C74.6648 12.0075 75.0255 11.1367 75.0255 10.2287C75.0255 9.32074 74.6648 8.44995 74.0228 7.80791C73.3807 7.16587 72.51 6.80518 71.602 6.80518C70.694 6.80518 69.8232 7.16587 69.1812 7.80791L33.244 43.7451C29.7186 41.4192 25.4553 40.4847 21.2803 41.1227C17.1052 41.7607 13.3156 43.9258 10.6458 47.1985C7.97598 50.4711 6.61601 54.6183 6.82941 58.8364C7.04281 63.0546 8.81439 67.0433 11.8009 70.0298C14.7874 73.0163 18.7761 74.7879 22.9942 75.0013C27.2124 75.2147 31.3596 73.8547 34.6322 71.1849C37.9049 68.5151 40.0699 64.7255 40.708 60.5504C41.346 56.3754 40.4115 52.1121 38.0856 48.5867L54.7245 31.9138L59.532 36.7554C59.8506 37.0714 60.2284 37.3214 60.6438 37.4911C61.0593 37.6608 61.5041 37.7468 61.9528 37.7442C62.4015 37.7468 62.8464 37.6608 63.2618 37.4911C63.6772 37.3214 64.055 37.0714 64.3736 36.7554C64.6932 36.4384 64.9469 36.0613 65.12 35.6458C65.2931 35.2303 65.3822 34.7847 65.3822 34.3346C65.3822 33.8845 65.2931 33.4388 65.12 33.0233C64.9469 32.6078 64.6932 32.2307 64.3736 31.9138L59.532 27.2767L64.3736 22.4351L69.1812 27.2767C69.4998 27.5927 69.8776 27.8427 70.293 28.0124C70.7084 28.1821 71.1533 28.2681 71.602 28.2655C72.0507 28.2681 72.4955 28.1821 72.9109 28.0124C73.3264 27.8427 73.7042 27.5927 74.0228 27.2767C74.3689 26.9574 74.6451 26.5699 74.834 26.1386C75.0229 25.7073 75.1205 25.2415 75.1205 24.7707C75.1205 24.2998 75.0229 23.834 74.834 23.4027C74.6451 22.9714 74.3689 22.5839 74.0228 22.2646V22.2646ZM23.8676 68.1919C21.8445 68.1919 19.8669 67.592 18.1848 66.468C16.5027 65.3441 15.1916 63.7466 14.4174 61.8775C13.6432 60.0084 13.4407 57.9518 13.8353 55.9676C14.23 53.9834 15.2042 52.1608 16.6347 50.7302C18.0653 49.2997 19.8879 48.3255 21.8721 47.9308C23.8562 47.5362 25.9129 47.7387 27.782 48.5129C29.6511 49.2871 31.2486 50.5982 32.3725 52.2803C33.4965 53.9624 34.0964 55.94 34.0964 57.9631C34.0964 60.6759 33.0187 63.2777 31.1004 65.196C29.1822 67.1142 26.5804 68.1919 23.8676 68.1919Z" fill="black"/>
<path d="M133.193 23.5234L128.351 18.7159L133.193 13.9083C133.835 13.2663 134.195 12.3955 134.195 11.4875C134.195 10.5795 133.835 9.70874 133.193 9.0667C132.551 8.42466 131.68 8.06396 130.772 8.06396C129.864 8.06396 128.993 8.42466 128.351 9.0667L92.4139 45.0039C88.8885 42.678 84.6253 41.7435 80.4502 42.3815C76.2751 43.0195 72.4856 45.1846 69.8157 48.4573C67.1459 51.7299 65.7859 55.8771 65.9993 60.0952C66.2127 64.3134 67.9843 68.3021 70.9708 71.2886C73.9573 74.2751 77.946 76.0467 82.1642 76.2601C86.3823 76.4735 90.5295 75.1135 93.8021 72.4437C97.0748 69.7738 99.2399 65.9843 99.8779 61.8092C100.516 57.6341 99.5814 53.3709 97.2555 49.8455L113.894 33.1726L118.702 38.0142C119.021 38.3302 119.398 38.5802 119.814 38.7499C120.229 38.9196 120.674 39.0056 121.123 39.003C121.571 39.0056 122.016 38.9196 122.432 38.7499C122.847 38.5802 123.225 38.3302 123.544 38.0142C123.863 37.6972 124.117 37.3201 124.29 36.9046C124.463 36.4891 124.552 36.0435 124.552 35.5934C124.552 35.1433 124.463 34.6976 124.29 34.2821C124.117 33.8666 123.863 33.4895 123.544 33.1726L118.702 28.5355L123.544 23.6939L128.351 28.5355C128.67 28.8515 129.048 29.1015 129.463 29.2712C129.878 29.4409 130.323 29.5269 130.772 29.5243C131.221 29.5269 131.665 29.4409 132.081 29.2712C132.496 29.1015 132.874 28.8515 133.193 28.5355C133.539 28.2162 133.815 27.8287 134.004 27.3974C134.193 26.9661 134.29 26.5003 134.29 26.0295C134.29 25.5586 134.193 25.0928 134.004 24.6615C133.815 24.2302 133.539 23.8427 133.193 23.5234V23.5234ZM83.0375 69.4507C81.0144 69.4507 79.0368 68.8508 77.3547 67.7268C75.6726 66.6029 74.3615 65.0053 73.5873 63.1363C72.8131 61.2672 72.6106 59.2105 73.0053 57.2263C73.3999 55.2422 74.3741 53.4196 75.8047 51.989C77.2352 50.5585 79.0578 49.5843 81.042 49.1896C83.0262 48.795 85.0828 48.9975 86.9519 49.7717C88.821 50.5459 90.4185 51.857 91.5424 53.5391C92.6664 55.2212 93.2663 57.1988 93.2663 59.2219C93.2663 61.9347 92.1886 64.5365 90.2704 66.4547C88.3521 68.373 85.7504 69.4507 83.0375 69.4507Z" fill="black"/>
<path d="M124.38 81.434L119.539 76.6265L124.38 71.819C125.022 71.1769 125.383 70.3061 125.383 69.3982C125.383 68.4902 125.022 67.6194 124.38 66.9773C123.738 66.3353 122.867 65.9746 121.959 65.9746C121.051 65.9746 120.181 66.3353 119.539 66.9773L83.6014 102.915C80.076 100.589 75.8128 99.6541 71.6377 100.292C67.4626 100.93 63.6731 103.095 61.0032 106.368C58.3334 109.641 56.9734 113.788 57.1868 118.006C57.4002 122.224 59.1718 126.213 62.1583 129.199C65.1448 132.186 69.1335 133.957 73.3517 134.171C77.5698 134.384 81.717 133.024 84.9896 130.354C88.2623 127.684 90.4274 123.895 91.0654 119.72C91.7034 115.545 90.7689 111.282 88.443 107.756L105.082 91.0832L109.889 95.9248C110.208 96.2408 110.586 96.4908 111.001 96.6605C111.417 96.8302 111.862 96.9162 112.31 96.9136C112.759 96.9162 113.204 96.8302 113.619 96.6605C114.035 96.4908 114.412 96.2408 114.731 95.9248C115.051 95.6079 115.304 95.2308 115.477 94.8153C115.65 94.3998 115.74 93.9541 115.74 93.504C115.74 93.0539 115.65 92.6083 115.477 92.1928C115.304 91.7773 115.051 91.4002 114.731 91.0832L109.889 86.4462L114.731 81.6045L119.539 86.4462C119.857 86.7622 120.235 87.0122 120.65 87.1818C121.066 87.3515 121.511 87.4375 121.959 87.4349C122.408 87.4375 122.853 87.3515 123.268 87.1818C123.684 87.0122 124.062 86.7622 124.38 86.4462C124.726 86.1269 125.003 85.7394 125.191 85.308C125.38 84.8767 125.478 84.411 125.478 83.9401C125.478 83.4692 125.38 83.0035 125.191 82.5721C125.003 82.1408 124.726 81.7533 124.38 81.434V81.434ZM74.225 127.361C72.2019 127.361 70.2243 126.761 68.5422 125.637C66.8601 124.514 65.549 122.916 64.7748 121.047C64.0006 119.178 63.7981 117.121 64.1928 115.137C64.5874 113.153 65.5616 111.33 66.9922 109.9C68.4227 108.469 70.2453 107.495 72.2295 107.1C74.2137 106.706 76.2703 106.908 78.1394 107.682C80.0085 108.457 81.606 109.768 82.7299 111.45C83.8539 113.132 84.4538 115.109 84.4538 117.133C84.4538 119.845 83.3761 122.447 81.4579 124.365C79.5396 126.284 76.9379 127.361 74.225 127.361Z" fill="black"/>
</svg>
