<svg width="129" height="129" viewBox="0 0 129 129" fill="none" xmlns="http://www.w3.org/2000/svg">
<path d="M96.3085 37.4532H94.4358C95.6569 34.9533 96.297 32.2097 96.3085 29.4275C96.3247 25.7 95.2249 22.053 93.1507 18.9558C91.0765 15.8587 88.1228 13.4532 84.6699 12.049C81.2169 10.6448 77.4227 10.3061 73.7757 11.0766C70.1286 11.8472 66.7957 13.6916 64.2058 16.3724C61.6159 13.6916 58.2829 11.8472 54.6359 11.0766C50.9888 10.3061 47.1946 10.6448 43.7417 12.049C40.2887 13.4532 37.3351 15.8587 35.2609 18.9558C33.1867 22.053 32.0869 25.7 32.1031 29.4275C32.1145 32.2097 32.7547 34.9533 33.9758 37.4532H32.1031C27.846 37.4532 23.7633 39.1443 20.7531 42.1545C17.7429 45.1647 16.0518 49.2475 16.0518 53.5045V64.2054C16.0518 65.6245 16.6155 66.9854 17.6189 67.9888C18.6223 68.9922 19.9832 69.5559 21.4022 69.5559H26.7527V101.659C26.7527 105.916 28.4438 109.998 31.454 113.009C34.4642 116.019 38.5469 117.71 42.804 117.71H85.6076C89.8646 117.71 93.9474 116.019 96.9576 113.009C99.9678 109.998 101.659 105.916 101.659 101.659V69.5559H107.009C108.428 69.5559 109.789 68.9922 110.793 67.9888C111.796 66.9854 112.36 65.6245 112.36 64.2054V53.5045C112.36 49.2475 110.669 45.1647 107.658 42.1545C104.648 39.1443 100.566 37.4532 96.3085 37.4532ZM58.8553 107.009H42.804C41.385 107.009 40.0241 106.445 39.0207 105.442C38.0173 104.439 37.4535 103.078 37.4535 101.659V69.5559H58.8553V107.009ZM58.8553 58.855H26.7527V53.5045C26.7527 52.0855 27.3164 50.7246 28.3198 49.7212C29.3232 48.7178 30.6841 48.1541 32.1031 48.1541H58.8553V58.855ZM58.8553 37.4532H50.8297C49.2423 37.4532 47.6907 36.9825 46.3708 36.1006C45.051 35.2188 44.0224 33.9653 43.4149 32.4988C42.8075 31.0323 42.6485 29.4186 42.9582 27.8618C43.2679 26.305 44.0322 24.8749 45.1547 23.7525C46.2771 22.6301 47.7071 21.8657 49.2639 21.5561C50.8208 21.2464 52.4345 21.4053 53.901 22.0128C55.3675 22.6202 56.6209 23.6489 57.5028 24.9687C58.3846 26.2885 58.8553 27.8402 58.8553 29.4275V37.4532ZM69.5562 29.4275C69.5562 27.8402 70.0269 26.2885 70.9088 24.9687C71.7907 23.6489 73.0441 22.6202 74.5106 22.0128C75.9771 21.4053 77.5908 21.2464 79.1476 21.5561C80.7045 21.8657 82.1345 22.6301 83.2569 23.7525C84.3793 24.8749 85.1437 26.305 85.4534 27.8618C85.763 29.4186 85.6041 31.0323 84.9966 32.4988C84.3892 33.9653 83.3605 35.2188 82.0407 36.1006C80.7209 36.9825 79.1692 37.4532 77.5819 37.4532H69.5562V29.4275ZM90.958 101.659C90.958 103.078 90.3943 104.439 89.3909 105.442C88.3875 106.445 87.0266 107.009 85.6076 107.009H69.5562V69.5559H90.958V101.659ZM101.659 58.855H69.5562V48.1541H96.3085C97.7275 48.1541 99.0884 48.7178 100.092 49.7212C101.095 50.7246 101.659 52.0855 101.659 53.5045V58.855Z" fill="#A39B9B"/>
<path d="M110.512 31.8126L102.915 24.2685L110.512 16.7244C111.52 15.7169 112.086 14.3504 112.086 12.9256C112.086 11.5007 111.52 10.1343 110.512 9.12674C109.505 8.11923 108.138 7.55322 106.713 7.55322C105.289 7.55322 103.922 8.11923 102.915 9.12674L46.5209 65.5204C40.9888 61.8706 34.2987 60.4042 27.7471 61.4054C21.1955 62.4066 15.2487 65.8041 11.0591 70.9396C6.86956 76.0752 4.73545 82.5831 5.07033 89.2023C5.4052 95.8215 8.18522 102.081 12.8717 106.767C17.5582 111.454 23.8175 114.234 30.4367 114.569C37.0559 114.904 43.5638 112.769 48.6993 108.58C53.8349 104.39 57.2324 98.4435 58.2336 91.8919C59.2348 85.3403 57.7684 78.6502 54.1185 73.1181L80.2287 46.9544L87.7728 54.552C88.2728 55.0479 88.8657 55.4402 89.5176 55.7065C90.1695 55.9728 90.8675 56.1077 91.5717 56.1037C92.2758 56.1077 92.9739 55.9728 93.6257 55.7065C94.2776 55.4402 94.8705 55.0479 95.3705 54.552C95.872 54.0546 96.27 53.4629 96.5416 52.8109C96.8133 52.1589 96.9531 51.4595 96.9531 50.7532C96.9531 50.0469 96.8133 49.3476 96.5416 48.6956C96.27 48.0436 95.872 47.4518 95.3705 46.9544L87.7728 39.6778L95.3705 32.0802L102.915 39.6778C103.415 40.1737 104.007 40.566 104.659 40.8323C105.311 41.0985 106.009 41.2335 106.713 41.2294C107.418 41.2335 108.116 41.0985 108.768 40.8323C109.419 40.566 110.012 40.1737 110.512 39.6778C111.055 39.1768 111.489 38.5687 111.785 37.8918C112.082 37.215 112.235 36.4841 112.235 35.7452C112.235 35.0063 112.082 34.2754 111.785 33.5986C111.489 32.9218 111.055 32.3137 110.512 31.8126ZM31.8072 103.883C28.6325 103.883 25.5292 102.942 22.8895 101.178C20.2499 99.4143 18.1926 96.9074 16.9777 93.9744C15.7628 91.0414 15.4449 87.814 16.0643 84.7003C16.6836 81.5867 18.2123 78.7266 20.4572 76.4818C22.702 74.237 25.5621 72.7082 28.6757 72.0889C31.7894 71.4695 35.0168 71.7874 37.9498 73.0023C40.8828 74.2172 43.3896 76.2745 45.1534 78.9142C46.9171 81.5538 47.8585 84.6572 47.8585 87.8318C47.8585 92.0889 46.1674 96.1716 43.1572 99.1818C40.147 102.192 36.0642 103.883 31.8072 103.883Z" fill="black"/>
</svg>
