<?xml version="1.0" encoding="UTF-8" standalone="no"?>
<!DOCTYPE svg PUBLIC "-//W3C//DTD SVG 1.1//EN" "http://www.w3.org/Graphics/SVG/1.1/DTD/svg11.dtd">
<!-- Created with Vectornator (http://vectornator.io/) -->
<svg height="100%" stroke-miterlimit="10" style="fill-rule:nonzero;clip-rule:evenodd;stroke-linecap:round;stroke-linejoin:round;" version="1.1" viewBox="0 0 1024 1024" width="100%" xml:space="preserve" xmlns="http://www.w3.org/2000/svg" xmlns:vectornator="http://vectornator.io" xmlns:xlink="http://www.w3.org/1999/xlink">
<defs>
<filter color-interpolation-filters="sRGB" filterUnits="userSpaceOnUse" height="753.289" id="Filter" width="753.289" x="160.957" y="147.356">
<feDropShadow dx="-3.67321e-05" dy="10" flood-color="#000000" flood-opacity="0.333" in="SourceGraphic" result="Shadow" stdDeviation="5"/>
</filter>
</defs>
<g id="Camada-1" vectornator:layerName="Camada 1">
<path d="M170.957 514C170.957 311.508 335.109 147.356 537.601 147.356C740.093 147.356 904.246 311.508 904.246 514C904.246 716.492 740.093 880.644 537.601 880.644C335.109 880.644 170.957 716.492 170.957 514Z" fill="#fff9f9" fill-rule="evenodd" filter="url(#Filter)" stroke="none" vectornator:shadowAngle="1.5708" vectornator:shadowColor="#000000" vectornator:shadowOffset="10" vectornator:shadowOpacity="0.333" vectornator:shadowRadius="10"/>
<path d="M202.454 512C202.454 325.954 353.275 175.133 539.321 175.133C725.367 175.133 876.188 325.954 876.188 512C876.188 698.046 725.367 848.867 539.321 848.867C353.275 848.867 202.454 698.046 202.454 512Z" fill="#262231" fill-rule="evenodd" opacity="1" stroke="none"/>
<path d="M247.821 512C247.821 351.009 378.33 220.5 539.321 220.5C700.312 220.5 830.821 351.009 830.821 512C830.821 672.991 700.312 803.5 539.321 803.5C378.33 803.5 247.821 672.991 247.821 512Z" fill="#262231" fill-opacity="0" fill-rule="evenodd" opacity="1" stroke="#7d7d7d" stroke-linecap="round" stroke-linejoin="round" stroke-width="4.57411"/>
<path d="M358.321 512C358.321 412.036 439.357 331 539.321 331C639.285 331 720.321 412.036 720.321 512C720.321 611.964 639.285 693 539.321 693C439.357 693 358.321 611.964 358.321 512Z" fill="#fff9f9" fill-rule="evenodd" opacity="1" stroke="none"/>
<path d="M538.895 532.173L565.949 593.555L593.004 654.938C593.004 654.938 573.112 671.452 550.915 673.161C528.717 674.87 504.214 661.773 504.214 661.773L521.554 596.973L538.895 532.173Z" fill="#737373" fill-rule="evenodd" opacity="1" stroke="none"/>
<path d="M546.844 489.27L542.778 422.313L538.712 355.356C538.712 355.356 563.099 346.774 584.51 352.876C605.92 358.978 624.354 379.766 624.354 379.766L585.599 434.518L546.844 489.27Z" fill="#737373" fill-rule="evenodd" opacity="1" stroke="none"/>
<path d="M525.863 502.171L459.494 492.433L393.124 482.694C393.124 482.694 389.72 457.066 400.079 437.36C410.439 417.653 434.562 403.87 434.562 403.87L480.213 453.02L525.863 502.171Z" fill="#737373" fill-rule="evenodd" opacity="1" stroke="none"/>
<path d="M531.351 528.862L509.328 592.223L487.305 655.585C487.305 655.585 461.493 654.118 444.081 640.244C426.67 626.37 417.659 600.088 417.659 600.088L474.505 564.475L531.351 528.862Z" fill="#737373" fill-rule="evenodd" opacity="1" stroke="none"/>
<path d="M552.705 502.769L592.933 449.089L633.16 395.409C633.16 395.409 657.307 404.647 669.682 423.154C682.057 441.661 682.659 469.438 682.659 469.438L617.682 486.103L552.705 502.769Z" fill="#737373" fill-rule="evenodd" opacity="1" stroke="none"/>
<path d="M554.527 512.589L620.333 499.576L686.139 486.564C686.139 486.564 697.916 509.579 694.742 531.615C691.567 553.65 673.441 574.707 673.441 574.707L613.984 543.648L554.527 512.589Z" fill="#737373" fill-rule="evenodd" opacity="1" stroke="none"/>
<path d="M547.499 527.432L606.951 558.5L666.403 589.567C666.403 589.567 661.171 614.886 644.896 630.077C628.62 645.268 601.302 650.331 601.302 650.331L574.4 588.882L547.499 527.432Z" fill="#737373" fill-rule="evenodd" opacity="1" stroke="none"/>
<path d="M532.526 492.189L488.718 441.389L444.91 390.59C444.91 390.59 459.11 368.984 479.839 360.864C500.569 352.745 527.83 358.111 527.83 358.111L530.178 425.15L532.526 492.189Z" fill="#737373" fill-rule="evenodd" opacity="1" stroke="none"/>
<path d="M524.691 517.588L467.718 552.997L410.745 588.406C410.745 588.406 391.6 571.031 386.789 549.294C381.979 527.556 391.504 501.456 391.504 501.456L458.097 509.522L524.691 517.588Z" fill="#737373" fill-rule="evenodd" opacity="1" stroke="none"/>
<path d="M668.313 436.59L755.881 597.353C780.253 642.098 760.056 678.105 710.768 677.778L533.682 676.601L356.596 675.425C307.309 675.098 287.551 638.825 312.466 594.408L401.984 434.821L491.503 275.234C516.418 230.817 556.373 231.082 580.746 275.827L668.313 436.59Z" fill="#ffe243" fill-rule="evenodd" opacity="1" stroke="#312f22" stroke-linecap="round" stroke-linejoin="round" stroke-opacity="0" stroke-width="4.57411"/>
<path d="M573.811 402.109L517.968 402.593L508.504 395.433L516.045 188.359C516.045 179.599 523.147 172.497 531.907 172.497L550.911 236.313C559.671 236.313 573.367 258.139 573.367 266.899L573.811 402.109Z" fill="#e0be00" fill-rule="evenodd" opacity="1" stroke="#312f22" stroke-linecap="round" stroke-linejoin="round" stroke-opacity="0" stroke-width="4.57411"/>
<path d="M669.71 550.024L658.603 554.167L632.72 594.63L791.066 691.354C798.57 695.873 808.317 693.453 812.837 685.948L767.972 636.747C772.491 629.242 761.819 607.488 754.314 602.968L669.71 550.024Z" fill="#e0be00" fill-rule="evenodd" opacity="1" stroke="#312f22" stroke-linecap="round" stroke-linejoin="round" stroke-opacity="0" stroke-width="4.57411"/>
<path d="M455.427 610.102L428.69 559.686L419.125 554.56L254.25 658.267C246.517 662.384 243.586 671.99 247.703 679.723L312.964 666.505C317.081 674.238 338.939 673.324 346.671 669.207L455.427 610.102Z" fill="#e0be00" fill-rule="evenodd" opacity="1" stroke="#312f22" stroke-linecap="round" stroke-linejoin="round" stroke-opacity="0" stroke-width="4.57411"/>
<path d="M568.128 396.019L508.498 396.019L508.498 177.792C508.498 169.032 515.599 161.931 524.359 161.931L552.266 161.931C561.026 161.931 568.128 169.032 568.128 177.792L568.128 396.019Z" fill="#999999" fill-rule="evenodd" opacity="1" stroke="#312f22" stroke-linecap="round" stroke-linejoin="round" stroke-opacity="0" stroke-width="4.57411"/>
<path d="M419.185 554.626L447.753 606.968L256.2 711.518C248.511 715.714 238.875 712.883 234.678 705.194L221.308 680.698C217.112 673.009 219.943 663.373 227.632 659.176L419.185 554.626Z" fill="#999999" fill-rule="evenodd" opacity="1" stroke="#312f22" stroke-linecap="round" stroke-linejoin="round" stroke-opacity="0" stroke-width="4.57411"/>
<path d="M626.787 603.168L659.08 553.039L842.536 671.22C849.9 675.964 852.024 685.78 847.28 693.145L832.167 716.605C827.423 723.969 817.607 726.094 810.243 721.349L626.787 603.168Z" fill="#999999" fill-rule="evenodd" opacity="1" stroke="#312f22" stroke-linecap="round" stroke-linejoin="round" stroke-opacity="0" stroke-width="4.57411"/>
</g>
</svg>
