<svg width="200" height="200" viewBox="0 0 200 200" fill="none" xmlns="http://www.w3.org/2000/svg">
<g clip-path="url(#clip0_695_1336)">
<path fill-rule="evenodd" clip-rule="evenodd" d="M145.597 89.311L178.133 145.664C185.346 158.159 179.498 168.287 165.071 168.287H100H34.9289C20.5015 168.287 14.6538 158.159 21.8674 145.664L54.4029 89.311L86.9386 32.9577C94.1521 20.4633 105.848 20.4633 113.061 32.9577L145.597 89.311Z" fill="white"/>
<path fill-rule="evenodd" clip-rule="evenodd" d="M143.443 90.5792L175.968 146.913C181.998 157.358 177.11 165.825 165.049 165.825H100H34.9511C22.8904 165.825 18.0018 157.358 24.0322 146.913L56.5566 90.5792L89.081 34.2452C95.1113 23.8003 104.889 23.8003 110.919 34.2452L143.443 90.5792Z" fill="#DE5E5D"/>
<path fill-rule="evenodd" clip-rule="evenodd" d="M99.0552 44.8239L129.919 98.2805L160.782 151.737H99.0552H37.3289L68.1921 98.2805L99.0552 44.8239Z" fill="white"/>
<path fill-rule="evenodd" clip-rule="evenodd" d="M57.8713 131.297H142.894C143.523 131.297 144.032 131.806 144.032 132.435V146.469C144.032 147.097 143.523 147.607 142.894 147.607H57.8713C57.2428 147.607 56.7334 147.097 56.7334 146.469V132.435C56.7334 131.806 57.2428 131.297 57.8713 131.297Z" fill="#1E1C29"/>
<path fill-rule="evenodd" clip-rule="evenodd" d="M67.698 138.697C67.698 128.472 82.1601 120.183 99.9999 120.183C117.84 120.183 132.302 128.472 132.302 138.697C132.302 148.921 67.698 148.921 67.698 138.697Z" fill="#1E1C29"/>
</g>
<defs>
<clipPath id="clip0_695_1336">
<rect width="200" height="200" fill="white"/>
</clipPath>
</defs>
</svg>
