<svg xmlns="http://www.w3.org/2000/svg" xmlns:xlink="http://www.w3.org/1999/xlink" viewBox="0 0 1429.74 690.26"><defs><style>.cls-1,.cls-22,.cls-24{fill:none;}.cls-16,.cls-2{fill:#fff;}.cls-3{clip-path:url(#clip-path);}.cls-4{opacity:0.5;}.cls-5{fill:#cad4e3;}.cls-6{fill:#a0c9c7;}.cls-7{fill:#8693a4;}.cls-8{fill:#58acac;}.cls-9{fill:#283341;}.cls-10{fill:#656382;}.cls-11{fill:#7e79ab;}.cls-12{fill:#e7b07a;}.cls-13{fill:#ce5e5a;}.cls-14{fill:#ecbf32;}.cls-15{fill:#35738c;}.cls-16{font-size:78.49px;font-family:SourceSansPro-Black, SourceSansPro Black;font-weight:800;}.cls-17{fill:#964041;}.cls-18{fill:#f2cfad;}.cls-19{fill:#bc7c7a;}.cls-20{fill:#7fa3bd;}.cls-21{fill:#6e7e91;}.cls-22{stroke:#283341;stroke-width:0.25px;}.cls-22,.cls-24{stroke-miterlimit:10;}.cls-23{fill:#da0017;}.cls-24{stroke:#7e79ab;}</style><clipPath id="clip-path" transform="translate(67.77 47.75)"><rect class="cls-1" width="1200" height="628"/></clipPath></defs><g id="BACKGROUND"><rect class="cls-2" x="67.77" y="47.75" width="1200" height="628"/></g><g id="OBJECTS"><g class="cls-3"><g class="cls-4"><rect class="cls-5" x="807.56" y="427.13" width="105.02" height="203.71"/><rect class="cls-5" x="1017.59" y="435" width="105.02" height="195.84"/><rect class="cls-5" x="1332.64" y="362.19" width="72.45" height="268.65"/><rect class="cls-5" x="912.58" y="240.56" width="105.02" height="390.28"/><rect class="cls-5" x="1227.63" y="435" width="105.02" height="195.84"/><rect class="cls-5" x="1122.61" y="296.42" width="105.02" height="334.42"/><rect class="cls-5" x="1227.63" y="199.02" width="62.97" height="431.82"/><rect class="cls-5" x="849.61" y="131.76" width="62.97" height="499.08"/><rect class="cls-5" x="1017.59" y="318.74" width="62.97" height="312.1"/><rect class="cls-5" x="702.55" y="199.02" width="105.02" height="431.82"/></g><g class="cls-4"><rect class="cls-5" x="105.02" y="424.97" width="105.02" height="203.71"/><rect class="cls-5" x="315.05" y="432.84" width="105.02" height="195.84"/><rect class="cls-5" x="630.09" y="360.03" width="72.45" height="268.65"/><rect class="cls-5" x="210.03" y="238.4" width="105.02" height="390.28"/><rect class="cls-5" x="525.08" y="432.84" width="105.02" height="195.84"/><rect class="cls-5" x="420.06" y="294.26" width="105.02" height="334.42"/><rect class="cls-5" x="525.08" y="196.86" width="62.97" height="431.82"/><rect class="cls-5" x="147.06" y="129.6" width="62.97" height="499.08"/><rect class="cls-5" x="315.05" y="316.58" width="62.97" height="312.1"/><rect class="cls-5" y="196.86" width="105.02" height="431.82"/></g><path class="cls-6" d="M1156.49,560.16a94.07,94.07,0,0,1-2.15,20.59h-42.87a101.51,101.51,0,0,1-2-20.59,106,106,0,0,1,1.92-20.12c3.71-17.85,12-30.3,21.67-30.3,6.83,0,13,6.35,17.24,16.41a51.13,51.13,0,0,1,2.28,6.46A92.28,92.28,0,0,1,1156.49,560.16Z" transform="translate(67.77 47.75)"/><path class="cls-6" d="M1186.19,575l-1.08,5.74h-46.7a85.26,85.26,0,0,1,1.2-13.17,90.53,90.53,0,0,1,10.65-31.25c.72-1.32,1.56-2.64,2.28-3.72,5.63-7.78,12.09-12.09,18.32-11.13a12.29,12.29,0,0,1,6.23,3.11C1185.71,532.14,1189.78,552.37,1186.19,575Z" transform="translate(67.77 47.75)"/><path class="cls-6" d="M1088,580.75h-48.5c-.6-1.32-1.2-2.51-1.8-3.83a104.85,104.85,0,0,1-6.11-17c-4.79-18.68-2.51-34.49,6.59-38.68,8.86-4.07,21.56,4,32.33,18.8a100.29,100.29,0,0,1,10.06,17.36A103.25,103.25,0,0,1,1088,580.75Z" transform="translate(67.77 47.75)"/><path class="cls-6" d="M1114.46,564.83a96.44,96.44,0,0,1-1.2,15.92H1068.6a70,70,0,0,1-.84-7.42c-.24-2.76-.36-5.63-.36-8.5a93.78,93.78,0,0,1,3.11-24.79c4-15.33,11.62-25.63,20.48-25.63s16.4,10.3,20.36,25.63A93.78,93.78,0,0,1,1114.46,564.83Z" transform="translate(67.77 47.75)"/><path class="cls-6" d="M1067.76,573.33a73.1,73.1,0,0,1,10.42,7.42h-82c-2-4.07-2.52-7.9-1.2-11.37,3.47-9.22,18.32-12.58,36.64-9.46a91.64,91.64,0,0,1,18.92,5A99.51,99.51,0,0,1,1067.76,573.33Z" transform="translate(67.77 47.75)"/><path class="cls-6" d="M1243.07,560.16a101.51,101.51,0,0,1-2,20.59h-43.11a102.25,102.25,0,0,1-2-20.59,93.11,93.11,0,0,1,3.95-27.67c3.11-10.3,7.9-17.84,13.65-20.95a11.23,11.23,0,0,1,6-1.8c9.7,0,18,12.34,21.67,30.06A108.64,108.64,0,0,1,1243.07,560.16Z" transform="translate(67.77 47.75)"/><path class="cls-6" d="M1271,580.75h-49.34a19,19,0,0,1,.6-2.51,99.55,99.55,0,0,1,5.63-16.41,91.21,91.21,0,0,1,13.29-22c9.58-12.1,20.6-18.2,28.5-14.73,4.67,2,7.67,7.18,8.74,14.25C1280.31,550.1,1277.8,565.31,1271,580.75Z" transform="translate(67.77 47.75)"/><path class="cls-6" d="M1222.71,580.75h-48.38a7.34,7.34,0,0,1-.6-1.44c-9-24.9-7.42-48.73,3.36-54.72a7.33,7.33,0,0,1,1.68-.84c6.22-2.15,13.89,1.32,21.07,8.74a76.94,76.94,0,0,1,13.65,20,88.11,88.11,0,0,1,4.55,10.78,113.2,113.2,0,0,1,4.19,15C1222.35,579.08,1222.59,579.91,1222.71,580.75Z" transform="translate(67.77 47.75)"/><path class="cls-6" d="M1314.8,578.84c-.12.59-.12,1.31-.24,1.91H1267.5c0-2.27.24-4.55.48-6.94,1.43-13.77,5.38-25.87,10.41-34.49,5.39-8.74,11.86-13.89,18.44-13.17,10.78,1.08,18.09,17.6,18.45,38.8A91.15,91.15,0,0,1,1314.8,578.84Z" transform="translate(67.77 47.75)"/><path class="cls-6" d="M1358.39,580.75h-62.63a95.18,95.18,0,0,1,9.46-8.62q5-3.95,10.06-7.18c18.68-11.62,37-14.61,43.94-6C1363.3,563.87,1362.7,571.89,1358.39,580.75Z" transform="translate(67.77 47.75)"/><rect class="cls-7" x="50.47" y="626.98" width="1355.09" height="58.99"/><g class="cls-4"><path class="cls-5" d="M725.68,14.44a85.86,85.86,0,0,1-2.16,19.44H676.89a85.86,85.86,0,0,1-2.16-19.44c0-2.74.13-5.42.36-8,2-22.8,12.49-40.17,25.12-40.17,12.14,0,22.3,16.08,24.85,37.6A91.11,91.11,0,0,1,725.68,14.44Z" transform="translate(67.77 47.75)"/><path class="cls-5" d="M703.56,33.88H657.61c-5.84-11.21-6.53-21.93-.81-27,4.17-3.67,10.91-3.59,18.29-.49,6.54,2.76,13.58,7.89,19.76,14.9A64.24,64.24,0,0,1,703.56,33.88Z" transform="translate(67.77 47.75)"/><path class="cls-5" d="M751.81,20.39a59,59,0,0,1-3.69,13.49H707.41a65.47,65.47,0,0,1,4.51-12.08,59.21,59.21,0,0,1,13.14-18c6.87-6.17,14.2-8.72,19.72-6C751,.82,753.33,9.65,751.81,20.39Z" transform="translate(67.77 47.75)"/><path class="cls-5" d="M777.65,33.88H734.14c.58-.63,1.19-1.26,1.8-1.88a61.08,61.08,0,0,1,15.87-11.61c9.42-4.65,18.26-5.14,23-.39C778,23.16,778.81,28.13,777.65,33.88Z" transform="translate(67.77 47.75)"/></g><g class="cls-4"><path class="cls-5" d="M950.4,64.63a48.76,48.76,0,0,1-1.21,11H922.88a48.75,48.75,0,0,1-1.22-11c0-1.54.07-3,.2-4.53,1.14-12.86,7-22.66,14.18-22.66,6.84,0,12.58,9.07,14,21.21A52.84,52.84,0,0,1,950.4,64.63Z" transform="translate(67.77 47.75)"/><path class="cls-5" d="M937.93,75.6H912c-3.3-6.32-3.69-12.37-.46-15.22,2.35-2.07,6.15-2,10.31-.28A32.28,32.28,0,0,1,933,68.51,35.83,35.83,0,0,1,937.93,75.6Z" transform="translate(67.77 47.75)"/><path class="cls-5" d="M965.14,68a33.49,33.49,0,0,1-2.07,7.61h-23a36.34,36.34,0,0,1,2.55-6.82,33.37,33.37,0,0,1,7.41-10.13c3.87-3.48,8-4.92,11.12-3.4C964.66,57,966,61.93,965.14,68Z" transform="translate(67.77 47.75)"/><path class="cls-5" d="M979.73,75.6H955.18c.33-.36.67-.71,1-1.06A34.15,34.15,0,0,1,965.14,68c5.32-2.62,10.3-2.9,13-.22C979.9,69.55,980.38,72.36,979.73,75.6Z" transform="translate(67.77 47.75)"/></g><g class="cls-4"><path class="cls-5" d="M292.75,107a85.8,85.8,0,0,1-2.16,19.44H244A85.8,85.8,0,0,1,241.8,107c0-2.73.12-5.42.35-8,2-22.79,12.5-40.16,25.13-40.16,12.14,0,22.29,16.07,24.85,37.6A90.81,90.81,0,0,1,292.75,107Z" transform="translate(67.77 47.75)"/><path class="cls-5" d="M270.63,126.44H224.68c-5.84-11.2-6.54-21.93-.82-27,4.18-3.67,10.92-3.59,18.29-.49,6.55,2.76,13.58,7.9,19.76,14.9A64.3,64.3,0,0,1,270.63,126.44Z" transform="translate(67.77 47.75)"/><path class="cls-5" d="M318.88,113a59,59,0,0,1-3.69,13.49H274.48A64.76,64.76,0,0,1,279,114.36a59,59,0,0,1,13.14-18c6.87-6.17,14.2-8.73,19.72-6C318,93.38,320.4,102.21,318.88,113Z" transform="translate(67.77 47.75)"/><path class="cls-5" d="M344.72,126.44H301.2c.59-.63,1.19-1.26,1.81-1.88A60.92,60.92,0,0,1,318.88,113c9.42-4.64,18.25-5.13,23-.39C345,115.73,345.88,120.7,344.72,126.44Z" transform="translate(67.77 47.75)"/></g><g class="cls-4"><path class="cls-5" d="M527.14,100.74a48,48,0,0,1-1.22,11h-26.3a48.59,48.59,0,0,1-1.22-11c0-1.55.07-3.06.2-4.53,1.14-12.87,7-22.66,14.17-22.66,6.85,0,12.58,9.07,14,21.21A50.33,50.33,0,0,1,527.14,100.74Z" transform="translate(67.77 47.75)"/><path class="cls-5" d="M514.66,111.7H488.74c-3.29-6.32-3.68-12.37-.46-15.22,2.36-2.07,6.16-2,10.32-.27a32.12,32.12,0,0,1,11.15,8.4A36.19,36.19,0,0,1,514.66,111.7Z" transform="translate(67.77 47.75)"/><path class="cls-5" d="M541.88,104.09a32.89,32.89,0,0,1-2.08,7.61h-23a36.28,36.28,0,0,1,2.54-6.82,33.32,33.32,0,0,1,7.41-10.12c3.88-3.48,8-4.93,11.13-3.41C541.4,93.05,542.74,98,541.88,104.09Z" transform="translate(67.77 47.75)"/><path class="cls-5" d="M556.46,111.7H531.91c.33-.36.67-.71,1-1.06a34.59,34.59,0,0,1,9-6.55c5.32-2.62,10.3-2.9,13-.22C556.64,105.66,557.12,108.46,556.46,111.7Z" transform="translate(67.77 47.75)"/></g><g class="cls-4"><path class="cls-5" d="M1111.54,150.52a85.86,85.86,0,0,1-2.16,19.44h-46.62a85.85,85.85,0,0,1-2.17-19.44c0-2.74.13-5.42.36-8,2-22.8,12.49-40.17,25.12-40.17,12.14,0,22.3,16.08,24.85,37.6A89,89,0,0,1,1111.54,150.52Z" transform="translate(67.77 47.75)"/><path class="cls-5" d="M1089.42,170h-45.94c-5.85-11.21-6.54-21.93-.82-27,4.17-3.67,10.91-3.59,18.29-.49,6.54,2.75,13.58,7.89,19.76,14.9A64.24,64.24,0,0,1,1089.42,170Z" transform="translate(67.77 47.75)"/><path class="cls-5" d="M1137.67,156.47A58.92,58.92,0,0,1,1134,170h-40.71a64.06,64.06,0,0,1,4.51-12.08,59,59,0,0,1,13.13-18c6.88-6.17,14.2-8.73,19.73-6C1136.82,136.9,1139.2,145.73,1137.67,156.47Z" transform="translate(67.77 47.75)"/><path class="cls-5" d="M1163.52,170H1120c.58-.63,1.19-1.26,1.81-1.88a60.88,60.88,0,0,1,15.86-11.61c9.43-4.65,18.26-5.14,23-.39C1163.83,159.24,1164.68,164.21,1163.52,170Z" transform="translate(67.77 47.75)"/></g><g class="cls-4"><path class="cls-5" d="M1292.29-20.56a48.61,48.61,0,0,1-1.21,11h-26.31a48.61,48.61,0,0,1-1.21-11c0-1.55.06-3.06.19-4.53,1.14-12.86,7-22.66,14.18-22.66,6.84,0,12.58,9.07,14,21.21A52.57,52.57,0,0,1,1292.29-20.56Z" transform="translate(67.77 47.75)"/><path class="cls-5" d="M1279.82-9.6H1253.9c-3.3-6.32-3.69-12.37-.46-15.22,2.35-2.07,6.15-2,10.31-.27a32,32,0,0,1,11.15,8.4A35.83,35.83,0,0,1,1279.82-9.6Z" transform="translate(67.77 47.75)"/><path class="cls-5" d="M1307-17.21A33.35,33.35,0,0,1,1305-9.6h-23a36.7,36.7,0,0,1,2.55-6.81A33.24,33.24,0,0,1,1292-26.54c3.87-3.48,8-4.93,11.12-3.4C1306.55-28.25,1307.9-23.27,1307-17.21Z" transform="translate(67.77 47.75)"/><path class="cls-5" d="M1321.62-9.6h-24.55c.33-.36.67-.71,1-1.06a34.61,34.61,0,0,1,8.94-6.55c5.32-2.62,10.3-2.9,13-.22C1321.79-15.64,1322.27-12.84,1321.62-9.6Z" transform="translate(67.77 47.75)"/></g><path class="cls-6" d="M156.74,560.26a86.61,86.61,0,0,1-2,19H115.28a93.35,93.35,0,0,1-1.88-19,97.3,97.3,0,0,1,1.77-18.53c3.42-16.43,11-27.9,20-27.9,6.28,0,12,5.85,15.88,15.11a47.31,47.31,0,0,1,2.09,5.95A84.66,84.66,0,0,1,156.74,560.26Z" transform="translate(67.77 47.75)"/><path class="cls-6" d="M184.09,573.93l-1,5.3h-43a78.88,78.88,0,0,1,1.1-12.13A83.49,83.49,0,0,1,151,538.31c.66-1.21,1.43-2.42,2.09-3.42,5.19-7.16,11.14-11.13,16.87-10.25a11.27,11.27,0,0,1,5.74,2.87C183.65,534.45,187.4,553.09,184.09,573.93Z" transform="translate(67.77 47.75)"/><path class="cls-6" d="M93.64,579.23H49c-.52-1.23-1.09-2.32-1.62-3.54A93.37,93.37,0,0,1,41.73,560c-4.42-17.21-2.32-31.77,6.07-35.61,8.08-3.72,19.66,3.54,29.54,17a1.22,1.22,0,0,1,.22.26,87,87,0,0,1,8.17,13.77c.39.74.74,1.48,1.09,2.23a92,92,0,0,1,6.56,20.19C93.47,578.35,93.55,578.79,93.64,579.23Z" transform="translate(67.77 47.75)"/><path class="cls-6" d="M118,564.54a87.29,87.29,0,0,1-1.1,14.69H75.81a67.52,67.52,0,0,1-.79-6.82c-.21-2.58-.34-5.2-.34-7.87,0-1.26,0-2.49.08-3.71a82.6,82.6,0,0,1,2.8-19.1c0-.08,0-.17.09-.26,3.62-14,10.66-23.33,18.79-23.33s15.07,9.48,18.75,23.59a74.71,74.71,0,0,1,1.7,8A95.14,95.14,0,0,1,118,564.54Z" transform="translate(67.77 47.75)"/><path class="cls-6" d="M84.64,579.23H9.08c-1.88-3.76-2.31-7.3-1.09-10.49,3.19-8.48,16.87-11.58,33.74-8.7a72.56,72.56,0,0,1,9.26,2c2.71.7,5.42,1.62,8.17,2.62a87.41,87.41,0,0,1,8.48,3.68A72.49,72.49,0,0,1,75,572.41,66.25,66.25,0,0,1,84.64,579.23Z" transform="translate(67.77 47.75)"/><path class="cls-6" d="M236.47,560.26a94.09,94.09,0,0,1-1.87,19H194.9a94.07,94.07,0,0,1-1.88-19,85.73,85.73,0,0,1,3.64-25.48c2.87-9.48,7.28-16.43,12.57-19.29a10.32,10.32,0,0,1,5.52-1.66c8.93,0,16.54,11.36,20,27.68A100.53,100.53,0,0,1,236.47,560.26Z" transform="translate(67.77 47.75)"/><path class="cls-6" d="M262.17,579.23H216.73a17.35,17.35,0,0,1,.55-2.32,91.26,91.26,0,0,1,5.19-15.11,84,84,0,0,1,12.24-20.29c8.82-11.14,19-16.76,26.24-13.56,4.31,1.87,7.06,6.61,8.06,13.12C270.77,551,268.45,565,262.17,579.23Z" transform="translate(67.77 47.75)"/><path class="cls-6" d="M217.73,579.23H173.17a6.81,6.81,0,0,1-.55-1.33c-8.27-22.94-6.83-44.88,3.09-50.39a6.74,6.74,0,0,1,1.54-.78c5.74-2,12.8,1.22,19.41,8a70.79,70.79,0,0,1,12.57,18.42,81.58,81.58,0,0,1,4.2,9.93,104.57,104.57,0,0,1,3.85,13.78C217.4,577.68,217.62,578.45,217.73,579.23Z" transform="translate(67.77 47.75)"/><path class="cls-8" d="M115.93,565.72a66.51,66.51,0,0,1-1,11.72c-.08.61-.17,1.22-.3,1.79H86.3A62.36,62.36,0,0,1,85,568.61c-.09-1-.09-1.92-.09-2.89a64.66,64.66,0,0,1,.79-10.22,51.92,51.92,0,0,1,1.84-8c2-6.77,5.15-11.71,9-13.76a7.19,7.19,0,0,1,3.93-1.18c5.81,0,10.92,6.82,13.55,17a24.59,24.59,0,0,1,.65,2.75A71,71,0,0,1,115.93,565.72Z" transform="translate(67.77 47.75)"/><path class="cls-8" d="M134.26,579.23h-32.4a12.46,12.46,0,0,1,.39-1.66A65.9,65.9,0,0,1,106,566.8a60,60,0,0,1,8.73-14.47c6.29-7.94,13.52-12,18.71-9.67,3.07,1.34,5,4.72,5.74,9.36C140.39,559.1,138.74,569.08,134.26,579.23Z" transform="translate(67.77 47.75)"/><path class="cls-8" d="M102.56,579.23H70.79a5.87,5.87,0,0,1-.4-1,65.51,65.51,0,0,1-2.75-9.92,50.08,50.08,0,0,1-1-11.28c.18-7.17,2.23-12.58,6-14.73a7,7,0,0,1,1.09-.56,7.75,7.75,0,0,1,3.63-.31h.31c3.14.53,6.64,2.67,9.92,6.07a52,52,0,0,1,9,13.11,66.82,66.82,0,0,1,3,7.08,72.67,72.67,0,0,1,2.75,9.84C102.34,578.13,102.47,578.66,102.56,579.23Z" transform="translate(67.77 47.75)"/><path class="cls-8" d="M94.38,579.23H55.1c-3.72-6.6-5.25-12.81-4.11-17.18a8.71,8.71,0,0,1,1.36-2.88,4.83,4.83,0,0,1,.74-1c2.88-2.76,7.78-3,13.5-1.14l1.49.53a48.88,48.88,0,0,1,6.68,3.23,62,62,0,0,1,6.95,4.94c1.09.87,2.23,1.83,3.32,2.84.79.78,1.58,1.53,2.36,2.36a70.1,70.1,0,0,1,6,6.95,8.3,8.3,0,0,1,.61.78Z" transform="translate(67.77 47.75)"/><path class="cls-6" d="M302.53,577.46c-.11.55-.11,1.21-.22,1.77H259c0-2.1.22-4.2.44-6.4,1.33-12.68,5-23.82,9.6-31.76,5-8.05,10.91-12.79,17-12.13,9.92,1,16.65,16.21,17,35.73A84.3,84.3,0,0,1,302.53,577.46Z" transform="translate(67.77 47.75)"/><path class="cls-6" d="M342.67,579.23H285a84.69,84.69,0,0,1,8.71-7.94q4.64-3.64,9.26-6.62c17.21-10.7,34.08-13.45,40.47-5.51C347.19,563.68,346.64,571.07,342.67,579.23Z" transform="translate(67.77 47.75)"/><path class="cls-8" d="M212.87,565.7a66.53,66.53,0,0,1-1.34,13.53H183.22a67.26,67.26,0,0,1-1.33-13.53,61,61,0,0,1,2.59-18.16c2.05-6.77,5.19-11.72,9-13.76a7.31,7.31,0,0,1,3.93-1.18c6.37,0,11.79,8.1,14.23,19.73A71.18,71.18,0,0,1,212.87,565.7Z" transform="translate(67.77 47.75)"/><path class="cls-8" d="M231.19,579.23h-32.4a12.51,12.51,0,0,1,.4-1.66,64.89,64.89,0,0,1,3.69-10.77,60.31,60.31,0,0,1,8.73-14.47c6.29-7.94,13.52-12,18.71-9.67,3.07,1.34,5,4.72,5.74,9.36C237.32,559.1,235.67,569.08,231.19,579.23Z" transform="translate(67.77 47.75)"/><path class="cls-8" d="M318.64,578.9H286.25a12.32,12.32,0,0,1,.39-1.65,65.58,65.58,0,0,1,3.7-10.77A59.48,59.48,0,0,1,299.07,552c6.29-7.94,13.52-12,18.71-9.67,3.07,1.34,5,4.72,5.74,9.36C324.78,558.77,323.13,568.76,318.64,578.9Z" transform="translate(67.77 47.75)"/><path class="cls-8" d="M270,578.9h32.4a12.32,12.32,0,0,0-.39-1.65,65.58,65.58,0,0,0-3.7-10.77A59.79,59.79,0,0,0,289.58,552c-6.29-7.94-13.52-12-18.71-9.67-3.07,1.34-5,4.72-5.74,9.36C263.87,558.77,265.52,568.76,270,578.9Z" transform="translate(67.77 47.75)"/><path class="cls-8" d="M199.5,579.23H167.73a4.76,4.76,0,0,1-.39-1c-5.9-16.35-4.88-32,2.2-35.93a4.92,4.92,0,0,1,1.1-.55c4.09-1.42,9.12.86,13.84,5.74a50.39,50.39,0,0,1,9,13.13,57,57,0,0,1,3,7.08,74.69,74.69,0,0,1,2.76,9.82C199.26,578.12,199.42,578.68,199.5,579.23Z" transform="translate(67.77 47.75)"/><path class="cls-6" d="M793.43,560.26a86,86,0,0,1-2,19H752a94.09,94.09,0,0,1-1.87-19,98.14,98.14,0,0,1,1.76-18.53c3.42-16.43,11-27.9,20-27.9,6.29,0,12,5.85,15.88,15.11a45.79,45.79,0,0,1,2.1,5.95A85,85,0,0,1,793.43,560.26Z" transform="translate(67.77 47.75)"/><path class="cls-6" d="M820.78,573.93c-.33,1.77-.66,3.53-1,5.3h-43a78.88,78.88,0,0,1,1.1-12.13,83.28,83.28,0,0,1,9.81-28.79c.67-1.21,1.44-2.42,2.1-3.42,5.18-7.16,11.14-11.13,16.87-10.25a11.31,11.31,0,0,1,5.74,2.87C820.34,534.45,824.09,553.09,820.78,573.93Z" transform="translate(67.77 47.75)"/><path class="cls-6" d="M730.33,579.23H685.67c-.53-1.23-1.1-2.32-1.62-3.54A92.56,92.56,0,0,1,678.41,560c-4.41-17.21-2.31-31.77,6.08-35.61,8.08-3.72,19.66,3.54,29.54,17a2.35,2.35,0,0,1,.22.26,87,87,0,0,1,8.17,13.77c.39.74.74,1.48,1.09,2.23a92.43,92.43,0,0,1,6.55,20.19Z" transform="translate(67.77 47.75)"/><path class="cls-6" d="M754.71,564.54a87.32,87.32,0,0,1-1.09,14.69H712.5a64.76,64.76,0,0,1-.79-6.82c-.22-2.58-.35-5.2-.35-7.87,0-1.26,0-2.49.09-3.71a82.06,82.06,0,0,1,2.8-19.1c0-.08,0-.17.08-.26,3.63-14,10.67-23.33,18.79-23.33s15.08,9.48,18.75,23.59a72.32,72.32,0,0,1,1.71,8A95.16,95.16,0,0,1,754.71,564.54Z" transform="translate(67.77 47.75)"/><path class="cls-6" d="M721.32,579.23H645.77c-1.88-3.76-2.32-7.3-1.09-10.49,3.19-8.48,16.86-11.58,33.73-8.7a72.7,72.7,0,0,1,9.27,2c2.71.7,5.42,1.62,8.17,2.62a87.41,87.41,0,0,1,8.48,3.68,72.49,72.49,0,0,1,7.38,4.06A65.59,65.59,0,0,1,721.32,579.23Z" transform="translate(67.77 47.75)"/><path class="cls-6" d="M873.16,560.26a94.09,94.09,0,0,1-1.87,19H831.58a94.09,94.09,0,0,1-1.87-19,85.41,85.41,0,0,1,3.64-25.48c2.87-9.48,7.28-16.43,12.57-19.29a10.31,10.31,0,0,1,5.51-1.66c8.94,0,16.55,11.36,20,27.68A100.53,100.53,0,0,1,873.16,560.26Z" transform="translate(67.77 47.75)"/><path class="cls-6" d="M898.86,579.23H853.42a17.35,17.35,0,0,1,.55-2.32,92.12,92.12,0,0,1,5.18-15.11,83.73,83.73,0,0,1,12.25-20.29c8.82-11.14,19-16.76,26.24-13.56,4.3,1.87,7.06,6.61,8.05,13.12C907.46,551,905.14,565,898.86,579.23Z" transform="translate(67.77 47.75)"/><path class="cls-6" d="M854.41,579.23H809.86a6.81,6.81,0,0,1-.55-1.33C801,555,802.47,533,812.4,527.51a6.74,6.74,0,0,1,1.54-.78c5.73-2,12.79,1.22,19.41,8a71,71,0,0,1,12.57,18.42,81.56,81.56,0,0,1,4.19,9.93A103.15,103.15,0,0,1,854,576.91C854.08,577.68,854.3,578.45,854.41,579.23Z" transform="translate(67.77 47.75)"/><path class="cls-8" d="M752.61,565.72a67.5,67.5,0,0,1-1,11.72c-.09.61-.18,1.22-.31,1.79H723a62.36,62.36,0,0,1-1.27-10.62c-.09-1-.09-1.92-.09-2.89a63.49,63.49,0,0,1,.79-10.22,51.94,51.94,0,0,1,1.83-8c2-6.77,5.16-11.71,9-13.76a7.21,7.21,0,0,1,3.93-1.18c5.82,0,10.93,6.82,13.55,17a27,27,0,0,1,.66,2.75A71.86,71.86,0,0,1,752.61,565.72Z" transform="translate(67.77 47.75)"/><path class="cls-8" d="M770.94,579.23h-32.4a12.51,12.51,0,0,1,.4-1.66,64.89,64.89,0,0,1,3.69-10.77,60.31,60.31,0,0,1,8.73-14.47c6.29-7.94,13.53-12,18.72-9.67,3.06,1.34,5,4.72,5.74,9.36C777.08,559.1,775.42,569.08,770.94,579.23Z" transform="translate(67.77 47.75)"/><path class="cls-8" d="M739.24,579.23H707.47a6.88,6.88,0,0,1-.39-1,64.36,64.36,0,0,1-2.75-9.92,50.08,50.08,0,0,1-1.05-11.28c.17-7.17,2.23-12.58,6-14.73a6.53,6.53,0,0,1,1.09-.56,7.75,7.75,0,0,1,3.63-.31h.3c3.15.53,6.65,2.67,9.92,6.07a51.74,51.74,0,0,1,9,13.11,64.79,64.79,0,0,1,3,7.08,74.26,74.26,0,0,1,2.76,9.84C739,578.13,739.15,578.66,739.24,579.23Z" transform="translate(67.77 47.75)"/><path class="cls-8" d="M731.07,579.23H691.78c-3.71-6.6-5.24-12.81-4.1-17.18a8.69,8.69,0,0,1,1.35-2.88,5.23,5.23,0,0,1,.74-1c2.89-2.76,7.78-3,13.51-1.14l1.48.53a49,49,0,0,1,6.69,3.23,62.91,62.91,0,0,1,6.95,4.94c1.09.87,2.23,1.83,3.32,2.84.78.78,1.57,1.53,2.36,2.36a68.66,68.66,0,0,1,6,6.95c.22.26.44.52.62.78Z" transform="translate(67.77 47.75)"/><path class="cls-6" d="M939.22,577.46c-.11.55-.11,1.21-.22,1.77H895.66c0-2.1.22-4.2.44-6.4,1.32-12.68,5-23.82,9.59-31.76,5-8.05,10.92-12.79,17-12.13,9.93,1,16.66,16.21,17,35.73A84.3,84.3,0,0,1,939.22,577.46Z" transform="translate(67.77 47.75)"/><path class="cls-6" d="M979.36,579.23H921.68a86.83,86.83,0,0,1,8.71-7.94q4.64-3.64,9.27-6.62c17.2-10.7,34.07-13.45,40.47-5.51C983.88,563.68,983.33,571.07,979.36,579.23Z" transform="translate(67.77 47.75)"/><path class="cls-8" d="M849.55,565.7a67.26,67.26,0,0,1-1.33,13.53H819.91a66.53,66.53,0,0,1-1.34-13.53,61,61,0,0,1,2.6-18.16c2-6.77,5.19-11.72,9-13.76a7.37,7.37,0,0,1,3.93-1.18c6.37,0,11.8,8.1,14.24,19.73A72,72,0,0,1,849.55,565.7Z" transform="translate(67.77 47.75)"/><path class="cls-8" d="M867.88,579.23h-32.4a12.46,12.46,0,0,1,.39-1.66,65.9,65.9,0,0,1,3.7-10.77,59.67,59.67,0,0,1,8.73-14.47c6.29-7.94,13.52-12,18.71-9.67,3.07,1.34,5,4.72,5.74,9.36C874,559.1,872.36,569.08,867.88,579.23Z" transform="translate(67.77 47.75)"/><path class="cls-8" d="M955.33,578.9h-32.4a12.37,12.37,0,0,1,.4-1.65A64.58,64.58,0,0,1,927,566.48,60.11,60.11,0,0,1,935.75,552c6.29-7.94,13.53-12,18.72-9.67,3.06,1.34,5,4.72,5.74,9.36C961.46,558.77,959.81,568.76,955.33,578.9Z" transform="translate(67.77 47.75)"/><path class="cls-8" d="M906.69,578.9h32.4a12.37,12.37,0,0,0-.4-1.65A64.58,64.58,0,0,0,935,566.48,60.11,60.11,0,0,0,926.27,552c-6.29-7.94-13.53-12-18.71-9.67-3.07,1.34-5,4.72-5.75,9.36C900.56,558.77,902.21,568.76,906.69,578.9Z" transform="translate(67.77 47.75)"/><path class="cls-8" d="M836.19,579.23H804.42a4.81,4.81,0,0,1-.4-1c-5.89-16.35-4.87-32,2.21-35.93a4.72,4.72,0,0,1,1.1-.55c4.09-1.42,9.12.86,13.84,5.74a50.37,50.37,0,0,1,9,13.13,58.57,58.57,0,0,1,3,7.08,74.59,74.59,0,0,1,2.75,9.82C836,578.12,836.11,578.68,836.19,579.23Z" transform="translate(67.77 47.75)"/><circle class="cls-9" cx="1302.93" cy="587.78" r="40.17"/><circle class="cls-9" cx="1302.93" cy="587.78" r="23.27"/><circle class="cls-9" cx="1014.03" cy="587.78" r="40.17"/><circle class="cls-9" cx="1014.03" cy="587.78" r="23.27"/><path class="cls-10" d="M1326.82,531.25H799.12a40.1,40.1,0,0,1-36.3-22.75A100.73,100.73,0,0,1,757,493.4a85,85,0,0,1-3-33.94c.3-2.47.72-5,1.27-7.54a87,87,0,0,1,22.1-41.17c1.08-1.77,2.2-3.54,3.35-5.35A625.75,625.75,0,0,1,875.43,289a43.7,43.7,0,0,1,30-12.23L1104,275.3a43.64,43.64,0,0,1,29.42,11.08l133.46,119,2.61,2.33a129.12,129.12,0,0,1,56,33.59q3.66,3.78,6.85,7.68a126.55,126.55,0,0,1,19.86,33.93c1.24,3.12,2.32,6.19,3.25,9.17A30.06,30.06,0,0,1,1326.82,531.25Z" transform="translate(67.77 47.75)"/><path class="cls-11" d="M1326.82,531.25H799.12a40.1,40.1,0,0,1-36.3-22.75A100.73,100.73,0,0,1,757,493.4a85,85,0,0,1-3-33.94c.3-2.47.72-5,1.27-7.54a87,87,0,0,1,22.1-41.17c1.08-1.77,2.2-3.54,3.35-5.35h486.13l2.61,2.33a129.12,129.12,0,0,1,56,33.59q3.66,3.78,6.85,7.68a126.55,126.55,0,0,1,19.86,33.93c1.24,3.12,2.32,6.19,3.25,9.17A30.06,30.06,0,0,1,1326.82,531.25Z" transform="translate(67.77 47.75)"/><circle class="cls-12" cx="936.1" cy="575.36" r="52.59"/><circle class="cls-9" cx="936.1" cy="575.36" r="38.74"/><circle class="cls-13" cx="936.1" cy="575.36" r="24.2"/><circle class="cls-12" cx="1245.86" cy="575.36" r="52.59"/><circle class="cls-9" cx="1245.86" cy="575.36" r="38.74"/><circle class="cls-13" cx="1245.86" cy="575.36" r="24.2"/><path class="cls-2" d="M1223.17,405.4H844.23c-18.37,0-28.67-19.31-17.32-32.48l64-74.34a22.86,22.86,0,0,1,17.32-7.68h185.43a23.32,23.32,0,0,1,14.66,5.1l119.83,97.46C1233.3,397.64,1230.06,405.4,1223.17,405.4Z" transform="translate(67.77 47.75)"/><rect class="cls-10" x="1078.6" y="333.02" width="15.75" height="120.14"/><rect class="cls-9" x="1085.78" y="466.81" width="1.41" height="80.8"/><path class="cls-14" d="M807.74,507.21H837.5a9.91,9.91,0,0,1,9.91,9.91v24a0,0,0,0,1,0,0H807.74a0,0,0,0,1,0,0V507.21A0,0,0,0,1,807.74,507.21Z"/><path class="cls-14" d="M1352.19,482.93h-11.12a33.94,33.94,0,0,1-34-33.93h25.21A126.55,126.55,0,0,1,1352.19,482.93Z" transform="translate(67.77 47.75)"/><path class="cls-9" d="M1093,444.31h-29.84v-4.94a4.13,4.13,0,0,1,4.12-4.12H1093Zm-28.43-1.4h27v-6.25h-24.32a2.71,2.71,0,0,0-2.71,2.71Z" transform="translate(67.77 47.75)"/><path class="cls-9" d="M937.91,444.31H908.07v-4.94a4.13,4.13,0,0,1,4.12-4.12h25.72Zm-28.43-1.4h27v-6.25H912.19a2.71,2.71,0,0,0-2.71,2.71Z" transform="translate(67.77 47.75)"/><rect class="cls-15" x="1046.66" y="243.41" width="79.64" height="79.64"/><text class="cls-16" transform="translate(1075.67 311.09)">L</text><path class="cls-13" d="M350.43,567.78H254.37l11.87-31.4L271,523.85l6.67-17.66,4.75-12.55,12.89-34.1a7.6,7.6,0,0,1,14.23,0l12.89,34.1,4.74,12.55,6.68,17.66,4.73,12.53Z" transform="translate(67.77 47.75)"/><path class="cls-13" d="M319.31,615.54H421a7.54,7.54,0,0,1,7.54,7.54v3.58a0,0,0,0,1,0,0H311.76a0,0,0,0,1,0,0v-3.58A7.54,7.54,0,0,1,319.31,615.54Z"/><polygon class="cls-14" points="394.92 553.94 345.42 553.94 350.17 541.4 390.18 541.4 394.92 553.94"/><polygon class="cls-14" points="406.33 584.14 334.01 584.14 338.75 571.6 401.6 571.6 406.33 584.14"/><polygon class="cls-17" points="322.14 615.53 374.91 615.45 323.97 610.69 322.14 615.53"/><path class="cls-13" d="M674.75,567.54H578.69l11.87-31.4,4.73-12.53L602,506l4.74-12.55,12.89-34.11a7.61,7.61,0,0,1,14.23,0l12.89,34.11L651.47,506l6.68,17.66,4.73,12.53Z" transform="translate(67.77 47.75)"/><path class="cls-13" d="M643.63,615.29H745.35a7.54,7.54,0,0,1,7.54,7.54v3.58a0,0,0,0,1,0,0H636.08a0,0,0,0,1,0,0v-3.58A7.54,7.54,0,0,1,643.63,615.29Z"/><polygon class="cls-14" points="719.24 553.7 669.74 553.7 674.48 541.15 714.49 541.15 719.24 553.7"/><polygon class="cls-14" points="730.65 583.89 658.33 583.89 663.06 571.36 725.91 571.36 730.65 583.89"/><polygon class="cls-17" points="646.46 615.29 699.23 615.21 648.29 610.45 646.46 615.29"/><path class="cls-9" d="M678,405.46c9.55-6.17,36.57-21.83,73.72-20a124.48,124.48,0,0,1,59.69,18.85,132.12,132.12,0,0,1-54.75,18.16C718.23,426.23,689.08,411.73,678,405.46Z" transform="translate(67.77 47.75)"/><path class="cls-15" d="M847.87,642.37H659.24c-5.71-26.46-13.3-80.25,8-141a252.84,252.84,0,0,1,36-67.54H803.9a314.57,314.57,0,0,1,30.69,65.71C854.13,558.35,852,610.49,847.87,642.37Z" transform="translate(67.77 47.75)"/><path class="cls-6" d="M672.25,642.51a301.78,301.78,0,0,1,1.38-124l1.38.31a299.91,299.91,0,0,0-1.38,123.47Z" transform="translate(67.77 47.75)"/><path class="cls-6" d="M825.79,642.51l-1.38-.27A300.19,300.19,0,0,0,823,518.77l1.38-.31a301.58,301.58,0,0,1,1.37,124Z" transform="translate(67.77 47.75)"/><rect class="cls-18" x="770.98" y="309.28" width="100.68" height="172.32"/><rect class="cls-2" x="752.01" y="541.86" width="1.41" height="100.52" transform="translate(57.93 60.47) rotate(-0.96)"/><path class="cls-2" d="M751.89,542.49c-8.87,0-13.75-7.35-14-7.67l1.18-.77c0,.08,5,7.46,13.54,7,7.49-.39,11.54-6.33,12-7l1.18.76c-.48.74-4.9,7.22-13.08,7.64Z" transform="translate(67.77 47.75)"/><path class="cls-13" d="M731.61,248A202.64,202.64,0,0,0,594.82,360.61a40.07,40.07,0,0,0-1,31.12A321,321,0,0,0,680,516.66a44.41,44.41,0,0,0,26-29.22A400.69,400.69,0,0,0,670,416a396.29,396.29,0,0,0-25.29-35.33,110.07,110.07,0,0,0,37.9-26.06c8.38-8.93,15.15-17.26,20.59-31.63Q717.42,285.45,731.61,248Z" transform="translate(67.77 47.75)"/><path class="cls-13" d="M800.25,248a202.09,202.09,0,0,1,71.66,91.52,225.78,225.78,0,0,1,30.32-30.31,229,229,0,0,1,66.33-38.11l14.07,20.32a210.69,210.69,0,0,1-56.84,83.32,207.92,207.92,0,0,1-58,36.45,169.66,169.66,0,0,1-67.52-69.6Z" transform="translate(67.77 47.75)"/><path class="cls-12" d="M819.08,229.34l-6.34-.08q-.94-5.4-1.91-10.8l-3,10.74-3.12,0c-.34-1.26-.66-2.55-1-3.81l-1.55,3.78-5.59-.07q-1.17-4.45-2.32-8.89L790.67,229l-33.56-.41q-1-5.57-2-11.11l-3.07,11q-8.31-.1-16.61-.19c-.17-1-.34-2-.52-3l-.82,2.94-8.93-.1Q724.1,222,723,215.87l-3.4,12.25-7.25-.1v-7.85L709.17,228l-4.29-.05V215.18l-5.16,12.69c-3.15-.05-6.32-.07-9.47-.12-7.82-11.12-7.64-17.54-6.12-21.29,3.69-9.17,17.91-9.33,20-19.44.83-4.08-1-6.3.8-11.45a20.9,20.9,0,0,1,6.73-9.1,46,46,0,0,1,13.18-31.81,45,45,0,0,1,76.78,31.81c4.24,3.11,9.4,8,10.58,15,1.32,7.66-3.4,10.92-1.32,17.31,2.66,8.21,12.21,8.14,14.11,15.43C825.75,217.27,825.26,222.09,819.08,229.34Z" transform="translate(67.77 47.75)"/><rect class="cls-18" x="738.87" y="198.62" width="43.62" height="51.45" transform="translate(1589.12 496.44) rotate(180)"/><path class="cls-9" d="M782.48,198.62v39c-5.66,1.78-9,.92-11-.24-4.16-2.42-3-6.4-8-10.19-3.71-2.82-6-1.89-9.67-5.23a17.8,17.8,0,0,1-4.25-6.07V198.62Z" transform="translate(67.77 47.75)"/><ellipse class="cls-18" cx="833.71" cy="226.39" rx="31.4" ry="43.56"/><circle class="cls-18" cx="728.78" cy="178.61" r="10.09" transform="translate(154.93 615.39) rotate(-45)"/><path class="cls-9" d="M725.62,185c-3.67-2.57-4.93-7.37-2.87-10.91a8.16,8.16,0,0,1,7.79-3.78l-.08,1a7.1,7.1,0,0,0-6.8,3.26c-1.78,3.07-.66,7.25,2.57,9.52Z" transform="translate(67.77 47.75)"/><circle class="cls-18" cx="797.34" cy="178.49" r="10.09" transform="translate(175.1 663.84) rotate(-45)"/><path class="cls-19" d="M758.76,200.59A10.45,10.45,0,0,1,771.84,204a11.65,11.65,0,0,1-13.08-3.43Z" transform="translate(67.77 47.75)"/><path class="cls-19" d="M758.76,200.59A6.79,6.79,0,1,0,771.84,204a11.1,11.1,0,0,1-13.08-3.43Z" transform="translate(67.77 47.75)"/><path class="cls-9" d="M771.9,196l-.61-.85c2.7-2,3.4-4,3-4.53s-2.08-.48-3.18-.23l-.64.14V175.31h1v14c1.07-.16,3-.27,3.66.82C776.1,191.48,774.67,194,771.9,196Z" transform="translate(67.77 47.75)"/><path class="cls-9" d="M779.83,178.49c0,2.17.37,3.93.84,3.93s.84-1.76.84-3.93-.37-3.93-.84-3.93S779.83,176.32,779.83,178.49Z" transform="translate(67.77 47.75)"/><path class="cls-9" d="M757.38,178.49c0,2.17.37,3.93.84,3.93s.84-1.76.84-3.93-.38-3.93-.84-3.93S757.38,176.32,757.38,178.49Z" transform="translate(67.77 47.75)"/><circle class="cls-13" cx="813.62" cy="238.5" r="6.98"/><path class="cls-13" d="M779.83,192.44a7,7,0,1,0,7-7A7,7,0,0,0,779.83,192.44Z" transform="translate(67.77 47.75)"/><path class="cls-9" d="M767.42,205.38a11.5,11.5,0,0,1-5.79-1.53,12.24,12.24,0,0,1-5.45-7.38l1-.27a11.11,11.11,0,0,0,4.95,6.73,11.51,11.51,0,0,0,12.48-1l.62.86A13.5,13.5,0,0,1,767.42,205.38Z" transform="translate(67.77 47.75)"/><path class="cls-9" d="M754.51,198.14a3.76,3.76,0,0,1-.94-.12l.28-1a2.29,2.29,0,0,0,2-.39,2.26,2.26,0,0,0,.39-2.74l.94-.49a3.33,3.33,0,0,1-.64,4A3.07,3.07,0,0,1,754.51,198.14Z" transform="translate(67.77 47.75)"/><path class="cls-9" d="M749.64,165.8c0,.5,2.79.9,6.24.9s6.24-.4,6.24-.9-2.79-.89-6.24-.89S749.64,165.31,749.64,165.8Z" transform="translate(67.77 47.75)"/><path class="cls-9" d="M776.79,166.7c0,.5,2.79.9,6.24.9s6.24-.4,6.24-.9-2.79-.9-6.24-.9S776.79,166.2,776.79,166.7Z" transform="translate(67.77 47.75)"/><path class="cls-12" d="M771.84,129.93c-14.34-1.61-27.86,4.83-34.2,16.18-6.07,10.87-3.2,22.06-2.45,24.72a54.69,54.69,0,0,0,36.65-40.9Z" transform="translate(67.77 47.75)"/><path class="cls-13" d="M811.41,404.3c-27.13,7.5-47,5.36-60.29,1.9-16.46-4.29-29.31-12.31-48.72-9.61a64.32,64.32,0,0,0-24.4,8.87c7-26.16,15.35-53.76,25.21-82.51,9.14-26.63,18.71-51.64,28.4-75h68.64A312.35,312.35,0,0,1,811.41,404.3Z" transform="translate(67.77 47.75)"/><rect class="cls-18" x="816.76" y="294.16" width="26.27" height="171.61"/><rect class="cls-2" x="816.76" y="305.33" width="26.27" height="143.22"/><path class="cls-10" d="M788.55,271.79a4.11,4.11,0,1,1-4.1-4.1A4.11,4.11,0,0,1,788.55,271.79Z" transform="translate(67.77 47.75)"/><path class="cls-10" d="M788.55,299.64a4.11,4.11,0,1,1-4.1-4.1A4.1,4.1,0,0,1,788.55,299.64Z" transform="translate(67.77 47.75)"/><path class="cls-10" d="M788.55,329.29a4.11,4.11,0,1,1-4.1-4.11A4.11,4.11,0,0,1,788.55,329.29Z" transform="translate(67.77 47.75)"/><path class="cls-10" d="M788.55,357.13a4.11,4.11,0,1,1-4.1-4.1A4.11,4.11,0,0,1,788.55,357.13Z" transform="translate(67.77 47.75)"/><path class="cls-10" d="M788.55,385.06a4.11,4.11,0,1,1-4.1-4.11A4.11,4.11,0,0,1,788.55,385.06Z" transform="translate(67.77 47.75)"/><path class="cls-2" d="M664.79,520.92l-.09-1.41a46.08,46.08,0,0,0,29.67-13.31c13.41-13.61,13.14-30.75,12.74-35.68l1.4-.11c.42,5.08.69,22.74-13.14,36.78A47.57,47.57,0,0,1,664.79,520.92Z" transform="translate(67.77 47.75)"/><path class="cls-2" d="M838.14,524.06a47.51,47.51,0,0,1-30.58-13.73c-13.83-14-13.56-31.7-13.14-36.78l1.4.12c-.4,4.92-.67,22.06,12.74,35.67a46.11,46.11,0,0,0,29.67,13.32Z" transform="translate(67.77 47.75)"/><rect class="cls-10" x="811.02" y="302.94" width="2.92" height="146.94"/><path class="cls-15" d="M701.94,435.57l-3.66-11.42H808.44L805.18,436Z" transform="translate(67.77 47.75)"/><path class="cls-20" d="M758.13,434.42a4.58,4.58,0,1,1-4.57-4.58A4.57,4.57,0,0,1,758.13,434.42Z" transform="translate(67.77 47.75)"/><path class="cls-15" d="M687.94,431.33" transform="translate(67.77 47.75)"/><rect class="cls-20" x="771.86" y="481.68" width="43.21" height="1.81"/><rect class="cls-20" x="828.46" y="481.68" width="43.21" height="1.81"/><path class="cls-6" d="M1104.93,246.73l-15.36,115.35a16.92,16.92,0,0,1-19,14.54L868.77,349.76a16.93,16.93,0,0,1-14.54-19L869.59,215.4a16.92,16.92,0,0,1,19-14.54l201.78,26.87A16.92,16.92,0,0,1,1104.93,246.73Z" transform="translate(67.77 47.75)"/><path class="cls-21" d="M1066.73,367.42a17,17,0,0,1-2.24-.15L877.08,342.33a16.22,16.22,0,0,1-14.17-18l13.83-103.91a16.21,16.21,0,0,1,18.39-13.65l187.4,25a16.6,16.6,0,0,1,10.89,6.16,15.58,15.58,0,0,1,3.28,11.82l-13.83,103.91A16.13,16.13,0,0,1,1066.73,367.42ZM892.89,208.05a14.73,14.73,0,0,0-14.75,12.57L864.3,324.53a14.81,14.81,0,0,0,13,16.4l187.4,24.95a14.81,14.81,0,0,0,16.81-12.44l13.83-103.91a14.21,14.21,0,0,0-3-10.76,15.13,15.13,0,0,0-10-5.63l-187.4-24.95A14.32,14.32,0,0,0,892.89,208.05Z" transform="translate(67.77 47.75)"/><path class="cls-8" d="M1104.93,246.73l-2.13,16L867.46,231.39l2.13-16a16.92,16.92,0,0,1,19-14.54l201.78,26.87A16.92,16.92,0,0,1,1104.93,246.73Z" transform="translate(67.77 47.75)"/><rect class="cls-21" x="878.05" y="251.42" width="51" height="51" transform="translate(112.21 -69.06) rotate(7.58)"/><path class="cls-12" d="M921.71,298.42l-42-6.12c-2.07-4-1.73-6.05-1.07-7.21,1.6-2.83,6.24-2.27,7.36-5.48.44-1.29-.07-2.1.75-3.7a6.93,6.93,0,0,1,2.59-2.67,15.12,15.12,0,0,1,5.68-9.81,14.77,14.77,0,0,1,11-2.91h0a14.8,14.8,0,0,1,12.72,16.63,8.08,8.08,0,0,1,2.81,5.33c.09,2.56-1.59,3.42-1.19,5.59.52,2.8,3.63,3.19,3.94,5.65C924.4,294.77,924,296.32,921.71,298.42Z" transform="translate(67.77 47.75)"/><rect class="cls-18" x="895.69" y="285.78" width="14.36" height="16.94" transform="translate(1826.77 752.82) rotate(-172.42)"/><path class="cls-9" d="M911.1,286.8q-.86,6.36-1.7,12.72a4.3,4.3,0,0,1-3.56-.55c-1.25-1-.69-2.22-2.16-3.67-1.08-1.08-1.88-.88-2.92-2.13a5.77,5.77,0,0,1-1.13-2.16l.75-5.63Z" transform="translate(67.77 47.75)"/><path class="cls-18" d="M896.32,278.2c-1,7.85,2.7,14.83,8.36,15.58s11.09-5,12.13-12.85-2.69-14.82-8.35-15.58S897.37,270.35,896.32,278.2Z" transform="translate(67.77 47.75)"/><path class="cls-18" d="M891.16,277.5a3.32,3.32,0,1,0,3.72-2.85A3.31,3.31,0,0,0,891.16,277.5Z" transform="translate(67.77 47.75)"/><path class="cls-22" d="M895.34,275.49a2.52,2.52,0,0,0-2.53.83,2.6,2.6,0,0,0,.44,3.45" transform="translate(67.77 47.75)"/><path class="cls-18" d="M913.53,280.44a3.32,3.32,0,1,0,3.73-2.85A3.32,3.32,0,0,0,913.53,280.44Z" transform="translate(67.77 47.75)"/><path class="cls-23" d="M903.27,286.42a3.51,3.51,0,0,1,2.32.06,3.45,3.45,0,0,1,1.8,1.62,3.85,3.85,0,0,1-4.12-1.68Z" transform="translate(67.77 47.75)"/><path class="cls-23" d="M903.27,286.42a2.23,2.23,0,1,0,4.12,1.68A3.63,3.63,0,0,1,905,288,3.7,3.7,0,0,1,903.27,286.42Z" transform="translate(67.77 47.75)"/><path class="cls-22" d="M908.38,278.7l-.64,4.76c.06,0,1-.08,1.2.32s-.29,1-1.26,1.57" transform="translate(67.77 47.75)"/><path class="cls-9" d="M911.11,280.12c-.1.71-.05,1.3.1,1.32s.35-.54.45-1.25,0-1.3-.11-1.32S911.2,279.41,911.11,280.12Z" transform="translate(67.77 47.75)"/><path class="cls-9" d="M903.78,279.14c-.09.71,0,1.3.1,1.32s.36-.53.45-1.24,0-1.3-.1-1.32S903.87,278.44,903.78,279.14Z" transform="translate(67.77 47.75)"/><path class="cls-13" d="M910.62,284.54a2.48,2.48,0,1,0,2.79-2.13A2.48,2.48,0,0,0,910.62,284.54Z" transform="translate(67.77 47.75)"/><path class="cls-13" d="M897.84,282.06a2.48,2.48,0,1,0,2.79-2.13A2.48,2.48,0,0,0,897.84,282.06Z" transform="translate(67.77 47.75)"/><path class="cls-22" d="M908.48,287.69a4,4,0,0,1-4.31-.22,3.91,3.91,0,0,1-1.39-2.53" transform="translate(67.77 47.75)"/><path class="cls-22" d="M902.92,284.05a.93.93,0,0,1-.32,1.09.91.91,0,0,1-.84.05" transform="translate(67.77 47.75)"/><path class="cls-9" d="M901.81,274.67c0,.16.87.41,2,.56s2.06.14,2.08,0-.87-.41-2-.56S901.83,274.51,901.81,274.67Z" transform="translate(67.77 47.75)"/><path class="cls-9" d="M910.63,276.14c0,.16.87.42,2,.57s2.06.14,2.08,0-.87-.41-2-.56S910.65,276,910.63,276.14Z" transform="translate(67.77 47.75)"/><path class="cls-12" d="M913.3,265.52a4.07,4.07,0,0,1-.64,3.43,4,4,0,0,1-4.66,1,2.92,2.92,0,0,1-5.27.76,5.65,5.65,0,0,1-6.09,5.42c0-.28-1-6.33,3.39-10.13A11,11,0,0,1,913.3,265.52Z" transform="translate(67.77 47.75)"/><rect class="cls-21" x="962.55" y="268.55" width="122.87" height="6.01" transform="translate(112.56 -85) rotate(7.58)"/><rect class="cls-21" x="960.45" y="284.31" width="122.87" height="6.01" transform="translate(114.62 -84.58) rotate(7.58)"/><rect class="cls-21" x="872.07" y="314.71" width="124.69" height="6.01" transform="matrix(0.99, 0.13, -0.13, 0.99, 117.87, -72.77)"/><circle class="cls-15" cx="1060.73" cy="334.53" r="16.7" transform="translate(53.37 97.4) rotate(-2.66)"/><path class="cls-18" d="M948.8,260.3h0a9.47,9.47,0,0,1-7.63-11l7.62-42.22a9.47,9.47,0,0,1,11-7.64h0a9.47,9.47,0,0,1,7.63,11l-7.62,42.22A9.47,9.47,0,0,1,948.8,260.3Z" transform="translate(67.77 47.75)"/><path class="cls-18" d="M1004.39,271.94h0a9.46,9.46,0,0,1-7.63-11l7.62-42.23a9.46,9.46,0,0,1,11-7.63h0a9.45,9.45,0,0,1,7.63,11l-7.62,42.23A9.46,9.46,0,0,1,1004.39,271.94Z" transform="translate(67.77 47.75)"/><path class="cls-18" d="M967.43,263.66h0a9.45,9.45,0,0,1-7.63-11l8.54-47.34a9.45,9.45,0,0,1,11-7.63h0a9.46,9.46,0,0,1,7.63,11L978.42,256A9.45,9.45,0,0,1,967.43,263.66Z" transform="translate(67.77 47.75)"/><path class="cls-18" d="M986.05,267h0a9.45,9.45,0,0,1-7.63-11L987,208.69a9.46,9.46,0,0,1,11-7.63h0a9.47,9.47,0,0,1,7.64,11L997,259.39A9.45,9.45,0,0,1,986.05,267Z" transform="translate(67.77 47.75)"/><path class="cls-24" d="M973.91,198a9.36,9.36,0,0,1,5.29-.56h0a9.45,9.45,0,0,1,7.63,11l-8.55,47.34a9.45,9.45,0,0,1-11,7.63" transform="translate(67.77 47.75)"/><line class="cls-24" x1="1072.43" y1="264.95" x2="1064.81" y2="307.15"/><line class="cls-24" x1="1035.18" y1="258.21" x2="1027.57" y2="300.41"/><path class="cls-13" d="M948.73,263.08h0a6.51,6.51,0,0,1-5.24-7.56l.8-4.44a6.5,6.5,0,0,1,7.55-5.24h0a6.49,6.49,0,0,1,5.25,7.55l-.8,4.44A6.5,6.5,0,0,1,948.73,263.08Z" transform="translate(67.77 47.75)"/><path class="cls-13" d="M966.94,266.36h0a6.5,6.5,0,0,1-5.25-7.55l.81-4.44a6.49,6.49,0,0,1,7.55-5.25h0a6.51,6.51,0,0,1,5.25,7.56l-.8,4.44A6.51,6.51,0,0,1,966.94,266.36Z" transform="translate(67.77 47.75)"/><path class="cls-13" d="M985.56,269.73h0a6.51,6.51,0,0,1-5.24-7.56l.8-4.44a6.5,6.5,0,0,1,7.55-5.25h0a6.5,6.5,0,0,1,5.25,7.56l-.8,4.44A6.51,6.51,0,0,1,985.56,269.73Z" transform="translate(67.77 47.75)"/><path class="cls-13" d="M1004.85,274h0a6.5,6.5,0,0,1-5.25-7.56l.8-4.44a6.51,6.51,0,0,1,7.56-5.25h0a6.51,6.51,0,0,1,5.24,7.56l-.8,4.44A6.51,6.51,0,0,1,1004.85,274Z" transform="translate(67.77 47.75)"/></g></g></svg>