<svg width="408" height="65" viewBox="0 0 408 65" fill="none" xmlns="http://www.w3.org/2000/svg">
<path d="M3.96875 63H26C35 63 40.3438 58.3125 40.3438 50.5312C40.3438 45 36.8438 40.7812 31.375 39.5625C35.9375 38.125 38.8438 34.375 38.8438 29.1562C38.8438 22.3438 33.9062 18.1875 24.6562 18.1875H3.96875V63ZM8.15625 39.875C8.15625 37.5312 10.0625 35.625 12.375 35.625H13.875C14.8125 35.625 15.5938 35 15.5938 33.9062V30.9688C15.5938 29.9375 14.8125 29.3125 13.875 29.3125H12.4375C10.0938 29.3125 8.25 27.5 8.25 25.125C8.25 22.8125 10.0938 20.9688 12.4375 20.9688C14.7188 20.9688 16.625 22.8125 16.625 25.125V26.4375C16.625 27.3125 17.1562 27.8125 17.9688 27.8125H22.4062C25.3438 27.8125 26.875 29.3125 26.875 31.6562C26.875 34.1875 25.125 35.5938 22.375 35.5938H18.3438C16.0312 35.5938 14.1562 37.4688 14.1562 39.8125C14.1562 42.1562 16.0312 44 18.3438 44H23C26.5625 44 28.4375 45.6562 28.4375 48.4688C28.4375 51.7188 26.2188 53.3438 22.75 53.3438H17.9688C17.1562 53.3438 16.625 53.875 16.625 54.7812V55.0312C16.625 57.3125 14.7188 59.1562 12.4375 59.1562C10.0938 59.1562 8.25 57.3125 8.25 55C8.25 52.6562 10.0938 50.8125 12.4375 50.8125H13.875C14.875 50.8125 15.5938 50.1562 15.5938 49.1562V45.625C15.5938 44.625 14.9062 43.9688 13.875 43.9688H12.375C10.0625 43.9688 8.15625 42.0938 8.15625 39.875ZM61.625 63.9062C70.9375 63.9062 77.0312 59.625 78.0312 52.0625H66.6562C66.2812 54.75 64.5625 56.3125 61.75 56.3125C58.4375 56.3125 56.4375 54.0625 56.1875 50.625C56.125 49.7812 55.6875 49.375 54.875 49.375H54.0938C51.9062 49.375 50.25 47.9375 50.25 45.7812C50.25 43.5938 51.9062 42.1562 54.0938 42.1562H54.7188C55.6875 42.1562 56.0625 41.8125 56.25 40.9688C56.875 38.0625 58.8125 36.2812 61.6562 36.2812C64.6562 36.2812 66.5625 38.0312 66.75 42.3438H59.25C57.0312 42.3438 55.5312 43.6875 55.5312 45.8125C55.5312 47.9062 57.0312 49.25 59.25 49.25H78.125C78.1562 48.2812 78.1562 47.1562 78.1562 46.0312C78.1562 34.9688 71.1875 28.9688 61.625 28.9688C51.6562 28.9688 44.25 35.1562 44.25 46.4688C44.25 58.1562 51.125 63.9062 61.625 63.9062ZM83.5938 63H94.9375V43.0938C94.9375 39.5625 96.5 37.4062 99.2812 37.4062C101.562 37.4062 102.781 38.9375 102.781 41.5V63H114.125V42.7812C114.125 39.4688 115.781 37.4062 118.531 37.4062C120.781 37.4062 122 38.9375 122 41.5V63H133.344V40.8125C133.344 33.7188 129.625 28.9688 123.031 28.9688C118.406 28.9688 114.594 31.0625 112.562 34.6562C111.156 31.0938 108.188 28.9688 104.094 28.9688C98.5 28.9688 94.6562 31.6875 93.375 38.1875C92.9062 40.6562 91.5625 42.0938 89.4375 42.0938C87.1875 42.0938 85.5938 40.375 85.5938 38.1875C85.5938 35.9375 87.375 34.3125 89.6562 34.3125H91.875C92.8125 34.3125 93.4062 33.7188 93.4062 32.7812V29.875H83.5938V63ZM159.438 63H173.031L184.094 29.875H172.312L167.656 47.25C167.562 47.5938 167.469 48.0625 167.469 48.4375C167.469 49 167.656 49.4375 168.062 49.875L169.312 51.1562C170.188 52.0312 170.562 53.125 170.562 54.1875C170.562 56.5938 168.688 58.5938 166.281 58.5938C163.875 58.5938 161.969 56.5938 161.969 54.1875C161.969 53.0938 162.375 52.0312 163.219 51.1562L164.469 49.9062C164.938 49.4062 165.125 48.9375 165.125 48.3438C165.125 48 165.062 47.625 164.938 47.2188L160 29.875H147.969L159.438 63ZM187.906 63H199.25V29.875H187.906V63ZM187.781 26.625H199.406V17.4688H187.781V26.625ZM205.969 63H217.312V43.5625C217.312 39.6562 218.969 37.4062 222.031 37.4062C224.562 37.4062 225.844 39 225.844 41.625V63H237.188V40.8125C237.188 33.7188 233.25 28.9688 226.438 28.9688C220.125 28.9688 216.875 32.3438 215.75 38.1875C215.312 40.6562 213.938 42.0938 211.812 42.0938C209.562 42.0938 207.969 40.375 207.969 38.1875C207.969 35.9375 209.75 34.3125 212.031 34.3125H214.25C215.188 34.3125 215.781 33.7188 215.781 32.7812V29.875H205.969V63ZM265.438 18.1875V32.4375C265.438 33.4688 266 34.0312 266.844 34.0312H269.312C271.625 34.0312 273.25 35.6562 273.25 37.8125C273.25 39.9688 271.594 41.6562 269.469 41.6562C267.156 41.6562 265.969 39.9375 265.469 37.7812C264.844 35.25 263.938 33.25 262.656 31.7812C261.031 29.9062 258.812 28.9688 255.844 28.9688C247.562 28.9688 242.344 35.4375 242.344 46.4688C242.344 57.4375 247.5 63.9062 255.5 63.9062C260.031 63.9062 263.344 61.9062 265.094 58.25V63H276.375V18.1875H265.438ZM253.938 46.4062C253.938 40.875 255.812 37.3125 259.531 37.3125C263.188 37.3125 265.125 40.875 265.125 46.4062C265.125 51.9688 263.188 55.5 259.531 55.5C255.812 55.5 253.938 51.9688 253.938 46.4062ZM298.844 63.9062C309.188 63.9062 316 57.2188 316 46.4375C316 35.625 309.188 28.9688 298.844 28.9688C288.469 28.9688 281.625 35.625 281.625 46.4375C281.625 57.2188 288.469 63.9062 298.844 63.9062ZM283.656 46.4375C283.656 44.2812 285.406 42.5 287.562 42.5C289.719 42.5 291.531 44.2812 291.531 46.4375C291.531 48.5938 289.719 50.375 287.562 50.375C285.406 50.375 283.656 48.5938 283.656 46.4375ZM293.219 46.4375C293.219 40.2812 295.375 37.4062 298.844 37.4062C302.281 37.4062 304.406 40.2188 304.406 46.4375C304.406 52.625 302.281 55.4688 298.844 55.4688C295.375 55.4688 293.219 52.5625 293.219 46.4375ZM306.156 46.4375C306.156 44.2812 307.906 42.5 310.062 42.5C312.25 42.5 314 44.2812 314 46.4375C314 48.5938 312.25 50.375 310.062 50.375C307.906 50.375 306.156 48.5938 306.156 46.4375ZM323.156 48.2812H330.594L332.688 30.5938V18.1875H321.031V30.5938L323.156 48.2812ZM321.5 63H332.188V52.0938H321.5V63Z" fill="#2D2F44"/>
<circle cx="166.5" cy="54.5" r="4.5" fill="#FAF5AC"/>
<circle cx="53.5" cy="45.5" r="4.5" fill="#DD5E5C"/>
<circle cx="269.5" cy="38.5" r="4.5" fill="#56C4C0"/>
</svg>
