<svg width="350" height="74" viewBox="0 0 350 74" fill="none" xmlns="http://www.w3.org/2000/svg">
<path d="M23.3438 63.9062C34.8438 63.9062 42.875 58.0938 43.375 45.7188H31.375C31.0312 50.5938 28.625 54.25 23.6875 54.25C17.5 54.25 14.3438 49.4375 14.3438 40.5938C14.3438 31.6562 17.6875 26.9062 23.5312 26.9062C28.3125 26.9062 31.0625 29.9062 31.4375 35.2812H43.375C43.0938 23.7188 35.1562 17.3125 23.2812 17.3125C10.4375 17.3125 2.25 25.7812 2.25 40.75C2.25 55.4062 10.125 63.9062 23.3438 63.9062ZM4.15625 40.5938C4.15625 38.25 6.03125 36.4062 8.34375 36.4062C10.6875 36.4062 12.5312 38.25 12.5312 40.5938C12.5312 42.9062 10.6875 44.7812 8.34375 44.7812C6.03125 44.7812 4.15625 42.9062 4.15625 40.5938ZM57.6875 63.9062C62.6562 63.9062 66.0938 61.6875 67.9375 58.7188C68.0625 60.375 68.2812 61.7812 68.5625 63H80.2812V61.8438C79.375 61.1562 79 58 79 55.4375V41.9062C79 33.9375 73.875 28.9688 63.6875 28.9688C54.0625 28.9688 47.9375 33.6562 47.6562 40.5H59.3438C59.4375 38 61.125 36.375 63.875 36.375C66.375 36.375 67.6875 37.8125 67.6875 39.5625C67.6875 41.4688 66.5 42.25 63.5 42.6562L57.5 43.4688C50.8125 44.375 46.8125 47.2812 46.8125 53.7188C46.8125 60.0625 51.4375 63.9062 57.6875 63.9062ZM58.375 52.6875C58.375 50.4375 59.9688 49.3438 62.5625 48.8125L64.5625 48.4062C64.9688 48.3125 65.375 48.2188 65.7812 48.1562C67.1562 47.875 67.625 47.125 67.625 45.875V44.9062C67.625 42.7188 69.3125 41.125 71.4375 41.125C73.5625 41.125 75.25 42.7188 75.25 44.9062C75.25 47.125 73.5312 48.75 71.4375 48.75H70.0938C68.9062 48.75 68.2812 49.1562 68.0625 50.25L67.9375 50.8438C67.3438 54 65.4688 56.0625 62.3125 56.0625C60.0312 56.0625 58.375 54.8125 58.375 52.6875ZM107.25 18.1875V32.4375C107.25 33.4688 107.812 34.0312 108.656 34.0312H111.125C113.438 34.0312 115.062 35.6562 115.062 37.8125C115.062 39.9688 113.406 41.6562 111.281 41.6562C108.969 41.6562 107.781 39.9375 107.281 37.7812C106.656 35.25 105.75 33.25 104.469 31.7812C102.844 29.9062 100.625 28.9688 97.6562 28.9688C89.375 28.9688 84.1562 35.4375 84.1562 46.4688C84.1562 57.4375 89.3125 63.9062 97.3125 63.9062C101.844 63.9062 105.156 61.9062 106.906 58.25V63H118.188V18.1875H107.25ZM95.75 46.4062C95.75 40.875 97.625 37.3125 101.344 37.3125C105 37.3125 106.938 40.875 106.938 46.4062C106.938 51.9688 105 55.5 101.344 55.5C97.625 55.5 95.75 51.9688 95.75 46.4062ZM140.812 63.9062C150.125 63.9062 156.219 59.625 157.219 52.0625H145.844C145.469 54.75 143.75 56.3125 140.938 56.3125C137.625 56.3125 135.625 54.0625 135.375 50.625C135.312 49.7812 134.875 49.375 134.062 49.375H133.281C131.094 49.375 129.438 47.9375 129.438 45.7812C129.438 43.5938 131.094 42.1562 133.281 42.1562H133.906C134.875 42.1562 135.25 41.8125 135.438 40.9688C136.062 38.0625 138 36.2812 140.844 36.2812C143.844 36.2812 145.75 38.0312 145.938 42.3438H138.438C136.219 42.3438 134.719 43.6875 134.719 45.8125C134.719 47.9062 136.219 49.25 138.438 49.25H157.312C157.344 48.2812 157.344 47.1562 157.344 46.0312C157.344 34.9688 150.375 28.9688 140.812 28.9688C130.844 28.9688 123.438 35.1562 123.438 46.4688C123.438 58.1562 130.312 63.9062 140.812 63.9062ZM162.781 63H174.125V48.5625C174.125 42.7812 178.031 40.0312 182.094 40.0312C183.094 40.0312 184.031 40.1562 184.906 40.375V29.5C184.438 29.4062 183.781 29.3438 183.156 29.3438C179.438 29.3438 176.5 30.9062 174.688 33.6875C173.844 34.9375 173.25 36.4688 172.938 38.1875C172.469 40.625 171.188 42.0938 169.031 42.0938C166.875 42.0938 165.188 40.375 165.188 38.1875C165.188 35.8438 167.094 34.3125 169.281 34.3125H171.156C172.062 34.3125 172.688 33.6562 172.688 32.7812V29.875H162.781V63ZM189.281 63H200.625V43.5625C200.625 39.6562 202.281 37.4062 205.344 37.4062C207.875 37.4062 209.156 39 209.156 41.625V63H220.5V40.8125C220.5 33.7188 216.562 28.9688 209.75 28.9688C203.438 28.9688 200.188 32.3438 199.062 38.1875C198.625 40.6562 197.25 42.0938 195.125 42.0938C192.875 42.0938 191.281 40.375 191.281 38.1875C191.281 35.9375 193.062 34.3125 195.344 34.3125H197.562C198.5 34.3125 199.094 33.7188 199.094 32.7812V29.875H189.281V63ZM242.875 63.9062C252.188 63.9062 258.281 59.625 259.281 52.0625H247.906C247.531 54.75 245.812 56.3125 243 56.3125C239.688 56.3125 237.688 54.0625 237.438 50.625C237.375 49.7812 236.938 49.375 236.125 49.375H235.344C233.156 49.375 231.5 47.9375 231.5 45.7812C231.5 43.5938 233.156 42.1562 235.344 42.1562H235.969C236.938 42.1562 237.312 41.8125 237.5 40.9688C238.125 38.0625 240.062 36.2812 242.906 36.2812C245.906 36.2812 247.812 38.0312 248 42.3438H240.5C238.281 42.3438 236.781 43.6875 236.781 45.8125C236.781 47.9062 238.281 49.25 240.5 49.25H259.375C259.406 48.2812 259.406 47.1562 259.406 46.0312C259.406 34.9688 252.438 28.9688 242.875 28.9688C232.906 28.9688 225.5 35.1562 225.5 46.4688C225.5 58.1562 232.375 63.9062 242.875 63.9062ZM279.219 63.5312C281.562 63.5312 283.844 63.1562 285.219 62.7188V54.4688C284.406 54.6562 283.531 54.7812 282.5 54.7812C280.156 54.7812 278.625 53.8438 278.625 51.0625V38.25H285.719V29.875H280.344C279.219 29.875 278.656 30.4375 278.656 31.4375V32.4062C278.656 34.5938 277 36.25 274.938 36.25C272.75 36.25 271.094 34.5938 271.094 32.4062C271.094 30.3125 272.75 28.6875 274.938 28.6875H276.875C278.062 28.6875 278.625 28.125 278.625 26.9375V19.8438H269.219L269.062 23.0625C268.844 28.3125 266.812 29.875 262.781 29.875H261.906V38.25H267.281V52.6875C267.281 60.5625 272.094 63.5312 279.219 63.5312ZM299.875 63.9062C304.844 63.9062 308.281 61.6875 310.125 58.7188C310.25 60.375 310.469 61.7812 310.75 63H322.469V61.8438C321.562 61.1562 321.188 58 321.188 55.4375V41.9062C321.188 33.9375 316.062 28.9688 305.875 28.9688C296.25 28.9688 290.125 33.6562 289.844 40.5H301.531C301.625 38 303.312 36.375 306.062 36.375C308.562 36.375 309.875 37.8125 309.875 39.5625C309.875 41.4688 308.688 42.25 305.688 42.6562L299.688 43.4688C293 44.375 289 47.2812 289 53.7188C289 60.0625 293.625 63.9062 299.875 63.9062ZM300.562 52.6875C300.562 50.4375 302.156 49.3438 304.75 48.8125L306.75 48.4062C307.156 48.3125 307.562 48.2188 307.969 48.1562C309.344 47.875 309.812 47.125 309.812 45.875V44.9062C309.812 42.7188 311.5 41.125 313.625 41.125C315.75 41.125 317.438 42.7188 317.438 44.9062C317.438 47.125 315.719 48.75 313.625 48.75H312.281C311.094 48.75 310.469 49.1562 310.25 50.25L310.125 50.8438C309.531 54 307.656 56.0625 304.5 56.0625C302.219 56.0625 300.562 54.8125 300.562 52.6875Z" fill="#2D2F44"/>
<circle cx="71.5" cy="45.5" r="4.5" fill="#DD5E5C"/>
<circle cx="169.5" cy="38.5" r="4.5" fill="#FAF5AC"/>
<circle cx="274.5" cy="32.5" r="4.5" fill="#56C4C0"/>
</svg>
