<svg xmlns="http://www.w3.org/2000/svg" viewBox="0 0 2481.5 1732.92"><defs><style>.cls-1{fill:#d7e9fd;}.cls-2{opacity:0.5;}.cls-3{fill:#daebe8;}.cls-4{fill:#8fb3e3;}.cls-5{fill:#9eb269;}.cls-6{opacity:0.6;}.cls-7{fill:#fff;}.cls-8{opacity:0.4;}.cls-9{fill:#3c374f;}.cls-10{fill:#ccd39c;}.cls-11{fill:#595277;}.cls-12{fill:#c4c66d;}.cls-13{fill:#331832;}.cls-14{fill:#ef8062;}.cls-15{fill:#764678;}.cls-16{fill:#ff9e89;}</style></defs><g id="Layer_2" data-name="Layer 2"><g id="_Layer_" data-name="&lt;Layer&gt;"><path class="cls-1" d="M2481.44,325V1404c0,175-149.09,290.08-323.5,313.29-217,28.89-453.67,13.77-854.15-12.73-244.28-16.14-735.47,10.61-980.14,12.73C145,1718.81.19,1577,.19,1404V325c0-173,145.13-323.46,323.46-313.3,168.91,9.66,409.56,46.86,663.18,24C1284,8.85,1859.42-15,2157.94,11.65,2333.63,27.38,2481.44,150.16,2481.44,325Z"/><g class="cls-2"><polygon class="cls-3" points="1327.51 706.14 1305.14 703.49 1303.92 666.89 1327.51 665.55 1327.51 706.14"/><polygon class="cls-4" points="1342.96 548.61 1337.47 853.44 1313.55 1017.54 1260.73 1017.06 1242.89 1016.89 1158.11 1016.1 1150.96 916.03 1140.8 596.65 1342.96 548.61"/><polygon class="cls-4" points="1675.56 1019.84 1611.55 1019.84 1428.03 1018.85 1430.67 874.53 1436.96 589.88 1653.48 601.04 1667.9 874.53 1675.56 1019.84"/><polygon class="cls-4" points="920.83 701.28 920.83 1014.73 797.8 1013.69 551.58 1011.64 533.96 648.67 920.83 701.28"/><polygon class="cls-4" points="1769.29 756.71 1769.29 1019.84 1611.55 1019.84 1428.03 1018.05 1355.98 1017.34 1271.64 1016.53 1276.22 632.22 1769.29 756.71"/><polygon class="cls-4" points="1871.13 574.42 1871.1 575.37 1864.22 1019.84 1685.54 1019.84 1690.25 821.92 1695.51 599.97 1871.13 574.42"/><polygon class="cls-4" points="1243.15 771.62 1243.15 1016.53 1107.75 1014.61 1041.42 1013.69 926.58 1012.05 926.58 771.62 1243.15 771.62"/><polygon class="cls-4" points="652.6 1012.56 559.2 1011.97 468.08 1011.38 426.67 1011.12 429.01 861.13 434.75 489.73 632.63 567.28 645.81 861.13 652.6 1012.56"/><polygon class="cls-4" points="289.66 550.71 289.66 1039.83 198.35 1039.24 97.52 1038.56 97.52 545.4 260.88 549.91 289.66 550.71"/><polygon class="cls-4" points="746.56 778 746.56 1013.39 691.35 1012.89 652.6 1012.56 550.4 1011.64 450.7 1010.74 405.39 1010.33 333.39 1009.7 248.91 1008.94 248.91 778 746.56 778"/><polygon class="cls-4" points="926.58 441.14 918.28 1014.25 904.28 1014.16 828.72 1013.65 780.39 1013.33 701.13 1012.81 706.7 762.89 713.09 474.35 926.58 441.14"/><polygon class="cls-4" points="2209.02 380.51 2202.06 778 2198.01 1009.7 2113.52 1008.94 2085.03 1008.67 1949.04 1007.47 1938.21 861.32 1903.71 395.81 1967.38 392.61 2130.23 384.45 2209.02 380.51"/><polygon class="cls-4" points="1943.9 701.66 1943.9 1039.83 1902.18 1039.42 1846.58 1038.85 1847.86 878.76 1849.31 697.71 1943.9 701.66"/><polygon class="cls-4" points="2153.63 773.49 2153.63 1041.83 2017.64 1039.64 1951.9 1038.55 1909.63 1037.87 1853.3 1036.94 1854.58 773.49 2153.63 773.49"/><polygon class="cls-3" points="870.53 525.17 852.32 522.51 851.32 485.91 870.53 484.57 870.53 525.17"/><polygon class="cls-3" points="165.53 633.03 143.25 633.03 141.94 593.77 165.53 596.18 165.53 633.03"/><polygon class="cls-3" points="248.91 741.74 226.63 741.74 225.32 702.48 248.91 704.89 248.91 741.74"/><polygon class="cls-3" points="1966.58 460.26 1944.3 460.26 1942.99 421.01 1966.58 423.41 1966.58 460.26"/><polygon class="cls-3" points="1617.34 668.3 1595.06 668.3 1593.75 629.04 1617.34 631.45 1617.34 668.3"/><polygon class="cls-3" points="509.53 598.7 487.25 598.7 485.94 559.44 509.53 561.85 509.53 598.7"/><polygon class="cls-3" points="2150.92 489.73 2128.64 489.73 2127.33 450.48 2150.92 452.88 2150.92 489.73"/><polygon class="cls-3" points="2150.92 695.11 2128.64 695.11 2127.33 655.85 2150.92 658.26 2150.92 695.11"/><polygon class="cls-3" points="2015.26 609.51 1992.98 609.51 1991.67 570.25 2015.26 572.66 2015.26 609.51"/><polygon class="cls-3" points="1842.21 675.48 1819.93 675.48 1818.62 636.22 1842.21 638.63 1842.21 675.48"/><polygon class="cls-3" points="1894.71 816.12 1872.43 816.12 1871.13 776.87 1894.71 779.27 1894.71 816.12"/></g><path class="cls-5" d="M479.21,960.86l-479,35.5V781.26c22.53,3.43,46.86,13.61,63.27,38.62,38.48,58.69,108.15,63.38,137,33.73s113-13,132.76,42.13S485,876.79,479.21,960.86Z"/><path class="cls-5" d="M2481.44,729.74v281.88l-616.75-58.76c15.89-66.4,167.36-17.32,195.08-89s136.15-89.82,171.78-49.43,125,37.42,176.87-38.15C2428.08,747.58,2455.27,734.7,2481.44,729.74Z"/><g class="cls-6"><path class="cls-7" d="M1026.16,186.07s-16.24-31.24-57.35-27.33S932.6,194,913,191s-47,0-52.85,19.57-32.3,8.81-33.28,25.45,30.34,28.38,66.55,13.7,53.83,11.4,104.72,6.68,57.2-10.6,87.32-7.66,29.41-17.69,15.71-31.39S1032,205,1026.16,186.07Z"/></g><g class="cls-6"><path class="cls-7" d="M1815.5,266.29s-13-25.07-46-21.93-29.06,28.27-44.77,25.92-37.69,0-42.4,15.7-25.92,7.07-26.71,20.42,24.35,22.78,53.41,11,43.19,9.15,84,5.36,45.9-8.5,70.07-6.15,23.6-14.19,12.6-25.19S1820.21,281.47,1815.5,266.29Z"/></g><g class="cls-8"><path class="cls-7" d="M700.51,276.88s-26.57-46-75.18-38.46-1.08,28.31-64.82,38.46-77.78,31.76-48.61,49,76.7-31.32,128.55-7.56S761.65,321.83,700.51,276.88Z"/></g><g class="cls-8"><path class="cls-7" d="M1581,185s-18-31.11-50.82-26-.73,19.14-43.82,26-52.57,21.46-32.86,33.15,51.85-21.18,86.9-5.11S1622.37,215.35,1581,185Z"/></g><path class="cls-9" d="M2481.44,949c0,496,.41,461.93-1,479.11-13.32,164.35-159.61,267.49-322.53,289.17-312.79,41.64-725.88-13.25-976-17.28-261-4.29-649.18,15.47-858.33,17.28-164,1.42-298.18-117.55-320.25-269C-1.17,1417.05.19,1438.31.19,949Z"/><polygon class="cls-10" points="400.97 948.98 0.19 1071.46 0.19 948.98 400.97 948.98"/><polygon class="cls-10" points="2007.86 948.98 2481.44 1159.99 2481.44 948.98 2007.86 948.98"/><polygon class="cls-1" points="1516.95 1693.85 1091.46 1693.85 1224.76 1404.63 1392.2 1404.63 1516.95 1693.85"/><polygon class="cls-1" points="865.49 1693.85 526.82 1693.44 908.7 1404.63 1091.46 1404.87 865.49 1693.85"/><polygon class="cls-1" points="1749.03 1693.85 2050.63 1693.48 1728.81 1404.63 1522.42 1404.87 1749.03 1693.85"/><path class="cls-1" d="M2408.06,1590c-3.81,10.64-72.51,71.49-128.68,89.88-11.46,3.75-46.15,14-46.15,14l-355.34-289,209.17-.2Z"/><polygon class="cls-11" points="2481.44 1090.37 2481.44 1320.78 1818.62 948.98 2016.19 948.98 2481.44 1090.37"/><path class="cls-12" d="M137.05,991.43c-1.2-.07-2.39-.17-3.63-.28-2.36-.22-4.77-.5-7.25-.85A127,127,0,0,0,112,989.17c-1.24,0-2.45,0-3.7,0-.66,0-1.32,0-2,0-23.7.63-86,6-83.93-30C25,913,71.18,932.56,74.17,913.72c3.54-22.24,46.84-46.88,65.07-11.3,17.66,34.46,27.52,7.46,49.1,18.9C219.52,937.85,212.07,996.57,137.05,991.43Z"/><path class="cls-5" d="M86.48,957.94S39,963.56,40,968.2s46-7.79,46-7.79Z"/><path class="cls-5" d="M107.2,970.71S56.06,934.9,54.07,936.47s50.52,36.81,50.52,36.81Z"/><path class="cls-5" d="M112,989.17c-1.24,0-2.45,0-3.7,0-.78-2.89-2.45-8.93-4.45-16.38-.47-1.73-1-3.54-1.46-5.41C96.55,945.39,89,916,90.57,916.18c1.1.13,5.35,14.17,9.81,30.06.32,1.07.63,2.17.92,3.26,2,7.19,4,14.59,5.78,21.11l.06.16C109.38,979.14,111.2,986.05,112,989.17Z"/><path class="cls-5" d="M109.56,937.12c-.74,1.15-1.49,2.29-2.21,3.38-3.44,5.25-6.31,9.4-6.31,9.4l-1.85-1.66s3.24-5.52,7.12-11.75c.73-1.2,1.49-2.41,2.26-3.61,4.78-7.55,9.74-14.78,10.43-13.51S114.55,929.38,109.56,937.12Z"/><path class="cls-5" d="M140.09,973.28s39-21.15,41.36-17.81-39.37,19.07-39.37,19.07Z"/><path class="cls-5" d="M143.11,971.67c-.28,1-.55,1.9-.83,2.82-2.43,8.1-4.64,15.12-5.23,16.94-1.2-.07-2.39-.17-3.63-.28.89-3,5.37-18.26,9.48-30.68.38-1.18.78-2.34,1.15-3.47,2.59-7.58,4.84-13.4,5.71-13.42C151.17,943.53,147.05,958.41,143.11,971.67Z"/><path class="cls-5" d="M167,960.25s.7-18.75,2.56-19.25.52,17.94.52,17.94Z"/><path class="cls-5" d="M144.14,962s-16.49-20.7-15.57-22.5,16.66,19,16.66,19Z"/><polygon class="cls-13" points="894.04 768.7 938.05 768.7 938.05 779.59 889.71 779.59 894.04 768.7"/><polygon class="cls-13" points="199.08 768.7 243.09 768.7 243.09 779.59 194.75 779.59 199.08 768.7"/><path class="cls-13" d="M882.68,825.14h-624c-20.63,0-31.27,6.82-26.11-9.54l48.15-154.73c13-44.45,67.39-54.11,100.59-54.11H776.79c70.67,2.81,77.31,39.58,81,50.84l54.91,149.62C918.19,823.66,903.48,825.14,882.68,825.14Z"/><path class="cls-14" d="M237.38,834.65c-4.64,0-8.61-.95-11.53-4.54-4-5-2.76-11.35-1-16.94L273,658.47c16.24-55.51,87-59.83,108.33-59.83H776.79c72.39,2.88,83.77,40.18,88.06,54.22l.68,2.18,54.82,149.39c2.6,7.82,2.06,14.17-1.52,19.13-6.47,9-20.19,9.7-36.15,9.7h-624a130.72,130.72,0,0,0-13.43.84C242.5,834.37,239.84,834.65,237.38,834.65ZM776.47,614.86H381.33c-18.46,0-79.69,3.48-92.8,48.28L240.33,818a2.29,2.29,0,0,0-.08.28c1.11-.1,2.32-.21,3.41-.33a142.45,142.45,0,0,1,15-.93h624c18.39,0,22.31-1.85,23-3,0,0,.42-1.07-.65-4.3l-55.7-152.16C845.65,645.54,837,617.28,776.47,614.86Z"/><path class="cls-14" d="M980.59,1031.82H171.89c-15.74,0-29-12.24-30.66-28.38L129.32,890.12C123.75,837.17,164,791,215.63,791c0,0,71.26-13.41,349.21-13.41,218.49,0,387.08,13.41,387.08,13.41,50.88,0,89.25,47.64,79.92,99.2l-20.93,115.7C1008.19,1020.9,995.44,1031.82,980.59,1031.82Z"/><path class="cls-3" d="M762.45,926.59S783.1,904,846.54,890.9,973.67,875,983.13,899.42s3.18,54.25-28.89,58.32S740.85,963.15,762.45,926.59Z"/><path class="cls-13" d="M213.5,1031s-39.6,113.37-3.7,123.09,129.29,11.49,144.36-7.94-14.75-120.3-14.75-120.3Z"/><path class="cls-13" d="M845.93,1031.33s-50.6,109.92-12.79,120.15,114.87,11,130.74-9.44.44-110.71.44-110.71Z"/><path class="cls-3" d="M424.6,927.26s-22.87-25.07-93.13-39.53-140.8-17.66-151.26,9.44-3.53,60.08,32,64.58S448.51,967.75,424.6,927.26Z"/><path class="cls-15" d="M452.86,955.84l17.69-40.59c3-6.87,8.59-11.12,14.66-11.12h217c5.8,0,11.19,3.88,14.27,10.28L736.1,955c7,14.61-1,33.59-14.28,33.59H467.53C454.61,988.58,446.49,970.45,452.86,955.84Z"/><path class="cls-13" d="M587.39,873.93c-51.66,0-104.59-1.34-145.75-4.64s-64.12-8.15-68.52-14.41c-33.19-47.23-54.42-72-54.63-72.22l.58-.5c.21.24,21.47,25,54.68,72.27,4.21,6,27.7,10.85,67.95,14.09,50.66,4.06,128.23,5.57,207.52,4,71.74-1.43,124.41-5,128.1-8.83,10.33-10.59,18.11-22,27.1-35.25,8.73-12.85,18.64-27.42,33.16-44.55l.59.5c-14.49,17.09-24.39,31.65-33.11,44.48-9,13.27-16.81,24.72-27.18,35.35C772.82,869.41,682.28,873.93,587.39,873.93Z"/><path class="cls-14" d="M1020.33,1098.52H137.22c-5.36,0-9.87-6.07-10.53-14.15L122,1026.89c-.78-9.61,4.16-18.09,10.53-18.09H1024.1c6.27,0,11.17,8.23,10.55,17.71l-3.77,57.49C1030.34,1092.24,1025.78,1098.52,1020.33,1098.52Z"/><path class="cls-13" d="M1020.33,1099H137.22c-5.6,0-10.33-6.27-11-14.58l-4.66-57.49c-.49-6,1.23-11.94,4.5-15.48a8.84,8.84,0,0,1,6.5-3.14H1024.1a8.75,8.75,0,0,1,6.42,3.07c3.23,3.44,5,9.25,4.6,15.16l-3.76,57.48C1030.8,1092.56,1026.06,1099,1020.33,1099Zm-887.77-89.73a7.88,7.88,0,0,0-5.8,2.82c-3.09,3.35-4.72,9-4.25,14.76l4.66,57.49c.63,7.81,5,13.71,10,13.71h883.11c5.22,0,9.55-6.06,10.08-14.08l3.76-57.48c.37-5.67-1.29-11.21-4.34-14.46a7.86,7.86,0,0,0-5.73-2.76Z"/><path class="cls-14" d="M928,773.52s4.85-30.51,43.23-29.61,42,14,33,29.61S925.52,792,928,773.52Z"/><path class="cls-14" d="M209.12,773.52s-4.85-30.51-43.23-29.61-42,14-33,29.61S211.57,792,209.12,773.52Z"/><path class="cls-16" d="M960.4,755.26s10.81-5.77,20.84-4.22,17.25,3.22,17,8.43S954.56,757.69,960.4,755.26Z"/><path class="cls-16" d="M1008.29,842.15s-20.35-31.54-44-35.72-63.31-6.29-65.89.43,42.88,11.86,59.27,27.3S1024.19,861.22,1008.29,842.15Z"/><path class="cls-16" d="M960.66,1021.52s48.38-5.55,55.58,2.63,13.9,29.73,4.12,29.51-15-12.14-27.4-17S950.69,1022.45,960.66,1021.52Z"/><path class="cls-15" d="M826.09,689.14s1.82-43.1-41.93-47.67-134.9-10.93-132.16,0S772.31,681.26,788.72,701,830.48,710.86,826.09,689.14Z"/><path class="cls-12" d="M2204.08,967c-1.16-.07-2.32-.17-3.52-.27q-3.42-.33-7-.82a118.93,118.93,0,0,0-13.7-1.1c-1.2,0-2.37,0-3.58,0-.64,0-1.28,0-1.92,0-23,.61-83.28,5.79-81.3-29.08,2.54-44.7,47.24-25.76,50.13-44,3.44-21.54,45.38-45.41,63-11,17.1,33.39,26.66,7.23,47.56,18.32C2284,915.1,2276.75,972,2204.08,967Z"/><path class="cls-5" d="M2155.09,934.56s-46,5.44-45,9.94,44.59-7.55,44.59-7.55Z"/><path class="cls-5" d="M2175.16,946.92s-49.53-34.68-51.46-33.16,48.94,35.66,48.94,35.66Z"/><path class="cls-5" d="M2179.83,964.81c-1.2,0-2.37,0-3.58,0-.76-2.8-2.38-8.65-4.31-15.86-.45-1.69-.92-3.43-1.41-5.25-5.69-21.29-13-49.75-11.47-49.58,1.06.12,5.18,13.72,9.5,29.11.3,1,.61,2.1.89,3.16,2,7,3.9,14.13,5.6,20.45a.75.75,0,0,1,0,.16C2177.27,955.09,2179,961.78,2179.83,964.81Z"/><path class="cls-5" d="M2177.45,914.39c-.72,1.12-1.44,2.22-2.14,3.27-3.33,5.08-6.12,9.11-6.12,9.11l-1.78-1.61s3.13-5.35,6.89-11.38c.71-1.16,1.44-2.33,2.19-3.5,4.63-7.31,9.43-14.32,10.11-13.08S2182.28,906.89,2177.45,914.39Z"/><path class="cls-5" d="M2207,949.42s37.81-20.49,40.07-17.26S2209,950.64,2209,950.64Z"/><path class="cls-5" d="M2210,947.86c-.27.92-.54,1.83-.81,2.72-2.35,7.86-4.49,14.65-5.06,16.42-1.16-.07-2.32-.17-3.52-.27.86-2.94,5.2-17.69,9.19-29.72.37-1.14.75-2.27,1.11-3.36,2.5-7.35,4.69-13,5.53-13C2217.75,920.6,2213.77,935,2210,947.86Z"/><path class="cls-5" d="M2233.09,936.79s.67-18.15,2.48-18.64.51,17.37.51,17.37Z"/><path class="cls-5" d="M2210.94,938.53s-16-20-15.07-21.8S2212,935.14,2212,935.14Z"/></g></g></svg>