<svg xmlns="http://www.w3.org/2000/svg" viewBox="0 0 1048.85 732.45"><defs><style>.cls-1{fill:#d7e9fd;}.cls-2{opacity:0.5;}.cls-3{fill:#daebe8;}.cls-4{fill:#8fb3e3;}.cls-5{fill:#9eb269;}.cls-6{opacity:0.6;}.cls-7{fill:#fff;}.cls-8{opacity:0.4;}.cls-9{fill:#332e44;}.cls-10{fill:#ccd39c;}.cls-11{fill:#585172;}.cls-12{fill:#c4c66d;}.cls-13{fill:#331832;}.cls-14{fill:#252131;}.cls-15{fill:red;}</style></defs><g id="Layer_2" data-name="Layer 2"><g id="Layer_1-2" data-name="Layer 1"><path class="cls-1" d="M1048.83,137.35V593.42c0,74-63,122.6-136.74,132.41-91.7,12.21-191.75,5.82-361-5.38-103.25-6.82-310.86,4.49-414.27,5.38C61.29,726.49.08,666.55.08,593.42V137.35C.08,64.22,61.42.63,136.8,4.93,208.19,9,309.91,24.73,417.1,15.05c125.59-11.31,368.82-21.4,495-10.12C986.35,11.57,1048.83,63.47,1048.83,137.35Z"/><g class="cls-2"><polygon class="cls-3" points="561.1 298.47 551.64 297.34 551.13 281.87 561.1 281.31 561.1 298.47"/><polygon class="cls-4" points="567.63 231.88 565.31 360.72 555.2 430.08 532.87 429.88 525.33 429.81 489.5 429.47 486.48 387.18 482.18 252.19 567.63 231.88"/><polygon class="cls-4" points="708.21 431.05 681.15 431.05 603.59 430.64 604.7 369.64 607.36 249.32 698.88 254.04 704.97 369.64 708.21 431.05"/><polygon class="cls-4" points="389.2 296.41 389.2 428.9 337.2 428.45 233.13 427.59 225.69 274.18 389.2 296.41"/><polygon class="cls-4" points="747.82 319.84 747.82 431.05 681.15 431.05 603.59 430.3 573.13 430 537.48 429.66 539.42 267.22 747.82 319.84"/><polygon class="cls-4" points="790.87 242.79 790.86 243.19 787.95 431.05 712.42 431.05 714.42 347.4 716.64 253.59 790.87 242.79"/><polygon class="cls-4" points="525.44 326.14 525.44 429.66 468.21 428.85 440.18 428.46 391.64 427.76 391.64 326.14 525.44 326.14"/><polygon class="cls-4" points="275.83 427.98 236.36 427.73 197.84 427.48 180.34 427.37 181.33 363.97 183.76 207 267.39 239.77 272.96 363.97 275.83 427.98"/><polygon class="cls-4" points="122.43 232.77 122.43 439.5 83.83 439.25 41.22 438.97 41.22 230.52 110.27 232.43 122.43 232.77"/><polygon class="cls-4" points="315.55 328.83 315.55 428.33 292.21 428.12 275.83 427.98 232.64 427.59 190.5 427.21 171.34 427.04 140.92 426.77 105.21 426.45 105.21 328.83 315.55 328.83"/><polygon class="cls-4" points="391.64 186.46 388.13 428.69 382.21 428.65 350.27 428.44 329.85 428.31 296.34 428.08 298.7 322.45 301.4 200.49 391.64 186.46"/><polygon class="cls-4" points="933.68 160.83 930.74 328.83 929.03 426.77 893.32 426.45 881.28 426.33 823.8 425.83 819.22 364.05 804.64 167.3 831.55 165.95 900.38 162.5 933.68 160.83"/><polygon class="cls-4" points="821.63 296.57 821.63 439.5 803.99 439.33 780.49 439.09 781.03 371.43 781.65 294.9 821.63 296.57"/><polygon class="cls-4" points="910.27 326.93 910.27 440.35 852.8 439.42 825.01 438.96 807.14 438.68 783.33 438.28 783.88 326.93 910.27 326.93"/><polygon class="cls-3" points="367.95 221.97 360.25 220.85 359.83 205.38 367.95 204.81 367.95 221.97"/><polygon class="cls-3" points="69.97 267.56 60.55 267.56 59.99 250.97 69.97 251.99 69.97 267.56"/><polygon class="cls-3" points="105.21 313.51 95.79 313.51 95.24 296.92 105.21 297.94 105.21 313.51"/><polygon class="cls-3" points="831.21 194.54 821.8 194.54 821.24 177.95 831.21 178.96 831.21 194.54"/><polygon class="cls-3" points="683.6 282.47 674.18 282.47 673.63 265.88 683.6 266.9 683.6 282.47"/><polygon class="cls-3" points="215.36 253.05 205.95 253.05 205.39 236.46 215.36 237.47 215.36 253.05"/><polygon class="cls-3" points="909.13 207 899.71 207 899.16 190.4 909.13 191.42 909.13 207"/><polygon class="cls-3" points="909.13 293.8 899.71 293.8 899.16 277.21 909.13 278.22 909.13 293.8"/><polygon class="cls-3" points="851.79 257.62 842.37 257.62 841.82 241.03 851.79 242.04 851.79 257.62"/><polygon class="cls-3" points="778.64 285.5 769.23 285.5 768.67 268.91 778.64 269.93 778.64 285.5"/><polygon class="cls-3" points="800.84 344.95 791.42 344.95 790.87 328.36 800.84 329.38 800.84 344.95"/></g><path class="cls-5" d="M202.55,406.13.08,421.13V330.21c9.52,1.46,19.81,5.76,26.74,16.33,16.27,24.81,45.72,26.79,57.92,14.25s47.76-5.49,56.11,17.81S205,370.59,202.55,406.13Z"/><path class="cls-5" d="M1048.83,308.44V427.58L788.15,402.74c6.71-28.06,70.73-7.32,82.45-37.63s57.55-38,72.61-20.89S996.05,360,1018,328.09C1026.28,316,1037.77,310.53,1048.83,308.44Z"/><g class="cls-6"><path class="cls-7" d="M433.73,78.65s-6.87-13.21-24.24-11.55S394.18,82,385.91,80.75s-19.86,0-22.34,8.27-13.65,3.72-14.06,10.75,12.82,12,28.13,5.8,22.75,4.82,44.26,2.82,24.17-4.48,36.9-3.24,12.43-7.47,6.64-13.27S436.21,86.64,433.73,78.65Z"/></g><g class="cls-6"><path class="cls-7" d="M767.36,112.55s-5.51-10.59-19.46-9.27-12.28,12-18.92,11-15.93,0-17.92,6.64-11,3-11.29,8.63,10.29,9.62,22.57,4.64,18.26,3.87,35.52,2.27,19.4-3.59,29.62-2.6,10-6,5.33-10.65S769.35,119,767.36,112.55Z"/></g><g class="cls-8"><path class="cls-7" d="M296.08,117s-11.23-19.45-31.77-16.26-.46,12-27.4,16.26S204,130.45,216.36,137.76s32.42-13.24,54.34-3.2S321.93,136,296.08,117Z"/></g><g class="cls-8"><path class="cls-7" d="M668.26,78.18s-7.6-13.15-21.48-11-.31,8.09-18.52,11-22.23,9.07-13.89,14,21.91-9,36.73-2.16S685.72,91,668.26,78.18Z"/></g><path class="cls-9" d="M1048.83,401.1c0,209.63.17,195.25-.41,202.51-5.63,69.47-67.46,113.06-136.33,122.22-132.2,17.6-306.8-5.6-412.5-7.3-110.31-1.81-274.39,6.54-362.79,7.3-69.31.6-126-49.68-135.36-113.69C-.5,598.94.08,607.93.08,401.1Z"/><polygon class="cls-10" points="169.48 401.1 0.08 452.87 0.08 401.1 169.48 401.1"/><polygon class="cls-10" points="848.66 401.1 1048.83 490.29 1048.83 401.1 848.66 401.1"/><polygon class="cls-11" points="1048.83 460.87 1048.83 558.25 768.67 401.1 852.18 401.1 1048.83 460.87"/><path class="cls-12" d="M57.93,419.05l-1.54-.12c-1-.1-2-.21-3.06-.36a54.75,54.75,0,0,0-6-.48c-.53,0-1,0-1.57,0H45c-10,.27-36.34,2.53-35.48-12.68,1.11-19.51,20.62-11.25,21.88-19.21,1.49-9.4,19.8-19.81,27.5-4.78,7.47,14.57,11.63,3.16,20.76,8C92.78,396.4,89.64,421.22,57.93,419.05Z"/><path class="cls-5" d="M36.55,404.89s-20.09,2.38-19.64,4.34,19.45-3.29,19.45-3.29Z"/><path class="cls-5" d="M45.31,410.29S23.7,395.15,22.85,395.82s21.36,15.56,21.36,15.56Z"/><path class="cls-5" d="M47.35,418.09c-.53,0-1,0-1.57,0-.33-1.22-1-3.78-1.88-6.92-.19-.74-.4-1.5-.61-2.29-2.48-9.29-5.68-21.71-5-21.64.47.05,2.26,6,4.15,12.71l.39,1.38c.85,3,1.7,6.16,2.44,8.92l0,.06C46.23,413.85,47,416.77,47.35,418.09Z"/><path class="cls-5" d="M46.31,396.09c-.31.49-.63,1-.94,1.43-1.45,2.22-2.67,4-2.67,4l-.77-.7s1.36-2.33,3-5q.47-.76,1-1.53c2-3.19,4.11-6.25,4.41-5.71S48.42,392.82,46.31,396.09Z"/><path class="cls-5" d="M59.21,411.38s16.5-8.95,17.48-7.53-16.64,8.06-16.64,8.06Z"/><path class="cls-5" d="M60.49,410.7c-.12.4-.24.8-.35,1.19-1,3.42-2,6.39-2.21,7.16l-1.54-.12c.38-1.28,2.27-7.72,4-13,.16-.5.33-1,.48-1.46,1.1-3.21,2-5.67,2.42-5.68C63.89,398.8,62.15,405.09,60.49,410.7Z"/><path class="cls-5" d="M70.59,405.87s.29-7.93,1.08-8.14.22,7.58.22,7.58Z"/><path class="cls-5" d="M60.92,406.62s-7-8.74-6.58-9.51,7,8,7,8Z"/><path class="cls-12" d="M931.6,408.72l-1.49-.11c-1-.1-2-.21-3-.35a51.32,51.32,0,0,0-5.79-.46c-.51,0-1,0-1.52,0-.27,0-.54,0-.81,0-9.7.25-35.2,2.44-34.36-12.29,1.07-18.9,20-10.89,21.19-18.61,1.45-9.1,19.18-19.19,26.64-4.62,7.23,14.11,11.27,3.05,20.1,7.74C965.36,386.78,962.31,410.82,931.6,408.72Z"/><path class="cls-5" d="M910.89,395s-19.46,2.3-19,4.2S910.71,396,910.71,396Z"/><path class="cls-5" d="M919.37,400.23s-20.93-14.65-21.75-14,20.69,15.07,20.69,15.07Z"/><path class="cls-5" d="M921.35,407.8c-.51,0-1,0-1.52,0-.32-1.18-1-3.65-1.82-6.7l-.6-2.22c-2.4-9-5.49-21-4.84-21,.44,0,2.19,5.8,4,12.31.13.44.26.89.38,1.33.82,2.95,1.65,6,2.37,8.65l0,.06C920.27,403.69,921,406.52,921.35,407.8Z"/><path class="cls-5" d="M920.34,386.48c-.3.48-.61.94-.9,1.39-1.41,2.15-2.59,3.85-2.59,3.85l-.75-.68s1.32-2.26,2.91-4.81l.92-1.48c2-3.09,4-6.05,4.28-5.53S922.38,383.32,920.34,386.48Z"/><path class="cls-5" d="M932.84,401.29s16-8.66,16.93-7.29-16.12,7.8-16.12,7.8Z"/><path class="cls-5" d="M934.08,400.63c-.12.39-.23.78-.34,1.15-1,3.32-1.9,6.19-2.14,6.94l-1.49-.11c.36-1.25,2.2-7.48,3.88-12.56.16-.49.32-1,.47-1.43,1.06-3.1,2-5.48,2.34-5.49C937.38,389.11,935.69,395.2,934.08,400.63Z"/><path class="cls-5" d="M943.86,396s.28-7.67,1-7.88.21,7.35.21,7.35Z"/><path class="cls-5" d="M934.5,396.69s-6.75-8.48-6.38-9.22,6.82,7.79,6.82,7.79Z"/><path class="cls-13" d="M901.53,470.58h0c2.8,0,5.07-1.15,5.07-2.57V269.41c0-1.42-2.27-2.57-5.07-2.57h0c-2.8,0-5.07,1.15-5.07,2.57V468C896.46,469.43,898.73,470.58,901.53,470.58Z"/><path class="cls-13" d="M901.69,433.31a17.81,17.81,0,0,1-5.33-.83l.21-.17a15.18,15.18,0,0,0,9.9,0l.26.15A13.78,13.78,0,0,1,901.69,433.31Z"/><rect class="cls-14" x="823.66" y="241.99" width="154.72" height="75.74" rx="14.17"/><rect class="cls-7" x="826.89" y="245.65" width="148.77" height="69.03" rx="14.17"/><path class="cls-15" d="M974.2,253.52,835.75,313.64a9.26,9.26,0,0,1-5-3.15c-3.57-4.05-3-5.61-3-5.61l139.11-58.24a18.65,18.65,0,0,1,4.44,2.64A12.76,12.76,0,0,1,974.2,253.52Z"/><path d="M839.54,291.19a8.62,8.62,0,0,1-3.5-3.67,12.28,12.28,0,0,1-1.22-5.64v-7.79a12.29,12.29,0,0,1,1.22-5.65,8.62,8.62,0,0,1,3.5-3.67,10.66,10.66,0,0,1,5.36-1.29,10,10,0,0,1,4.64,1.09,9.3,9.3,0,0,1,3.45,3.16,12.72,12.72,0,0,1,1.89,4.87h-4.81a6.66,6.66,0,0,0-1.11-2.39,5.29,5.29,0,0,0-1.81-1.57,4.68,4.68,0,0,0-2.25-.55,5.17,5.17,0,0,0-2.8.73,4.83,4.83,0,0,0-1.83,2.08,7.32,7.32,0,0,0-.65,3.19v7.79a7.31,7.31,0,0,0,.65,3.18,4.75,4.75,0,0,0,1.83,2.07,5.26,5.26,0,0,0,2.8.73,5,5,0,0,0,2.27-.53,5.2,5.2,0,0,0,1.81-1.54,6.46,6.46,0,0,0,1.09-2.45h4.81a13,13,0,0,1-1.91,4.88,9.36,9.36,0,0,1-3.45,3.15,9.79,9.79,0,0,1-4.62,1.1A10.76,10.76,0,0,1,839.54,291.19Z"/><path d="M860.52,290.91a6,6,0,0,1-1.74-4.71,5.64,5.64,0,0,1,1.76-4.52,8,8,0,0,1,5.28-1.5h5.43l.27,3.63h-5.68a3.15,3.15,0,0,0-2.08.59,2.2,2.2,0,0,0-.7,1.8,2.12,2.12,0,0,0,.9,1.88,4.84,4.84,0,0,0,2.72.62,8.62,8.62,0,0,0,3.31-.49,1.62,1.62,0,0,0,1.08-1.53l.41,2.89a3.43,3.43,0,0,1-1.16,1.61,5.64,5.64,0,0,1-2,1,9.49,9.49,0,0,1-2.56.33A7.65,7.65,0,0,1,860.52,290.91Zm10.55-11.59a3.45,3.45,0,0,0-1-2.64,4,4,0,0,0-2.84-.93,7.24,7.24,0,0,0-2.3.37,6.81,6.81,0,0,0-2,1l-3.11-2.61a7.77,7.77,0,0,1,3.13-2.16,11.34,11.34,0,0,1,4.29-.77,10.13,10.13,0,0,1,4.42.88,6.43,6.43,0,0,1,2.8,2.58,8.14,8.14,0,0,1,1,4.07v13h-4.32Z"/><path d="M881.05,271.9h4.86v20.27h-4.86Zm10.14,4.44a4.55,4.55,0,0,0-1.58-.26,3.54,3.54,0,0,0-2.73,1,4.15,4.15,0,0,0-1,2.9l-.41-4.59a7.22,7.22,0,0,1,2.3-2.82,5.24,5.24,0,0,1,3.11-1,6.81,6.81,0,0,1,2.41.4,5.22,5.22,0,0,1,1.87,1.18l-2.85,3.92A3.07,3.07,0,0,0,891.19,276.34Z"/><path d="M896.56,271.9h9.53V276h-9.53Zm3.28,19a5.93,5.93,0,0,1-1.19-4V266h4.67v20.25a1.9,1.9,0,0,0,.29,1.15,1,1,0,0,0,.86.4h1.62v4.47h-2.5A4.71,4.71,0,0,1,899.84,290.91Z"/><path d="M911.93,290.91a6,6,0,0,1-1.74-4.71,5.64,5.64,0,0,1,1.76-4.52,8,8,0,0,1,5.27-1.5h5.43l.28,3.63h-5.69a3.17,3.17,0,0,0-2.08.59,2.23,2.23,0,0,0-.69,1.8,2.12,2.12,0,0,0,.9,1.88,4.82,4.82,0,0,0,2.71.62,8.55,8.55,0,0,0,3.31-.49,1.63,1.63,0,0,0,1.09-1.53l.41,2.89a3.45,3.45,0,0,1-1.17,1.61,5.56,5.56,0,0,1-2,1,9.39,9.39,0,0,1-2.56.33A7.62,7.62,0,0,1,911.93,290.91Zm10.55-11.59a3.45,3.45,0,0,0-1-2.64,4,4,0,0,0-2.84-.93,7.34,7.34,0,0,0-2.31.37,7.06,7.06,0,0,0-2,1l-3.1-2.61a7.73,7.73,0,0,1,3.12-2.16,11.39,11.39,0,0,1,4.3-.77,10.05,10.05,0,0,1,4.41.88,6.4,6.4,0,0,1,2.81,2.58,8.14,8.14,0,0,1,1,4.07v13h-4.31Z"/><path d="M937.93,281l2.53,3.67-4.92,7.52h-5Zm.54,2.38-7.65-11.46H936l5.35,8.63,7.82,11.64H944Zm1.1-4.27,4.1-7.19h5.15L942,282.84Z"/><path d="M955.9,291.43a7,7,0,0,1-2.93-3,10.44,10.44,0,0,1-1-4.77v-3.3a10.25,10.25,0,0,1,1-4.72,6.88,6.88,0,0,1,2.93-3,11,11,0,0,1,9.24,0,6.83,6.83,0,0,1,2.93,3,10.25,10.25,0,0,1,1,4.72v3.36a10.29,10.29,0,0,1-1,4.73,6.9,6.9,0,0,1-2.93,3,10.78,10.78,0,0,1-9.24,0Zm7.49-4.56a4.56,4.56,0,0,0,1-3.17v-3.36a4.49,4.49,0,0,0-1-3.15,4.27,4.27,0,0,0-5.74,0,4.53,4.53,0,0,0-1,3.15v3.36a4.6,4.6,0,0,0,1,3.17,4.25,4.25,0,0,0,5.75,0Z"/><polygon class="cls-7" points="516.26 711.09 486.64 711.09 491.23 589.05 512.17 589.05 516.26 711.09"/><polygon class="cls-7" points="508.03 433.31 494.24 433.7 490.03 507.29 510.96 507.36 508.03 433.31"/></g></g></svg>