<svg width="428" height="76" viewBox="0 0 428 76" fill="none" xmlns="http://www.w3.org/2000/svg">
<path d="M23.3438 63.9062C34.8438 63.9062 42.875 58.0938 43.375 45.7188H31.375C31.0312 50.5938 28.625 54.25 23.6875 54.25C17.5 54.25 14.3438 49.4375 14.3438 40.5938C14.3438 31.6562 17.6875 26.9062 23.5312 26.9062C28.3125 26.9062 31.0625 29.9062 31.4375 35.2812H43.375C43.0938 23.7188 35.1562 17.3125 23.2812 17.3125C10.4375 17.3125 2.25 25.7812 2.25 40.75C2.25 55.4062 10.125 63.9062 23.3438 63.9062ZM4.15625 40.5938C4.15625 38.25 6.03125 36.4062 8.34375 36.4062C10.6875 36.4062 12.5312 38.25 12.5312 40.5938C12.5312 42.9062 10.6875 44.7812 8.34375 44.7812C6.03125 44.7812 4.15625 42.9062 4.15625 40.5938ZM64.3438 63.9062C74.6875 63.9062 81.5 57.2188 81.5 46.4375C81.5 35.625 74.6875 28.9688 64.3438 28.9688C53.9688 28.9688 47.125 35.625 47.125 46.4375C47.125 57.2188 53.9688 63.9062 64.3438 63.9062ZM49.1562 46.4375C49.1562 44.2812 50.9062 42.5 53.0625 42.5C55.2188 42.5 57.0312 44.2812 57.0312 46.4375C57.0312 48.5938 55.2188 50.375 53.0625 50.375C50.9062 50.375 49.1562 48.5938 49.1562 46.4375ZM58.7188 46.4375C58.7188 40.2812 60.875 37.4062 64.3438 37.4062C67.7812 37.4062 69.9062 40.2188 69.9062 46.4375C69.9062 52.625 67.7812 55.4688 64.3438 55.4688C60.875 55.4688 58.7188 52.5625 58.7188 46.4375ZM71.6562 46.4375C71.6562 44.2812 73.4062 42.5 75.5625 42.5C77.75 42.5 79.5 44.2812 79.5 46.4375C79.5 48.5938 77.75 50.375 75.5625 50.375C73.4062 50.375 71.6562 48.5938 71.6562 46.4375ZM86.7188 63H98.0625V43.0938C98.0625 39.5625 99.625 37.4062 102.406 37.4062C104.688 37.4062 105.906 38.9375 105.906 41.5V63H117.25V42.7812C117.25 39.4688 118.906 37.4062 121.656 37.4062C123.906 37.4062 125.125 38.9375 125.125 41.5V63H136.469V40.8125C136.469 33.7188 132.75 28.9688 126.156 28.9688C121.531 28.9688 117.719 31.0625 115.688 34.6562C114.281 31.0938 111.312 28.9688 107.219 28.9688C101.625 28.9688 97.7812 31.6875 96.5 38.1875C96.0312 40.6562 94.6875 42.0938 92.5625 42.0938C90.3125 42.0938 88.7188 40.375 88.7188 38.1875C88.7188 35.9375 90.5 34.3125 92.7812 34.3125H95C95.9375 34.3125 96.5312 33.7188 96.5312 32.7812V29.875H86.7188V63ZM158.812 63.9062C168.125 63.9062 174.219 59.625 175.219 52.0625H163.844C163.469 54.75 161.75 56.3125 158.938 56.3125C155.625 56.3125 153.625 54.0625 153.375 50.625C153.312 49.7812 152.875 49.375 152.062 49.375H151.281C149.094 49.375 147.438 47.9375 147.438 45.7812C147.438 43.5938 149.094 42.1562 151.281 42.1562H151.906C152.875 42.1562 153.25 41.8125 153.438 40.9688C154.062 38.0625 156 36.2812 158.844 36.2812C161.844 36.2812 163.75 38.0312 163.938 42.3438H156.438C154.219 42.3438 152.719 43.6875 152.719 45.8125C152.719 47.9062 154.219 49.25 156.438 49.25H175.312C175.344 48.2812 175.344 47.1562 175.344 46.0312C175.344 34.9688 168.375 28.9688 158.812 28.9688C148.844 28.9688 141.438 35.1562 141.438 46.4688C141.438 58.1562 148.312 63.9062 158.812 63.9062ZM180.781 63H192.125V43.5625C192.125 39.6562 193.781 37.4062 196.844 37.4062C199.375 37.4062 200.656 39 200.656 41.625V63H212V40.8125C212 33.7188 208.062 28.9688 201.25 28.9688C194.938 28.9688 191.688 32.3438 190.562 38.1875C190.125 40.6562 188.75 42.0938 186.625 42.0938C184.375 42.0938 182.781 40.375 182.781 38.1875C182.781 35.9375 184.562 34.3125 186.844 34.3125H189.062C190 34.3125 190.594 33.7188 190.594 32.7812V29.875H180.781V63ZM233.156 63.5312C235.5 63.5312 237.781 63.1562 239.156 62.7188V54.4688C238.344 54.6562 237.469 54.7812 236.438 54.7812C234.094 54.7812 232.562 53.8438 232.562 51.0625V38.25H239.656V29.875H234.281C233.156 29.875 232.594 30.4375 232.594 31.4375V32.4062C232.594 34.5938 230.938 36.25 228.875 36.25C226.688 36.25 225.031 34.5938 225.031 32.4062C225.031 30.3125 226.688 28.6875 228.875 28.6875H230.812C232 28.6875 232.562 28.125 232.562 26.9375V19.8438H223.156L223 23.0625C222.781 28.3125 220.75 29.875 216.719 29.875H215.844V38.25H221.219V52.6875C221.219 60.5625 226.031 63.5312 233.156 63.5312ZM253.812 63.9062C258.781 63.9062 262.219 61.6875 264.062 58.7188C264.188 60.375 264.406 61.7812 264.688 63H276.406V61.8438C275.5 61.1562 275.125 58 275.125 55.4375V41.9062C275.125 33.9375 270 28.9688 259.812 28.9688C250.188 28.9688 244.062 33.6562 243.781 40.5H255.469C255.562 38 257.25 36.375 260 36.375C262.5 36.375 263.812 37.8125 263.812 39.5625C263.812 41.4688 262.625 42.25 259.625 42.6562L253.625 43.4688C246.938 44.375 242.938 47.2812 242.938 53.7188C242.938 60.0625 247.562 63.9062 253.812 63.9062ZM254.5 52.6875C254.5 50.4375 256.094 49.3438 258.688 48.8125L260.688 48.4062C261.094 48.3125 261.5 48.2188 261.906 48.1562C263.281 47.875 263.75 47.125 263.75 45.875V44.9062C263.75 42.7188 265.438 41.125 267.562 41.125C269.688 41.125 271.375 42.7188 271.375 44.9062C271.375 47.125 269.656 48.75 267.562 48.75H266.219C265.031 48.75 264.406 49.1562 264.188 50.25L264.062 50.8438C263.469 54 261.594 56.0625 258.438 56.0625C256.156 56.0625 254.5 54.8125 254.5 52.6875ZM281.594 63H292.938V48.5625C292.938 42.7812 296.844 40.0312 300.906 40.0312C301.906 40.0312 302.844 40.1562 303.719 40.375V29.5C303.25 29.4062 302.594 29.3438 301.969 29.3438C298.25 29.3438 295.312 30.9062 293.5 33.6875C292.656 34.9375 292.062 36.4688 291.75 38.1875C291.281 40.625 290 42.0938 287.844 42.0938C285.688 42.0938 284 40.375 284 38.1875C284 35.8438 285.906 34.3125 288.094 34.3125H289.969C290.875 34.3125 291.5 33.6562 291.5 32.7812V29.875H281.594V63ZM308.094 63H319.438V29.875H308.094V63ZM307.969 26.625H319.594V17.4688H307.969V26.625ZM341.906 63.9062C352.25 63.9062 359.062 57.2188 359.062 46.4375C359.062 35.625 352.25 28.9688 341.906 28.9688C331.531 28.9688 324.688 35.625 324.688 46.4375C324.688 57.2188 331.531 63.9062 341.906 63.9062ZM326.719 46.4375C326.719 44.2812 328.469 42.5 330.625 42.5C332.781 42.5 334.594 44.2812 334.594 46.4375C334.594 48.5938 332.781 50.375 330.625 50.375C328.469 50.375 326.719 48.5938 326.719 46.4375ZM336.281 46.4375C336.281 40.2812 338.438 37.4062 341.906 37.4062C345.344 37.4062 347.469 40.2188 347.469 46.4375C347.469 52.625 345.344 55.4688 341.906 55.4688C338.438 55.4688 336.281 52.5625 336.281 46.4375ZM349.219 46.4375C349.219 44.2812 350.969 42.5 353.125 42.5C355.312 42.5 357.062 44.2812 357.062 46.4375C357.062 48.5938 355.312 50.375 353.125 50.375C350.969 50.375 349.219 48.5938 349.219 46.4375ZM379.125 63.9062C387.938 63.9062 394.812 60.3438 394.812 52.5938C394.812 47.25 391.906 44.0312 384.25 42.5625L377.938 41.375C375.688 40.9375 374.688 40.1562 374.688 38.75C374.688 37.0625 376.219 35.9375 378.5 35.9375C381.062 35.9375 382.469 37.3438 382.531 39.7188H394.219C393.875 33.875 388.969 28.9688 378.75 28.9688C368.844 28.9688 363.188 33.5625 363.188 40.2188C363.188 45.4062 366.312 48.6562 373.656 50.0938L379.844 51.2812C382.156 51.7188 383.281 52.375 383.281 54C383.281 55.75 381.844 56.8438 379.281 56.8438C376.406 56.8438 374.594 55.2812 374.531 52.7188H362.625C362.906 59.9062 369.156 63.9062 379.125 63.9062ZM375.875 46.2188C375.875 44.4375 377.25 43.0312 379.094 43.0312C380.906 43.0312 382.312 44.4375 382.312 46.2188C382.312 48.0312 380.906 49.4375 379.125 49.4375C377.281 49.4375 375.875 48.0312 375.875 46.2188Z" fill="#2D2F44"/>
<circle cx="8.75" cy="40.75" r="4.75" fill="#DD5E5C"/>
<circle cx="92.4" cy="38.4" r="4.4" fill="#4B94BC"/>
<circle cx="267.4" cy="45.4" r="4.4" fill="#56C4C0"/>
<circle cx="330.4" cy="46.4" r="4.4" fill="#4B94BC"/>
<circle cx="228.4" cy="32.4" r="4.4" fill="#FAF5AC"/>
</svg>
