<svg width="410" height="98" viewBox="0 0 410 98" fill="none" xmlns="http://www.w3.org/2000/svg">
<path d="M112.812 63H145.312V53.3125H126.438C125.688 53.3125 125.156 53.7812 125.156 54.5938V55.9062C125.156 58.2188 123.281 60.0938 120.969 60.0938C118.656 60.0938 116.781 58.2188 116.781 55.9062C116.781 53.5625 118.656 51.7188 120.969 51.7188H122.844C123.781 51.7188 124.562 51.0938 124.562 50.0938V46.1875C124.562 45.2188 123.781 44.5625 122.844 44.5625H120.969C118.625 44.5625 116.688 42.6875 116.688 40.4375C116.688 38.125 118.625 36.2188 120.969 36.2188H122.844C123.781 36.2188 124.562 35.5938 124.562 34.5312V31.0625C124.562 30.0625 123.781 29.4375 122.844 29.4375H120.969C118.656 29.4375 116.781 27.5938 116.781 25.25C116.781 22.9375 118.656 21.0938 120.969 21.0938C123.281 21.0938 125.156 22.9375 125.156 25.25V26.5625C125.156 27.375 125.688 27.8438 126.5 27.8438H145.281V18.1875H112.812V63ZM123.75 40.3438C123.75 43 125.781 45.0312 128.5 45.0312H143.688V35.75H128.5C125.781 35.75 123.75 37.625 123.75 40.3438ZM151.125 63H162.469V43.5625C162.469 39.6562 164.125 37.4062 167.188 37.4062C169.719 37.4062 171 39 171 41.625V63H182.344V40.8125C182.344 33.7188 178.406 28.9688 171.594 28.9688C165.281 28.9688 162.031 32.3438 160.906 38.1875C160.469 40.6562 159.094 42.0938 156.969 42.0938C154.719 42.0938 153.125 40.375 153.125 38.1875C153.125 35.9375 154.906 34.3125 157.188 34.3125H159.406C160.344 34.3125 160.938 33.7188 160.938 32.7812V29.875H151.125V63ZM203.5 63.5312C205.844 63.5312 208.125 63.1562 209.5 62.7188V54.4688C208.688 54.6562 207.812 54.7812 206.781 54.7812C204.438 54.7812 202.906 53.8438 202.906 51.0625V38.25H210V29.875H204.625C203.5 29.875 202.938 30.4375 202.938 31.4375V32.4062C202.938 34.5938 201.281 36.25 199.219 36.25C197.031 36.25 195.375 34.5938 195.375 32.4062C195.375 30.3125 197.031 28.6875 199.219 28.6875H201.156C202.344 28.6875 202.906 28.125 202.906 26.9375V19.8438H193.5L193.344 23.0625C193.125 28.3125 191.094 29.875 187.062 29.875H186.188V38.25H191.562V52.6875C191.562 60.5625 196.375 63.5312 203.5 63.5312ZM215.25 63H226.594V48.5625C226.594 42.7812 230.5 40.0312 234.562 40.0312C235.562 40.0312 236.5 40.1562 237.375 40.375V29.5C236.906 29.4062 236.25 29.3438 235.625 29.3438C231.906 29.3438 228.969 30.9062 227.156 33.6875C226.312 34.9375 225.719 36.4688 225.406 38.1875C224.938 40.625 223.656 42.0938 221.5 42.0938C219.344 42.0938 217.656 40.375 217.656 38.1875C217.656 35.8438 219.562 34.3125 221.75 34.3125H223.625C224.531 34.3125 225.156 33.6562 225.156 32.7812V29.875H215.25V63ZM250.219 63.9062C255.188 63.9062 258.625 61.6875 260.469 58.7188C260.594 60.375 260.812 61.7812 261.094 63H272.812V61.8438C271.906 61.1562 271.531 58 271.531 55.4375V41.9062C271.531 33.9375 266.406 28.9688 256.219 28.9688C246.594 28.9688 240.469 33.6562 240.188 40.5H251.875C251.969 38 253.656 36.375 256.406 36.375C258.906 36.375 260.219 37.8125 260.219 39.5625C260.219 41.4688 259.031 42.25 256.031 42.6562L250.031 43.4688C243.344 44.375 239.344 47.2812 239.344 53.7188C239.344 60.0625 243.969 63.9062 250.219 63.9062ZM250.906 52.6875C250.906 50.4375 252.5 49.3438 255.094 48.8125L257.094 48.4062C257.5 48.3125 257.906 48.2188 258.312 48.1562C259.688 47.875 260.156 47.125 260.156 45.875V44.9062C260.156 42.7188 261.844 41.125 263.969 41.125C266.094 41.125 267.781 42.7188 267.781 44.9062C267.781 47.125 266.062 48.75 263.969 48.75H262.625C261.438 48.75 260.812 49.1562 260.594 50.25L260.469 50.8438C259.875 54 258 56.0625 254.844 56.0625C252.562 56.0625 250.906 54.8125 250.906 52.6875ZM278 63H289.344V48.5625C289.344 42.7812 293.25 40.0312 297.312 40.0312C298.312 40.0312 299.25 40.1562 300.125 40.375V29.5C299.656 29.4062 299 29.3438 298.375 29.3438C294.656 29.3438 291.719 30.9062 289.906 33.6875C289.062 34.9375 288.469 36.4688 288.156 38.1875C287.688 40.625 286.406 42.0938 284.25 42.0938C282.094 42.0938 280.406 40.375 280.406 38.1875C280.406 35.8438 282.312 34.3125 284.5 34.3125H286.375C287.281 34.3125 287.906 33.6562 287.906 32.7812V29.875H278V63Z" fill="#2D2F44"/>
<circle cx="120.75" cy="25.75" r="4.75" fill="#DD5E5C"/>
<circle cx="198.5" cy="33.5" r="4.5" fill="#FAF5AC"/>
<circle cx="263.5" cy="44.5" r="4.5" fill="#56C4C0"/>
</svg>
