<svg width="303" height="76" viewBox="0 0 303 76" fill="none" xmlns="http://www.w3.org/2000/svg">
<path d="M3.96875 63H36.4688V53.3125H17.5938C16.8438 53.3125 16.3125 53.7812 16.3125 54.5938V55.9062C16.3125 58.2188 14.4375 60.0938 12.125 60.0938C9.8125 60.0938 7.9375 58.2188 7.9375 55.9062C7.9375 53.5625 9.8125 51.7188 12.125 51.7188H14C14.9375 51.7188 15.7188 51.0938 15.7188 50.0938V46.1875C15.7188 45.2188 14.9375 44.5625 14 44.5625H12.125C9.78125 44.5625 7.84375 42.6875 7.84375 40.4375C7.84375 38.125 9.78125 36.2188 12.125 36.2188H14C14.9375 36.2188 15.7188 35.5938 15.7188 34.5312V31.0625C15.7188 30.0625 14.9375 29.4375 14 29.4375H12.125C9.8125 29.4375 7.9375 27.5938 7.9375 25.25C7.9375 22.9375 9.8125 21.0938 12.125 21.0938C14.4375 21.0938 16.3125 22.9375 16.3125 25.25V26.5625C16.3125 27.375 16.8438 27.8438 17.6562 27.8438H36.4375V18.1875H3.96875V63ZM14.9062 40.3438C14.9062 43 16.9375 45.0312 19.6562 45.0312H34.8438V35.75H19.6562C16.9375 35.75 14.9062 37.625 14.9062 40.3438ZM57.0938 63.5312C59.4375 63.5312 61.7188 63.1562 63.0938 62.7188V54.4688C62.2812 54.6562 61.4062 54.7812 60.375 54.7812C58.0312 54.7812 56.5 53.8438 56.5 51.0625V38.25H63.5938V29.875H58.2188C57.0938 29.875 56.5312 30.4375 56.5312 31.4375V32.4062C56.5312 34.5938 54.875 36.25 52.8125 36.25C50.625 36.25 48.9688 34.5938 48.9688 32.4062C48.9688 30.3125 50.625 28.6875 52.8125 28.6875H54.75C55.9375 28.6875 56.5 28.125 56.5 26.9375V19.8438H47.0938L46.9375 23.0625C46.7188 28.3125 44.6875 29.875 40.6562 29.875H39.7812V38.25H45.1562V52.6875C45.1562 60.5625 49.9688 63.5312 57.0938 63.5312ZM68.8438 63H80.1875V29.875H68.8438V63ZM68.7188 26.625H80.3438V17.4688H68.7188V26.625ZM108.281 74.5312H119.625V29.875H108.688V32.4375C108.688 33.4688 109.25 34.0312 110.094 34.0312H112.562C114.875 34.0312 116.5 35.6562 116.5 37.8125C116.5 39.9688 114.844 41.6562 112.719 41.6562C110.406 41.6562 109.219 39.9375 108.719 37.7812C108.094 35.25 107.188 33.25 105.906 31.7812C104.281 29.9062 102.062 28.9688 99.0938 28.9688C90.8125 28.9688 85.5938 35.4375 85.5938 46.4688C85.5938 57.4375 90.75 63.9062 98.75 63.9062C103.219 63.9062 106.5 61.9688 108.281 58.375V74.5312ZM97.1875 46.4062C97.1875 40.875 99.0625 37.3125 102.781 37.3125C106.438 37.3125 108.375 40.875 108.375 46.4062C108.375 51.9688 106.438 55.5 102.781 55.5C99.0625 55.5 97.1875 51.9688 97.1875 46.4062ZM136.875 63.9062C143.156 63.9062 146.438 60.4688 147.562 54.6562C148 52.1875 149.375 50.75 151.5 50.75C153.75 50.75 155.375 52.4688 155.375 54.6562C155.375 56.9062 153.594 58.5625 151.281 58.5625H149.062C148.125 58.5625 147.531 59.125 147.531 60.0938V63H157.344V29.875H146V49.375C146 53.1875 144.375 55.4688 141.344 55.4688C138.75 55.4688 137.469 53.8125 137.469 51.2188V29.875H126.125V52.5312C126.125 59.375 129.969 63.9062 136.875 63.9062ZM179.938 63.9062C189.25 63.9062 195.344 59.625 196.344 52.0625H184.969C184.594 54.75 182.875 56.3125 180.062 56.3125C176.75 56.3125 174.75 54.0625 174.5 50.625C174.438 49.7812 174 49.375 173.188 49.375H172.406C170.219 49.375 168.562 47.9375 168.562 45.7812C168.562 43.5938 170.219 42.1562 172.406 42.1562H173.031C174 42.1562 174.375 41.8125 174.562 40.9688C175.188 38.0625 177.125 36.2812 179.969 36.2812C182.969 36.2812 184.875 38.0312 185.062 42.3438H177.562C175.344 42.3438 173.844 43.6875 173.844 45.8125C173.844 47.9062 175.344 49.25 177.562 49.25H196.438C196.469 48.2812 196.469 47.1562 196.469 46.0312C196.469 34.9688 189.5 28.9688 179.938 28.9688C169.969 28.9688 162.562 35.1562 162.562 46.4688C162.562 58.1562 169.438 63.9062 179.938 63.9062ZM216.281 63.5312C218.625 63.5312 220.906 63.1562 222.281 62.7188V54.4688C221.469 54.6562 220.594 54.7812 219.562 54.7812C217.219 54.7812 215.688 53.8438 215.688 51.0625V38.25H222.781V29.875H217.406C216.281 29.875 215.719 30.4375 215.719 31.4375V32.4062C215.719 34.5938 214.062 36.25 212 36.25C209.812 36.25 208.156 34.5938 208.156 32.4062C208.156 30.3125 209.812 28.6875 212 28.6875H213.938C215.125 28.6875 215.688 28.125 215.688 26.9375V19.8438H206.281L206.125 23.0625C205.906 28.3125 203.875 29.875 199.844 29.875H198.969V38.25H204.344V52.6875C204.344 60.5625 209.156 63.5312 216.281 63.5312ZM236.938 63.9062C241.906 63.9062 245.344 61.6875 247.188 58.7188C247.312 60.375 247.531 61.7812 247.812 63H259.531V61.8438C258.625 61.1562 258.25 58 258.25 55.4375V41.9062C258.25 33.9375 253.125 28.9688 242.938 28.9688C233.312 28.9688 227.188 33.6562 226.906 40.5H238.594C238.688 38 240.375 36.375 243.125 36.375C245.625 36.375 246.938 37.8125 246.938 39.5625C246.938 41.4688 245.75 42.25 242.75 42.6562L236.75 43.4688C230.062 44.375 226.062 47.2812 226.062 53.7188C226.062 60.0625 230.688 63.9062 236.938 63.9062ZM237.625 52.6875C237.625 50.4375 239.219 49.3438 241.812 48.8125L243.812 48.4062C244.219 48.3125 244.625 48.2188 245.031 48.1562C246.406 47.875 246.875 47.125 246.875 45.875V44.9062C246.875 42.7188 248.562 41.125 250.688 41.125C252.812 41.125 254.5 42.7188 254.5 44.9062C254.5 47.125 252.781 48.75 250.688 48.75H249.344C248.156 48.75 247.531 49.1562 247.312 50.25L247.188 50.8438C246.594 54 244.719 56.0625 241.562 56.0625C239.281 56.0625 237.625 54.8125 237.625 52.6875ZM279.562 63.9062C288.375 63.9062 295.25 60.3438 295.25 52.5938C295.25 47.25 292.344 44.0312 284.688 42.5625L278.375 41.375C276.125 40.9375 275.125 40.1562 275.125 38.75C275.125 37.0625 276.656 35.9375 278.938 35.9375C281.5 35.9375 282.906 37.3438 282.969 39.7188H294.656C294.312 33.875 289.406 28.9688 279.188 28.9688C269.281 28.9688 263.625 33.5625 263.625 40.2188C263.625 45.4062 266.75 48.6562 274.094 50.0938L280.281 51.2812C282.594 51.7188 283.719 52.375 283.719 54C283.719 55.75 282.281 56.8438 279.719 56.8438C276.844 56.8438 275.031 55.2812 274.969 52.7188H263.062C263.344 59.9062 269.594 63.9062 279.562 63.9062ZM276.312 46.2188C276.312 44.4375 277.688 43.0312 279.531 43.0312C281.344 43.0312 282.75 44.4375 282.75 46.2188C282.75 48.0312 281.344 49.4375 279.562 49.4375C277.719 49.4375 276.312 48.0312 276.312 46.2188Z" fill="#2D2F44"/>
<circle cx="11.75" cy="24.75" r="4.75" fill="#DD5E5C"/>
<circle cx="52.4" cy="32.4" r="4.4" fill="#4B94BC"/>
<circle cx="250.4" cy="45.4" r="4.4" fill="#56C4C0"/>
<circle cx="151.4" cy="54.4" r="4.4" fill="#FAF5AC"/>
</svg>
