<svg width="273" height="75" viewBox="0 0 273 75" fill="none" xmlns="http://www.w3.org/2000/svg">
<path d="M3.96875 63H15.7188V47.9688C15.7188 46.9688 14.9062 46.1875 13.875 46.1875H11.75C9.21875 46.1875 7.1875 44.1875 7.1875 41.6875C7.1875 39.0938 9.21875 37 11.75 37H14C15.25 37 16.125 36.2188 16.125 34.9062V31.4062C16.125 30.1562 15.25 29.4375 14 29.4375H12.0938C9.78125 29.4375 7.90625 27.5938 7.90625 25.25C7.90625 22.9375 9.78125 21.0938 12.0938 21.0938C14.4062 21.0938 16.25 22.5 16.25 24.8438V26.2188C16.25 27.2188 16.9375 27.8438 17.8438 27.8438H34.8438V18.1875H3.96875V63ZM14.8125 41.5938C14.8125 44.3438 16.9375 46.4062 19.7188 46.4062H32.875V36.7812H19.7188C16.9375 36.7812 14.8125 38.75 14.8125 41.5938ZM34.4375 63H45.4062V51.8125H34.4375V63ZM48.5938 63H60.75L63.3438 54.4375C63.6875 53.2812 63.4062 52.4062 62.375 52.0938L61.0625 51.6562C58.5625 50.875 57.125 48.5625 57.8125 46.1562C58.5312 43.6875 60.875 42.5625 63.2812 43.2188L64.375 43.5C65.6875 43.8438 66.5312 43.25 66.8438 42.0938L71.1875 27.4062L75.4375 42.0938C75.7812 43.2812 76.625 43.8125 77.875 43.4375L79.0938 43.1562C81.4062 42.5625 83.5625 43.4062 84.3438 45.7812C85.1875 48.1875 83.9688 50.7188 81.5938 51.4688L80.0625 52C79.0312 52.3125 78.5625 53.2188 78.9062 54.4375L81.4688 63H93.8125L79.8125 18.1875H62.9375L48.5938 63ZM63.5312 48.7812C63.5312 51.5625 65.625 53.4062 68.5 53.4062H74.125C76.875 53.4062 79.0625 51.5625 79.0625 48.7812C79.0625 46 76.875 44.0312 74.125 44.0312H68.5C65.625 44.0312 63.5312 46 63.5312 48.7812ZM97.125 63H108.094V51.8125H97.125V63ZM135.875 74.9688H145V67.5312H140.094C138.625 67.5312 137.875 66.9375 137.875 65.5V65.3438C137.875 64.4375 137.438 63.9062 136.406 63.9062H135.406C133 63.9062 131.094 62.1875 131.094 59.8125C131.094 57.5312 132.906 55.7188 135.219 55.7188C137.531 55.7188 139.281 57.5312 139.281 59.8125V60.875C139.281 62.3125 140.406 62.9062 141.969 62.2812C149.688 59.3438 154.375 51.8438 154.375 40.5938C154.375 25.6562 146.219 17.3125 133.156 17.3125C120.188 17.3125 111.938 25.6562 111.938 40.5938C111.938 53.25 117.719 61.4375 127.719 63.4062V66.875C127.719 72.25 129.969 74.9688 135.875 74.9688ZM113.812 40.5938C113.812 38.2812 115.719 36.4688 118 36.4688C120.344 36.4688 122.219 38.2812 122.219 40.5938C122.219 42.875 120.344 44.7188 118 44.7188C115.719 44.7188 113.812 42.875 113.812 40.5938ZM124.031 40.5938C124.031 31.5938 127.375 26.9062 133.156 26.9062C139 26.9062 142.281 31.5938 142.281 40.5938C142.281 49.5938 139.031 54.2812 133.156 54.2812C127.281 54.2812 124.031 49.5938 124.031 40.5938ZM144.094 40.5938C144.094 38.2812 146.062 36.4688 148.344 36.4688C150.594 36.4688 152.5 38.2812 152.5 40.5938C152.5 42.875 150.594 44.7188 148.344 44.7188C146.062 44.7188 144.094 42.875 144.094 40.5938ZM158.188 63H169.156V51.8125H158.188V63Z" fill="#2D2F44"/>
<circle cx="12.5" cy="25.5" r="4.5" fill="#DD5E5C"/>
<path d="M85.3 47.3885C85.3 49.8738 83.2853 51.8885 80.8 51.8885C78.3148 51.8885 76.3 49.8738 76.3 47.3885C76.3 44.9032 78.3148 42.8885 80.8 42.8885C83.2853 42.8885 85.3 44.9032 85.3 47.3885Z" fill="#FAF5AC"/>
<circle cx="118.3" cy="40.5" r="4.5" fill="#56C4C0"/>
</svg>
