<svg width="167" height="58" viewBox="0 0 167 58" fill="none" xmlns="http://www.w3.org/2000/svg">
<path d="M0.96875 46H12.7188V30.9688C12.7188 29.9688 11.9062 29.1875 10.875 29.1875H8.75C6.21875 29.1875 4.1875 27.1875 4.1875 24.6875C4.1875 22.0938 6.21875 20 8.75 20H11C12.25 20 13.125 19.2188 13.125 17.9062V14.4062C13.125 13.1562 12.25 12.4375 11 12.4375H9.09375C6.78125 12.4375 4.90625 10.5938 4.90625 8.25C4.90625 5.9375 6.78125 4.09375 9.09375 4.09375C11.4062 4.09375 13.25 5.5 13.25 7.84375V9.21875C13.25 10.2188 13.9375 10.8438 14.8438 10.8438H31.8438V1.1875H0.96875V46ZM11.8125 24.5938C11.8125 27.3438 13.9375 29.4062 16.7188 29.4062H29.875V19.7812H16.7188C13.9375 19.7812 11.8125 21.75 11.8125 24.5938ZM31.4375 46H42.4062V34.8125H31.4375V46ZM45.5938 46H57.75L60.3438 37.4375C60.6875 36.2812 60.4062 35.4062 59.375 35.0938L58.0625 34.6562C55.5625 33.875 54.125 31.5625 54.8125 29.1562C55.5312 26.6875 57.875 25.5625 60.2812 26.2188L61.375 26.5C62.6875 26.8438 63.5312 26.25 63.8438 25.0938L68.1875 10.4062L72.4375 25.0938C72.7812 26.2812 73.625 26.8125 74.875 26.4375L76.0938 26.1562C78.4062 25.5625 80.5625 26.4062 81.3438 28.7812C82.1875 31.1875 80.9688 33.7188 78.5938 34.4688L77.0625 35C76.0312 35.3125 75.5625 36.2188 75.9062 37.4375L78.4688 46H90.8125L76.8125 1.1875H59.9375L45.5938 46ZM60.5312 31.7812C60.5312 34.5625 62.625 36.4062 65.5 36.4062H71.125C73.875 36.4062 76.0625 34.5625 76.0625 31.7812C76.0625 29 73.875 27.0312 71.125 27.0312H65.5C62.625 27.0312 60.5312 29 60.5312 31.7812ZM94.125 46H105.094V34.8125H94.125V46ZM132.875 57.9688H142V50.5312H137.094C135.625 50.5312 134.875 49.9375 134.875 48.5V48.3438C134.875 47.4375 134.438 46.9062 133.406 46.9062H132.406C130 46.9062 128.094 45.1875 128.094 42.8125C128.094 40.5312 129.906 38.7188 132.219 38.7188C134.531 38.7188 136.281 40.5312 136.281 42.8125V43.875C136.281 45.3125 137.406 45.9062 138.969 45.2812C146.688 42.3438 151.375 34.8438 151.375 23.5938C151.375 8.65625 143.219 0.3125 130.156 0.3125C117.188 0.3125 108.938 8.65625 108.938 23.5938C108.938 36.25 114.719 44.4375 124.719 46.4062V49.875C124.719 55.25 126.969 57.9688 132.875 57.9688ZM110.812 23.5938C110.812 21.2812 112.719 19.4688 115 19.4688C117.344 19.4688 119.219 21.2812 119.219 23.5938C119.219 25.875 117.344 27.7188 115 27.7188C112.719 27.7188 110.812 25.875 110.812 23.5938ZM121.031 23.5938C121.031 14.5938 124.375 9.90625 130.156 9.90625C136 9.90625 139.281 14.5938 139.281 23.5938C139.281 32.5938 136.031 37.2812 130.156 37.2812C124.281 37.2812 121.031 32.5938 121.031 23.5938ZM141.094 23.5938C141.094 21.2812 143.062 19.4688 145.344 19.4688C147.594 19.4688 149.5 21.2812 149.5 23.5938C149.5 25.875 147.594 27.7188 145.344 27.7188C143.062 27.7188 141.094 25.875 141.094 23.5938ZM155.188 46H166.156V34.8125H155.188V46Z" fill="#2D2F44"/>
</svg>
