<svg xmlns="http://www.w3.org/2000/svg" viewBox="0 0 2099.23 1904.77"><defs><style>.cls-1,.cls-6{fill:#8295a6;}.cls-19,.cls-2{fill:none;}.cls-2{stroke:#8295a6;stroke-linecap:round;stroke-linejoin:round;stroke-width:0.08px;}.cls-10,.cls-3{fill:#fdfaa9;}.cls-12,.cls-4{fill:#54c5c3;}.cls-14,.cls-5{fill:#de5e5d;}.cls-10,.cls-11,.cls-12,.cls-13,.cls-14,.cls-16,.cls-18,.cls-20,.cls-6,.cls-7,.cls-8,.cls-9{fill-rule:evenodd;}.cls-7{fill:#2b2b2b;}.cls-8{fill:#3f3f3f;}.cls-9{fill:#d5d38d;}.cls-11{fill:#3e908f;}.cls-13{fill:#9f4747;}.cls-15{fill:#262231;}.cls-17,.cls-20{fill:#fff;}.cls-18{fill:#d6d38d;}.cls-19{stroke:#000;stroke-miterlimit:10;stroke-width:7px;}</style></defs><g id="Layer_2" data-name="Layer 2"><g id="Layer_2-2" data-name="Layer 2"><path class="cls-1" d="M255.83,796.54c65.87,60.79,105.25,103.5,126.64,131,31.44,40.38,33.44,38.55,90.13,116.17,51.68,70.77,53.77,81.91,103.4,153.19,57.9,83.16,56.84,90.82,111.32,170.81,33.4,49,77.32,113.2,132.25,180.51,28.34,34.72,86.88,103.19,179.49,164.93,30.64,20.43,154.1,109.27,395.83,155.41,257.28,49.11,704.34,34.06,704.34,34.06l-1-93.95s-253.31.87-348.51-3.35c-28.85-1.27-92.17,1.79-265.79-22.72C1267.1,1752,1168,1692,1141.53,1679.43c-74.3-35.23-123.83-75.57-168.25-114.89-42-37.15-72.86-70.68-136.34-155.75-25.54-34.21-24.17-35.23-135.32-202.72-60.9-91.76-93.71-140.53-124.77-184.51-60.25-85.31-105.74-142.9-125.62-166.81-78.59-94.52-130.45-142.58-196.17-187.38-16.85-11.49-38.28-29.49-106.46-63.58C49,554,6.13,554,6.13,554v101.1S150,698.84,255.83,796.54Z"/><path class="cls-1" d="M0,1240.3C0,1356,1.53,1392,1.53,1392s46.63-60.47,118-133.78c20.06-20.62,68.2-68.72,139.4-109.28,54-30.75,102.33-46.21,132.77-56.17a771,771,0,0,1,83.74-22.47c27.23-5.61,67.78-13.37,83.24-15.32,116.62-14.7,155-17,190.47-19.4,16-1.11,52.89-2.44,126.63-5.11,99.12-3.58,119.91-4.46,155.75-6.13,96.14-4.47,169.35-11.08,200.68-15.31,82.25-11.11,150.73-20.74,239.49-48,30.06-9.24,72.15-25.17,128.17-51.07,44.61-20.62,124.08-63.32,199.15-122.55C1880.55,723,2097.19,558.6,2097.19,558.6V438.09S1887,584.47,1806.47,655.28c-16.32,14.36-51.55,42.2-95.32,74.22a888.82,888.82,0,0,1-139.92,84.42c-79.71,38.42-145,55.59-186.89,66.38-94.46,24.33-169.88,30.83-217.53,34.73-42.24,3.45-30.66,4.69-186.55,11.23-67.28,2.83-112.74,3.84-150.47,5.79-86.9,4.49-131.73,6.47-166.13,9.87-84.29,8.34-147.45,18.6-164.77,22.13-83.11,16.92-168.11,36-258,81.36C185.31,1073.42,85.11,1140.22,0,1240.3Z"/></g><g id="Layer_1-2" data-name="Layer 1"><path class="cls-2" d="M1957.22,891.77c-2.52,3.08-1.65,3.27-2.6-.58"/><circle class="cls-3" cx="1175.33" cy="963.39" r="31.5"/><circle class="cls-4" cx="1598.33" cy="1843.39" r="31.5"/><circle class="cls-5" cx="369.33" cy="832.39" r="31.5"/><path class="cls-6" d="M371,41.35h7.69V326.89H371Z"/><path class="cls-7" d="M381.72,322.5c15.77,0,28.55,11.77,28.55,26.28V519.9c0,14.51-12.78,26.28-28.55,26.28H392.6c15.78,0,28.57-11.77,28.57-26.28V348.78c0-14.51-12.79-26.28-28.57-26.28Z"/><path class="cls-8" d="M353.65,322.5c-13.25,0-24,11.77-24,26.28V519.9c0,14.51,10.74,26.28,24,26.28h34c13.25,0,24-11.77,24-26.28V348.78c0-14.51-10.73-26.28-24-26.28Z"/><path class="cls-9" d="M375.42,402.11a31.19,31.19,0,0,0-5.34.49,30.77,30.77,0,0,1,.86,60.76,30,30,0,0,0,4.48.36,30.81,30.81,0,0,0,0-61.61Z"/><path class="cls-10" d="M370.08,402.6a30.77,30.77,0,0,0,.86,60.76,30.77,30.77,0,0,0-.86-60.76Z"/><path class="cls-11" d="M375.42,469.88a31.19,31.19,0,0,0-5.34.49,30.78,30.78,0,0,1,.86,60.77,31.37,31.37,0,0,0,4.48.35,30.81,30.81,0,0,0,0-61.61Z"/><path class="cls-12" d="M370.08,470.37a30.78,30.78,0,0,0,.86,60.77,30.78,30.78,0,0,0-.86-60.77Z"/><path class="cls-13" d="M375.42,332.29a31.19,31.19,0,0,0-5.34.49,30.77,30.77,0,0,1,.86,60.76,30,30,0,0,0,4.48.36,30.81,30.81,0,0,0,0-61.61Z"/><path class="cls-14" d="M370.08,332.78a30.77,30.77,0,0,0,.86,60.76,30.77,30.77,0,0,0-.86-60.76Z"/><path class="cls-6" d="M1606.83,0h113V20.25c0,13.67-9.27,24.75-20.72,24.75h-71.56c-11.44,0-20.72-11.08-20.72-24.75Z"/><path class="cls-6" d="M326.15,0H428.94V20.25c0,13.67-8.44,24.75-18.85,24.75H345c-10.41,0-18.85-11.08-18.85-24.75Z"/><path class="cls-6" d="M173,0h95.13V20.25c0,13.67-7.81,24.75-17.45,24.75H190.4C180.77,45,173,33.92,173,20.25Z"/><path class="cls-6" d="M1657.46,40h8.94V479.43h-8.94Z"/><path class="cls-7" d="M1668.17,455.89c17.07,0,30.9,10,30.9,22.36V623.8c0,12.35-13.83,22.36-30.9,22.36H1680c17.07,0,30.92-10,30.92-22.36V478.25c0-12.35-13.85-22.36-30.92-22.36Z"/><path class="cls-8" d="M1637.79,455.89c-14.34,0-26,10-26,22.36V623.8c0,12.35,11.62,22.36,26,22.36h36.76c14.33,0,25.94-10,25.94-22.36V478.25c0-12.35-11.61-22.36-25.94-22.36Z"/><circle class="cls-15" cx="1659.45" cy="511.94" r="35.55"/><circle class="cls-15" cx="1659.45" cy="593.52" r="35.55"/><path class="cls-16" d="M1660,558.07a36.1,36.1,0,0,0-6.2.57,35.42,35.42,0,0,1,1,70,35.51,35.51,0,1,0,5.2-70.59Z"/><path class="cls-16" d="M1660,476.43a36.1,36.1,0,0,0-6.2.57,35.42,35.42,0,0,1,1,70,35.51,35.51,0,1,0,5.2-70.59Z"/><path class="cls-12" d="M1659.15,564.74a5,5,0,1,1-5,5A5,5,0,0,1,1659.15,564.74Zm-11.6,26.19c1-.45,7.37-3.62,7.37-3.62s2.28-4.85,3.45-7.5c1.1-2.49,1.9-3.14,3.48-3.14h2.42a4.14,4.14,0,0,1,2.51.9l6.56,5.58a2.49,2.49,0,0,1,1.17,1.52l1.4,9.45a1.84,1.84,0,0,1-1.49,2.33,1.73,1.73,0,0,1-2-1.28c-.18-.87-1.51-8.59-1.51-8.59l-4.28-3.29c.7,3.28,1.42,6.87,1.66,8.09.41,2.08-.64,3.67-1.45,4.91s-10.43,16.39-11.71,18.05-2.44,2.48-4.22,1.49c-1.49-.83-1.25-2.73-.42-4.14s10.6-17.3,10.6-17.3l-1.64-7.08s-1.14,1.61-1.72,2.52c-.28.44-.57.61-1.34,1s-5.28,2.48-6.61,3.08-2.64.73-3.23-.32A2,2,0,0,1,1647.55,590.93Z"/><path class="cls-12" d="M1669.17,597.35l2,7,5.28,7.65c.86,1.26,1.51,2.79,0,3.91-1.65,1.25-3-.38-3.84-1.35s-4-5.35-4.88-6.49a7.9,7.9,0,0,1-1.2-2c-.17-.43-.82-2.2-1.23-3.34Z"/><path class="cls-14" d="M1661.24,485.16A5.79,5.79,0,1,0,1667,491,5.79,5.79,0,0,0,1661.24,485.16ZM1667,497.9h-10.42a5.65,5.65,0,0,0-5.79,5.68v12.95a2.33,2.33,0,0,0,4.63,0V506.45a.58.58,0,0,1,1.16,0v27.83c0,1.67.64,2.88,2.31,2.88a2.18,2.18,0,0,0,1.62-.68,2.36,2.36,0,0,0,.49-.89,2.83,2.83,0,0,0,.13-.5,2.17,2.17,0,0,0,0-.25,1.57,1.57,0,0,0,0-.23V518a.62.62,0,0,1,.58-.58.62.62,0,0,1,.58.58v12.72s0,3.84,0,3.85a1.52,1.52,0,0,0,0,.21,3,3,0,0,0,.63,1.63,2.2,2.2,0,0,0,1.65.71c1.67,0,2.32-1.22,2.32-2.88V506.45a.62.62,0,0,1,.58-.58.61.61,0,0,1,.57.58v10.08a2.33,2.33,0,0,0,4.64,0v-13A5.65,5.65,0,0,0,1667,497.9Z"/><rect class="cls-17" x="1617.17" y="780.58" width="58.05" height="13" transform="translate(-172.71 932.09) rotate(-30.11)"/><rect class="cls-17" x="1629.17" y="800.58" width="58.05" height="13" transform="translate(-181.13 940.81) rotate(-30.11)"/><rect class="cls-17" x="1641.17" y="820.58" width="58.05" height="13" transform="translate(-189.54 949.53) rotate(-30.11)"/><rect class="cls-17" x="1654.17" y="840.58" width="58.05" height="13" transform="translate(-197.82 958.75) rotate(-30.11)"/><path class="cls-6" d="M215.46,42h8.94V240h-8.94Z"/><path class="cls-7" d="M237,234.3a22.75,22.75,0,0,1,22.74,22.76v68.72A22.75,22.75,0,0,1,237,348.54h13.11a22.77,22.77,0,0,0,22.77-22.76V257.06a22.77,22.77,0,0,0-22.77-22.76Z"/><path class="cls-8" d="M190.05,234.3A22.91,22.91,0,0,0,167,257.06v68.72a22.91,22.91,0,0,0,23.05,22.76H237.9a22.91,22.91,0,0,0,23-22.76V257.06a22.91,22.91,0,0,0-23-22.76Z"/><path class="cls-18" d="M218.74,253.46a38.25,38.25,0,0,0-6.47.59,37.28,37.28,0,0,1,1,73.6,37.29,37.29,0,1,0,5.43-74.19Z"/><path class="cls-10" d="M212.27,254.05a37.27,37.27,0,0,0,1,73.6,37.28,37.28,0,0,0-1-73.6Z"/><path class="cls-19" d="M218,313.25l-21.78-21.47L217.66,270"/><path class="cls-20" d="M198.84,291.76l45.53-.33Z"/><path class="cls-19" d="M198.84,291.76l45.53-.33"/></g></g></svg>