<svg width="1420" height="966" viewBox="0 0 1420 966" fill="none" xmlns="http://www.w3.org/2000/svg">
<mask id="mask0_547_1615" style="mask-type:alpha" maskUnits="userSpaceOnUse" x="0" y="0" width="1420" height="966">
<path d="M0 0H1410C1415.52 0 1420 4.47715 1420 10V956C1420 961.523 1415.52 966 1410 966H9.99997C4.47712 966 0 961.523 0 956V0Z" fill="white"/>
</mask>
<g mask="url(#mask0_547_1615)">
<g opacity="0.5">
<path d="M-79 -112.387H1462.33V1110H-79V-112.387Z" fill="white"/>
<path d="M214.755 689.996H209.919C209.278 689.995 208.664 689.74 208.21 689.287C207.757 688.834 207.502 688.22 207.501 687.579V682.745C207.502 682.104 207.757 681.49 208.21 681.037C208.664 680.584 209.278 680.329 209.919 680.328H214.755C215.396 680.329 216.011 680.584 216.464 681.037C216.918 681.49 217.173 682.104 217.173 682.745V687.579C217.173 688.22 216.918 688.834 216.464 689.287C216.011 689.74 215.396 689.995 214.755 689.996Z" fill="#DC5E5C"/>
<path d="M212.428 684.67C212.336 684.67 212.244 684.662 212.153 684.646C211.945 684.61 211.745 684.534 211.566 684.421C211.387 684.308 211.232 684.161 211.11 683.988C210.987 683.815 210.901 683.62 210.854 683.414C210.807 683.207 210.802 682.994 210.837 682.785L226.78 590.061C226.855 589.642 227.092 589.27 227.441 589.026C227.789 588.781 228.22 588.685 228.64 588.757C229.059 588.829 229.433 589.064 229.68 589.41C229.927 589.757 230.027 590.187 229.957 590.607L214.015 683.331C213.951 683.705 213.756 684.045 213.466 684.29C213.175 684.535 212.808 684.669 212.428 684.67Z" fill="#DC5E5C"/>
<path d="M212.424 684.67C212.044 684.669 211.677 684.535 211.387 684.29C211.096 684.045 210.902 683.706 210.837 683.331L194.895 590.607C194.826 590.187 194.926 589.757 195.173 589.41C195.419 589.064 195.793 588.829 196.213 588.757C196.632 588.685 197.064 588.781 197.412 589.026C197.76 589.27 197.998 589.642 198.073 590.061L214.015 682.785C214.051 682.994 214.045 683.207 213.999 683.414C213.952 683.62 213.865 683.815 213.743 683.988C213.621 684.161 213.466 684.308 213.287 684.421C213.107 684.534 212.908 684.61 212.699 684.646C212.608 684.662 212.516 684.67 212.424 684.67Z" fill="#DC5E5C"/>
<path d="M246.747 574.189C248.301 563.185 242.422 553.258 233.614 552.015C224.807 550.772 216.408 558.685 214.854 569.689C213.543 578.969 217.53 587.463 224.092 590.648L223.718 593.293L231.692 594.418L232.065 591.773C239.252 590.528 245.436 583.47 246.747 574.189Z" fill="#4A8BAF"/>
<path d="M209.724 569.182C207.816 558.234 199.166 550.595 190.403 552.121C181.64 553.646 176.084 563.758 177.992 574.706C179.601 583.94 186.009 590.795 193.232 591.808L193.691 594.44L201.624 593.059L201.165 590.427C207.621 587.032 211.333 578.415 209.724 569.182Z" fill="#DC5E5C"/>
<path d="M212.337 682.745C211.91 682.745 211.5 682.575 211.197 682.273C210.895 681.971 210.725 681.561 210.725 681.134V585.813C210.723 585.601 210.764 585.39 210.844 585.192C210.924 584.995 211.042 584.816 211.192 584.665C211.342 584.514 211.521 584.394 211.717 584.312C211.914 584.23 212.124 584.188 212.337 584.188C212.55 584.188 212.761 584.23 212.957 584.312C213.154 584.394 213.332 584.514 213.482 584.665C213.632 584.816 213.75 584.995 213.831 585.192C213.911 585.39 213.951 585.601 213.949 585.813V681.134C213.949 681.561 213.779 681.971 213.477 682.273C213.175 682.575 212.765 682.745 212.337 682.745Z" fill="#DC5E5C"/>
<path d="M227.443 567.504C227.443 556.391 220.233 547.382 211.339 547.382C202.444 547.382 195.234 556.391 195.234 567.504C195.234 576.876 200.37 584.729 207.312 586.966V589.638H215.365V586.966C222.307 584.729 227.443 576.876 227.443 567.504Z" fill="#56C4C0"/>
<path d="M963.012 1083.73L962.689 1083.7L458.509 1036.88L0.0407041 1079.45C-6.23835 1080.04 -12.57 1079.3 -18.5495 1077.3C-24.529 1075.3 -30.0249 1072.07 -34.6856 1067.83C-39.3464 1063.58 -43.0696 1058.41 -45.6171 1052.64C-48.1647 1046.88 -49.4806 1040.64 -49.4807 1034.34V-55.5375C-49.5269 -66.8416 -45.325 -77.7509 -37.7069 -86.1057C-30.0888 -94.4604 -19.6098 -99.6513 -8.34474 -100.651L458.509 -144L458.832 -143.969L963.012 -97.1552L1421.48 -139.725C1427.76 -140.308 1434.09 -139.575 1440.07 -137.573C1446.05 -135.571 1451.54 -132.344 1456.2 -128.098C1460.87 -123.852 1464.59 -118.681 1467.14 -112.915C1469.68 -107.149 1471 -100.915 1471 -94.6119V995.265C1471.05 1006.57 1466.84 1017.48 1459.23 1025.83C1451.61 1034.19 1441.13 1039.38 1429.86 1040.38L963.012 1083.73ZM458.509 1029.88L458.832 1029.91L963.012 1076.73L1429.22 1033.44C1438.75 1032.59 1447.62 1028.2 1454.06 1021.13C1460.51 1014.06 1464.07 1004.83 1464.03 995.265V-94.6119C1464.03 -99.9455 1462.91 -105.22 1460.76 -110.099C1458.6 -114.978 1455.45 -119.354 1451.51 -122.947C1447.56 -126.539 1442.91 -129.27 1437.85 -130.964C1432.79 -132.658 1427.44 -133.279 1422.12 -132.785L963.012 -90.1541L962.689 -90.1848L458.509 -136.999L-7.69972 -93.7107C-17.2317 -92.8648 -26.0984 -88.4724 -32.5445 -81.4029C-38.9906 -74.3335 -42.5461 -65.1024 -42.5071 -55.5374V1034.34C-42.507 1039.67 -41.3936 1044.95 -39.238 1049.83C-37.0824 1054.71 -33.932 1059.08 -29.9883 1062.68C-26.0446 1066.27 -21.3943 1069 -16.3347 1070.69C-11.2751 1072.39 -5.91752 1073.01 -0.604439 1072.51L458.509 1029.88Z" fill="#F4F4F4"/>
<path d="M1403.23 134.937C1403.23 103.944 1378.07 30.4015 1347.05 30.4015C1316.02 30.4015 1290.87 103.945 1290.87 134.937C1290.88 149.824 1296.8 164.098 1307.33 174.622C1317.87 185.145 1332.15 191.057 1347.05 191.057C1361.94 191.057 1376.23 185.145 1386.76 174.622C1397.29 164.098 1403.22 149.824 1403.23 134.937Z" fill="#434453"/>
<path d="M1347.05 259.285C1346.88 259.285 1346.71 259.217 1346.59 259.097C1346.47 258.976 1346.4 258.813 1346.4 258.643V127.555C1346.41 127.385 1346.47 127.223 1346.59 127.103C1346.71 126.984 1346.88 126.917 1347.05 126.917C1347.22 126.917 1347.38 126.984 1347.5 127.103C1347.62 127.223 1347.69 127.385 1347.69 127.555V258.643C1347.69 258.727 1347.67 258.811 1347.64 258.889C1347.61 258.966 1347.56 259.037 1347.5 259.097C1347.44 259.156 1347.37 259.204 1347.29 259.236C1347.21 259.268 1347.13 259.285 1347.05 259.285Z" fill="#DC5E5C"/>
<path d="M1347.05 152.047C1346.96 152.047 1346.86 152.027 1346.78 151.989C1346.7 151.951 1346.62 151.895 1346.56 151.826L1314.25 114.581C1314.14 114.453 1314.08 114.285 1314.1 114.115C1314.11 113.946 1314.19 113.788 1314.32 113.677C1314.45 113.565 1314.61 113.509 1314.78 113.521C1314.95 113.533 1315.11 113.612 1315.22 113.74L1347.53 150.984C1347.61 151.077 1347.67 151.191 1347.68 151.313C1347.7 151.435 1347.68 151.559 1347.63 151.671C1347.58 151.783 1347.5 151.878 1347.39 151.945C1347.29 152.011 1347.17 152.047 1347.05 152.047Z" fill="#DC5E5C"/>
<path d="M1347.05 173.541C1346.92 173.541 1346.8 173.503 1346.69 173.433C1346.58 173.362 1346.5 173.262 1346.45 173.145C1346.4 173.027 1346.39 172.898 1346.42 172.774C1346.44 172.649 1346.5 172.535 1346.59 172.445L1364.95 154.094C1365.01 154.034 1365.08 153.987 1365.16 153.955C1365.24 153.922 1365.32 153.906 1365.41 153.906C1365.49 153.906 1365.57 153.922 1365.65 153.955C1365.73 153.987 1365.8 154.034 1365.86 154.094C1365.92 154.153 1365.97 154.224 1366 154.302C1366.03 154.38 1366.05 154.463 1366.05 154.548C1366.05 154.632 1366.03 154.716 1366 154.793C1365.97 154.871 1365.92 154.942 1365.86 155.002L1347.5 173.353C1347.44 173.413 1347.37 173.46 1347.29 173.492C1347.21 173.525 1347.13 173.541 1347.05 173.541Z" fill="#DC5E5C"/>
<path d="M1286.2 258.434C1286.2 252.217 1288.67 246.254 1293.07 241.857C1297.47 237.461 1303.43 234.991 1309.65 234.991C1315.87 234.991 1321.84 237.461 1326.24 241.857C1330.63 246.254 1333.11 252.217 1333.11 258.434" fill="#F2F2F2"/>
<path d="M1309.65 258.434C1309.48 258.434 1309.32 258.367 1309.2 258.248C1309.09 258.13 1309.02 257.968 1309.02 257.8V245.445C1309.02 245.277 1309.09 245.116 1309.2 244.997C1309.32 244.878 1309.48 244.812 1309.65 244.812C1309.82 244.812 1309.98 244.878 1310.1 244.997C1310.22 245.116 1310.29 245.277 1310.29 245.445V257.8C1310.29 257.968 1310.22 258.13 1310.1 258.248C1309.98 258.367 1309.82 258.434 1309.65 258.434Z" fill="#DC5E5C"/>
<path d="M1309.65 254.188C1309.5 254.189 1309.35 254.134 1309.24 254.036L1301.63 247.51C1301.57 247.456 1301.52 247.39 1301.48 247.315C1301.44 247.241 1301.42 247.16 1301.41 247.077C1301.41 246.994 1301.42 246.911 1301.44 246.832C1301.47 246.753 1301.51 246.68 1301.56 246.617C1301.62 246.553 1301.69 246.502 1301.76 246.464C1301.83 246.426 1301.91 246.404 1302 246.398C1302.08 246.391 1302.16 246.401 1302.24 246.427C1302.32 246.453 1302.4 246.494 1302.46 246.548L1310.07 253.074C1310.16 253.158 1310.23 253.271 1310.27 253.396C1310.3 253.521 1310.29 253.654 1310.25 253.775C1310.2 253.896 1310.12 254.001 1310.01 254.075C1309.91 254.149 1309.78 254.189 1309.65 254.188Z" fill="#DC5E5C"/>
<path d="M1358.46 258.434C1358.46 252.217 1360.93 246.254 1365.33 241.857C1369.73 237.461 1375.69 234.991 1381.91 234.991C1388.14 234.991 1394.1 237.461 1398.5 241.857C1402.9 246.254 1405.37 252.217 1405.37 258.434" fill="#F2F2F2"/>
<path d="M1381.91 258.434C1381.75 258.434 1381.59 258.367 1381.47 258.248C1381.35 258.13 1381.28 257.968 1381.28 257.8V245.445C1381.28 245.277 1381.35 245.116 1381.47 244.997C1381.59 244.878 1381.75 244.812 1381.91 244.812C1382.08 244.812 1382.24 244.878 1382.36 244.997C1382.48 245.116 1382.55 245.277 1382.55 245.445V257.8C1382.55 257.968 1382.48 258.13 1382.36 258.248C1382.24 258.367 1382.08 258.434 1381.91 258.434Z" fill="#DC5E5C"/>
<path d="M1381.91 254.189C1381.76 254.189 1381.62 254.134 1381.5 254.036L1373.9 247.51C1373.77 247.4 1373.69 247.245 1373.68 247.078C1373.67 246.911 1373.72 246.746 1373.83 246.619C1373.94 246.492 1374.09 246.413 1374.26 246.4C1374.43 246.387 1374.59 246.44 1374.72 246.549L1382.33 253.074C1382.43 253.158 1382.5 253.271 1382.53 253.396C1382.56 253.521 1382.55 253.654 1382.51 253.775C1382.46 253.896 1382.38 254.001 1382.28 254.075C1382.17 254.149 1382.04 254.189 1381.91 254.189Z" fill="#DC5E5C"/>
<path d="M664.28 46.1711C679.689 24.1253 698.36 -40.6821 676.289 -56.094C654.219 -71.5058 599.763 -31.6858 584.355 -9.63993C576.956 0.954186 574.069 14.0519 576.33 26.773C578.59 39.4941 585.813 50.7971 596.409 58.1964C607.005 65.5958 620.108 68.4856 632.836 66.2306C645.563 63.9755 656.874 56.7602 664.28 46.1711Z" fill="#F2F2F2"/>
<path d="M562.495 106.719C562.374 106.634 562.292 106.505 562.266 106.359C562.24 106.214 562.273 106.064 562.358 105.943L627.531 12.6957C627.615 12.5746 627.744 12.492 627.89 12.4662C628.036 12.4404 628.186 12.4734 628.307 12.5581C628.428 12.6427 628.511 12.772 628.536 12.9175C628.562 13.063 628.529 13.2128 628.444 13.334L563.272 106.581C563.187 106.702 563.058 106.785 562.912 106.811C562.767 106.836 562.617 106.804 562.495 106.719Z" fill="#DC5E5C"/>
<path d="M615.811 30.4369C615.746 30.3912 615.69 30.332 615.65 30.2632C615.609 30.1944 615.584 30.1176 615.576 30.0382L611.109 -12.5042C611.094 -12.6512 611.137 -12.7984 611.23 -12.9132C611.323 -13.0281 611.458 -13.1013 611.605 -13.1167C611.752 -13.1321 611.9 -13.0886 612.015 -12.9955C612.129 -12.9025 612.203 -12.7676 612.218 -12.6206L616.685 29.9217C616.696 30.0279 616.676 30.1351 616.628 30.2305C616.58 30.3259 616.506 30.4054 616.414 30.4597C616.321 30.514 616.216 30.5407 616.109 30.5366C616.002 30.5326 615.899 30.498 615.811 30.4369Z" fill="#DC5E5C"/>
<path d="M605.125 45.7263C605.034 45.6632 604.965 45.5747 604.925 45.4721C604.885 45.3694 604.876 45.2572 604.9 45.1496C604.923 45.042 604.979 44.9439 605.058 44.8676C605.138 44.7913 605.238 44.7403 605.347 44.721L627.53 40.7865C627.602 40.7733 627.676 40.7744 627.748 40.7899C627.82 40.8054 627.888 40.835 627.948 40.8769C628.009 40.9188 628.06 40.9721 628.1 41.034C628.139 41.0958 628.166 41.1649 628.179 41.2372C628.192 41.3095 628.19 41.3836 628.175 41.4553C628.159 41.527 628.129 41.5948 628.086 41.6549C628.044 41.715 627.99 41.7661 627.928 41.8054C627.866 41.8446 627.797 41.8712 627.725 41.8836L605.541 45.8182C605.469 45.8311 605.395 45.8296 605.324 45.8138C605.252 45.7981 605.185 45.7683 605.125 45.7263Z" fill="#DC5E5C"/>
<path d="M519.635 75.8891C522.732 71.4801 527.452 68.4788 532.759 67.5437C538.067 66.6086 543.529 67.8161 547.947 70.9012C552.365 73.9863 555.378 78.6972 556.326 84.0003C557.274 89.3034 556.078 94.7656 553.002 99.1888" fill="#F2F2F2"/>
<path d="M536.318 87.539C536.199 87.4555 536.117 87.328 536.092 87.1844C536.066 87.0408 536.099 86.893 536.183 86.7735L542.325 77.9849C542.409 77.8663 542.536 77.7858 542.68 77.7609C542.823 77.7359 542.97 77.7686 543.089 77.8518C543.208 77.935 543.29 78.0619 543.315 78.2048C543.341 78.3477 543.309 78.4951 543.227 78.6146L537.084 87.4032C537.001 87.5227 536.873 87.6042 536.729 87.6297C536.586 87.6551 536.438 87.6225 536.318 87.539Z" fill="#DC5E5C"/>
<path d="M538.429 84.5189C538.321 84.4438 538.244 84.3325 538.211 84.2052L536.045 75.785C536.027 75.715 536.022 75.642 536.032 75.5703C536.042 75.4986 536.066 75.4296 536.103 75.3672C536.14 75.3048 536.188 75.2503 536.246 75.2067C536.304 75.1632 536.37 75.1315 536.44 75.1135C536.51 75.0955 536.583 75.0915 536.655 75.1017C536.727 75.112 536.796 75.1362 536.858 75.1732C536.92 75.2101 536.975 75.259 537.018 75.3171C537.061 75.3751 537.093 75.441 537.11 75.5112L539.277 83.9314C539.305 84.0402 539.299 84.155 539.26 84.2602C539.22 84.3655 539.15 84.4562 539.058 84.5202C538.965 84.5842 538.855 84.6183 538.743 84.6181C538.631 84.6179 538.521 84.5832 538.429 84.5189Z" fill="#DC5E5C"/>
<path d="M571.038 111.783C572.566 109.587 574.512 107.713 576.765 106.269C579.019 104.825 581.535 103.84 584.17 103.37C586.805 102.899 589.506 102.953 592.12 103.528C594.734 104.103 597.209 105.187 599.403 106.719C601.597 108.251 603.468 110.201 604.907 112.457C606.346 114.712 607.326 117.229 607.791 119.864C608.255 122.499 608.195 125.199 607.614 127.811C607.033 130.422 605.943 132.893 604.405 135.083" fill="#F2F2F2"/>
<path d="M587.721 123.433C587.602 123.35 587.52 123.222 587.495 123.078C587.469 122.935 587.502 122.787 587.586 122.668L593.728 113.879C593.812 113.76 593.939 113.678 594.083 113.653C594.227 113.627 594.374 113.66 594.494 113.743C594.614 113.827 594.695 113.954 594.721 114.098C594.746 114.241 594.714 114.389 594.63 114.509L588.487 123.297C588.404 123.417 588.276 123.498 588.133 123.524C587.989 123.549 587.841 123.517 587.721 123.433Z" fill="#DC5E5C"/>
<path d="M589.832 120.413C589.724 120.338 589.647 120.227 589.614 120.099L587.448 111.679C587.412 111.538 587.434 111.389 587.509 111.264C587.583 111.139 587.704 111.049 587.844 111.013C587.985 110.977 588.135 110.998 588.26 111.071C588.385 111.145 588.476 111.265 588.513 111.405L590.68 119.826C590.708 119.934 590.702 120.049 590.663 120.154C590.623 120.26 590.553 120.35 590.461 120.414C590.368 120.478 590.258 120.513 590.146 120.512C590.034 120.512 589.924 120.477 589.832 120.413Z" fill="#DC5E5C"/>
<path d="M980.414 527.059C992.81 538.438 1005.12 549.899 1017.36 561.44C1014.22 561.615 1010.96 561.754 1007.61 561.859C1002.89 562.016 997.97 562.085 992.81 562.085C936.201 562.085 907.469 552.797 879.714 543.805C853.354 535.284 828.458 527.233 777.342 527.233C726.207 527.233 701.311 535.284 674.968 543.805C647.195 552.797 618.464 562.085 561.856 562.085C505.23 562.085 476.516 552.797 448.744 543.805C422.994 535.475 398.638 527.599 349.857 527.25C348.706 527.233 347.556 527.233 346.37 527.233V492.381C347.538 492.381 348.706 492.381 349.857 492.398C404.182 492.764 432.286 501.86 459.483 510.643C485.843 519.182 510.74 527.233 561.856 527.233C612.973 527.233 637.869 519.182 664.229 510.643C692.002 501.669 720.716 492.381 777.342 492.381C833.95 492.381 862.664 501.669 890.436 510.643C912.456 517.77 933.464 524.567 969.588 526.606C973.056 526.815 976.648 526.954 980.414 527.059Z" fill="#56C4C0"/>
<path d="M1423.8 527.233V562.085C1367.17 562.085 1338.46 552.797 1310.69 543.805C1284.32 535.284 1259.43 527.233 1208.31 527.233C1157.18 527.233 1132.28 535.284 1105.92 543.805C1104.49 544.276 1103.05 544.729 1101.6 545.199C1099.12 546.001 1096.61 546.802 1094.07 547.587C1084.44 538.159 1074.78 528.813 1065.09 519.548C1067.79 518.886 1070.41 518.189 1072.99 517.474C1080.68 515.348 1087.88 513.013 1095.2 510.643C1122.97 501.669 1151.69 492.381 1208.31 492.381C1264.94 492.381 1293.65 501.669 1321.43 510.643C1347.78 519.182 1372.68 527.233 1423.8 527.233Z" fill="#56C4C0"/>
<path d="M653.332 259.201C555.736 188.154 453.049 120.785 348.149 58.9741L342.883 55.8723V265.509H661.997L653.332 259.201ZM349.857 258.539V68.0881C449.65 127.093 547.368 191.117 640.554 258.539H349.857ZM1147.26 690.028C1105.05 646.167 1061.75 603.304 1017.36 561.44C1005.12 549.887 992.804 538.426 980.414 527.059C904.802 457.633 826.703 391.605 746.117 328.975L745.175 328.243H342.883V695.936H1152.94L1147.26 690.028ZM349.857 688.965V335.214H742.787C820.491 395.63 896.091 459.428 969.588 526.606C982.349 538.264 995.024 550.015 1007.61 561.859C1051.61 603.194 1094.59 645.563 1136.54 688.965H349.857ZM1147.26 690.028C1105.05 646.167 1061.75 603.304 1017.36 561.44C1005.12 549.887 992.804 538.426 980.414 527.059C904.802 457.633 826.703 391.605 746.117 328.975L745.175 328.243H342.883V695.936H1152.94L1147.26 690.028ZM349.857 688.965V335.214H742.787C820.491 395.63 896.091 459.428 969.588 526.606C982.349 538.264 995.024 550.015 1007.61 561.859C1051.61 603.194 1094.59 645.563 1136.54 688.965H349.857ZM653.332 259.201C555.736 188.154 453.049 120.785 348.149 58.9741L342.883 55.8723V265.509H661.997L653.332 259.201ZM349.857 258.539V68.0881C449.65 127.093 547.368 191.117 640.554 258.539H349.857ZM653.332 259.201C555.736 188.154 453.049 120.785 348.149 58.9741L342.883 55.8723V265.509H661.997L653.332 259.201ZM349.857 258.539V68.0881C449.65 127.093 547.368 191.117 640.554 258.539H349.857ZM1147.26 690.028C1105.05 646.167 1061.75 603.304 1017.36 561.44C1005.12 549.887 992.804 538.426 980.414 527.059C904.802 457.633 826.703 391.605 746.117 328.975L745.175 328.243H342.883V695.936H1152.94L1147.26 690.028ZM349.857 688.965V335.214H742.787C820.491 395.63 896.091 459.428 969.588 526.606C982.349 538.264 995.024 550.015 1007.61 561.859C1051.61 603.194 1094.59 645.563 1136.54 688.965H349.857ZM-2.27686 758.67V765.64H273.147V866.712H-2.27686V873.683H280.121V758.67H-2.27686ZM342.883 936.417V1007.05L349.857 1006.4V943.387H1423.8V936.417H342.883ZM1423.8 765.64V758.67H342.883V873.683H1423.8V866.712H349.857V765.64H1423.8ZM772.547 258.539C638.761 155.383 497.473 62.3314 349.857 -19.8445V-90.4204L342.883 -89.7757V-18.6534L348.253 -12.7519C495.268 69.2003 635.983 161.966 769.234 264.777L770.176 265.509H1423.8V258.539H772.547ZM273.147 258.539H-2.27686V265.509H280.121V-83.9553L273.147 -83.3106V258.539ZM1423.8 328.243H849.187L856.702 334.412C927.449 392.598 996.912 454.31 1065.09 519.548C1074.78 528.819 1084.44 538.165 1094.07 547.587C1141.98 594.376 1188.95 642.693 1234.99 692.538L1240.74 695.936H1423.8V688.965H1241.18C1195.64 639.614 1149.11 591.692 1101.6 545.199C1092.1 535.894 1082.56 526.652 1072.99 517.474C1006.29 453.503 938.159 392.749 868.608 335.214H1423.8V328.243ZM-2.27686 936.417V943.387H273.147V1013.51L280.121 1012.87V936.417H-2.27686ZM-2.27686 328.243V335.214H273.147V688.965H-2.27686V695.936H280.121V328.243H-2.27686ZM653.332 259.201C555.736 188.154 453.049 120.785 348.149 58.9741L342.883 55.8723V265.509H661.997L653.332 259.201ZM349.857 258.539V68.0881C449.65 127.093 547.368 191.117 640.554 258.539H349.857ZM1147.26 690.028C1105.05 646.167 1061.75 603.304 1017.36 561.44C1005.12 549.887 992.804 538.426 980.414 527.059C904.802 457.633 826.703 391.605 746.117 328.975L745.175 328.243H342.883V695.936H1152.94L1147.26 690.028ZM349.857 688.965V335.214H742.787C820.491 395.63 896.091 459.428 969.588 526.606C982.349 538.264 995.024 550.015 1007.61 561.859C1051.61 603.194 1094.59 645.563 1136.54 688.965H349.857ZM653.332 259.201C555.736 188.154 453.049 120.785 348.149 58.9741L342.883 55.8723V265.509H661.997L653.332 259.201ZM349.857 258.539V68.0881C449.65 127.093 547.368 191.117 640.554 258.539H349.857ZM1147.26 690.028C1105.05 646.167 1061.75 603.304 1017.36 561.44C1005.12 549.887 992.804 538.426 980.414 527.059C904.802 457.633 826.703 391.605 746.117 328.975L745.175 328.243H342.883V695.936H1152.94L1147.26 690.028ZM349.857 688.965V335.214H742.787C820.491 395.63 896.091 459.428 969.588 526.606C982.349 538.264 995.024 550.015 1007.61 561.859C1051.61 603.194 1094.59 645.563 1136.54 688.965H349.857Z" fill="#434453"/>
<path d="M835.725 496.237C835.725 465.547 860.616 392.72 891.32 392.72C922.024 392.72 946.915 465.547 946.915 496.237C946.915 510.975 941.058 525.11 930.632 535.531C920.206 545.952 906.065 551.807 891.32 551.807C876.575 551.807 862.434 545.952 852.008 535.531C841.582 525.11 835.725 510.975 835.725 496.237Z" fill="#F2F2F2"/>
<path d="M891.32 631.432C891.26 631.432 891.201 631.421 891.145 631.398C891.09 631.375 891.039 631.341 890.997 631.299C890.954 631.256 890.921 631.206 890.898 631.15C890.875 631.095 890.863 631.036 890.863 630.976V439.389C890.863 439.268 890.911 439.151 890.997 439.066C891.083 438.98 891.199 438.932 891.32 438.932C891.441 438.932 891.558 438.98 891.643 439.066C891.729 439.151 891.777 439.268 891.777 439.389V630.975C891.777 631.035 891.765 631.095 891.742 631.15C891.719 631.206 891.686 631.256 891.643 631.299C891.601 631.341 891.55 631.375 891.495 631.398C891.44 631.421 891.38 631.432 891.32 631.432Z" fill="#434453"/>
<path d="M891.32 476.376C891.26 476.376 891.201 476.364 891.145 476.341C891.09 476.318 891.039 476.285 890.997 476.242L868.992 454.248C868.95 454.205 868.916 454.155 868.893 454.1C868.87 454.044 868.858 453.985 868.858 453.925C868.858 453.865 868.87 453.805 868.893 453.75C868.916 453.694 868.95 453.644 868.992 453.602C869.035 453.559 869.085 453.526 869.141 453.503C869.196 453.48 869.255 453.468 869.315 453.468C869.376 453.468 869.435 453.48 869.491 453.503C869.546 453.526 869.596 453.559 869.639 453.602L891.643 475.596C891.707 475.66 891.751 475.741 891.768 475.83C891.786 475.919 891.777 476.011 891.742 476.094C891.708 476.177 891.649 476.249 891.574 476.299C891.499 476.349 891.41 476.376 891.32 476.376Z" fill="#434453"/>
<path d="M891.32 514.453C891.23 514.453 891.141 514.426 891.066 514.376C890.991 514.326 890.932 514.254 890.898 514.171C890.863 514.087 890.854 513.995 890.872 513.907C890.889 513.818 890.933 513.737 890.997 513.673L927.847 476.839C927.89 476.796 927.94 476.763 927.996 476.74C928.051 476.717 928.11 476.705 928.171 476.705C928.231 476.705 928.29 476.717 928.345 476.74C928.401 476.763 928.451 476.796 928.494 476.839C928.536 476.881 928.57 476.932 928.593 476.987C928.616 477.042 928.628 477.102 928.628 477.162C928.628 477.222 928.616 477.281 928.593 477.337C928.57 477.392 928.536 477.443 928.494 477.485L891.643 514.319C891.601 514.361 891.551 514.395 891.495 514.418C891.44 514.441 891.38 514.453 891.32 514.453Z" fill="#434453"/>
<path d="M1147.45 339.402C1147.45 308.711 1172.34 235.885 1203.04 235.885C1233.75 235.885 1258.64 308.711 1258.64 339.402C1258.63 354.134 1252.77 368.259 1242.34 378.673C1231.92 389.087 1217.78 394.937 1203.04 394.937C1188.3 394.937 1174.17 389.087 1163.74 378.673C1153.32 368.259 1147.46 354.134 1147.45 339.402Z" fill="#56C4C0"/>
<path d="M1203.04 474.597C1202.98 474.597 1202.92 474.585 1202.87 474.562C1202.81 474.539 1202.76 474.505 1202.72 474.463C1202.68 474.421 1202.64 474.37 1202.62 474.315C1202.6 474.259 1202.59 474.2 1202.59 474.14V282.553C1202.59 282.432 1202.63 282.316 1202.72 282.23C1202.81 282.145 1202.92 282.096 1203.04 282.096C1203.16 282.096 1203.28 282.145 1203.37 282.23C1203.45 282.316 1203.5 282.432 1203.5 282.553V474.14C1203.5 474.2 1203.49 474.259 1203.47 474.315C1203.44 474.37 1203.41 474.421 1203.37 474.463C1203.32 474.505 1203.27 474.539 1203.22 474.562C1203.16 474.585 1203.1 474.597 1203.04 474.597Z" fill="#434453"/>
<path d="M1203.04 319.541C1202.98 319.541 1202.92 319.529 1202.87 319.506C1202.81 319.483 1202.76 319.449 1202.72 319.407L1180.72 297.412C1180.63 297.327 1180.58 297.21 1180.58 297.089C1180.58 296.968 1180.63 296.852 1180.72 296.766C1180.8 296.68 1180.92 296.632 1181.04 296.632C1181.16 296.632 1181.28 296.68 1181.36 296.766L1203.37 318.761C1203.43 318.824 1203.47 318.906 1203.49 318.994C1203.51 319.083 1203.5 319.175 1203.47 319.258C1203.43 319.342 1203.37 319.413 1203.3 319.464C1203.22 319.514 1203.13 319.541 1203.04 319.541Z" fill="#434453"/>
<path d="M1203.04 357.617C1202.95 357.617 1202.86 357.59 1202.79 357.54C1202.71 357.49 1202.66 357.419 1202.62 357.335C1202.59 357.252 1202.58 357.16 1202.6 357.071C1202.61 356.982 1202.66 356.901 1202.72 356.837L1239.57 320.003C1239.66 319.918 1239.77 319.871 1239.89 319.871C1240.01 319.872 1240.13 319.92 1240.22 320.005C1240.3 320.09 1240.35 320.206 1240.35 320.327C1240.35 320.448 1240.3 320.563 1240.22 320.649L1203.37 357.483C1203.32 357.526 1203.27 357.559 1203.22 357.582C1203.16 357.605 1203.1 357.617 1203.04 357.617Z" fill="#434453"/>
<path d="M464.89 355.085C464.89 324.395 489.781 251.568 520.485 251.568C551.189 251.568 576.08 324.395 576.08 355.085C576.08 369.823 570.223 383.958 559.797 394.379C549.371 404.8 535.23 410.655 520.485 410.655C505.74 410.655 491.599 404.8 481.173 394.379C470.747 383.958 464.89 369.823 464.89 355.085Z" fill="#56C4C0"/>
<path d="M520.485 490.28C520.425 490.28 520.365 490.269 520.31 490.246C520.254 490.223 520.204 490.189 520.162 490.147C520.119 490.104 520.085 490.054 520.062 489.998C520.04 489.943 520.028 489.883 520.028 489.823V298.237C520.028 298.116 520.076 298 520.162 297.914C520.247 297.828 520.364 297.78 520.485 297.78C520.606 297.78 520.722 297.828 520.808 297.914C520.894 298 520.942 298.116 520.942 298.237V489.823C520.942 489.883 520.93 489.943 520.907 489.998C520.884 490.054 520.851 490.104 520.808 490.147C520.766 490.189 520.715 490.223 520.66 490.246C520.604 490.269 520.545 490.28 520.485 490.28Z" fill="#434453"/>
<path d="M520.485 335.224C520.425 335.224 520.365 335.212 520.31 335.189C520.254 335.166 520.204 335.133 520.162 335.09L498.157 313.096C498.115 313.053 498.081 313.003 498.058 312.948C498.035 312.892 498.023 312.833 498.023 312.773C498.023 312.713 498.035 312.653 498.058 312.598C498.081 312.542 498.115 312.492 498.157 312.45C498.2 312.407 498.25 312.374 498.305 312.351C498.361 312.328 498.42 312.316 498.48 312.316C498.54 312.316 498.6 312.328 498.655 312.351C498.711 312.374 498.761 312.407 498.804 312.45L520.808 334.444C520.872 334.508 520.916 334.589 520.933 334.678C520.951 334.767 520.942 334.859 520.907 334.942C520.873 335.026 520.814 335.097 520.739 335.147C520.664 335.197 520.575 335.224 520.485 335.224Z" fill="#434453"/>
<path d="M520.485 373.301C520.394 373.301 520.306 373.274 520.231 373.224C520.156 373.173 520.097 373.102 520.063 373.019C520.028 372.935 520.019 372.843 520.036 372.755C520.054 372.666 520.098 372.585 520.162 372.521L557.012 335.687C557.098 335.601 557.214 335.554 557.335 335.554C557.456 335.554 557.572 335.602 557.658 335.687C557.743 335.773 557.792 335.889 557.792 336.01C557.792 336.131 557.744 336.247 557.659 336.333L520.808 373.167C520.766 373.209 520.715 373.243 520.66 373.266C520.604 373.289 520.545 373.301 520.485 373.301Z" fill="#434453"/>
<path d="M977.815 201.981C946.239 201.981 915.372 192.621 889.117 175.086C862.862 157.552 842.399 132.629 830.316 103.469C818.232 74.3098 815.07 42.2236 821.23 11.2681C827.391 -19.6873 842.596 -48.1217 864.924 -70.4394C887.252 -92.757 915.699 -107.956 946.669 -114.113C977.638 -120.27 1009.74 -117.11 1038.91 -105.032C1068.08 -92.9537 1093.02 -72.5 1110.56 -46.2572C1128.1 -20.0144 1137.47 10.8387 1137.47 42.4006C1137.42 84.7092 1120.58 125.271 1090.65 155.188C1060.72 185.104 1020.14 201.933 977.815 201.981ZM977.815 -115.037C946.663 -115.037 916.21 -105.804 890.308 -88.5042C864.405 -71.2047 844.217 -46.6162 832.296 -17.8482C820.374 10.9198 817.255 42.5753 823.332 73.1152C829.41 103.655 844.411 131.708 866.439 153.726C888.467 175.744 916.533 190.739 947.087 196.813C977.641 202.888 1009.31 199.77 1038.09 187.854C1066.87 175.938 1091.47 155.759 1108.78 129.868C1126.09 103.978 1135.32 73.5389 1135.32 42.4006C1135.28 0.660005 1118.67 -39.3575 1089.14 -68.8726C1059.61 -98.3877 1019.57 -114.99 977.815 -115.037Z" fill="#DC5E5C"/>
<path d="M977.815 30.6196C977.531 30.6195 977.259 30.5067 977.058 30.3058C976.857 30.105 976.744 29.8326 976.744 29.5486V-116.108C976.744 -116.392 976.857 -116.665 977.058 -116.866C977.259 -117.066 977.531 -117.179 977.815 -117.179C978.099 -117.179 978.372 -117.066 978.573 -116.866C978.774 -116.665 978.887 -116.392 978.887 -116.108V29.5486C978.887 29.8326 978.774 30.105 978.573 30.3058C978.372 30.5067 978.099 30.6195 977.815 30.6196Z" fill="#DC5E5C"/>
<path d="M1136.4 43.4716H990.673C990.389 43.4716 990.117 43.3588 989.916 43.1579C989.715 42.9571 989.602 42.6847 989.602 42.4006C989.602 42.1166 989.715 41.8442 989.916 41.6433C990.117 41.4425 990.389 41.3296 990.673 41.3296H1136.4C1136.68 41.3296 1136.95 41.4425 1137.15 41.6433C1137.35 41.8442 1137.47 42.1166 1137.47 42.4006C1137.47 42.6847 1137.35 42.9571 1137.15 43.1579C1136.95 43.3588 1136.68 43.4716 1136.4 43.4716Z" fill="#DC5E5C"/>
<path d="M964.957 43.4716H819.303C819.019 43.4716 818.747 43.3588 818.546 43.1579C818.345 42.9571 818.232 42.6847 818.232 42.4006C818.232 42.1166 818.345 41.8442 818.546 41.6433C818.747 41.4425 819.019 41.3296 819.303 41.3296H964.957C965.242 41.3296 965.514 41.4425 965.715 41.6433C965.916 41.8442 966.029 42.1166 966.029 42.4006C966.029 42.6847 965.916 42.9571 965.715 43.1579C965.514 43.3588 965.242 43.4716 964.957 43.4716Z" fill="#DC5E5C"/>
<path d="M977.815 201.981C977.531 201.98 977.259 201.868 977.058 201.667C976.857 201.466 976.744 201.194 976.744 200.909V55.2527C976.744 54.9686 976.857 54.6962 977.058 54.4954C977.259 54.2945 977.531 54.1817 977.815 54.1817C978.099 54.1817 978.372 54.2945 978.573 54.4954C978.774 54.6962 978.887 54.9686 978.887 55.2527V200.909C978.887 201.194 978.774 201.466 978.573 201.667C978.372 201.868 978.099 201.98 977.815 201.981Z" fill="#DC5E5C"/>
<path d="M987.263 34.7687C987.051 34.7686 986.844 34.7058 986.667 34.5881C986.491 34.4704 986.354 34.3031 986.273 34.1075C986.192 33.9118 986.171 33.6965 986.212 33.4888C986.253 33.281 986.355 33.0902 986.505 32.9404L1089.09 -69.6016C1089.29 -69.8011 1089.57 -69.9129 1089.85 -69.9124C1090.13 -69.9118 1090.41 -69.799 1090.61 -69.5987C1090.81 -69.3984 1090.92 -69.1268 1090.92 -68.8435C1090.92 -68.5602 1090.81 -68.2882 1090.61 -68.0871L988.02 34.4549C987.921 34.5545 987.803 34.6335 987.673 34.6874C987.543 34.7412 987.403 34.7689 987.263 34.7687Z" fill="#DC5E5C"/>
<path d="M968.368 34.7687C968.228 34.7689 968.088 34.7412 967.958 34.6874C967.828 34.6335 967.71 34.5545 967.611 34.4549L865.022 -68.0871C864.822 -68.2882 864.711 -68.5602 864.711 -68.8435C864.712 -69.1268 864.825 -69.3984 865.025 -69.5987C865.225 -69.799 865.497 -69.9118 865.781 -69.9124C866.064 -69.9129 866.336 -69.8011 866.537 -69.6016L969.126 32.9404C969.276 33.0902 969.378 33.281 969.419 33.4888C969.46 33.6965 969.439 33.9118 969.358 34.1075C969.277 34.3031 969.14 34.4704 968.964 34.5881C968.787 34.7058 968.58 34.7686 968.368 34.7687Z" fill="#DC5E5C"/>
<path d="M1089.85 154.717C1089.71 154.717 1089.57 154.689 1089.44 154.635C1089.31 154.581 1089.19 154.502 1089.09 154.403L986.505 51.8607C986.305 51.6596 986.194 51.3877 986.194 51.1044C986.195 50.821 986.308 50.5495 986.508 50.3492C986.708 50.1488 986.98 50.036 987.263 50.0355C987.547 50.035 987.819 50.1467 988.02 50.3463L1090.61 152.888C1090.76 153.038 1090.86 153.229 1090.9 153.437C1090.94 153.644 1090.92 153.86 1090.84 154.055C1090.76 154.251 1090.62 154.418 1090.45 154.536C1090.27 154.654 1090.06 154.717 1089.85 154.717Z" fill="#DC5E5C"/>
<path d="M865.78 154.717C865.568 154.717 865.361 154.654 865.185 154.536C865.008 154.418 864.871 154.251 864.79 154.055C864.709 153.86 864.688 153.644 864.729 153.437C864.77 153.229 864.872 153.038 865.022 152.888L967.611 50.3464C967.812 50.1455 968.084 50.0327 968.368 50.0327C968.653 50.0327 968.925 50.1455 969.126 50.3464C969.327 50.5472 969.44 50.8196 969.44 51.1036C969.44 51.3876 969.327 51.66 969.126 51.8608L866.537 154.403C866.438 154.502 866.32 154.581 866.19 154.635C866.06 154.689 865.92 154.717 865.78 154.717Z" fill="#DC5E5C"/>
<path d="M977.815 152.179C956.093 152.179 934.859 145.74 916.798 133.678C898.737 121.615 884.66 104.47 876.348 84.4108C868.035 64.3515 865.86 42.2788 870.098 20.9839C874.335 -0.310925 884.796 -19.8715 900.155 -35.2242C915.515 -50.577 935.084 -61.0323 956.389 -65.2681C977.694 -69.504 999.776 -67.33 1019.84 -59.0212C1039.91 -50.7123 1057.07 -36.6418 1069.13 -18.5889C1081.2 -0.535943 1087.64 20.6885 1087.64 42.4006C1087.61 71.5054 1076.03 99.4088 1055.44 119.989C1034.85 140.569 1006.93 152.146 977.815 152.179ZM977.815 -65.2354C956.517 -65.2354 935.697 -58.9227 917.989 -47.0955C900.28 -35.2683 886.478 -18.4578 878.327 1.2101C870.177 20.878 868.044 42.52 872.199 63.3994C876.355 84.2787 886.611 103.458 901.671 118.511C916.731 133.564 935.918 143.815 956.807 147.969C977.696 152.122 999.348 149.99 1019.02 141.843C1038.7 133.697 1055.52 119.901 1067.35 102.2C1079.18 84.4994 1085.5 63.6891 1085.5 42.4006C1085.47 13.8637 1074.11 -13.4952 1053.92 -33.6739C1033.74 -53.8526 1006.37 -65.2032 977.815 -65.2354Z" fill="#DC5E5C"/>
<path d="M977.815 55.2527C984.917 55.2527 990.673 49.4986 990.673 42.4006C990.673 35.3026 984.917 29.5485 977.815 29.5485C970.714 29.5485 964.957 35.3026 964.957 42.4006C964.957 49.4986 970.714 55.2527 977.815 55.2527Z" fill="#434453"/>
<path d="M928.036 259.489L916.741 259.815L971.877 37.3727L982.124 40.4982L928.036 259.489Z" fill="#434453"/>
<path d="M1027.59 259.489L1038.89 259.815L983.754 37.3727L973.507 40.4982L1027.59 259.489Z" fill="#434453"/>
<path d="M994.959 -83.9781H959.6V-64.6999H994.959V-83.9781Z" fill="#DC5E5C"/>
<path d="M975.672 -79.694H961.743V-64.6999H975.672V-79.694Z" fill="white"/>
<path d="M992.816 -79.694H978.887V-64.6999H992.816V-79.694Z" fill="white"/>
<path d="M977.28 -43.8153C971.882 -43.8215 966.708 -45.9674 962.891 -49.7822C959.074 -53.5971 956.927 -58.7694 956.921 -64.1644V-64.7C956.923 -65.9777 957.431 -67.2028 958.335 -68.1063C959.239 -69.0098 960.465 -69.5181 961.743 -69.5195H992.816C994.095 -69.5181 995.32 -69.0098 996.224 -68.1063C997.128 -67.2028 997.637 -65.9777 997.638 -64.7V-64.1644C997.632 -58.7694 995.485 -53.5971 991.668 -49.7822C987.852 -45.9674 982.677 -43.8215 977.28 -43.8153Z" fill="#DC5E5C"/>
<path d="M993.635 -79.1586H960.924C960.468 -79.1585 960.019 -79.2752 959.62 -79.4974C959.221 -79.7197 958.886 -80.0402 958.646 -80.4284C958.406 -80.8167 958.269 -81.2598 958.248 -81.7158C958.228 -82.1718 958.324 -82.6254 958.529 -83.0336L964.957 -95.8857C965.179 -96.3315 965.52 -96.7065 965.944 -96.9681C966.367 -97.2297 966.856 -97.3674 967.353 -97.3656H987.206C987.704 -97.3674 988.192 -97.2297 988.616 -96.9681C989.039 -96.7065 989.381 -96.3315 989.602 -95.8857L996.031 -83.0336C996.235 -82.6254 996.331 -82.1718 996.311 -81.7158C996.29 -81.2598 996.154 -80.8167 995.914 -80.4284C995.673 -80.0402 995.338 -79.7197 994.939 -79.4974C994.54 -79.2752 994.092 -79.1585 993.635 -79.1586Z" fill="#56C4C0"/>
<path d="M1090.32 -41.1378H1054.96V-21.8597H1090.32V-41.1378Z" fill="#DC5E5C"/>
<path d="M1071.04 -36.8538H1057.11V-21.8597H1071.04V-36.8538Z" fill="white"/>
<path d="M1088.18 -36.8538H1074.25V-21.8597H1088.18V-36.8538Z" fill="white"/>
<path d="M1072.64 -0.975112C1067.25 -0.981243 1062.07 -3.12712 1058.25 -6.942C1054.44 -10.7569 1052.29 -15.9292 1052.28 -21.3242V-21.8597C1052.29 -23.1375 1052.79 -24.3625 1053.7 -25.266C1054.6 -26.1695 1055.83 -26.6778 1057.11 -26.6792H1088.18C1089.46 -26.6778 1090.68 -26.1695 1091.59 -25.266C1092.49 -24.3625 1093 -23.1375 1093 -21.8597V-21.3242C1092.99 -15.9291 1090.85 -10.7569 1087.03 -6.942C1083.21 -3.12713 1078.04 -0.981243 1072.64 -0.975112Z" fill="#DC5E5C"/>
<path d="M1062.72 -53.4544C1062.42 -53.4554 1062.12 -53.3727 1061.87 -53.2158C1061.62 -53.0588 1061.41 -52.8339 1061.28 -52.5664L1054.85 -39.7143C1054.73 -39.4694 1054.67 -39.1972 1054.68 -38.9237C1054.69 -38.6501 1054.78 -38.3842 1054.92 -38.1512C1055.06 -37.9182 1055.27 -37.7259 1055.5 -37.5926C1055.74 -37.4592 1056.01 -37.3893 1056.29 -37.3893H1089C1089.27 -37.3893 1089.54 -37.4592 1089.78 -37.5926C1090.02 -37.7259 1090.22 -37.9182 1090.37 -38.1512C1090.51 -38.3842 1090.59 -38.6501 1090.6 -38.9237C1090.62 -39.1972 1090.56 -39.4694 1090.44 -39.7143L1084.01 -52.5664C1083.87 -52.8339 1083.67 -53.0588 1083.41 -53.2158C1083.16 -53.3727 1082.87 -53.4554 1082.57 -53.4544H1062.72Z" fill="#56C4C0"/>
<path d="M1127.82 55.2527H1092.47V74.5308H1127.82V55.2527Z" fill="#DC5E5C"/>
<path d="M1108.54 59.5367H1094.61V74.5308H1108.54V59.5367Z" fill="white"/>
<path d="M1125.68 59.5367H1111.75V74.5308H1125.68V59.5367Z" fill="white"/>
<path d="M1110.14 95.4154C1104.75 95.4093 1099.57 93.2634 1095.76 89.4485C1091.94 85.6336 1089.79 80.4613 1089.79 75.0663V74.5308C1089.79 73.253 1090.3 72.028 1091.2 71.1244C1092.1 70.2209 1093.33 69.7127 1094.61 69.7113H1125.68C1126.96 69.7127 1128.19 70.2209 1129.09 71.1244C1129.99 72.028 1130.5 73.253 1130.5 74.5308V75.0663C1130.5 80.4613 1128.35 85.6336 1124.53 89.4485C1120.72 93.2634 1115.54 95.4092 1110.14 95.4154Z" fill="#DC5E5C"/>
<path d="M1126.5 60.0722H1093.79C1093.33 60.0722 1092.88 59.9556 1092.49 59.7333C1092.09 59.5111 1091.75 59.1906 1091.51 58.8023C1091.27 58.4141 1091.13 57.9709 1091.11 57.515C1091.09 57.059 1091.19 56.6053 1091.39 56.1971L1097.82 43.3451C1098.04 42.8992 1098.39 42.5243 1098.81 42.2627C1099.23 42.0011 1099.72 41.8634 1100.22 41.8651H1120.07C1120.57 41.8634 1121.06 42.0011 1121.48 42.2627C1121.9 42.5243 1122.25 42.8992 1122.47 43.3451L1128.9 56.1971C1129.1 56.6053 1129.2 57.059 1129.18 57.515C1129.16 57.9709 1129.02 58.4141 1128.78 58.8023C1128.54 59.1906 1128.2 59.5111 1127.8 59.7333C1127.41 59.9556 1126.96 60.0722 1126.5 60.0722Z" fill="#56C4C0"/>
<path d="M1088.18 145.217H1052.82V164.495H1088.18V145.217Z" fill="#DC5E5C"/>
<path d="M1068.89 149.501H1054.96V164.495H1068.89V149.501Z" fill="white"/>
<path d="M1086.04 149.501H1072.11V164.495H1086.04V149.501Z" fill="white"/>
<path d="M1070.5 185.38C1065.1 185.374 1059.93 183.228 1056.11 179.413C1052.29 175.598 1050.15 170.426 1050.14 165.031V164.495C1050.14 163.217 1050.65 161.992 1051.55 161.089C1052.46 160.185 1053.68 159.677 1054.96 159.676H1086.04C1087.31 159.677 1088.54 160.185 1089.44 161.089C1090.35 161.992 1090.86 163.217 1090.86 164.495V165.031C1090.85 170.426 1088.71 175.598 1084.89 179.413C1081.07 183.228 1075.9 185.374 1070.5 185.38Z" fill="#DC5E5C"/>
<path d="M1086.85 150.037H1054.14C1053.69 150.037 1053.24 149.92 1052.84 149.698C1052.44 149.476 1052.11 149.155 1051.87 148.767C1051.63 148.379 1051.49 147.935 1051.47 147.479C1051.45 147.023 1051.54 146.57 1051.75 146.162L1058.18 133.31C1058.4 132.864 1058.74 132.489 1059.16 132.227C1059.59 131.966 1060.08 131.828 1060.57 131.83H1080.43C1080.92 131.828 1081.41 131.966 1081.84 132.227C1082.26 132.489 1082.6 132.864 1082.82 133.31L1089.25 146.162C1089.45 146.57 1089.55 147.023 1089.53 147.479C1089.51 147.935 1089.37 148.379 1089.13 148.767C1088.89 149.155 1088.56 149.476 1088.16 149.698C1087.76 149.92 1087.31 150.037 1086.85 150.037Z" fill="#56C4C0"/>
<path d="M865.309 -21.8597H900.668V-41.1378H865.309V-21.8597Z" fill="#DC5E5C"/>
<path d="M884.596 -21.8597H898.525V-36.8538H884.596V-21.8597Z" fill="white"/>
<path d="M867.452 -21.8597H881.381V-36.8538H867.452V-21.8597Z" fill="white"/>
<path d="M882.988 -0.975112C877.591 -0.981237 872.416 -3.12712 868.6 -6.942C864.783 -10.7569 862.636 -15.9292 862.63 -21.3242V-21.8597C862.631 -23.1375 863.14 -24.3625 864.044 -25.266C864.948 -26.1695 866.173 -26.6778 867.452 -26.6792H898.525C899.803 -26.6778 901.029 -26.1695 901.933 -25.266C902.837 -24.3625 903.345 -23.1375 903.347 -21.8597V-21.3242C903.341 -15.9292 901.194 -10.7569 897.377 -6.942C893.56 -3.12713 888.386 -0.981248 882.988 -0.975112Z" fill="#DC5E5C"/>
<path d="M899.344 -36.3183H866.633C866.176 -36.3183 865.727 -36.4349 865.329 -36.6572C864.93 -36.8794 864.594 -37.1999 864.354 -37.5882C864.114 -37.9764 863.977 -38.4196 863.957 -38.8756C863.936 -39.3315 864.033 -39.7852 864.237 -40.1934L870.666 -53.0455C870.887 -53.4913 871.229 -53.8663 871.652 -54.1278C872.076 -54.3894 872.564 -54.5272 873.062 -54.5254H892.914C893.412 -54.5272 893.901 -54.3895 894.324 -54.1279C894.748 -53.8663 895.089 -53.4913 895.31 -53.0455L901.739 -40.1934C901.944 -39.7852 902.04 -39.3315 902.019 -38.8756C901.999 -38.4196 901.862 -37.9764 901.622 -37.5882C901.382 -37.1999 901.047 -36.8794 900.648 -36.6572C900.249 -36.4349 899.8 -36.3183 899.344 -36.3183Z" fill="#56C4C0"/>
<path d="M827.806 74.5308H863.166V55.2527H827.806V74.5308Z" fill="#DC5E5C"/>
<path d="M847.093 74.5308H861.023V59.5367H847.093V74.5308Z" fill="white"/>
<path d="M829.949 74.5308H843.879V59.5367H829.949V74.5308Z" fill="white"/>
<path d="M845.486 95.4154C840.089 95.4093 834.914 93.2634 831.097 89.4485C827.281 85.6336 825.134 80.4613 825.128 75.0663V74.5308C825.129 73.253 825.638 72.028 826.541 71.1244C827.445 70.2209 828.671 69.7127 829.949 69.7113H861.023C862.301 69.7127 863.527 70.2209 864.431 71.1244C865.334 72.028 865.843 73.253 865.844 74.5308V75.0663C865.838 80.4613 863.691 85.6336 859.875 89.4485C856.058 93.2634 850.883 95.4093 845.486 95.4154Z" fill="#DC5E5C"/>
<path d="M861.841 60.0722H829.131C828.674 60.0722 828.225 59.9556 827.826 59.7333C827.428 59.5111 827.092 59.1906 826.852 58.8023C826.612 58.4141 826.475 57.9709 826.455 57.515C826.434 57.059 826.531 56.6053 826.735 56.1971L833.164 43.3451C833.385 42.8992 833.727 42.5243 834.15 42.2627C834.574 42.0011 835.062 41.8634 835.56 41.8651H855.412C855.91 41.8634 856.398 42.0011 856.822 42.2627C857.245 42.5243 857.587 42.8992 857.808 43.3451L864.237 56.1971C864.441 56.6053 864.538 57.059 864.517 57.515C864.497 57.9709 864.36 58.4141 864.12 58.8023C863.88 59.1906 863.544 59.5111 863.146 59.7333C862.747 59.9556 862.298 60.0722 861.841 60.0722Z" fill="#56C4C0"/>
<path d="M867.452 164.495H902.811V145.217H867.452V164.495Z" fill="#DC5E5C"/>
<path d="M886.739 164.495H900.668V149.501H886.739V164.495Z" fill="white"/>
<path d="M869.595 164.495H883.524V149.501H869.595V164.495Z" fill="white"/>
<path d="M885.131 185.38C879.734 185.374 874.559 183.228 870.743 179.413C866.926 175.598 864.779 170.426 864.773 165.031V164.495C864.774 163.217 865.283 161.992 866.187 161.089C867.091 160.185 868.316 159.677 869.595 159.676H900.668C901.946 159.677 903.172 160.185 904.076 161.089C904.98 161.992 905.488 163.217 905.49 164.495V165.031C905.484 170.426 903.337 175.598 899.52 179.413C895.703 183.228 890.529 185.374 885.131 185.38Z" fill="#DC5E5C"/>
<path d="M901.486 150.037H868.776C868.319 150.037 867.87 149.92 867.472 149.698C867.073 149.476 866.737 149.155 866.497 148.767C866.257 148.379 866.12 147.935 866.1 147.479C866.079 147.023 866.176 146.57 866.38 146.162L872.809 133.31C873.03 132.864 873.372 132.489 873.795 132.227C874.219 131.966 874.707 131.828 875.205 131.83H895.057C895.555 131.828 896.044 131.966 896.467 132.227C896.891 132.489 897.232 132.864 897.453 133.31L903.882 146.162C904.087 146.57 904.183 147.023 904.162 147.479C904.142 147.935 904.005 148.379 903.765 148.767C903.525 149.155 903.19 149.476 902.791 149.698C902.392 149.92 901.943 150.037 901.486 150.037Z" fill="#56C4C0"/>
<path d="M994.959 185.915H959.6V205.194H994.959V185.915Z" fill="#DC5E5C"/>
<path d="M975.672 190.199H961.743V205.194H975.672V190.199Z" fill="white"/>
<path d="M992.816 190.199H978.887V205.194H992.816V190.199Z" fill="white"/>
<path d="M961.743 201.445C960.749 201.446 959.796 201.842 959.093 202.544C958.389 203.247 957.994 204.2 957.993 205.194V205.729C957.99 208.262 958.487 210.771 959.455 213.113C960.423 215.454 961.843 217.581 963.635 219.374C965.426 221.166 967.553 222.588 969.894 223.558C972.236 224.528 974.745 225.027 977.28 225.027C979.814 225.027 982.324 224.528 984.665 223.558C987.006 222.588 989.133 221.166 990.925 219.374C992.716 217.581 994.136 215.454 995.104 213.113C996.072 210.771 996.569 208.262 996.567 205.729V205.194C996.565 204.2 996.17 203.247 995.467 202.544C994.764 201.842 993.811 201.446 992.816 201.445H961.743Z" fill="#DC5E5C"/>
<path d="M967.353 173.599C967.055 173.598 966.762 173.681 966.508 173.837C966.254 173.994 966.049 174.219 965.916 174.487L959.487 187.339C959.364 187.584 959.307 187.856 959.319 188.13C959.331 188.403 959.413 188.669 959.557 188.902C959.701 189.135 959.903 189.327 960.142 189.461C960.381 189.594 960.651 189.664 960.925 189.664H993.635C993.909 189.664 994.178 189.594 994.418 189.461C994.657 189.327 994.858 189.135 995.002 188.902C995.146 188.669 995.228 188.403 995.241 188.13C995.253 187.856 995.195 187.584 995.072 187.339L988.643 174.487C988.511 174.219 988.306 173.994 988.052 173.837C987.798 173.681 987.505 173.598 987.206 173.599H967.353Z" fill="#56C4C0"/>
<path d="M505.555 453.193C505.876 453.193 506.183 453.066 506.41 452.839C506.637 452.613 506.764 452.305 506.764 451.985C506.764 451.664 506.637 451.357 506.41 451.13C506.183 450.904 505.876 450.776 505.555 450.776H494.069V445.942H505.555C505.876 445.942 506.183 445.815 506.41 445.588C506.637 445.362 506.764 445.054 506.764 444.734C506.764 444.413 506.637 444.106 506.41 443.879C506.183 443.653 505.876 443.525 505.555 443.525H407.624C407.303 443.525 406.996 443.653 406.769 443.879C406.542 444.106 406.415 444.413 406.415 444.734C406.415 445.054 406.542 445.362 406.769 445.588C406.996 445.815 407.303 445.942 407.624 445.942H419.11V450.776H407.624C407.303 450.776 406.996 450.904 406.769 451.13C406.542 451.357 406.415 451.664 406.415 451.985C406.415 452.305 406.542 452.613 406.769 452.839C406.996 453.066 407.303 453.193 407.624 453.193H419.11V458.027H407.624C407.303 458.027 406.996 458.154 406.769 458.381C406.542 458.608 406.415 458.915 406.415 459.236C406.415 459.556 406.542 459.864 406.769 460.09C406.996 460.317 407.303 460.444 407.624 460.444H419.11V465.278H408.833C408.192 465.278 407.577 465.533 407.123 465.986C406.67 466.439 406.415 467.054 406.415 467.695C406.415 468.336 406.67 468.951 407.123 469.404C407.577 469.857 408.192 470.112 408.833 470.112H418.616C418.545 470.306 418.507 470.51 418.505 470.716V487.635C418.505 488.116 418.696 488.577 419.036 488.917C419.376 489.257 419.838 489.448 420.319 489.448C420.8 489.448 421.261 489.257 421.601 488.917C421.941 488.577 422.132 488.116 422.132 487.635V470.716C422.13 470.51 422.093 470.306 422.021 470.112H491.158C491.086 470.306 491.049 470.51 491.047 470.716V487.635C491.047 488.116 491.238 488.577 491.578 488.917C491.918 489.257 492.379 489.448 492.86 489.448C493.341 489.448 493.802 489.257 494.143 488.917C494.483 488.577 494.674 488.116 494.674 487.635V470.716C494.672 470.51 494.634 470.306 494.563 470.112H504.346C504.987 470.112 505.602 469.857 506.056 469.404C506.509 468.951 506.764 468.336 506.764 467.695C506.764 467.054 506.509 466.439 506.056 465.986C505.602 465.533 504.987 465.278 504.346 465.278H494.069V460.444H505.555C505.876 460.444 506.183 460.317 506.41 460.09C506.637 459.864 506.764 459.556 506.764 459.236C506.764 458.915 506.637 458.608 506.41 458.381C506.183 458.154 505.876 458.027 505.555 458.027H494.069V453.193H505.555ZM421.528 445.942H491.651V450.776H421.528V445.942ZM491.651 465.278H421.528V460.444H491.651V465.278ZM491.651 458.027H421.528V453.193H491.651V458.027Z" fill="#434453"/>
<path d="M883.364 597.831C883.684 597.831 883.992 597.703 884.219 597.477C884.445 597.25 884.573 596.943 884.573 596.622C884.573 596.302 884.445 595.994 884.219 595.768C883.992 595.541 883.684 595.414 883.364 595.414H871.878V590.58H883.364C883.684 590.58 883.992 590.452 884.219 590.226C884.445 589.999 884.573 589.692 884.573 589.371C884.573 589.051 884.445 588.743 884.219 588.517C883.992 588.29 883.684 588.163 883.364 588.163H785.433C785.112 588.163 784.805 588.29 784.578 588.517C784.351 588.743 784.224 589.051 784.224 589.371C784.224 589.692 784.351 589.999 784.578 590.226C784.805 590.452 785.112 590.58 785.433 590.58H796.919V595.414H785.433C785.112 595.414 784.805 595.541 784.578 595.768C784.351 595.994 784.224 596.302 784.224 596.622C784.224 596.943 784.351 597.25 784.578 597.477C784.805 597.703 785.112 597.831 785.433 597.831H796.919V602.664H785.433C785.112 602.664 784.805 602.792 784.578 603.018C784.351 603.245 784.224 603.552 784.224 603.873C784.224 604.193 784.351 604.501 784.578 604.727C784.805 604.954 785.112 605.081 785.433 605.081H796.919V609.915H786.642C786.001 609.915 785.385 610.17 784.932 610.623C784.479 611.076 784.224 611.691 784.224 612.332C784.224 612.973 784.479 613.588 784.932 614.041C785.385 614.495 786.001 614.749 786.642 614.749H796.425C796.354 614.943 796.316 615.147 796.314 615.353V632.272C796.313 632.511 796.359 632.747 796.45 632.968C796.541 633.188 796.675 633.389 796.843 633.558C797.012 633.727 797.212 633.861 797.432 633.952C797.653 634.044 797.889 634.091 798.128 634.091C798.366 634.091 798.603 634.044 798.823 633.952C799.043 633.861 799.244 633.727 799.412 633.558C799.581 633.389 799.714 633.188 799.805 632.968C799.896 632.747 799.942 632.511 799.941 632.272V615.353C799.939 615.147 799.901 614.943 799.83 614.749H868.966C868.895 614.943 868.858 615.147 868.855 615.353V632.272C868.855 632.753 869.047 633.214 869.387 633.554C869.727 633.894 870.188 634.085 870.669 634.085C871.15 634.085 871.611 633.894 871.951 633.554C872.291 633.214 872.483 632.753 872.483 632.272V615.353C872.48 615.147 872.443 614.943 872.372 614.749H882.155C882.796 614.749 883.411 614.495 883.865 614.041C884.318 613.588 884.573 612.973 884.573 612.332C884.573 611.691 884.318 611.076 883.865 610.623C883.411 610.17 882.796 609.915 882.155 609.915H871.878V605.081H883.364C883.684 605.081 883.992 604.954 884.219 604.727C884.445 604.501 884.573 604.193 884.573 603.873C884.573 603.552 884.445 603.245 884.219 603.018C883.992 602.792 883.684 602.664 883.364 602.664H871.878V597.83L883.364 597.831ZM799.337 590.58H869.46V595.414H799.337V590.58ZM869.46 609.915H799.337V605.081H869.46V609.915ZM869.46 602.664H799.337V597.831H869.46V602.664Z" fill="#434453"/>
<path d="M1188.11 439.252C1188.43 439.252 1188.74 439.125 1188.97 438.898C1189.2 438.672 1189.32 438.364 1189.32 438.044C1189.32 437.723 1189.2 437.416 1188.97 437.189C1188.74 436.963 1188.43 436.835 1188.11 436.835H1176.63V432.001H1188.11C1188.43 432.001 1188.74 431.874 1188.97 431.648C1189.2 431.421 1189.32 431.113 1189.32 430.793C1189.32 430.472 1189.2 430.165 1188.97 429.938C1188.74 429.712 1188.43 429.585 1188.11 429.585H1090.18C1089.86 429.585 1089.55 429.712 1089.33 429.938C1089.1 430.165 1088.97 430.472 1088.97 430.793C1088.97 431.113 1089.1 431.421 1089.33 431.648C1089.55 431.874 1089.86 432.001 1090.18 432.001H1101.67V436.835H1090.18C1089.86 436.835 1089.55 436.963 1089.33 437.189C1089.1 437.416 1088.97 437.723 1088.97 438.044C1088.97 438.364 1089.1 438.672 1089.33 438.898C1089.55 439.125 1089.86 439.252 1090.18 439.252H1101.67V444.086H1090.18C1089.86 444.086 1089.55 444.214 1089.33 444.44C1089.1 444.667 1088.97 444.974 1088.97 445.295C1088.97 445.615 1089.1 445.923 1089.33 446.149C1089.55 446.376 1089.86 446.503 1090.18 446.503H1101.67V451.337H1091.39C1090.75 451.339 1090.14 451.594 1089.69 452.047C1089.23 452.501 1088.98 453.114 1088.98 453.754C1088.98 454.394 1089.23 455.008 1089.69 455.461C1090.14 455.914 1090.75 456.169 1091.39 456.171H1101.18C1101.1 456.365 1101.07 456.569 1101.06 456.775V473.694C1101.06 474.175 1101.26 474.636 1101.6 474.976C1101.94 475.316 1102.4 475.507 1102.88 475.507C1103.36 475.507 1103.82 475.316 1104.16 474.976C1104.5 474.636 1104.69 474.175 1104.69 473.694V456.775C1104.69 456.569 1104.65 456.365 1104.58 456.171H1173.72C1173.65 456.365 1173.61 456.569 1173.61 456.775V473.694C1173.61 474.175 1173.8 474.636 1174.14 474.976C1174.48 475.316 1174.94 475.507 1175.42 475.507C1175.9 475.507 1176.36 475.316 1176.7 474.976C1177.04 474.636 1177.23 474.175 1177.23 473.694V456.775C1177.23 456.569 1177.19 456.365 1177.12 456.171H1186.9C1187.22 456.172 1187.54 456.11 1187.83 455.989C1188.13 455.868 1188.39 455.69 1188.62 455.466C1188.84 455.241 1189.02 454.974 1189.15 454.681C1189.27 454.387 1189.33 454.072 1189.33 453.754C1189.33 453.436 1189.27 453.121 1189.15 452.827C1189.02 452.534 1188.84 452.267 1188.62 452.042C1188.39 451.818 1188.13 451.64 1187.83 451.519C1187.54 451.398 1187.22 451.336 1186.9 451.337H1176.63V446.503H1188.11C1188.43 446.503 1188.74 446.376 1188.97 446.149C1189.2 445.923 1189.32 445.615 1189.32 445.295C1189.32 444.974 1189.2 444.667 1188.97 444.44C1188.74 444.214 1188.43 444.086 1188.11 444.086H1176.63V439.252H1188.11ZM1104.09 432.001H1174.21V436.835H1104.09V432.001ZM1174.21 451.337H1104.09V446.503H1174.21V451.337ZM1174.21 444.086H1104.09V439.252H1174.21V444.086Z" fill="#434453"/>
<path d="M729.139 743.11C729.139 712.118 703.986 638.575 672.959 638.575C641.931 638.575 616.779 712.118 616.779 743.11C616.788 757.997 622.711 772.272 633.246 782.795C643.781 793.319 658.065 799.23 672.959 799.23C687.852 799.23 702.137 793.319 712.672 782.795C723.206 772.272 729.129 757.997 729.139 743.11Z" fill="#F2F2F2"/>
<path d="M672.959 867.458C672.788 867.458 672.625 867.391 672.504 867.27C672.384 867.15 672.316 866.987 672.316 866.816V735.729C672.316 735.644 672.332 735.56 672.364 735.482C672.396 735.403 672.443 735.332 672.503 735.272C672.563 735.212 672.634 735.165 672.712 735.132C672.79 735.1 672.874 735.083 672.959 735.083C673.043 735.083 673.127 735.1 673.205 735.132C673.284 735.165 673.355 735.212 673.414 735.272C673.474 735.332 673.521 735.403 673.553 735.482C673.585 735.56 673.602 735.644 673.601 735.729V866.816C673.601 866.987 673.533 867.15 673.413 867.27C673.292 867.391 673.129 867.458 672.959 867.458Z" fill="#DC5E5C"/>
<path d="M672.959 760.22C672.867 760.221 672.776 760.201 672.692 760.163C672.608 760.124 672.533 760.069 672.473 759.999L640.163 722.755C640.052 722.626 639.997 722.459 640.01 722.289C640.022 722.12 640.101 721.963 640.23 721.851C640.358 721.74 640.525 721.684 640.694 721.696C640.864 721.707 641.022 721.786 641.134 721.913L673.444 759.157C673.525 759.25 673.577 759.365 673.594 759.487C673.612 759.608 673.594 759.733 673.543 759.845C673.492 759.957 673.41 760.052 673.306 760.118C673.203 760.185 673.082 760.22 672.959 760.22Z" fill="#DC5E5C"/>
<path d="M672.959 781.715C672.832 781.715 672.707 781.677 672.602 781.606C672.496 781.536 672.414 781.436 672.365 781.318C672.317 781.201 672.304 781.072 672.329 780.947C672.353 780.823 672.415 780.708 672.504 780.619L690.864 762.267C690.984 762.147 691.148 762.08 691.318 762.08C691.488 762.08 691.651 762.147 691.772 762.268C691.892 762.388 691.96 762.551 691.96 762.721C691.96 762.892 691.892 763.055 691.772 763.175L673.413 781.527C673.353 781.586 673.283 781.634 673.205 781.666C673.127 781.698 673.043 781.715 672.959 781.715Z" fill="#DC5E5C"/>
<path d="M193.3 134.937C193.3 103.944 168.147 30.4015 137.12 30.4015C106.093 30.4015 80.9403 103.945 80.9403 134.937C80.9494 149.824 86.8724 164.098 97.4071 174.622C107.942 185.145 122.226 191.057 137.12 191.057C152.014 191.057 166.298 185.145 176.833 174.622C187.368 164.098 193.291 149.824 193.3 134.937Z" fill="#434453"/>
<path d="M137.12 259.285C136.95 259.285 136.786 259.217 136.666 259.097C136.545 258.976 136.478 258.813 136.478 258.643V127.555C136.479 127.385 136.547 127.223 136.667 127.103C136.788 126.984 136.95 126.917 137.12 126.917C137.29 126.917 137.453 126.984 137.573 127.103C137.694 127.223 137.762 127.385 137.763 127.555V258.643C137.763 258.727 137.746 258.811 137.714 258.889C137.681 258.966 137.634 259.037 137.574 259.097C137.515 259.156 137.444 259.204 137.366 259.236C137.288 259.268 137.205 259.285 137.12 259.285Z" fill="#DC5E5C"/>
<path d="M137.121 152.047C137.028 152.047 136.937 152.027 136.853 151.989C136.77 151.951 136.695 151.895 136.635 151.826L104.324 114.581C104.213 114.453 104.158 114.285 104.17 114.115C104.183 113.946 104.262 113.788 104.39 113.677C104.519 113.565 104.686 113.509 104.856 113.521C105.025 113.533 105.184 113.612 105.295 113.74L137.606 150.984C137.686 151.077 137.738 151.191 137.756 151.313C137.774 151.435 137.756 151.559 137.705 151.671C137.653 151.783 137.571 151.878 137.468 151.945C137.364 152.011 137.244 152.047 137.121 152.047Z" fill="#DC5E5C"/>
<path d="M137.12 173.541C136.993 173.541 136.869 173.503 136.763 173.433C136.658 173.362 136.575 173.262 136.527 173.145C136.478 173.027 136.465 172.898 136.49 172.774C136.515 172.649 136.576 172.535 136.666 172.445L155.025 154.094C155.085 154.034 155.156 153.987 155.234 153.955C155.312 153.922 155.395 153.906 155.479 153.906C155.564 153.906 155.647 153.922 155.725 153.955C155.803 153.987 155.874 154.034 155.934 154.094C155.993 154.153 156.041 154.224 156.073 154.302C156.105 154.38 156.122 154.463 156.122 154.548C156.122 154.632 156.105 154.716 156.073 154.793C156.041 154.871 155.993 154.942 155.934 155.002L137.574 173.353C137.515 173.413 137.444 173.46 137.366 173.492C137.288 173.525 137.205 173.541 137.12 173.541Z" fill="#DC5E5C"/>
<path d="M76.2719 258.434C76.2719 252.217 78.7429 246.254 83.1413 241.857C87.5397 237.461 93.5053 234.991 99.7256 234.991C105.946 234.991 111.911 237.461 116.31 241.857C120.708 246.254 123.179 252.217 123.179 258.434" fill="#F2F2F2"/>
<path d="M99.7256 258.434C99.5575 258.434 99.3963 258.367 99.2774 258.248C99.1585 258.13 99.0917 257.968 99.0917 257.8V245.445C99.0917 245.277 99.1585 245.116 99.2773 244.997C99.3962 244.878 99.5575 244.812 99.7256 244.812C99.8937 244.812 100.055 244.878 100.174 244.997C100.293 245.116 100.359 245.277 100.359 245.445V257.8C100.359 257.968 100.293 258.13 100.174 258.248C100.055 258.367 99.8937 258.434 99.7256 258.434Z" fill="#DC5E5C"/>
<path d="M99.7252 254.188C99.5738 254.189 99.4274 254.134 99.3126 254.036L91.7062 247.51C91.643 247.456 91.5911 247.39 91.5535 247.315C91.5159 247.241 91.4933 247.16 91.4869 247.077C91.4806 246.994 91.4907 246.911 91.5166 246.832C91.5425 246.753 91.5838 246.68 91.638 246.617C91.6922 246.553 91.7584 246.502 91.8326 246.464C91.9069 246.426 91.9878 246.404 92.0708 246.398C92.1538 246.391 92.2373 246.401 92.3164 246.427C92.3955 246.453 92.4686 246.494 92.5318 246.548L100.138 253.074C100.237 253.158 100.307 253.271 100.339 253.396C100.372 253.521 100.365 253.654 100.32 253.775C100.275 253.896 100.194 254.001 100.087 254.075C99.9811 254.149 99.8547 254.189 99.7252 254.188Z" fill="#DC5E5C"/>
<path d="M148.535 258.434C148.535 252.217 151.006 246.254 155.404 241.857C159.802 237.461 165.768 234.991 171.988 234.991C178.209 234.991 184.174 237.461 188.572 241.857C192.971 246.254 195.442 252.217 195.442 258.434" fill="#F2F2F2"/>
<path d="M171.988 258.434C171.82 258.434 171.659 258.367 171.54 258.248C171.421 258.13 171.354 257.968 171.354 257.8V245.445C171.354 245.277 171.421 245.116 171.54 244.997C171.659 244.878 171.82 244.812 171.988 244.812C172.156 244.812 172.318 244.878 172.436 244.997C172.555 245.116 172.622 245.277 172.622 245.445V257.8C172.622 257.968 172.555 258.13 172.436 258.248C172.318 258.367 172.156 258.434 171.988 258.434Z" fill="#DC5E5C"/>
<path d="M171.988 254.189C171.836 254.189 171.69 254.134 171.575 254.036L163.969 247.51C163.842 247.4 163.764 247.245 163.752 247.078C163.74 246.911 163.794 246.746 163.903 246.619C164.012 246.492 164.167 246.413 164.334 246.4C164.501 246.387 164.667 246.44 164.794 246.549L172.401 253.074C172.499 253.158 172.57 253.271 172.602 253.396C172.634 253.521 172.628 253.654 172.583 253.775C172.538 253.896 172.457 254.001 172.35 254.075C172.244 254.149 172.117 254.189 171.988 254.189Z" fill="#DC5E5C"/>
<path d="M1373.59 741.368C1373.59 710.375 1348.44 636.832 1317.41 636.832C1286.38 636.832 1261.23 710.375 1261.23 741.368C1261.24 756.255 1267.16 770.529 1277.7 781.052C1288.23 791.576 1302.52 797.488 1317.41 797.488C1332.3 797.488 1346.59 791.576 1357.12 781.052C1367.66 770.529 1373.58 756.255 1373.59 741.368Z" fill="#56C4C0"/>
<path d="M1317.41 865.716C1317.24 865.716 1317.08 865.648 1316.95 865.528C1316.83 865.407 1316.77 865.244 1316.77 865.074V733.986C1316.77 733.901 1316.78 733.818 1316.81 733.739C1316.85 733.661 1316.89 733.59 1316.95 733.53C1317.01 733.47 1317.08 733.422 1317.16 733.39C1317.24 733.357 1317.32 733.34 1317.41 733.34C1317.49 733.34 1317.58 733.357 1317.66 733.39C1317.73 733.422 1317.8 733.47 1317.86 733.53C1317.92 733.59 1317.97 733.661 1318 733.739C1318.04 733.818 1318.05 733.901 1318.05 733.986V865.074C1318.05 865.244 1317.98 865.407 1317.86 865.528C1317.74 865.648 1317.58 865.716 1317.41 865.716Z" fill="#DC5E5C"/>
<path d="M1317.41 758.478C1317.32 758.478 1317.23 758.458 1317.14 758.42C1317.06 758.382 1316.98 758.326 1316.92 758.256L1284.61 721.012C1284.5 720.883 1284.45 720.716 1284.46 720.547C1284.47 720.377 1284.55 720.22 1284.68 720.109C1284.81 719.998 1284.98 719.942 1285.14 719.953C1285.31 719.965 1285.47 720.043 1285.58 720.171L1317.89 757.415C1317.97 757.508 1318.03 757.622 1318.04 757.744C1318.06 757.866 1318.04 757.99 1317.99 758.102C1317.94 758.214 1317.86 758.309 1317.76 758.376C1317.65 758.442 1317.53 758.478 1317.41 758.478Z" fill="#DC5E5C"/>
<path d="M1317.41 779.972C1317.28 779.972 1317.16 779.934 1317.05 779.864C1316.95 779.793 1316.86 779.693 1316.82 779.576C1316.77 779.458 1316.75 779.329 1316.78 779.205C1316.8 779.08 1316.86 778.966 1316.95 778.876L1335.31 760.525C1335.37 760.465 1335.44 760.418 1335.52 760.385C1335.6 760.353 1335.68 760.337 1335.77 760.337C1335.85 760.337 1335.94 760.353 1336.01 760.385C1336.09 760.418 1336.16 760.465 1336.22 760.525C1336.28 760.584 1336.33 760.655 1336.36 760.733C1336.39 760.811 1336.41 760.894 1336.41 760.979C1336.41 761.063 1336.39 761.147 1336.36 761.224C1336.33 761.302 1336.28 761.373 1336.22 761.433L1317.86 779.784C1317.8 779.844 1317.73 779.891 1317.65 779.923C1317.58 779.956 1317.49 779.972 1317.41 779.972Z" fill="#DC5E5C"/>
<path d="M491.716 751.193H480.828C480.016 751.192 479.238 750.869 478.664 750.296C478.09 749.722 477.767 748.944 477.766 748.132V733.849C477.767 733.037 478.09 732.259 478.664 731.685C479.238 731.112 480.016 730.789 480.828 730.788H491.716C492.528 730.789 493.306 731.112 493.88 731.685C494.454 732.259 494.777 733.037 494.778 733.849V748.132C494.777 748.944 494.454 749.722 493.88 750.296C493.306 750.869 492.528 751.192 491.716 751.193Z" fill="#434453"/>
<path d="M583.58 867.501H527.781C526.247 867.5 524.777 866.89 523.693 865.806C522.608 864.722 521.998 863.253 521.997 861.72V753.574C521.998 752.041 522.608 750.571 523.693 749.487C524.777 748.403 526.247 747.794 527.781 747.792H583.58C585.113 747.794 586.584 748.403 587.668 749.487C588.752 750.571 589.362 752.041 589.364 753.574V861.72C589.362 863.253 588.752 864.722 587.668 865.806C586.584 866.89 585.113 867.5 583.58 867.501Z" fill="#434453"/>
<path d="M550.236 867.501H453.609C452.076 867.5 450.605 866.89 449.521 865.806C448.437 864.722 447.827 863.253 447.825 861.72V753.574C447.827 752.041 448.437 750.571 449.521 749.487C450.605 748.403 452.076 747.794 453.609 747.792H550.236C551.77 747.794 553.24 748.403 554.324 749.487C555.409 750.571 556.019 752.041 556.02 753.574V861.72C556.019 863.253 555.409 864.722 554.324 865.806C553.24 866.89 551.77 867.5 550.236 867.501Z" fill="#56C4C0"/>
<path d="M481.508 751.193H470.621C469.809 751.192 469.031 750.869 468.457 750.296C467.883 749.722 467.56 748.944 467.559 748.132V733.849C467.56 733.037 467.883 732.259 468.457 731.685C469.031 731.112 469.809 730.789 470.621 730.788H481.508C482.32 730.789 483.099 731.112 483.673 731.685C484.247 732.259 484.57 733.037 484.571 733.849V748.132C484.57 748.944 484.247 749.722 483.673 750.296C483.099 750.869 482.32 751.192 481.508 751.193Z" fill="#56C4C0"/>
<path d="M495.799 801.185H482.869C482.418 801.185 481.986 801.005 481.667 800.686C481.348 800.368 481.169 799.936 481.168 799.485V779.76C481.169 779.309 481.348 778.877 481.667 778.558C481.986 778.239 482.418 778.06 482.869 778.059H495.799C496.25 778.06 496.682 778.239 497.001 778.558C497.32 778.877 497.499 779.309 497.5 779.76V799.485C497.499 799.936 497.32 800.368 497.001 800.686C496.682 801.005 496.25 801.185 495.799 801.185Z" fill="white"/>
<path d="M520.976 801.185H508.047C507.596 801.185 507.164 801.005 506.845 800.686C506.526 800.368 506.346 799.936 506.346 799.485V779.76C506.346 779.309 506.526 778.877 506.845 778.558C507.164 778.239 507.596 778.06 508.047 778.059H520.976C521.427 778.06 521.859 778.239 522.178 778.558C522.497 778.877 522.677 779.309 522.677 779.76V799.485C522.677 799.936 522.497 800.368 522.178 800.686C521.859 801.005 521.427 801.185 520.976 801.185Z" fill="white"/>
<path d="M495.799 837.234H482.869C482.418 837.233 481.986 837.054 481.667 836.735C481.348 836.416 481.169 835.984 481.168 835.534V815.809C481.169 815.358 481.348 814.926 481.667 814.607C481.986 814.288 482.418 814.109 482.869 814.108H495.799C496.25 814.109 496.682 814.288 497.001 814.607C497.32 814.926 497.499 815.358 497.5 815.809V835.534C497.499 835.984 497.32 836.416 497.001 836.735C496.682 837.054 496.25 837.233 495.799 837.234Z" fill="white"/>
<path d="M520.976 837.234H508.047C507.596 837.233 507.164 837.054 506.845 836.735C506.526 836.416 506.346 835.984 506.346 835.534V815.809C506.346 815.358 506.526 814.926 506.845 814.607C507.164 814.288 507.596 814.109 508.047 814.108H520.976C521.427 814.109 521.859 814.288 522.178 814.607C522.497 814.926 522.677 815.358 522.677 815.809V835.534C522.677 835.984 522.497 836.416 522.178 836.735C521.859 837.054 521.427 837.233 520.976 837.234Z" fill="white"/>
<path d="M104.415 412.197H91.5738C90.6162 412.195 89.6982 411.815 89.0211 411.138C88.344 410.461 87.9632 409.544 87.9621 408.587V378.904C87.9632 377.947 88.344 377.029 89.0211 376.353C89.6982 375.676 90.6162 375.295 91.5738 375.294H104.415C105.373 375.295 106.291 375.676 106.968 376.353C107.645 377.029 108.026 377.947 108.027 378.904V408.587C108.026 409.544 107.645 410.461 106.968 411.138C106.291 411.815 105.373 412.195 104.415 412.197Z" fill="#434453"/>
<path d="M154.979 688.965H89.166C87.3573 688.963 85.6233 688.244 84.3443 686.966C83.0654 685.687 82.3459 683.954 82.3439 682.146V416.609C82.3459 414.801 83.0654 413.068 84.3443 411.789C85.6233 410.511 87.3573 409.792 89.166 409.79H154.979C156.787 409.792 158.521 410.511 159.8 411.789C161.079 413.068 161.799 414.801 161.801 416.609V682.146C161.799 683.954 161.079 685.687 159.8 686.966C158.521 688.244 156.787 688.963 154.979 688.965Z" fill="#434453"/>
<path d="M115.652 688.965H49.8389C48.0302 688.963 46.2962 688.244 45.0173 686.966C43.7383 685.687 43.0189 683.954 43.0169 682.146V416.609C43.0189 414.801 43.7383 413.068 45.0173 411.789C46.2962 410.511 48.0302 409.792 49.8389 409.79H115.652C117.46 409.792 119.194 410.511 120.473 411.789C121.752 413.068 122.472 414.801 122.474 416.609V682.146C122.472 683.954 121.752 685.687 120.473 686.966C119.194 688.244 117.46 688.963 115.652 688.965Z" fill="#56C4C0"/>
<path d="M92.3764 412.197H79.5348C78.5773 412.195 77.6593 411.815 76.9822 411.138C76.3051 410.461 75.9242 409.544 75.9232 408.587V378.904C75.9242 377.947 76.3051 377.029 76.9822 376.353C77.6593 375.676 78.5773 375.295 79.5348 375.294H92.3764C93.3339 375.295 94.2519 375.676 94.929 376.353C95.6061 377.029 95.987 377.947 95.988 378.904V408.587C95.987 409.544 95.6061 410.461 94.929 411.138C94.2519 411.815 93.3339 412.195 92.3764 412.197Z" fill="#56C4C0"/>
<path d="M75.5219 469.957H60.2726C59.7407 469.956 59.2306 469.745 58.8545 469.369C58.4783 468.993 58.2668 468.483 58.2662 467.951V444.687C58.2668 444.155 58.4783 443.645 58.8545 443.269C59.2306 442.893 59.7407 442.682 60.2726 442.681H75.5219C76.0539 442.682 76.5639 442.893 76.94 443.269C77.3162 443.645 77.5278 444.155 77.5284 444.687V467.951C77.5278 468.483 77.3162 468.993 76.94 469.369C76.5639 469.745 76.0539 469.956 75.5219 469.957Z" fill="white"/>
<path d="M105.218 469.957H89.9685C89.4366 469.956 88.9266 469.745 88.5504 469.369C88.1743 468.993 87.9627 468.483 87.962 467.951V444.687C87.9627 444.155 88.1743 443.645 88.5504 443.269C88.9266 442.893 89.4365 442.682 89.9685 442.681H105.218C105.75 442.682 106.26 442.893 106.636 443.269C107.012 443.645 107.224 444.155 107.224 444.687V467.951C107.224 468.483 107.012 468.993 106.636 469.369C106.26 469.745 105.75 469.956 105.218 469.957Z" fill="white"/>
<path d="M75.5219 512.475H60.2726C59.7407 512.474 59.2306 512.263 58.8545 511.887C58.4783 511.511 58.2668 511.001 58.2662 510.47V487.205C58.2668 486.673 58.4783 486.163 58.8545 485.787C59.2306 485.411 59.7407 485.2 60.2726 485.199H75.5219C76.0539 485.2 76.5639 485.411 76.94 485.787C77.3162 486.163 77.5278 486.673 77.5284 487.205V510.47C77.5277 511.001 77.3162 511.511 76.94 511.887C76.5639 512.263 76.0539 512.474 75.5219 512.475Z" fill="white"/>
<path d="M105.218 512.475H89.9685C89.4365 512.474 88.9266 512.263 88.5504 511.887C88.1743 511.511 87.9627 511.001 87.962 510.47V487.205C87.9627 486.673 88.1743 486.163 88.5504 485.787C88.9266 485.411 89.4365 485.2 89.9685 485.199H105.218C105.75 485.2 106.26 485.411 106.636 485.787C107.012 486.163 107.224 486.673 107.224 487.205V510.47C107.224 511.001 107.012 511.511 106.636 511.887C106.26 512.263 105.75 512.474 105.218 512.475Z" fill="white"/>
<path d="M75.5219 554.993H60.2726C59.7407 554.993 59.2306 554.781 58.8545 554.405C58.4783 554.029 58.2668 553.519 58.2662 552.988V529.723C58.2668 529.191 58.4783 528.681 58.8545 528.305C59.2306 527.929 59.7407 527.718 60.2726 527.717H75.5219C76.0539 527.718 76.5639 527.929 76.94 528.305C77.3162 528.681 77.5277 529.191 77.5284 529.723V552.988C77.5278 553.519 77.3162 554.029 76.94 554.405C76.5639 554.781 76.0539 554.993 75.5219 554.993Z" fill="white"/>
<path d="M105.218 554.993H89.9685C89.4365 554.993 88.9266 554.781 88.5504 554.405C88.1743 554.029 87.9627 553.519 87.962 552.988V529.723C87.9627 529.191 88.1743 528.681 88.5504 528.305C88.9266 527.929 89.4365 527.718 89.9685 527.717H105.218C105.75 527.718 106.26 527.929 106.636 528.305C107.012 528.681 107.224 529.191 107.224 529.723V552.988C107.224 553.519 107.012 554.029 106.636 554.405C106.26 554.781 105.75 554.993 105.218 554.993Z" fill="white"/>
<path d="M75.5219 597.511H60.2726C59.7407 597.511 59.2306 597.299 58.8545 596.923C58.4783 596.547 58.2668 596.037 58.2662 595.506V572.241C58.2668 571.709 58.4783 571.2 58.8545 570.824C59.2306 570.448 59.7407 570.236 60.2726 570.235H75.5219C76.0539 570.236 76.5639 570.448 76.94 570.824C77.3162 571.2 77.5277 571.709 77.5284 572.241V595.506C77.5278 596.037 77.3162 596.547 76.94 596.923C76.5639 597.299 76.0539 597.511 75.5219 597.511Z" fill="white"/>
<path d="M105.218 597.511H89.9685C89.4365 597.511 88.9266 597.299 88.5504 596.923C88.1743 596.547 87.9627 596.037 87.962 595.506V572.241C87.9627 571.709 88.1743 571.2 88.5504 570.824C88.9266 570.448 89.4366 570.236 89.9685 570.235H105.218C105.75 570.236 106.26 570.448 106.636 570.824C107.012 571.2 107.224 571.709 107.224 572.241V595.506C107.224 596.037 107.012 596.547 106.636 596.923C106.26 597.299 105.75 597.511 105.218 597.511Z" fill="white"/>
<path d="M75.5219 640.029H60.2726C59.7407 640.029 59.2306 639.817 58.8545 639.441C58.4783 639.065 58.2668 638.555 58.2662 638.024V614.759C58.2668 614.227 58.4783 613.718 58.8545 613.342C59.2306 612.966 59.7407 612.754 60.2726 612.754H75.5219C76.0539 612.754 76.5639 612.966 76.94 613.342C77.3162 613.718 77.5277 614.227 77.5284 614.759V638.024C77.5277 638.555 77.3162 639.065 76.94 639.441C76.5639 639.817 76.0539 640.029 75.5219 640.029Z" fill="white"/>
<path d="M105.218 640.029H89.9685C89.4366 640.029 88.9266 639.817 88.5504 639.441C88.1743 639.065 87.9627 638.555 87.962 638.024V614.759C87.9627 614.227 88.1743 613.718 88.5504 613.342C88.9266 612.966 89.4366 612.754 89.9685 612.754H105.218C105.75 612.754 106.26 612.966 106.636 613.342C107.012 613.718 107.224 614.227 107.224 614.759V638.024C107.224 638.555 107.012 639.065 106.636 639.441C106.26 639.817 105.75 640.029 105.218 640.029Z" fill="white"/>
<path d="M1125.79 751.558H1114.9C1114.09 751.557 1113.31 751.234 1112.74 750.661C1112.16 750.087 1111.84 749.309 1111.84 748.497V734.214C1111.84 733.402 1112.16 732.624 1112.74 732.051C1113.31 731.477 1114.09 731.154 1114.9 731.153H1125.79C1126.6 731.154 1127.38 731.477 1127.95 732.051C1128.53 732.624 1128.85 733.402 1128.85 734.214V748.497C1128.85 749.309 1128.53 750.087 1127.95 750.661C1127.38 751.234 1126.6 751.557 1125.79 751.558Z" fill="#434453"/>
<path d="M1217.65 867.866H1161.85C1160.32 867.864 1158.85 867.255 1157.76 866.171C1156.68 865.087 1156.07 863.618 1156.07 862.085V753.939C1156.07 752.406 1156.68 750.936 1157.76 749.852C1158.85 748.768 1160.32 748.159 1161.85 748.157H1217.65C1219.19 748.159 1220.66 748.768 1221.74 749.852C1222.82 750.936 1223.43 752.406 1223.44 753.939V862.085C1223.43 863.617 1222.82 865.087 1221.74 866.171C1220.66 867.255 1219.19 867.864 1217.65 867.866Z" fill="#434453"/>
<path d="M1184.31 867.866H1087.68C1086.15 867.864 1084.68 867.255 1083.59 866.171C1082.51 865.087 1081.9 863.618 1081.9 862.085V753.939C1081.9 752.406 1082.51 750.936 1083.59 749.852C1084.68 748.768 1086.15 748.159 1087.68 748.157H1184.31C1185.84 748.159 1187.31 748.768 1188.4 749.852C1189.48 750.936 1190.09 752.406 1190.09 753.939V862.085C1190.09 863.617 1189.48 865.087 1188.4 866.171C1187.31 867.255 1185.84 867.864 1184.31 867.866Z" fill="#56C4C0"/>
<path d="M1115.58 751.558H1104.69C1103.88 751.557 1103.1 751.234 1102.53 750.661C1101.95 750.087 1101.63 749.309 1101.63 748.497V734.214C1101.63 733.402 1101.95 732.624 1102.53 732.051C1103.1 731.477 1103.88 731.154 1104.69 731.153H1115.58C1116.39 731.154 1117.17 731.477 1117.74 732.051C1118.32 732.624 1118.64 733.402 1118.64 734.214V748.497C1118.64 749.309 1118.32 750.087 1117.74 750.661C1117.17 751.234 1116.39 751.557 1115.58 751.558Z" fill="#56C4C0"/>
<path d="M1129.87 801.55H1116.94C1116.49 801.55 1116.06 801.37 1115.74 801.052C1115.42 800.733 1115.24 800.3 1115.24 799.85V780.125C1115.24 779.674 1115.42 779.242 1115.74 778.923C1116.06 778.604 1116.49 778.425 1116.94 778.425H1129.87C1130.32 778.425 1130.75 778.604 1131.07 778.923C1131.39 779.242 1131.57 779.674 1131.57 780.125V799.85C1131.57 800.3 1131.39 800.733 1131.07 801.052C1130.75 801.37 1130.32 801.55 1129.87 801.55Z" fill="white"/>
<path d="M1155.05 801.55H1142.12C1141.67 801.55 1141.24 801.37 1140.92 801.052C1140.6 800.733 1140.42 800.3 1140.42 799.85V780.125C1140.42 779.674 1140.6 779.242 1140.92 778.923C1141.24 778.604 1141.67 778.425 1142.12 778.425H1155.05C1155.5 778.425 1155.93 778.604 1156.25 778.923C1156.57 779.242 1156.75 779.674 1156.75 780.125V799.85C1156.75 800.3 1156.57 800.733 1156.25 801.052C1155.93 801.37 1155.5 801.55 1155.05 801.55Z" fill="white"/>
<path d="M1129.87 837.599H1116.94C1116.49 837.598 1116.06 837.419 1115.74 837.1C1115.42 836.781 1115.24 836.349 1115.24 835.898V816.174C1115.24 815.723 1115.42 815.291 1115.74 814.972C1116.06 814.653 1116.49 814.474 1116.94 814.473H1129.87C1130.32 814.474 1130.75 814.653 1131.07 814.972C1131.39 815.291 1131.57 815.723 1131.57 816.174V835.898C1131.57 836.349 1131.39 836.781 1131.07 837.1C1130.75 837.419 1130.32 837.598 1129.87 837.599Z" fill="white"/>
<path d="M1155.05 837.599H1142.12C1141.67 837.598 1141.24 837.419 1140.92 837.1C1140.6 836.781 1140.42 836.349 1140.42 835.898V816.174C1140.42 815.723 1140.6 815.291 1140.92 814.972C1141.24 814.653 1141.67 814.474 1142.12 814.473H1155.05C1155.5 814.474 1155.93 814.653 1156.25 814.972C1156.57 815.291 1156.75 815.723 1156.75 816.174V835.898C1156.75 836.349 1156.57 836.781 1156.25 837.1C1155.93 837.419 1155.5 837.598 1155.05 837.599Z" fill="white"/>
</g>
</g>
</svg>
