<svg xmlns="http://www.w3.org/2000/svg" viewBox="0 0 2481.5 1732.92"><defs><style>.cls-1{isolation:isolate;}.cls-2{fill:#d7e9fd;}.cls-3{opacity:0.5;}.cls-4{fill:#daebe8;}.cls-5{fill:#8fb3e3;}.cls-6{fill:#9eb269;}.cls-7{opacity:0.6;}.cls-8{fill:#fff;}.cls-9{opacity:0.4;}.cls-10{fill:#444344;}.cls-11{fill:#250313;}.cls-12,.cls-13{fill:#ff846c;}.cls-13{mix-blend-mode:color-burn;opacity:0.33;}.cls-14,.cls-15{fill:none;stroke:#040a12;stroke-linecap:round;stroke-linejoin:round;}.cls-14{stroke-width:0.49px;}.cls-15{stroke-width:0.38px;}.cls-16{fill:#ffeae9;}.cls-17{fill:#194c64;}.cls-18{fill:#040a12;}.cls-19{fill:#332e44;}.cls-20{fill:#ccd39c;}.cls-21{fill:#585172;}.cls-22{fill:#331832;}.cls-23{fill:#ef8062;}.cls-24{fill:#764678;}.cls-25{fill:#ff9e89;}.cls-26{fill:#c4c66d;}.cls-27{fill:#4b94bc;}</style></defs><g class="cls-1"><g id="Layer_2" data-name="Layer 2"><g id="_Layer_" data-name="&lt;Layer&gt;"><path class="cls-2" d="M2481.44,325V1404c0,175-149.09,290.08-323.5,313.29-217,28.89-453.67,13.77-854.15-12.73-244.28-16.14-735.47,10.61-980.14,12.73C145,1718.81.19,1577,.19,1404V325c0-173,145.13-323.46,323.46-313.3,168.91,9.66,409.56,46.86,663.18,24C1284,8.85,1859.42-15,2157.94,11.65,2333.63,27.38,2481.44,150.16,2481.44,325Z"/><g class="cls-3"><polygon class="cls-4" points="1327.51 706.14 1305.14 703.49 1303.92 666.89 1327.51 665.55 1327.51 706.14"/><polygon class="cls-5" points="1342.96 548.61 1337.47 853.44 1313.55 1017.54 1260.73 1017.06 1242.89 1016.89 1158.11 1016.1 1150.96 916.03 1140.8 596.65 1342.96 548.61"/><polygon class="cls-5" points="1675.56 1019.84 1611.55 1019.84 1428.03 1018.85 1430.67 874.53 1436.96 589.88 1653.48 601.04 1667.9 874.53 1675.56 1019.84"/><polygon class="cls-5" points="920.83 701.28 920.83 1014.73 797.8 1013.69 551.58 1011.64 533.96 648.67 920.83 701.28"/><polygon class="cls-5" points="1769.29 756.71 1769.29 1019.84 1611.55 1019.84 1428.03 1018.05 1355.98 1017.34 1271.64 1016.53 1276.22 632.22 1769.29 756.71"/><polygon class="cls-5" points="1871.13 574.42 1871.1 575.37 1864.22 1019.84 1685.54 1019.84 1690.25 821.92 1695.51 599.97 1871.13 574.42"/><polygon class="cls-5" points="1243.15 771.62 1243.15 1016.53 1107.75 1014.61 1041.42 1013.69 926.58 1012.05 926.58 771.62 1243.15 771.62"/><polygon class="cls-5" points="652.6 1012.56 559.2 1011.97 468.08 1011.38 426.67 1011.12 429.01 861.13 434.75 489.73 632.63 567.28 645.81 861.13 652.6 1012.56"/><polygon class="cls-5" points="289.66 550.71 289.66 1039.83 198.35 1039.24 97.52 1038.56 97.52 545.4 260.88 549.91 289.66 550.71"/><polygon class="cls-5" points="746.56 778 746.56 1013.39 691.35 1012.89 652.6 1012.56 550.4 1011.64 450.7 1010.74 405.39 1010.33 333.39 1009.7 248.91 1008.94 248.91 778 746.56 778"/><polygon class="cls-5" points="926.58 441.14 918.28 1014.25 904.28 1014.16 828.72 1013.65 780.39 1013.33 701.13 1012.81 706.7 762.89 713.09 474.35 926.58 441.14"/><polygon class="cls-5" points="2209.02 380.51 2202.06 778 2198.01 1009.7 2113.52 1008.94 2085.03 1008.67 1949.04 1007.47 1938.21 861.32 1903.71 395.81 1967.38 392.61 2130.23 384.45 2209.02 380.51"/><polygon class="cls-5" points="1943.9 701.66 1943.9 1039.83 1902.18 1039.42 1846.58 1038.85 1847.86 878.76 1849.31 697.71 1943.9 701.66"/><polygon class="cls-5" points="2153.63 773.49 2153.63 1041.83 2017.64 1039.64 1951.9 1038.55 1909.63 1037.87 1853.3 1036.94 1854.58 773.49 2153.63 773.49"/><polygon class="cls-4" points="870.53 525.17 852.32 522.51 851.32 485.91 870.53 484.57 870.53 525.17"/><polygon class="cls-4" points="165.53 633.03 143.25 633.03 141.94 593.77 165.53 596.18 165.53 633.03"/><polygon class="cls-4" points="248.91 741.74 226.63 741.74 225.32 702.48 248.91 704.89 248.91 741.74"/><polygon class="cls-4" points="1966.58 460.26 1944.3 460.26 1942.99 421.01 1966.58 423.41 1966.58 460.26"/><polygon class="cls-4" points="1617.34 668.3 1595.06 668.3 1593.75 629.04 1617.34 631.45 1617.34 668.3"/><polygon class="cls-4" points="509.53 598.7 487.25 598.7 485.94 559.44 509.53 561.85 509.53 598.7"/><polygon class="cls-4" points="2150.92 489.73 2128.64 489.73 2127.33 450.48 2150.92 452.88 2150.92 489.73"/><polygon class="cls-4" points="2150.92 695.11 2128.64 695.11 2127.33 655.85 2150.92 658.26 2150.92 695.11"/><polygon class="cls-4" points="2015.26 609.51 1992.98 609.51 1991.67 570.25 2015.26 572.66 2015.26 609.51"/><polygon class="cls-4" points="1842.21 675.48 1819.93 675.48 1818.62 636.22 1842.21 638.63 1842.21 675.48"/><polygon class="cls-4" points="1894.71 816.12 1872.43 816.12 1871.13 776.87 1894.71 779.27 1894.71 816.12"/></g><path class="cls-6" d="M479.21,960.86l-479,35.5V781.26c22.53,3.43,46.86,13.61,63.27,38.62,38.48,58.69,108.15,63.38,137,33.73s113-13,132.76,42.13S485,876.79,479.21,960.86Z"/><path class="cls-6" d="M2481.44,729.74v281.88l-616.75-58.76c15.89-66.4,167.36-17.32,195.08-89s136.15-89.82,171.78-49.43,125,37.42,176.87-38.15C2428.08,747.58,2455.27,734.7,2481.44,729.74Z"/><g class="cls-7"><path class="cls-8" d="M1026.16,186.07s-16.24-31.24-57.35-27.33S932.6,194,913,191s-47,0-52.85,19.57-32.3,8.81-33.28,25.45,30.34,28.38,66.55,13.7,53.83,11.4,104.72,6.68,57.2-10.6,87.32-7.66,29.41-17.69,15.71-31.39S1032,205,1026.16,186.07Z"/></g><g class="cls-7"><path class="cls-8" d="M1815.5,266.29s-13-25.07-46-21.93-29.06,28.27-44.77,25.92-37.69,0-42.4,15.7-25.92,7.07-26.71,20.42,24.35,22.78,53.41,11,43.19,9.15,84,5.36,45.9-8.5,70.07-6.15,23.6-14.19,12.6-25.19S1820.21,281.47,1815.5,266.29Z"/></g><g class="cls-9"><path class="cls-8" d="M700.51,276.88s-26.57-46-75.18-38.46-1.08,28.31-64.82,38.46-77.78,31.76-48.61,49,76.7-31.32,128.55-7.56S761.65,321.83,700.51,276.88Z"/></g><g class="cls-9"><path class="cls-8" d="M1581,185s-18-31.11-50.82-26-.73,19.14-43.82,26-52.57,21.46-32.86,33.15,51.85-21.18,86.9-5.11S1622.37,215.35,1581,185Z"/></g><path class="cls-10" d="M1217,686.2h84.16a64.09,64.09,0,0,1,64.09,64.09V878.77A10.21,10.21,0,0,1,1355,889h-191.9a10.21,10.21,0,0,1-10.21-10.21V750.29A64.09,64.09,0,0,1,1217,686.2Z"/><path class="cls-10" d="M1516.4,686.2h84.16a64.09,64.09,0,0,1,64.09,64.09V878.77A10.21,10.21,0,0,1,1654.43,889h-191.9a10.21,10.21,0,0,1-10.21-10.21V750.29A64.09,64.09,0,0,1,1516.4,686.2Z"/><rect class="cls-10" x="1192.27" y="617.61" width="133.6" height="71.57" rx="21.7"/><rect class="cls-10" x="1489.34" y="617.61" width="133.6" height="71.57" rx="20.3"/><path class="cls-11" d="M1529.06,616.79a18.8,18.8,0,0,0-9.54,22.76,32.12,32.12,0,0,0,2.88,6,115.59,115.59,0,0,0,20.69,26.07c1.64-8.31,3-16.37,3-24.84,0-6.11-.86-12.32-3.42-17.88A24.61,24.61,0,0,0,1529.06,616.79Z"/><path class="cls-11" d="M1529.14,616.92a10.72,10.72,0,0,1,12.58-13.22c.76-4,4-7.29,7.74-9a21.25,21.25,0,0,1,23.63,4.44,20.75,20.75,0,0,1,9.12-.88,12.12,12.12,0,0,1,7.6,4.07c2.88,3.49,3.08,8.71,1.17,12.82s-5.63,7.15-9.75,9a47.74,47.74,0,0,1-13.09,3.4,58.47,58.47,0,0,1-15.28.7C1544.12,627.25,1536.23,622.13,1529.14,616.92Z"/><polygon class="cls-12" points="1537.31 663.18 1541.09 687.57 1576.67 686.57 1574.58 678.44 1572.76 671.32 1540.39 663.88 1537.31 663.18"/><path class="cls-13" d="M1540.39,663.88a20.44,20.44,0,0,0,10.66,16,23.71,23.71,0,0,0,20,.81,10.2,10.2,0,0,0,3.58-2.24l-1.82-7.12Z"/><path class="cls-12" d="M1583.77,627.7l0,0h0c-3.82-12.59-16.66-21-30.71-19.33-.48.05-1,.12-1.44.21-15,2.49-25.53,15.84-23.81,30.46a26.62,26.62,0,0,0,6.49,14.49h0c3.72,17.36,17.23,27.88,37.51,22.19C1596.47,668.83,1583.77,627.7,1583.77,627.7Z"/><path class="cls-11" d="M1560.93,642.47a2.77,2.77,0,1,1-3.18-2.33A2.8,2.8,0,0,1,1560.93,642.47Z"/><path class="cls-11" d="M1581,638.08a2.56,2.56,0,1,1-2.93-2.15A2.58,2.58,0,0,1,1581,638.08Z"/><path class="cls-14" d="M1569.57,638.72a17.28,17.28,0,0,1,6.34,6.8c1.19,2.63.1,4.85-2.38,6.09"/><path class="cls-14" d="M1569.55,651.86a2.81,2.81,0,0,1,.55-.72.81.81,0,0,1,.66-.19c.41.1.57.58.69.94"/><path class="cls-15" d="M1573.23,656.92a5,5,0,0,0-5.77-.08"/><path class="cls-11" d="M1551.06,637.63a1.8,1.8,0,0,0,.65,1.47,2.53,2.53,0,0,0,1.92.26,9.45,9.45,0,0,0,4.75-2.35,2,2,0,0,0,.79-1.35c0-1.8-2.85-3-4.35-2.57S1551.11,635.9,1551.06,637.63Z"/><path class="cls-11" d="M1581.64,631.25a1.6,1.6,0,0,1,0,1.43,2.25,2.25,0,0,1-1.45,1,8.51,8.51,0,0,1-4.77,0,1.83,1.83,0,0,1-1.17-.78c-.73-1.45,1.12-3.59,2.52-3.79S1580.92,629.86,1581.64,631.25Z"/><path class="cls-12" d="M1531.85,645.8c-3.32.2-6.84,1.43-8.64,4.23-2.19,3.41-1,8.26,1.93,11s7.26,3.69,11.3,3.42c1.83-.12,3.84-.59,4.85-2.11a5.76,5.76,0,0,0,.74-2,18.35,18.35,0,0,0-1.48-11.25C1539.11,646,1534.88,645.61,1531.85,645.8Z"/><path class="cls-14" d="M1530.56,653.15a7.14,7.14,0,0,1,4.64,4.09"/><path class="cls-11" d="M1528.28,646.33a26,26,0,0,1,11.18,2c2-3.78,1.33-8.64-1-12.21,3-1.49,4.5-4.71,5.36-8a15.19,15.19,0,0,0,.59-3.72,9.52,9.52,0,0,0-15.53-7.42c-3,2.49-4.25,6.59-4.65,10.5C1523.58,633.9,1525.52,640.49,1528.28,646.33Z"/><path class="cls-11" d="M1534.35,646.39a20.79,20.79,0,0,1,3.9,6.33,22.56,22.56,0,0,0,2.22-6.76,7.22,7.22,0,0,0,0-3.17,3.11,3.11,0,0,0-2-2.27,3.2,3.2,0,0,0-3.18,1.25C1534.55,642.71,1534.64,645.21,1534.35,646.39Z"/><path class="cls-11" d="M1536.91,614.82a5.22,5.22,0,0,0,2.23,1.33,22.61,22.61,0,0,0,8.42,1.6,12.21,12.21,0,0,0,7.9-3,28.71,28.71,0,0,0,16.67,3.64c2.29-.21,4.88-.95,5.8-3.06s-.19-4.29-1.66-5.86a17,17,0,0,0-6.6-4,31,31,0,0,0-17.77-1.07C1546,605.76,1541,610.41,1536.91,614.82Z"/><path class="cls-16" d="M1540.89,684.8s18.59,6.39,34.42-3.1c0,0,21.1,5.27,39.56,17.14l3.69,119.48s-78.59,14-107.08-1.59l-4.61-109.18Z"/><path class="cls-17" d="M1543.13,843.1c-1.58,33-4.21,52.24-4.21,52.24s-26.64,9.22-54.08-9.24c0,0,22.68-86.24,20.58-106s-2.11-69.62-2.11-69.62a161.29,161.29,0,0,1,20.13-16c.18-.14.37-.25.55-.37a74,74,0,0,1,14-7.38S1544.71,810.15,1543.13,843.1Z"/><path class="cls-12" d="M1559.42,787.39l-44.71,2.18a2.23,2.23,0,0,1-1.18,3.36c-2.57,1.19-12.66.2-10.49-6.33,0,0-1.58-3-.19-5.54,0,0-1-3.36,1.18-5.73,0,0-.59-3.76,1.78-5s52-3.76,52-3.76Z"/><path class="cls-17" d="M1631.75,894c-24.53,11.61-44-.26-44-.26l-4.9-135,0-1.18-2.73-75.06,16.17,7.24,1.1.5L1617,699Z"/><path class="cls-18" d="M1531.34,700.32c-3.7,3.86-7.81,8.54-10.1,13.88,1.61,1.92,3.2,3.84,4.82,5.78l5,6a.3.3,0,0,1,0,.42.37.37,0,0,1-.2.07.32.32,0,0,1-.24-.11c-1.65-2-3.31-4-5-6s-3.28-4-4.93-5.92a.29.29,0,0,1,0-.31c2.26-5.42,6.35-10.13,10.08-14a37.11,37.11,0,0,0-7.26-5.64c.18-.14.37-.25.55-.37a38.12,38.12,0,0,1,7.35,5.79A.31.31,0,0,1,1531.34,700.32Z"/><path class="cls-15" d="M1547.81,793.39s51.1,10.82,76.29,2.11"/><path class="cls-17" d="M1503.31,710.45s-30.33,29.27-13.19,63.82c15.18,30.6,47.74,5,53.28-.79s19.25-37.19,19.25-37.19l-23.47-18.46L1521,731.55Z"/><path class="cls-12" d="M1539.51,718.62s16.22-18.79,16.81-20.37,2.77-24.53,4.75-26.11,15.43-7.12,17-4c0,0,4.55-.39,4.94,3,0,0,5,0,4.75,3,0,0,2.37,3.75,2.37,6.33s-3.75,6.92-5.93,6.72c0,0,0,8.7-3.36,13.45s-13.26,12.66-13.26,12.66l-11.27,18Z"/><path class="cls-15" d="M1556.32,698.74s2.67-24.13,4.75-26.6,15.72-9.1,17.6-4.25c0,0,4-.3,4.35,3.26,0,0,4.35-.2,4.75,3,0,0,2.87,4.35,2.28,7.12s-3,5.93-5.84,5.93"/><path class="cls-15" d="M1578.89,667.82a38.2,38.2,0,0,0-10.9,3.72"/><path class="cls-15" d="M1583.33,671.25c-4.39.62-7.26,1-11.29,2.87"/><path class="cls-15" d="M1587.9,674.31a49.14,49.14,0,0,0-12.13,3.09"/><path class="cls-15" d="M1578.82,703a14.69,14.69,0,0,0,3.85-6c1.27-3.71,1-7.76,1.93-11.57a5.48,5.48,0,0,1,1.66-3.14"/><polyline class="cls-15" points="1509.84 745.33 1539.31 718.42 1562.65 736.29"/><path class="cls-15" d="M1528.73,728c11,5,21.46,11.42,28.15,21.52"/><path class="cls-15" d="M1488.1,770.22a29.86,29.86,0,0,1,18,3.45,23.48,23.48,0,0,1,11.2,14.3"/><path class="cls-17" d="M1616.91,699s18.2,9.23,24,38.51-.53,51.37-20,59.6c-16.88,7.12-73.06-3.76-73.06-3.76l1.32-28.41L1608,753.63Z"/><line class="cls-15" x1="1549.13" y1="764.98" x2="1607.35" y2="754.23"/><path class="cls-15" d="M1604.18,754.49c.11-8.71.56-17.43,1.36-26.11"/><path class="cls-15" d="M1616.46,797.09a33.7,33.7,0,0,1,24.41-22.47"/><path class="cls-18" d="M1603,714.26l-20,44.32a.25.25,0,0,1-.16.14.35.35,0,0,1-.12,0,.24.24,0,0,1-.13,0,.29.29,0,0,1-.13-.4l.35-.78,19.6-43.34-12.27-13.57a.36.36,0,0,1-.08-.23.5.5,0,0,1,.13-.22l8.74-6.8-2.68-3.66,1.1.5,2.23,3a.3.3,0,0,1,0,.42l-8.71,6.79L1603,713.94A.3.3,0,0,1,1603,714.26Z"/><path class="cls-16" d="M1471.26,671.4l-.43.34a1.51,1.51,0,0,1-1.62-.18,13.34,13.34,0,0,1-3.85-4.7c-2-4.32-.34-8.27,1.39-12.39a26.69,26.69,0,0,0,1.51-4.59,4.58,4.58,0,0,0-.26-2.76c-1.07-2.31-3.57-2.52-5.73-1.51a12.71,12.71,0,0,0-5.42,5.76,1.84,1.84,0,0,1-.71.68,1.15,1.15,0,0,1-1.14-.11l-3.53-2.11a1.16,1.16,0,0,1-.6-.66,1.61,1.61,0,0,1,0-1.29,17.77,17.77,0,0,1,8.6-8.82c6.12-2.84,12.48-1.4,15.34,4.77,1.82,3.91,1.11,7.26-.35,11.18l-.62,1.65a27.89,27.89,0,0,0-1.53,4.39,4.34,4.34,0,0,0,.22,2.85,7.68,7.68,0,0,0,1.84,2.39,3.55,3.55,0,0,1,.37.47,1.27,1.27,0,0,1,.09.68,1.83,1.83,0,0,1-.34.67Zm.33,10.94a5.46,5.46,0,0,1,2.7-7.24,5.43,5.43,0,1,1,4.57,9.84A5.46,5.46,0,0,1,1471.59,682.34Z"/><path class="cls-16" d="M1659.05,643.58a5.45,5.45,0,0,1,7.15-2.91,5.43,5.43,0,1,1-4.16,10A5.44,5.44,0,0,1,1659.05,643.58Zm7.83-7.65-.54-.08a1.51,1.51,0,0,1-1-1.32,13.47,13.47,0,0,1,.85-6c1.83-4.4,5.87-5.84,10.07-7.35a26.56,26.56,0,0,0,4.41-2,4.61,4.61,0,0,0,1.86-2.06c1-2.35-.56-4.33-2.76-5.25a12.8,12.8,0,0,0-7.91-.1,1.78,1.78,0,0,1-1,0,1.15,1.15,0,0,1-.69-.93l-.84-4a1.18,1.18,0,0,1,.09-.89,1.58,1.58,0,0,1,.93-.88,17.74,17.74,0,0,1,12.31.37c6.24,2.59,9.47,8.25,6.87,14.53-1.66,4-4.61,5.73-8.48,7.3l-1.64.66a28.76,28.76,0,0,0-4.27,1.84,4.33,4.33,0,0,0-1.94,2.09,7.68,7.68,0,0,0-.52,3,3.12,3.12,0,0,1-.11.59,1.19,1.19,0,0,1-.43.53,1.68,1.68,0,0,1-.72.19Z"/><path class="cls-19" d="M2481.44,949c0,496,.41,461.93-1,479.11-13.32,164.35-159.61,267.49-322.53,289.17-312.79,41.64-725.88-13.25-976-17.28-261-4.29-649.18,15.47-858.33,17.28-164,1.42-298.18-117.55-320.25-269C-1.17,1417.05.19,1438.31.19,949Z"/><polygon class="cls-20" points="400.97 948.98 0.19 1071.46 0.19 948.98 400.97 948.98"/><polygon class="cls-20" points="2007.86 948.98 2481.44 1159.99 2481.44 948.98 2007.86 948.98"/><polygon class="cls-8" points="1482.52 1531.07 1057.03 1531.07 1190.33 1241.85 1357.77 1241.85 1482.52 1531.07"/><polygon class="cls-8" points="831.05 1531.07 492.39 1530.66 874.26 1241.85 1057.03 1242.09 831.05 1531.07"/><polygon class="cls-8" points="1714.6 1531.07 2016.19 1530.7 1694.38 1241.85 1487.99 1242.09 1714.6 1531.07"/><path class="cls-8" d="M2465.12,1499.82a277,277,0,0,1-13.25,30.92l-253.07.32-355.34-289,209.17-.2Z"/><path class="cls-8" d="M680.21,1241.89l-479.63,289-172.93-.16A304.78,304.78,0,0,1,3.4,1448.26l436.17-206.61Z"/><polygon class="cls-21" points="2481.44 1090.37 2481.44 1320.78 1818.62 948.98 2016.19 948.98 2481.44 1090.37"/><polygon class="cls-22" points="1785.35 738.95 1836.76 738.95 1836.76 751.66 1780.3 751.66 1785.35 738.95"/><polygon class="cls-22" points="971.3 738.95 1022.71 738.95 1022.71 751.66 966.25 751.66 971.3 738.95"/><path class="cls-23" d="M1016,816c-5.42,0-10.06-1.11-13.47-5.31-4.7-5.78-3.22-13.25-1.16-19.78l56.23-180.7c19-64.83,101.64-69.88,126.53-69.88h461.91c84.55,3.37,97.84,46.94,102.84,63.34l.8,2.54,64,174.49c3,9.13,2.41,16.55-1.77,22.34-7.56,10.47-23.59,11.34-42.23,11.34H1041a153.52,153.52,0,0,0-15.68,1C1022,815.65,1018.92,816,1016,816ZM1645.7,559.26H1184.17c-21.55,0-93.08,4.06-108.39,56.39l-56.29,180.88c0,.11-.07.22-.1.32,1.3-.1,2.71-.24,4-.38A167,167,0,0,1,1041,795.4h728.8c21.49,0,26.06-2.16,26.87-3.46,0,0,.49-1.25-.76-5L1730.8,609.19C1726.5,595.09,1716.43,562.08,1645.7,559.26Z"/><path class="cls-23" d="M1884.11,1046.27H939.55c-18.39,0-33.83-14.29-35.81-33.15L889.82,880.77c-6.5-61.85,40.48-115.83,100.82-115.83,0,0,83.22-15.67,407.87-15.67,255.21,0,452.12,15.67,452.12,15.67,59.42,0,104.24,55.63,93.35,115.86l-24.45,135.13C1916.35,1033.52,1901.46,1046.27,1884.11,1046.27Z"/><path class="cls-4" d="M1629.32,923.36s24.12-26.43,98.22-41.68,148.49-18.63,159.53,10,3.73,63.37-33.74,68.11S1604.1,966.07,1629.32,923.36Z"/><path class="cls-22" d="M988.15,1045.35s-46.25,132.42-4.32,143.77,151,13.42,168.6-9.28-17.21-140.51-17.21-140.51Z"/><path class="cls-22" d="M1726.83,1045.7s-59.1,128.39-14.94,140.34,134.17,12.87,152.7-11,.51-129.31.51-129.31Z"/><path class="cls-4" d="M1234.71,924.14S1208,894.87,1125.94,878s-164.45-20.63-176.68,11-4.12,70.19,37.37,75.44S1262.65,971.44,1234.71,924.14Z"/><path class="cls-24" d="M1267.72,957.52l20.66-47.41c3.5-8,10-13,17.13-13H1559c6.77,0,13.07,4.53,16.67,12l22.87,47.41c8.22,17.05-1.2,39.22-16.68,39.22h-297C1269.77,995.76,1260.29,974.6,1267.72,957.52Z"/><path class="cls-22" d="M1424.85,861.85c-60.33,0-122.15-1.56-170.23-5.42s-74.9-9.51-80-16.83c-38.76-55.17-63.56-84.05-63.8-84.35l.68-.58c.24.27,25.07,29.19,63.86,84.41,4.91,7,32.36,12.67,79.37,16.46,59.17,4.74,149.77,6.5,242.37,4.66,83.8-1.67,145.33-5.9,149.63-10.32,12.07-12.36,21.15-25.72,31.66-41.17,10.2-15,21.77-32,38.72-52l.7.59c-16.93,20-28.49,37-38.68,52-10.53,15.5-19.63,28.87-31.75,41.28C1641.44,856.57,1535.69,861.85,1424.85,861.85Z"/><path class="cls-23" d="M1930.53,1124.18H899.05c-6.26,0-11.53-7.09-12.29-16.53l-5.44-67.14c-.92-11.23,4.85-21.13,12.29-21.13H1934.93c7.32,0,13,9.61,12.32,20.69l-4.39,67.14C1942.23,1116.84,1936.9,1124.18,1930.53,1124.18Z"/><path class="cls-22" d="M1930.53,1124.73H899.05c-6.54,0-12.06-7.31-12.85-17l-5.44-67.15c-.57-7,1.44-13.94,5.26-18.08a10.3,10.3,0,0,1,7.58-3.66H1934.93a10.23,10.23,0,0,1,7.5,3.59c3.77,4,5.83,10.81,5.38,17.71l-4.39,67.13C1942.76,1117.21,1937.22,1124.73,1930.53,1124.73ZM893.6,1019.93a9.25,9.25,0,0,0-6.77,3.3c-3.6,3.91-5.51,10.52-5,17.23l5.44,67.15c.74,9.13,5.78,16,11.74,16H1930.53c6.1,0,11.16-7.07,11.77-16.44l4.4-67.13c.43-6.63-1.52-13.1-5.08-16.9a9.17,9.17,0,0,0-6.69-3.22Z"/><path class="cls-23" d="M1822.65,744.58s5.66-35.64,50.49-34.59,49,16.29,38.52,34.59S1819.79,766.2,1822.65,744.58Z"/><path class="cls-23" d="M983,744.58s-5.66-35.64-50.49-34.59-49,16.29-38.52,34.59S985.89,766.2,983,744.58Z"/><path class="cls-25" d="M1860.53,723.25s12.62-6.74,24.35-4.94,20.14,3.77,19.84,9.85S1853.7,726.09,1860.53,723.25Z"/><path class="cls-25" d="M1916.46,824.73S1892.69,787.9,1865,783s-74-7.35-77,.49,50.08,13.86,69.23,31.9S1935,847,1916.46,824.73Z"/><path class="cls-25" d="M1860.83,1034.24s56.51-6.49,64.93,3.07,16.23,34.73,4.81,34.47-17.56-14.18-32-19.85S1849.19,1035.32,1860.83,1034.24Z"/><path class="cls-26" d="M137.05,991.43c-1.2-.07-2.39-.17-3.63-.28-2.36-.22-4.77-.5-7.25-.85A127,127,0,0,0,112,989.17c-1.24,0-2.45,0-3.7,0-.66,0-1.32,0-2,0-23.7.63-86,6-83.93-30C25,913,71.18,932.56,74.17,913.72c3.54-22.24,46.84-46.88,65.07-11.3,17.66,34.46,27.52,7.46,49.1,18.9C219.52,937.85,212.07,996.57,137.05,991.43Z"/><path class="cls-6" d="M86.48,957.94S39,963.56,40,968.2s46-7.79,46-7.79Z"/><path class="cls-6" d="M107.2,970.71S56.06,934.9,54.07,936.47s50.52,36.81,50.52,36.81Z"/><path class="cls-6" d="M112,989.17c-1.24,0-2.45,0-3.7,0-.78-2.89-2.45-8.93-4.45-16.38-.47-1.73-1-3.54-1.46-5.41C96.55,945.39,89,916,90.57,916.18c1.1.13,5.35,14.17,9.81,30.06.32,1.07.63,2.17.92,3.26,2,7.19,4,14.59,5.78,21.11l.06.16C109.38,979.14,111.2,986.05,112,989.17Z"/><path class="cls-6" d="M109.56,937.12c-.74,1.15-1.49,2.29-2.21,3.38-3.44,5.25-6.31,9.4-6.31,9.4l-1.85-1.66s3.24-5.52,7.12-11.75c.73-1.2,1.49-2.41,2.26-3.61,4.78-7.55,9.74-14.78,10.43-13.51S114.55,929.38,109.56,937.12Z"/><path class="cls-6" d="M140.09,973.28s39-21.15,41.36-17.81-39.37,19.07-39.37,19.07Z"/><path class="cls-6" d="M143.11,971.67c-.28,1-.55,1.9-.83,2.82-2.43,8.1-4.64,15.12-5.23,16.94-1.2-.07-2.39-.17-3.63-.28.89-3,5.37-18.26,9.48-30.68.38-1.18.78-2.34,1.15-3.47,2.59-7.58,4.84-13.4,5.71-13.42C151.17,943.53,147.05,958.41,143.11,971.67Z"/><path class="cls-6" d="M167,960.25s.7-18.75,2.56-19.25.52,17.94.52,17.94Z"/><path class="cls-6" d="M144.14,962s-16.49-20.7-15.57-22.5,16.66,19,16.66,19Z"/><path class="cls-26" d="M2204.08,967c-1.16-.07-2.32-.17-3.52-.27q-3.42-.33-7-.82a118.93,118.93,0,0,0-13.7-1.1c-1.2,0-2.37,0-3.58,0-.64,0-1.28,0-1.92,0-23,.61-83.28,5.79-81.3-29.08,2.54-44.7,47.24-25.76,50.13-44,3.44-21.54,45.38-45.41,63-11,17.1,33.39,26.66,7.23,47.56,18.32C2284,915.1,2276.75,972,2204.08,967Z"/><path class="cls-6" d="M2155.09,934.56s-46,5.44-45,9.94,44.59-7.55,44.59-7.55Z"/><path class="cls-6" d="M2175.16,946.92s-49.53-34.68-51.46-33.16,48.94,35.66,48.94,35.66Z"/><path class="cls-6" d="M2179.83,964.81c-1.2,0-2.37,0-3.58,0-.76-2.8-2.38-8.65-4.31-15.86-.45-1.69-.92-3.43-1.41-5.25-5.69-21.29-13-49.75-11.47-49.58,1.06.12,5.18,13.72,9.5,29.11.3,1,.61,2.1.89,3.16,2,7,3.9,14.13,5.6,20.45a.75.75,0,0,1,0,.16C2177.27,955.09,2179,961.78,2179.83,964.81Z"/><path class="cls-6" d="M2177.45,914.39c-.72,1.12-1.44,2.22-2.14,3.27-3.33,5.08-6.12,9.11-6.12,9.11l-1.78-1.61s3.13-5.35,6.89-11.38c.71-1.16,1.44-2.33,2.19-3.5,4.63-7.31,9.43-14.32,10.11-13.08S2182.28,906.89,2177.45,914.39Z"/><path class="cls-6" d="M2207,949.42s37.81-20.49,40.07-17.26S2209,950.64,2209,950.64Z"/><path class="cls-6" d="M2210,947.86c-.27.92-.54,1.83-.81,2.72-2.35,7.86-4.49,14.65-5.06,16.42-1.16-.07-2.32-.17-3.52-.27.86-2.94,5.2-17.69,9.19-29.72.37-1.14.75-2.27,1.11-3.36,2.5-7.35,4.69-13,5.53-13C2217.75,920.6,2213.77,935,2210,947.86Z"/><path class="cls-6" d="M2233.09,936.79s.67-18.15,2.48-18.64.51,17.37.51,17.37Z"/><path class="cls-6" d="M2210.94,938.53s-16-20-15.07-21.8S2212,935.14,2212,935.14Z"/><path class="cls-22" d="M2311.64,1201.14h0c6.63,0,12-4.27,12-9.54V454.87c0-5.27-5.36-9.54-12-9.54h0c-6.62,0-12,4.27-12,9.54V1191.6C2299.65,1196.87,2305,1201.14,2311.64,1201.14Z"/><path class="cls-22" d="M2312,1062.87a28.42,28.42,0,0,1-12.61-3.06l.5-.65c13.45,6.59,23,.32,23.42,0l.61.57A23,23,0,0,1,2312,1062.87Z"/><circle class="cls-8" cx="2315.28" cy="538.78" r="124.09"/><circle class="cls-27" cx="2315.28" cy="538.78" r="114.78"/><rect class="cls-8" x="2230.75" y="524.82" width="122.53" height="29.47"/><path class="cls-8" d="M2340,513.86l12.62,13.31a2.51,2.51,0,0,1,.68,1.71l0,24.07a2.49,2.49,0,0,1-.63,1.66l-8,8.94a2.48,2.48,0,0,0,2.91,3.89l57-27.43a2.48,2.48,0,0,0-.13-4.52l-61.66-25.61A2.47,2.47,0,0,0,2340,513.86Z"/></g></g></g></svg>