<svg xmlns="http://www.w3.org/2000/svg" viewBox="0 0 889.02 1378.77"><defs><style>.cls-1{fill:#252131;}.cls-2,.cls-7{fill:#fff;}.cls-3{fill:#385459;}.cls-4{fill:#d81513;}.cls-5{fill:#f71e1e;}.cls-6,.cls-8{fill:#cecdb6;}.cls-7{opacity:0.5;}.cls-8{opacity:0.2;}.cls-9{fill:#6eaaf2;}.cls-10{fill:#7fb8ef;}.cls-11{fill:#40413c;}.cls-12{fill:#158bed;}.cls-13{fill:#e2e0c9;}</style></defs><g id="Layer_2" data-name="Layer 2"><g id="Layer_1-2" data-name="Layer 1"><rect class="cls-1" y="0.55" width="889.02" height="1378.21"/><rect class="cls-2" x="439.66" width="24.51" height="1377.96"/><path class="cls-3" d="M746.24,1293.45c-8.36,3.24-110.55,3.82-118.94.68-13.57-5.09-19-32.44-19-32.44v-13c.62,2.92,6.17,27.36,18.91,32.14,8.4,3.15,110.59,2.57,118.95-.67,12.7-4.93,18-29.44,18.61-32.36.08,8.19.12,13,.12,13S759.75,1288.21,746.24,1293.45Z"/><path class="cls-4" d="M752.32,971c-9.26-3.6-122.15-3.6-131.41,0-14.95,5.82-20.79,36.66-20.79,36.66s.89,221.13,2.3,229.66c6,36.62,24.65,45.75,32.53,48.75,11,4.19,91.45,5.44,102.48,1.24,7.88-3,27.35-13.37,33.38-50,1.41-8.53,2.3-229.66,2.3-229.66S767.27,976.78,752.32,971Z"/><path class="cls-3" d="M752.32,960.4c-9.26-3.2-122.15-3.2-131.41,0-14.95,5.16-20.79,32.54-20.79,32.54s0,4.84.07,13c.67-2.92,6.67-27.4,20.72-32.25,9.26-3.2,122.15-3.2,131.41,0,14,4.85,20,29.33,20.72,32.25,0-8.2.07-13,.07-13S767.27,965.56,752.32,960.4Z"/><path class="cls-5" d="M734.44,1087.64c-17.27-13.92-47.83-13.32-47.83-13.32s-30.55-.6-47.82,13.32c-4.15,3.35-2.7,118.15,4.21,124.1s43.61,5.47,43.61,5.47,36.72.47,43.62-5.47S738.59,1091,734.44,1087.64Z"/><path class="cls-3" d="M747.15,1043.33c-10.25-11.91-60.54-14.62-60.54-14.62s-50.28,2.71-60.53,14.62c-2.56,3,3.57,36.69,8.87,39,3.88,1.67,17.26-12.36,51.66-11,38.14,1.53,47.79,12.66,51.67,11C743.58,1080,749.71,1046.31,747.15,1043.33Z"/><path class="cls-3" d="M622.41,1247.76c9.37,11.91,64.1,12.42,64.1,12.42s54.94-.51,64.31-12.42c2.35-3-12.2-23-17.05-25.25-3.55-1.66-47.26,0-47.26,0s-43.72-1.66-47.27,0C634.4,1224.78,620.06,1244.77,622.41,1247.76Z"/><path class="cls-5" d="M746.94,1039s-4-28.68-9.25-41.89-12-19.78-12-19.78l-38.28-.49v0h-1.61v0l-38.28.49s-6.75,6.58-12,19.78-9.25,41.89-9.25,41.89,13.17-5.8,23.43-7.73c9.22-1.74,32.3-4,36.89-4.44,4.6.44,27.68,2.7,36.9,4.44C733.77,1033.17,746.94,1039,746.94,1039Z"/><path class="cls-3" d="M737.15,983.28c.21-2.21.36-5.9,2.67-7s6.56-.48,9.23-.19c6.15.66,10.51,4.93,13.07,10.43,1.15,2.47,3.78,15.31-1.49,14.36l-.36.37c-1.65-1.29-2.67-4-4.2-5.68a19,19,0,0,0-5.75-4.24c-2.86-1.41-5.16-2.61-8.32-2.93C738.33,988,736.77,987.36,737.15,983.28Z"/><path class="cls-6" d="M736.07,985.48c.21-2.2.36-5.9,2.67-7s6.56-.48,9.23-.19c6.15.66,10.51,4.94,13.07,10.43,1.15,2.47,3.77,15.31-1.5,14.36l-.36.37c-1.65-1.29-2.67-4-4.2-5.68a18.7,18.7,0,0,0-5.75-4.23c-2.85-1.41-5.16-2.62-8.32-2.94C737.24,990.21,735.68,989.57,736.07,985.48Z"/><path class="cls-7" d="M752.31,981.67c.4.88.22,3.49-.72,4.18s-3.29.08-4.35-.13c-2.28-.47-6.71.13-7.73-2.58-1.49-3.93,3.14-3.71,5.38-3.49,1.8.18,6.05.6,7.29,2,.21.23.31.9.31.78Z"/><path class="cls-3" d="M635,983.27c-.21-2.21-.36-5.9-2.68-7s-6.56-.46-9.23-.17c-6.14.67-10.5,4.95-13.05,10.45-1.14,2.47-3.75,15.31,1.52,14.36l.36.37c1.65-1.29,2.66-4,4.19-5.69a18.65,18.65,0,0,1,5.74-4.24c2.86-1.42,5.16-2.63,8.32-3C633.85,988,635.41,987.35,635,983.27Z"/><path class="cls-6" d="M636.1,985.47c-.21-2.21-.36-5.9-2.68-7s-6.56-.46-9.23-.17c-6.15.67-10.5,5-13.05,10.45-1.14,2.47-3.75,15.32,1.52,14.36l.36.37c1.65-1.29,2.66-4,4.19-5.69a18.81,18.81,0,0,1,5.74-4.24c2.86-1.42,5.16-2.63,8.32-2.95C634.94,990.2,636.49,989.55,636.1,985.47Z"/><path class="cls-7" d="M619.86,981.68c-.41.89-.22,3.5.72,4.19s3.29.07,4.35-.15c2.29-.47,6.71.12,7.73-2.59,1.48-3.93-3.15-3.7-5.39-3.48-1.79.18-6,.61-7.28,2-.21.23-.31.9-.31.79Z"/><path class="cls-3" d="M616.4,1045.56c-8,0-8,68.11-6.92,76.17s22.79,5.41,22.79,3.77v-37.07c-1-2-5.89-10.08-9.45-19.79S618.16,1045.56,616.4,1045.56Z"/><path class="cls-3" d="M609.48,1131.29c-2.23,1.48,2.71,79.25,4.72,96,1.1,9.16,19.88-4.39,20.63-11.72s-3.51-78.83-4.14-82.43C630.2,1130.31,612.82,1129.1,609.48,1131.29Z"/><path class="cls-3" d="M758,1045.56c8,0,8,68.11,6.92,76.17s-22.79,5.41-22.79,3.77v-37.07c1-2,5.89-10.08,9.45-19.79S756.27,1045.56,758,1045.56Z"/><path class="cls-3" d="M765,1131.29c2.23,1.48-2.72,79.25-4.73,96-1.1,9.16-19.88-4.39-20.62-11.72s3.51-78.83,4.14-82.43C744.23,1130.31,761.61,1129.1,765,1131.29Z"/><polygon class="cls-8" points="665.22 1030.82 647.98 1077.44 664.11 1072.76 682.45 1029 665.22 1030.82"/><polygon class="cls-8" points="672.13 1071.65 690.78 1029 697.18 1029.62 679.05 1071.24 672.13 1071.65"/><polygon class="cls-8" points="692.88 1071.65 716.11 1032.06 734.39 1036.35 714.22 1074.32 692.88 1071.65"/><polygon class="cls-8" points="640.28 1035.89 627.24 1061.42 629.67 1071.65 647.98 1033.86 640.28 1035.89"/><path class="cls-3" d="M739.9,85.43a7.28,7.28,0,0,1-7.3,7.27H640.19a7.28,7.28,0,0,1-7.3-7.27h0a7.28,7.28,0,0,1,7.3-7.26H732.6a7.28,7.28,0,0,1,7.3,7.26Z"/><path class="cls-9" d="M758.77,113c-4.52-9-19.89-28.84-28-30.12-6-1-30.8-.49-43.13-.19-12.82-.3-38.56-.76-44.85.19C634.3,84.15,618.32,104,613.62,113s-7.52,89.73-7.52,89.73H766S763.29,122,758.77,113Z"/><path class="cls-10" d="M686.05,88.85s-32.26-1.46-38.47,2.39-29.92,58-29.92,58l68.39,2.39Z"/><path class="cls-10" d="M686.05,88.85s32.27-1.46,38.47,2.39,29.93,58,29.93,58l-68.4,2.39Z"/><path class="cls-11" d="M755,201.44c0,4.25-4.55,7.69-10.16,7.69H627.25c-5.6,0-10.15-3.44-10.15-7.69V151.8c0-4.24,4.55-7.69,10.15-7.69h117.6c5.61,0,10.16,3.45,10.16,7.69Z"/><path class="cls-3" d="M749.08,207.67c0,4.25-4.22,7.69-9.42,7.69H630.47c-5.2,0-9.42-3.44-9.42-7.69V158c0-4.24,4.22-7.69,9.42-7.69H739.66c5.2,0,9.42,3.45,9.42,7.69Z"/><path class="cls-9" d="M766,191.37c-1.35-16.47-36.61-29.67-79.91-29.67s-78.55,13.2-79.9,29.67h0V292.73H766V191.37Z"/><path class="cls-10" d="M630.81,206h0c1.17-14.35,31.76-25.86,69.32-25.86,22.37,0,42.26,4.08,54.94,10.42-4.75-13-33.67-22.95-68.65-22.95-37.56,0-68.15,11.5-69.32,25.86h0v88.32h13.71Z"/><path class="cls-12" d="M731,247.58c0,4.25-4.54,7.69-10.15,7.69H663.35c-5.61,0-10.15-3.44-10.15-7.69V222c0-4.25,4.54-7.7,10.15-7.7h57.53c5.61,0,10.15,3.45,10.15,7.7Z"/><path class="cls-10" d="M731,244.06c0,4.24-4.54,7.69-10.15,7.69H663.35c-5.61,0-10.15-3.45-10.15-7.69V218.42c0-4.25,4.54-7.69,10.15-7.69h57.53c5.61,0,10.15,3.44,10.15,7.69Z"/><rect class="cls-13" x="585.45" y="293.04" width="199.23" height="506.15"/><rect class="cls-6" x="585.45" y="351.37" width="199.23" height="7.5"/><rect class="cls-6" x="585.45" y="427.89" width="199.23" height="7.5"/><rect class="cls-6" x="585.45" y="504.41" width="199.23" height="7.5"/><rect class="cls-6" x="585.45" y="580.92" width="199.23" height="7.5"/><rect class="cls-6" x="585.45" y="657.44" width="199.23" height="7.5"/><rect class="cls-6" x="585.45" y="733.96" width="199.23" height="7.5"/><polygon class="cls-11" points="620.72 151.15 604.51 144.36 576.06 145.33 576.78 148.89 603.07 147.27 617.48 156.33 620.72 151.15"/><polygon class="cls-11" points="749.09 151.15 765.29 144.36 793.74 145.33 793.02 148.89 766.73 147.27 752.33 156.33 749.09 151.15"/></g></g></svg>