<svg id="Layer_1" data-name="Layer 1" xmlns="http://www.w3.org/2000/svg" viewBox="0 0 1675.05 359.49"><defs><style>.cls-1{fill:#2d2f44;}.cls-2{fill:#dd5e5c;}.cls-3{fill:#faf5ac;}.cls-4{fill:#56c4c0;}</style></defs><path class="cls-1" d="M95.15,141.52h31.44c4.26,0,5.7-1.82,5.7-5.17v-.18c0-11.14,8.7-19.3,19.85-19.3S172,125,172,136.17v.18c0,3.35,1.54,5.17,5.79,5.17h31.35V104.37h-114Z"/><path class="cls-1" d="M152.14,136a19.61,19.61,0,0,0-19.85,19.84v78.46H172V155.83A19.61,19.61,0,0,0,152.14,136Z"/><path class="cls-1" d="M253.6,149.13A36.08,36.08,0,0,0,248,164c-1.36,8.16-5.79,13-12.86,13a12.75,12.75,0,0,1-12.78-13c0-7.79,6.35-12.86,13.59-12.86h6.44a5,5,0,0,0,5.25-5.16V137.8h-32.7v96.49h38.23v-39.5c0-15.22,11.68-22.47,22.1-22.47a32.48,32.48,0,0,1,8.7,1.09V136.9a23.78,23.78,0,0,0-5.35-.55C267.82,136.35,259,141,253.6,149.13Z"/><path class="cls-1" d="M391.3,230.75c-2.62-2-3.71-11.14-3.71-18.39V173.77c0-23.56-15.4-38.6-47.2-38.6-29.62,0-48.2,13.59-49.1,34h39.32C330.79,163.08,334.5,159,341,159c5.35,0,8.52,3.08,8.52,7.52,0,5.07-3.17,7.43-11.14,8.43l-18.21,2.35c-19.84,2.54-31.35,10.78-31.35,29.54s13.41,30.07,31.89,30.07c14.59,0,24.19-6.52,29.44-15.13a82.08,82.08,0,0,0,1.73,12.51h39.4Zm-28.8-36.69h-5.17c-3.89,0-5.53.91-6.52,4.44l-.55,2c-2,7.25-6.52,11.15-12.95,11.15-5.62,0-9.51-3.17-9.51-8.52,0-6,4.26-8.79,10.23-10.06l4-.81,3.08-.63c3.9-.82,5-3.18,5-6.89v-3.17a12.42,12.42,0,1,1,12.42,12.5Z"/><path class="cls-1" d="M496.66,175.31c0-7.43,3.36-12.23,10.24-12.23,5.89,0,8.7,3.89,8.7,10v61.25h38.23V170.42c0-21.11-11.51-35.25-31.71-35.25-19.48,0-29.17,10.6-32,28.81-1.27,8.16-5.89,13-12.95,13a12.58,12.58,0,0,1-12.78-13c0-7.43,5.89-12.86,13.5-12.86h7.61a4.88,4.88,0,0,0,5.26-5.16V137.8H458.43v96.49h38.23Z"/><path class="cls-1" d="M720.07,234.29V170.42c0-21.11-11.51-35.25-31.71-35.25-19.48,0-29.17,10.6-32,28.81-1.27,8.16-5.89,13-13,13a12.58,12.58,0,0,1-12.78-13c0-7.43,5.89-12.86,13.5-12.86h7.61A4.88,4.88,0,0,0,657,146V137.8H624.67v96.49H662.9v-59c0-7.43,3.36-12.23,10.24-12.23,5.89,0,8.7,3.89,8.7,10v61.25Z"/><path class="cls-1" d="M771.35,229.48c9.42,0,16.57-2.8,21.2-8.15a26,26,0,0,0,5.34-12.05c1.27-7.25,6.16-12.5,13.41-12.5,7.61,0,12.77,5.44,12.77,13s-6.16,12.78-13.77,12.78h-7.79a4.72,4.72,0,0,0-4.62,5v6.71c0,7.42-4.08,12-11.87,12-7.06,0-11.87-3.89-12.23-10.59H734.66c.36,21.92,16.3,35.51,51.72,35.51,30.26,0,50.47-13.23,50.47-40.68V137.8h-38.6V151c-5.16-10.15-14-15.86-26.72-15.86-23.92,0-39,19.48-39,47.57S747.61,229.48,771.35,229.48Zm13.95-66.86c8.33,0,13,7.43,13,19.75S793.63,202,785.3,202s-13-7.43-13-19.66S777,162.62,785.3,162.62Z"/><path class="cls-1" d="M422.72,153.57a19.18,19.18,0,1,0-19.18-19.18A19.18,19.18,0,0,0,422.72,153.57Z"/><path class="cls-1" d="M422.72,171a19.18,19.18,0,0,1-19.18-19.18v82.45H441.9V151.84A19.17,19.17,0,0,1,422.72,171Z"/><path class="cls-1" d="M588.33,153.74a19.19,19.19,0,1,0-19.18-19.18A19.18,19.18,0,0,0,588.33,153.74Z"/><path class="cls-1" d="M588.33,171.19A19.18,19.18,0,0,1,569.15,152v82.44h38.36V152A19.18,19.18,0,0,1,588.33,171.19Z"/><path class="cls-2" d="M886.59,148a19.18,19.18,0,1,0-19.18-19.18A19.18,19.18,0,0,0,886.59,148Z"/><path class="cls-3" d="M886.59,200.72a19.18,19.18,0,1,0-19.18-19.18A19.18,19.18,0,0,0,886.59,200.72Z"/><path class="cls-4" d="M886.59,253.5a19.18,19.18,0,1,0-19.18-19.18A19.18,19.18,0,0,0,886.59,253.5Z"/><path class="cls-1" d="M1060.09,187.16c-.81,4.58-.54,6.65,2.16,9.43l4.31,4.58a14.55,14.55,0,0,1,4.12,10.14,14.18,14.18,0,0,1-28.36,0,14.47,14.47,0,0,1,4-10.14l4.31-4.58c2.87-3.23,2.87-5,2.06-9.6l-10-66.61H996.9L985.41,187c-.81,4.57-.81,6.37,2.06,9.6l4.31,4.58a14.47,14.47,0,0,1,4,10.14,14.18,14.18,0,0,1-28.36,0,14.52,14.52,0,0,1,4.13-10.14l4.3-4.58c2.88-3.05,2.79-4.76,2.16-9.43l-9.43-66.78h-39.4L955.7,249.1h46.76l13.2-70.73c.72-3.77.18-5.48-2.42-8.35l-4.4-4.67a14.94,14.94,0,0,1-4-10.23,14.18,14.18,0,0,1,28.36,0,14.73,14.73,0,0,1-4,10.14l-4.48,4.76c-2.43,2.6-2.79,4.67-2.34,8.44l10.5,70.64h48.48l26.66-128.72h-37.7Z"/><path class="cls-1" d="M1277.33,150.9c-30,0-52.24,17.41-52.24,50.63,0,33.39,20.2,50.18,52.24,50.18,28.1,0,46.5-11.76,49.64-34h-37.88c-.9,6.1-4.67,9.78-11.58,9.78-7.9,0-12-5.57-12.47-12-.18-2.51-1.53-3.86-4-3.86h-2.61c-7.18,0-12.65-4.58-12.65-11.76s5.47-11.76,12.65-11.76h2c3,0,4-1.07,4.67-3.68,1.43-6.46,5.65-10.5,12.47-10.5s11.85,4,11.94,14.9h-15.08c-7.18,0-11.94,4.22-11.94,11s4.76,11,11.94,11h52.78c.18-3.14.18-6.82.18-10.5C1327.33,168.23,1306,150.9,1277.33,150.9Z"/><path class="cls-1" d="M1389.09,150.9c-30,0-52.24,17.41-52.24,50.63,0,33.39,20.2,50.18,52.24,50.18,28.1,0,46.5-11.76,49.64-34h-37.88c-.89,6.1-4.67,9.78-11.58,9.78-7.9,0-12-5.57-12.47-12-.18-2.51-1.53-3.86-4-3.86h-2.61c-7.18,0-12.65-4.58-12.65-11.76s5.47-11.76,12.65-11.76h2c3,0,4-1.07,4.67-3.68,1.43-6.46,5.65-10.5,12.47-10.5s11.85,4,11.94,14.9h-15.08c-7.18,0-11.94,4.22-11.94,11s4.76,11,11.94,11h52.78c.18-3.14.18-6.82.18-10.5C1439.09,168.23,1417.73,150.9,1389.09,150.9Z"/><rect class="cls-1" x="1452.38" y="120.38" width="37.88" height="128.72"/><path class="cls-1" d="M1568.54,188.78l-18.4-3.5c-5.48-1.08-7.9-2.87-7.9-6.19,0-3.86,3.32-6.47,8.26-6.47,5.92,0,8.7,3.32,8.7,9h39.14c-1.08-16.52-15.62-30.7-46.95-30.7-30.25,0-47.39,13.29-47.39,33.12,0,15.62,9.24,25.23,31.33,29.45l18.49,3.5c5.2,1,7.9,2.33,7.9,6.19s-2.88,6.46-8.8,6.46c-6.64,0-10.5-3.86-10.5-9.78h-39.86c.9,20.47,19.84,31.87,49.82,31.87,26.84,0,47.76-10.15,47.76-33.13C1600.14,202.78,1592.24,193.27,1568.54,188.78Zm-16.34,22.08a10.1,10.1,0,1,1,10.15-10.14A9.86,9.86,0,0,1,1552.2,210.86Z"/><path class="cls-1" d="M1183.08,155.36c-18.23,0-28.28,10.58-32.32,27.37-1.88,7.74-6.46,12.3-13.46,12.3-7.36,0-12.66-5.42-12.66-12.3,0-7.06,5.83-12.23,13.37-12.23h7.54c5.39,0,8.62-3.26,8.62-8.6v-27h0V124.4h-35.87v1.7l-.26,123.41h38.37v-56c0-7,3.68-11.62,10.14-11.62,5.83,0,8.62,3.71,8.62,9.47v58.18h37.88V188.32C1213.06,168.27,1202.2,155.36,1183.08,155.36Z"/></svg>