<?xml version="1.0" encoding="utf-8"?>
<!-- Generator: Adobe Illustrator 26.0.3, SVG Export Plug-In . SVG Version: 6.00 Build 0)  -->
<svg version="1.1" id="Layer_1" xmlns="http://www.w3.org/2000/svg" xmlns:xlink="http://www.w3.org/1999/xlink" x="0px" y="0px"
	 viewBox="0 0 1164.5 435.1" style="enable-background:new 0 0 1164.5 435.1;" xml:space="preserve">
<style type="text/css">
	.st0{fill:#252131;}
	.st1{fill:#DD5E5C;}
	.st2{fill:#FAF5AC;}
	.st3{fill:#56C4C0;}
</style>
<path class="st0" d="M0,106.4h37c5,0,6.7-2.1,6.7-6.1v-0.2C43.7,87,53.9,77.4,67,77.4s23.3,9.6,23.3,22.7v0.2c0,4,1.8,6.1,6.8,6.1
	h36.9V62.7H0V106.4z"/>
<path class="st0" d="M67,99.9c-12.7-0.2-23.2,10-23.4,22.8c0,0,0,0,0,0v92.9h46.7v-92.3c0.2-12.7-10-23.2-22.8-23.3c0,0,0,0,0,0H67z
	"/>
<path class="st0" d="M186.4,115.3c-3.5,5.3-5.7,11.2-6.6,17.5c-1.6,9.6-6.8,15.2-15.1,15.2c-8.3,0-15-6.7-15-15l0,0v-0.2
	c0-9.2,7.5-15.1,16-15.1h7.6c3.2,0.2,6-2.3,6.2-5.5c0-0.2,0-0.4,0-0.6V102h-38.5v113.5h45v-46.5c0-17.9,13.7-26.4,26-26.4
	c3.5,0,6.9,0.4,10.2,1.3v-43c-2.1-0.4-4.2-0.7-6.3-0.6C203.1,100.3,192.8,105.8,186.4,115.3z"/>
<path class="st0" d="M348.4,211.4c-3.1-2.3-4.4-13.1-4.4-21.6v-45.4c0-27.7-18.1-45.4-55.5-45.4c-34.9,0-56.7,16-57.8,40H277
	c0.2-7.1,4.6-11.9,12.2-11.9c6.3,0,10,3.6,10,8.8c0,6-3.7,8.7-13.1,9.9l-21.4,2.8c-23.3,3-36.9,12.7-36.9,34.8s15.8,35.4,37.5,35.4
	c17.2,0,28.5-7.7,34.6-17.8c0.3,4.9,0.9,9.9,2,14.7h46.4L348.4,211.4z M314.5,168.2h-6.1c-4.6,0-6.5,1.1-7.7,5.2l-0.6,2.4
	c-2.3,8.5-7.7,13.1-15.2,13.1c-6.6,0-11.2-3.7-11.2-10c0-7,5-10.3,12-11.8l4.7-1l3.6-0.8c4.6-1,5.9-3.7,5.9-8.1v-3.7
	c0.1-8.1,6.7-14.5,14.7-14.5c8.1,0.1,14.5,6.7,14.5,14.7C329,161.7,322.5,168.2,314.5,168.2z"/>
<path class="st0" d="M472.3,146.2c0-8.7,3.9-14.4,12-14.4c6.9,0,10.2,4.6,10.2,11.7v72h45v-75.1c0-24.8-13.5-41.5-37.3-41.5
	c-22.9,0-34.3,12.5-37.6,33.9c-1.5,9.6-6.9,15.2-15.2,15.2c-8.7,0-15-6.7-15-15.2c0-8.7,6.9-15.1,15.9-15.1h9c3.7,0,6.2-2.3,6.2-6.1
	V102h-38v113.5h45L472.3,146.2z"/>
<path class="st0" d="M735.2,215.5v-75.1c0-24.8-13.5-41.5-37.3-41.5c-22.9,0-34.3,12.5-37.6,33.9c-1.5,9.6-6.9,15.2-15.2,15.2
	c-8.7,0-15-6.7-15-15.2c0-8.7,6.9-15.1,15.9-15.1h9c3.7,0,6.2-2.3,6.2-6.1V102h-38.1v113.5h45v-69.4c0-8.7,3.9-14.4,12-14.4
	c6.9,0,10.2,4.6,10.2,11.7v72L735.2,215.5z"/>
<path class="st0" d="M795.5,209.9c11.1,0,19.5-3.3,24.9-9.6c3.3-4.1,5.4-9,6.3-14.2c1.5-8.5,7.2-14.7,15.8-14.7c9,0,15,6.4,15,15.4
	c0,9-7.2,15-16.2,15h-9.2c-3.1,0.1-5.5,2.6-5.5,5.7c0,0.1,0,0.1,0,0.2v7.9c0,8.7-4.8,14.2-14,14.2c-8.3,0-14-4.6-14.4-12.5h-46
	c0.4,25.8,19.2,41.8,60.9,41.8c35.6,0,59.4-15.6,59.4-47.9V102h-45.4v15.6c-6-11.9-16.5-18.7-31.5-18.7c-28.1,0-45.8,22.9-45.8,56
	S767.6,209.9,795.5,209.9z M811.9,131.2c9.8,0,15.2,8.7,15.2,23.2s-5.4,23.1-15.2,23.1s-15.3-8.7-15.3-23.1
	C796.5,140.1,802.1,131.2,811.9,131.2z"/>
<path class="st0" d="M558.3,174.3L558.3,174.3v39.4c0.9-12.4,11.7-21.8,24.1-20.9c11.2,0.8,20,9.7,20.9,20.9v-39.4h0.1v-92h37.7
	L580.8,0l-60.3,82.2h37.8V174.3z M580.8,35.4c9.4,0.1,17,7.8,16.9,17.3c0,9.5-7.7,17.4-16.9,17.4S564,62.2,564,52.7
	C563.9,43.3,571.4,35.5,580.8,35.4z"/>
<path class="st0" d="M485,356.9c-1,5.8-0.7,8.4,2.7,11.9l5.4,5.8c3.3,3.4,5.2,8,5.2,12.8c0.3,9.9-7.5,18.1-17.4,18.3
	s-18.1-7.5-18.3-17.4c0,0,0-0.1,0-0.1c0-0.3,0-0.6,0-0.8c0-4.8,1.8-9.3,5.1-12.8l5.4-5.8c3.6-4.1,3.6-6.3,2.6-12.1l-12.7-83.8h-57.6
	L391,356.6c-1,5.8-1,8,2.6,12.1l5.4,5.8c3.3,3.4,5.1,8,5.1,12.8c0.3,9.9-7.5,18.1-17.4,18.3c-9.9,0.3-18.1-7.5-18.3-17.4
	c0,0,0-0.1,0-0.1c0-0.3,0-0.6,0-0.8c0-4.8,1.9-9.3,5.2-12.8l5.4-5.8c3.6-3.8,3.5-6,2.7-11.9l-11.9-84h-49.6l33.3,162h58.8l16.6-89
	c0.9-4.7,0.2-6.9-3-10.5l-5.5-5.9c-3.3-3.5-5.1-8.1-5.1-12.9c-0.3-9.9,7.5-18.1,17.4-18.3c9.9-0.3,18.1,7.5,18.3,17.4
	c0,0,0,0.1,0,0.1c0,0.3,0,0.6,0,0.8c0,4.7-1.8,9.3-5.1,12.8l-5.6,6c-3,3.3-3.5,5.9-2.9,10.6l13.2,88.8h61l33.5-162h-47.4L485,356.9z
	"/>
<path class="st0" d="M639.7,311.2c-22.9,0-35.6,13.9-40.7,35.9c-2.4,10.2-8.1,16.1-16.9,16.1c-9.3,0-15.9-7.1-15.9-16.1
	c0-9.3,7.3-16,16.8-16h9.5c6.8,0,10.8-4.3,10.8-11.3v-35.5l0,0v-46.8l0,0c-0.3-12.5-10.6-22.3-23-22.1c-12.1,0.3-21.8,10-22.1,22.1
	l0,0v35.3l-0.3,162h48.3v-73.6c0-9.3,4.6-15.2,12.8-15.2c7.3,0,10.8,4.9,10.8,12.4v76.4h47.7v-80.3
	C677.5,328.2,663.8,311.2,639.7,311.2z"/>
<path class="st0" d="M758.3,308.2c-37.7,0-65.7,21.9-65.7,63.7c0,42,25.4,63.1,65.7,63.1c35.3,0,58.5-14.8,62.5-42.8h-47.7
	c-1.1,7.7-5.9,12.3-14.6,12.3c-9.9,0-15.1-7-15.7-15.1c-0.2-3.2-1.9-4.9-5.1-4.9h-3.3c-9,0-15.9-5.8-15.9-14.8s6.9-14.8,15.9-14.8
	h2.5c3.7,0,5.1-1.4,5.9-4.6c1.8-8.1,7.1-13.2,15.7-13.2s14.9,5,15,18.8h-18.9c-9,0-15,5.3-15,13.9s6,13.9,15,13.9h66.4
	c0.2-4,0.2-8.6,0.2-13.2C821.2,330,794.4,308.2,758.3,308.2z"/>
<path class="st0" d="M899,308.2c-37.7,0-65.7,21.9-65.7,63.7c0,42,25.4,63.1,65.7,63.1c35.3,0,58.5-14.8,62.5-42.8h-47.7
	c-1.1,7.7-5.9,12.3-14.6,12.3c-9.9,0-15.1-7-15.7-15.1c-0.2-3.2-1.9-4.9-5.1-4.9h-3.3c-9,0-15.9-5.8-15.9-14.8s6.9-14.8,15.9-14.8
	h2.5c3.7,0,5.1-1.4,5.9-4.6c1.8-8.1,7.1-13.2,15.7-13.2s14.9,5,15,18.8h-19c-9,0-15,5.3-15,13.9s6,13.9,15,13.9h66.4
	c0.2-4,0.2-8.6,0.2-13.2C961.9,330,935,308.2,899,308.2z"/>
<rect x="978.6" y="272.9" class="st0" width="47.7" height="162"/>
<path class="st0" d="M1124.7,355.9l-23.2-4.4c-6.9-1.4-9.9-3.6-9.9-7.8c0-4.9,4.2-8.1,10.4-8.1c7.4,0,10.9,4.2,10.9,11.3h49.2
	c-1.4-20.8-19.7-38.6-59.1-38.6c-38.1,0-59.6,16.7-59.6,41.7c0,19.6,11.6,31.7,39.4,37l23.3,4.4c6.6,1.2,9.9,2.9,9.9,7.8
	s-3.6,8.1-11.1,8.1c-8.4,0-13.2-4.9-13.2-12.3h-50.1c1.1,25.8,25,40.1,62.7,40.1c33.8,0,60.1-12.8,60.1-41.7
	C1164.5,373.5,1154.6,361.6,1124.7,355.9z M1104.2,383.7c-7,0-12.7-5.7-12.7-12.8c0-7,5.7-12.7,12.8-12.7c7,0,12.6,5.7,12.7,12.6
	c0.2,6.8-5.2,12.5-12,12.8H1104.2z"/>
<path class="st0" d="M385.4,120.6c12.5,0,22.6-10.1,22.6-22.6c0-12.5-10.1-22.6-22.6-22.6c-12.5,0-22.6,10.1-22.6,22.6
	C362.8,110.5,372.9,120.6,385.4,120.6C385.3,120.6,385.4,120.6,385.4,120.6z"/>
<path class="st0" d="M385.4,141.1c-12.5,0-22.6-10.1-22.6-22.5v0v97h45.1v-97C407.9,131,397.8,141.1,385.4,141.1L385.4,141.1z"/>
<circle class="st1" cx="581.1" cy="52.3" r="17.7"/>
<circle class="st2" cx="580.9" cy="106.9" r="17.7"/>
<circle class="st3" cx="581.1" cy="161.4" r="17.7"/>
</svg>
