<?xml version="1.0" encoding="utf-8"?>
<!-- Generator: Adobe Illustrator 26.0.3, SVG Export Plug-In . SVG Version: 6.00 Build 0)  -->
<svg version="1.1" id="Layer_1" xmlns="http://www.w3.org/2000/svg" xmlns:xlink="http://www.w3.org/1999/xlink" x="0px" y="0px"
	 viewBox="0 0 829.2 440.9" style="enable-background:new 0 0 829.2 440.9;" xml:space="preserve">
<style type="text/css">
	.st0{fill:#2D2F44;}
	.st1{fill:#47A8A5;}
	.st2{fill:#EDE99E;}
	.st3{fill:#C95655;}
</style>
<g id="Layer_2_00000003084089934040673930000002496004305597821838_">
	<g id="Layer_1-2">
		<path class="st0" d="M704.6,0.1L671,228.8c-2.7,15.7-1.8,22.8,7.1,32.3l14.2,15.7c8.8,9.4,13.7,21.8,13.6,34.7
			c0,26.7-20.8,48.6-46.9,48.6s-46.9-21.8-46.9-48.6c-0.1-12.9,4.6-25.3,13.3-34.7l14.2-15.7c9.5-11.1,9.5-17.2,6.8-32.9L613.5,0.1
			H462.1l-38,228.1c-2.7,15.7-2.7,21.8,6.8,32.9l14.2,15.7c8.7,9.5,13.5,21.9,13.4,34.7c0,26.7-20.8,48.6-46.9,48.6
			s-46.9-21.8-46.9-48.6c0-12.9,4.9-25.3,13.6-34.7l14.2-15.7c9.5-10.4,9.2-16.3,7.1-32.3l-11.4-83.9H292
			c-11.3,0-20.4,9.1-20.4,20.4c0,1.3,0.1,2.6,0.4,3.9l54,271.6h154.5l43.6-242.2c2.4-12.9,0.6-18.8-8-28.6l-14.5-16
			c-8.6-9.6-13.4-22.1-13.4-35.1c0-27,21.1-48.6,46.9-48.6S582,92,582,119.1c0,12.8-4.7,25.2-13.3,34.7l-14.8,16.3
			c-8,8.9-9.2,16-7.7,28.9l34.7,241.9H741L829.2,0.1H704.6z"/>
		<path class="st0" d="M192.5,108.8c-37.7,0-67,29.4-67,67v265.1h134V175.8C259.6,138.2,230.2,108.8,192.5,108.8z"/>
		<path class="st0" d="M385.1,125.5V0H0v125.5h106.2c14.4,0,19.3-6.1,19.3-17.4v-0.6c0-37.7,29.4-65.2,67-65.2s67,27.6,67,65.2v0.6
			c0,11.3,5.2,17.4,19.6,17.4H385.1z"/>
		<circle class="st1" cx="659.3" cy="312.2" r="48.4"/>
		<circle class="st2" cx="535.2" cy="117.5" r="48.4"/>
		<circle class="st3" cx="411.5" cy="311.6" r="48.4"/>
	</g>
</g>
</svg>
