<svg width="350" height="76" viewBox="0 0 350 76" fill="none" xmlns="http://www.w3.org/2000/svg">
<path d="M3.96875 63H34V53H18.5C17.4375 53 16.8438 53.6875 16.8438 54.6875V55.2812C16.8438 57.7812 14.8125 59.7812 12.3125 59.7812C9.8125 59.7812 7.8125 57.7812 7.8125 55.2812C7.8125 52.7812 9.8125 50.75 12.3125 50.75H13.9688C15.0625 50.75 15.7188 50.0938 15.7188 49.0625V18.1875H3.96875V63ZM53.8438 63.9062C64.1875 63.9062 71 57.2188 71 46.4375C71 35.625 64.1875 28.9688 53.8438 28.9688C43.4688 28.9688 36.625 35.625 36.625 46.4375C36.625 57.2188 43.4688 63.9062 53.8438 63.9062ZM38.6562 46.4375C38.6562 44.2812 40.4062 42.5 42.5625 42.5C44.7188 42.5 46.5312 44.2812 46.5312 46.4375C46.5312 48.5938 44.7188 50.375 42.5625 50.375C40.4062 50.375 38.6562 48.5938 38.6562 46.4375ZM48.2188 46.4375C48.2188 40.2812 50.375 37.4062 53.8438 37.4062C57.2812 37.4062 59.4062 40.2188 59.4062 46.4375C59.4062 52.625 57.2812 55.4688 53.8438 55.4688C50.375 55.4688 48.2188 52.5625 48.2188 46.4375ZM61.1562 46.4375C61.1562 44.2812 62.9062 42.5 65.0625 42.5C67.25 42.5 69 44.2812 69 46.4375C69 48.5938 67.25 50.375 65.0625 50.375C62.9062 50.375 61.1562 48.5938 61.1562 46.4375ZM75.2188 75.3438C82.4375 75.3438 87.5625 72.75 87.5625 63.9688V29.875H76.2188V63.625C76.2188 66 74.7812 66.8438 72.5312 66.8438C71.625 66.8438 70.8125 66.7188 70.25 66.5938V74.8125C71.6562 75.1562 73.5625 75.3438 75.2188 75.3438ZM76.0625 26.625H87.6875V17.4688H76.0625V26.625ZM103.562 63.9062C108.531 63.9062 111.969 61.6875 113.812 58.7188C113.938 60.375 114.156 61.7812 114.438 63H126.156V61.8438C125.25 61.1562 124.875 58 124.875 55.4375V41.9062C124.875 33.9375 119.75 28.9688 109.562 28.9688C99.9375 28.9688 93.8125 33.6562 93.5312 40.5H105.219C105.312 38 107 36.375 109.75 36.375C112.25 36.375 113.562 37.8125 113.562 39.5625C113.562 41.4688 112.375 42.25 109.375 42.6562L103.375 43.4688C96.6875 44.375 92.6875 47.2812 92.6875 53.7188C92.6875 60.0625 97.3125 63.9062 103.562 63.9062ZM104.25 52.6875C104.25 50.4375 105.844 49.3438 108.438 48.8125L110.438 48.4062C110.844 48.3125 111.25 48.2188 111.656 48.1562C113.031 47.875 113.5 47.125 113.5 45.875V44.9062C113.5 42.7188 115.188 41.125 117.312 41.125C119.438 41.125 121.125 42.7188 121.125 44.9062C121.125 47.125 119.406 48.75 117.312 48.75H115.969C114.781 48.75 114.156 49.1562 113.938 50.25L113.812 50.8438C113.219 54 111.344 56.0625 108.188 56.0625C105.906 56.0625 104.25 54.8125 104.25 52.6875Z" fill="#2D2F44"/>
<circle cx="11.75" cy="55.75" r="4.75" fill="#DD5E5C"/>
<circle cx="65.5" cy="46.5" r="4.5" fill="#FAF5AC"/>
<circle cx="117.5" cy="44.5" r="4.5" fill="#56C4C0"/>
</svg>
