<svg id="Layer_1" data-name="Layer 1" xmlns="http://www.w3.org/2000/svg" viewBox="0 0 500 500"><defs><style>.cls-1{fill:#fff8f8;}.cls-2{fill:#a05555;}.cls-3{stroke:#000;}.cls-3,.cls-8{stroke-miterlimit:10;}.cls-4{fill:#7c4140;}.cls-5{fill:#faf5ac;}.cls-6{fill:#fff;}.cls-7{fill:#4e3f63;}.cls-8{fill:#3f2114;stroke:#3f2114;stroke-width:2px;}.cls-9{opacity:0.6;}.cls-10{fill:#661010;}.cls-11,.cls-12{opacity:0.66;}.cls-12{fill:#872d2d;}.cls-13{opacity:0.5;}</style></defs><rect class="cls-1" x="-632.23" y="-48.57" width="639.38" height="639.38"/><rect class="cls-1" width="500" height="500"/><rect class="cls-1" x="-96.17" y="-48.57" width="639.38" height="639.38"/><ellipse class="cls-2" cx="172.12" cy="248.72" rx="13.39" ry="12.79"/><ellipse class="cls-2" cx="344.48" cy="248.72" rx="13.39" ry="12.79"/><ellipse class="cls-3" cx="259.06" cy="197.66" rx="100.72" ry="100.92"/><path class="cls-2" d="M167.33,180.59c8.86-91,82.81-85.88,89.78-85.2,7-.68,80.92-5.78,89.78,85.2,8.92,91.52-34.66,151.3-89.78,148C202,331.89,158.42,272.11,167.33,180.59Z"/><path class="cls-4" d="M251.58,240a8.35,8.35,0,0,0,15.12-1.71,1.5,1.5,0,0,0-2.89-.8,5.49,5.49,0,0,1-1.76,2.43A5.7,5.7,0,0,1,259.5,241a5.49,5.49,0,0,1-5.33-2.55c-1-1.64-3.61-.14-2.59,1.51Z"/><rect class="cls-2" x="332.2" y="428.94" width="24.56" height="170.53"/><path class="cls-5" d="M321.82,447.49l43.72-3.75-4.64-54.17c-1.32-15.32-12.17-26.9-24.24-25.86h0c-12.07,1-20.79,14.29-19.48,29.61Z"/><path class="cls-5" d="M332.78,588.85s-16.09,17-40.12,19.2c-52.93,4.87-117.23-4.56-117.23-4.56l11.31-191.24A89.13,89.13,0,0,1,211.1,356.4c.7-.72,1.68-1.39,2.34-2.07a69.63,69.63,0,0,1,6.29-5.49,75.85,75.85,0,0,1,16.07-9.71c1.27-.56,2.48-1.08,3.74-1.56A70.3,70.3,0,0,1,269,333a55.85,55.85,0,0,1,31.83,12.5c1,.78,1.95,1.6,2.86,2.46a68.91,68.91,0,0,1,9.11,9.84,85.38,85.38,0,0,1,5.54,8c11.38,18.51,17.1,42.42,15.74,65.52l-.9,31.42-.8,29.85-1,33.91Z"/><ellipse class="cls-5" cx="262.73" cy="384.47" rx="96.56" ry="49.33"/><path class="cls-6" d="M294.91,338.51c.39,17.23-11.47,35.27-28.21,36.61C249.26,376.51,234,363,232.51,344.9c-.06-.7-.06-3.52-.08-4.22,8.84-4.67,18.72-5.51,29.26-6.36C274,333.33,282.52,333.92,294.91,338.51Z"/><path class="cls-2" d="M247,311.2l-1.3,33.57c-.31,8,4.2,14,12.29,14.3h.09c8.11.32,17.86-5.11,18.17-13.12l1.3-33.57Z"/><path class="cls-7" d="M335.41,445.33c-.34-11.71-.37-23.42-.8-35.13-.12-3.27-.27-6.54-.47-9.81a1.5,1.5,0,0,0-3,0c.7,11.57.81,23.17,1,34.76.07,3.39.14,6.79.24,10.18.06,1.93,3.06,1.94,3,0Z"/><path class="cls-7" d="M185.77,448.88c.34-9.23.38-18.47.8-27.7q.18-3.89.47-7.76a1.51,1.51,0,0,0-1.5-1.5,1.53,1.53,0,0,0-1.5,1.5c-.69,9.11-.81,18.26-1,27.39-.07,2.69-.14,5.38-.24,8.07-.07,1.93,2.93,1.92,3,0Z"/><ellipse class="cls-8" cx="220.07" cy="216.24" rx="12.34" ry="7.6" transform="translate(-19.75 410.36) rotate(-83.49)"/><ellipse class="cls-8" cx="294.33" cy="218.15" rx="12.34" ry="7.6" transform="translate(44.2 485.83) rotate(-83.49)"/><g class="cls-9"><path class="cls-10" d="M284.06,258.91l0,.29c0,.33,0-.29,0,0s0,.39-.08.58q-.1.66-.24,1.32c-.17.83-.37,1.66-.6,2.48s-.48,1.59-.77,2.37c-.14.37-.28.74-.43,1.11.12-.31,0,.08-.09.19s-.19.44-.29.65a29.06,29.06,0,0,1-2.37,4.13c-.21.31-.43.62-.65.92l-.16.2h0l-.38.46c-.48.59-1,1.15-1.53,1.69s-1.08,1-1.65,1.53l-.45.36c-.11.1-.39.3-.11.1-.31.22-.61.45-.93.66a19.8,19.8,0,0,1-1.86,1.15q-.46.25-.93.48l-.44.21c-.12.06-.66.29-.26.12a19,19,0,0,1-9.91,1.35s-.34,0-.13,0l-.31-.05-.66-.12c-.45-.09-.91-.19-1.35-.3a25.1,25.1,0,0,1-2.42-.75c-.38-.13-.75-.29-1.12-.43.37.14.1,0-.09,0l-.47-.22c-.5-.23-1-.47-1.47-.73a2,2,0,1,0-2,3.45c6.09,3.28,13.42,4.46,20,2.09A27,27,0,0,0,284.45,271a34.81,34.81,0,0,0,3.61-12.09,2,2,0,0,0-2-2,2.05,2.05,0,0,0-2,2Z"/></g><rect class="cls-2" x="168.81" y="427.6" width="24.56" height="170.53" transform="translate(362.17 1025.73) rotate(-180)"/><path class="cls-5" d="M203.74,446.15,160,442.41l4.65-54.17c1.31-15.32,12.16-26.9,24.23-25.87h0c12.07,1,20.8,14.3,19.48,29.62Z"/><path class="cls-7" d="M193.15,444c.34-11.71.37-23.42.8-35.13.12-3.27.27-6.54.47-9.81a1.51,1.51,0,0,0-1.5-1.5,1.53,1.53,0,0,0-1.5,1.5c-.7,11.57-.81,23.17-1,34.76-.07,3.39-.14,6.79-.24,10.18-.06,1.93,2.94,1.93,3,0Z"/><g class="cls-11"><path class="cls-12" d="M218.32,244.71a15,15,0,0,1-7.76,19.81,15.23,15.23,0,0,1-20-7.59,15,15,0,0,1,7.77-19.8A15.22,15.22,0,0,1,218.32,244.71Z"/><path class="cls-12" d="M326.85,244.71a15,15,0,0,1-7.76,19.81,15.22,15.22,0,0,1-20-7.59,15,15,0,0,1,7.76-19.8A15.21,15.21,0,0,1,326.85,244.71Z"/></g><g class="cls-13"><path d="M315.09,147.93c-7.77,6.89-6.89,11.14-12.79,15.91-6.33,5.11-14,6.16-19.22,5.94-12.17-.52-24-9.57-35.46-5.63-6.87,2.36-11.14,8.71-16.13,13.8a54.51,54.51,0,0,1-74.6,2.4c-10.76-9.64-17-24.9-12.22-38.25,1.17-3.29,3.12-6.54,6.31-8.23,3.4-1.79,7.58-1.51,11.23-2.78,8.44-3,11.35-12.66,16.73-19.53,7.14-9.1,16.81-14.82,28-18.59,6.57-2.21,15.54-3,22.51-2.93,9.11,0,17.71,3.9,26.73,5.16,8.72,1.21,17.59-.06,26.4-.3,10.76-.3,21.8,1,31.39,5.68,3.19,1.55,19.64,10,19.72,23,0,7.9-5.92,14.43-7.29,15.93C322.35,144,320.58,143.07,315.09,147.93Z"/><path d="M310.85,143.69a43.06,43.06,0,0,0-6.85,8c-1.45,2.23-2.55,4.66-4.46,6.55-5.2,5.16-13.47,6.44-20.4,5-7.6-1.61-14.67-5.12-22.47-5.9a26.19,26.19,0,0,0-20,6.53c-5.5,4.65-9.47,10.76-15.4,15a49.93,49.93,0,0,1-21.88,8.72C184,189.67,167,183.89,157,171.82c-4.41-5.31-7.63-12.14-7.87-19.11a21.88,21.88,0,0,1,1.68-9.69c2-4.45,5.53-4.51,9.82-5.35,15.06-3,18.21-18.89,28.42-28.07,11.53-10.37,28.81-15.12,44.11-13.36,8.79,1,17,4.51,25.92,5.26,9.06.76,18.12-.72,27.19-.64,13.42.12,28.71,3.64,37.83,14.38,4.65,5.48,4.43,11.44.38,17.3-3.47,5-9,7.28-13.58,11.15-5.9,5,2.62,13.46,8.48,8.49,4.88-4.14,10.19-6.54,14.16-11.81,4.71-6.23,7.48-14.08,5.6-21.89-2.85-11.77-14.52-20-25.1-24.43-9.31-3.93-19.51-5.27-29.57-5.19-10.73.1-21.36,1.93-32-.47-10-2.24-19-4.8-29.32-4.17a73.94,73.94,0,0,0-26.58,6.46,59.07,59.07,0,0,0-20.86,15.42c-4.6,5.46-7.25,13.8-13.06,18.06-3.35,2.46-7.93,2-11.75,3.27a18.46,18.46,0,0,0-10.19,8.86c-4,7.35-4.41,16.41-2.53,24.42,8.78,37.3,57.54,48.74,87.25,29.79a60.32,60.32,0,0,0,11.31-9.34c3.06-3.24,5.82-7,9.51-9.58,8.52-5.92,19.41.67,28.15,2.85,9.22,2.31,19.05,1.65,27.45-3.06,8.21-4.61,10.9-13.06,17.5-19.19C325,146.91,316.51,138.44,310.85,143.69Z"/></g><path class="cls-3" d="M313.62,134.86c-11.06,20.18-11.06,32.31-5.19,39.9,7.39,9.58,20.43,13.05,28.77,24.38C350.14,216.72,349,239,349,239s21-29.17,20.58-46.26c-.24-10.19-6.93-19.69-6.93-19.69s2.28-2.53,5.33-6.69c5.46-7.46,3.78-17.27,1.2-23.58-5.06-12.39-23.38-24-47.1-14.26"/><path d="M315.14,143.43c-8,6.89-7.1,11.15-13.17,15.91-6.52,5.13-14.45,6.18-19.78,6-12.52-.51-24.67-9.56-36.47-5.61-7.08,2.37-11.47,8.72-16.61,13.82A57.26,57.26,0,0,1,152.36,176c-11.07-9.63-17.44-24.89-12.55-38.25,1.21-3.29,3.22-6.54,6.5-8.22,3.5-1.8,7.8-1.52,11.56-2.8,8.68-2.94,11.68-12.66,17.22-19.53,7.35-9.1,17.3-14.83,28.86-18.61,6.76-2.22,16-3,23.15-3,9.39,0,18.23,3.9,27.51,5.14,9,1.21,18.09-.07,27.15-.31,11.08-.3,22.43,1,32.29,5.66,3.29,1.54,20.21,10,20.28,23,0,7.9-6.1,14.43-7.52,15.93C322.61,139.51,320.79,138.56,315.14,143.43Z"/><path d="M310.89,139.19a43.85,43.85,0,0,0-7.33,8.52c-1.5,2.27-2.67,4.69-4.77,6.5-5.26,4.54-13,5.89-19.68,4.76-7.83-1.32-15.06-4.95-23-5.95a27.22,27.22,0,0,0-21.52,6.39c-5.85,4.85-10.14,11.17-16.55,15.42a52.24,52.24,0,0,1-22.74,8.38c-15.82,1.8-33.19-3.93-43.5-16.37-4.6-5.55-7.76-12.66-7.66-20,0-3.38.73-7.5,2.86-10.25,2.69-3.44,7.79-2.83,11.62-3.94,7.15-2.08,11.8-7.46,15.68-13.53s7.64-11.69,13.56-16.06A62.17,62.17,0,0,1,232.46,92c8.78,1.32,17.07,4.51,26,5.1,9.52.63,19-.93,28.56-.71,13.33.31,28.7,4,37.77,14.65,4.56,5.37,4.21,11.23.18,16.88-3.63,5.08-9.35,7.36-14.08,11.26-6,4.92,2.57,13.37,8.49,8.49,5-4.14,10.43-6.45,14.52-11.77,4.78-6.21,7.69-14,5.8-21.84-2.88-11.93-14.92-20-25.62-24.48-9.08-3.77-19-5.16-28.81-5.21-11.12-.06-22.37,2.08-33.39-.19-9.88-2-19.07-4.93-29.29-4.51a77.31,77.31,0,0,0-26.83,5.53,64.75,64.75,0,0,0-21.9,14.3c-5.45,5.6-8.27,13.27-13.73,18.71-3.25,3.23-7.17,3.27-11.42,4.19A18.47,18.47,0,0,0,137.12,130c-5,7.12-5.81,16.6-4.16,24.94,3.58,18.07,19.06,31.3,35.79,37.15a63.91,63.91,0,0,0,54-6,61.85,61.85,0,0,0,11.61-9.34c3.31-3.4,6.31-7.52,10.42-10,8.86-5.33,19.89,1.2,28.8,3.3,9.21,2.18,18.89,1.53,27.36-2.9,8.65-4.52,11.52-13.22,18.43-19.45C325.13,142.49,316.62,134,310.89,139.19Z"/></svg>