<svg id="Layer_1" data-name="Layer 1" xmlns="http://www.w3.org/2000/svg" viewBox="0 0 500 500"><defs><style>.cls-1{fill:#fff8f8;}.cls-2,.cls-6{fill:#ef7e6b;}.cls-3{fill:#ff6a59;}.cls-4{fill:#f8c7c0;}.cls-5{fill:#ef7f6d;}.cls-6{opacity:0.4;}.cls-14,.cls-7{fill:#f18f82;}.cls-8{fill:#dd5e5c;}.cls-9{fill:#fff;}.cls-10{fill:#4e3f63;}.cls-11{fill:#660;stroke:#660;stroke-miterlimit:10;stroke-width:2px;}.cls-12{opacity:0.6;}.cls-13{fill:#e9524e;}.cls-14{opacity:0.66;}</style></defs><rect class="cls-1" width="500" height="500"/><rect class="cls-1" x="-73.77" y="-48.57" width="639.38" height="639.38"/><ellipse class="cls-2" cx="253.75" cy="350.05" rx="92.52" ry="85.21"/><path class="cls-2" d="M358.41,125.52s7.14,50.86,28.55,84.76c30.88,48.89-8.92,55.32-.89,89.22S455.66,362,382.5,439.58c-47.88,50.8-105.28-48.18-105.28-48.18L261.16,262Z"/><path class="cls-3" d="M334.79,208.26c-7.73-5.78-15.23-11.76-22.57-17.9l-51.06,63.28,16.06,114.23s14.21,21.62,34.38,37.84c5.24-5.81,17.55,21.11,24.51,18.7,23.19-8,65.13-52.64,34.79-86.54C334.67,297.37,378,251.32,334.79,208.26Z"/><path class="cls-4" d="M162.4,183.52c8.86-91,82.8-85.88,89.78-85.19,7-.69,80.92-5.79,89.78,85.19,8.91,91.53-34.67,151.3-89.78,148C197.06,334.82,153.48,275.05,162.4,183.52Z"/><path class="cls-5" d="M215.66,92.51s-33-26.77-58,3.57-18.73,77.62-41.93,107.06-19.63,55.32,8.92,83-80.3,53.53-45.5,122.23,121.34,32.12,127.59-22.3,2.67-66,2.67-66-36.58-28.55-42.82-74,4.46-67.81,24.09-83.87S228.15,131.77,215.66,92.51Z"/><path class="cls-3" d="M95.19,376.27c-7.27-14-8.33-25-5.73-33.89-14.67,16.85-24.59,37.81-10.32,66,34.78,68.65,121.27,32.1,127.51-22.3.14-1.2.27-2.36.4-3.53C179.68,404.17,122,428.1,95.19,376.27Z"/><path class="cls-2" d="M196.48,107.23s8.47,69.15,77.17,82.53L256.7,147.38s5.8,51.3,74.05,48.63c0,0,28.94,7.54,20,34.3,0,0,20.58-16.46,11.21-51.26s12.49-37-22.3-88.33C309,45.48,208.52,40.31,196.48,107.23Z"/><path class="cls-6" d="M191,111.56s8.48,69.15,77.18,82.53l-17-42.38s5.79,51.3,74,48.63c0,0,28.93,7.54,20,34.3,0,0,20.58-16.46,11.22-51.26s12.49-37-22.31-88.33C303.51,49.81,203.05,44.64,191,111.56Z"/><path class="cls-7" d="M246.64,242.93a8.36,8.36,0,0,0,15.13-1.71,1.5,1.5,0,0,0-2.9-.8,5.36,5.36,0,0,1-1.76,2.43,5.65,5.65,0,0,1-2.55,1.12,5.51,5.51,0,0,1-5.33-2.55c-1-1.64-3.61-.14-2.59,1.51Z"/><rect class="cls-4" x="327.26" y="431.87" width="24.56" height="170.53"/><path class="cls-8" d="M316.89,450.42l43.71-3.75L356,392.5c-1.31-15.32-12.16-26.9-24.23-25.86h0c-12.08,1-20.8,14.29-19.48,29.61Z"/><path class="cls-8" d="M327.84,591.78s-16.09,17-40.11,19.2c-52.93,4.88-117.24-4.56-117.24-4.56L181.8,415.18a89.19,89.19,0,0,1,24.37-55.85c.7-.72,1.68-1.38,2.33-2.07a68.11,68.11,0,0,1,6.3-5.48,76,76,0,0,1,16.06-9.71c1.27-.57,2.49-1.09,3.75-1.57a70.23,70.23,0,0,1,29.44-4.58,56,56,0,0,1,31.84,12.5c1,.78,1.95,1.6,2.86,2.46a69.39,69.39,0,0,1,9.1,9.84,84.89,84.89,0,0,1,5.55,8c11.37,18.51,17.1,42.42,15.73,65.53l-.89,31.41-.8,29.85-1,33.92Z"/><ellipse class="cls-8" cx="257.79" cy="387.4" rx="96.56" ry="49.33"/><path class="cls-9" d="M290,341.44c.39,17.23-11.48,35.27-28.21,36.61-17.44,1.4-32.75-12.13-34.2-30.22,0-.7-.06-3.52-.07-4.22,8.84-4.66,18.72-5.51,29.25-6.36C269.11,336.26,277.59,336.85,290,341.44Z"/><path class="cls-4" d="M242,314.13l-1.3,33.57c-.3,8,4.21,14,12.29,14.3h.09c8.12.31,17.87-5.12,18.18-13.13l1.3-33.57Z"/><path class="cls-10" d="M330.48,448.27c-.34-11.71-.38-23.43-.8-35.14q-.18-4.9-.47-9.81a1.54,1.54,0,0,0-1.5-1.5,1.51,1.51,0,0,0-1.5,1.5c.69,11.58.8,23.17,1,34.76.06,3.4.14,6.79.24,10.19.06,1.92,3.06,1.93,3,0Z"/><path class="cls-10" d="M180.83,451.81c.35-9.23.38-18.47.81-27.69.12-2.59.27-5.18.47-7.77a1.51,1.51,0,0,0-1.5-1.5,1.53,1.53,0,0,0-1.5,1.5c-.7,9.12-.81,18.26-1,27.4q-.11,4-.25,8.06c-.07,1.93,2.93,1.93,3,0Z"/><ellipse class="cls-11" cx="215.13" cy="219.18" rx="12.34" ry="7.6" transform="translate(-27.03 408.06) rotate(-83.49)"/><ellipse class="cls-11" cx="289.4" cy="221.08" rx="12.34" ry="7.6" transform="translate(36.91 483.53) rotate(-83.49)"/><g class="cls-12"><path class="cls-13" d="M279.13,261.84c0,.1,0,.19,0,.29,0,.33,0-.28,0,.05l-.09.57c-.07.44-.15.88-.23,1.32-.17.84-.37,1.66-.6,2.48s-.49,1.59-.77,2.38c-.14.37-.29.73-.44,1.1.13-.31,0,.09-.08.19l-.3.66a29.14,29.14,0,0,1-2.36,4.13c-.21.3-.43.61-.66.91l-.15.2c0-.06.23-.29,0,0l-.37.47c-.49.58-1,1.15-1.53,1.69s-1.08,1-1.65,1.52l-.45.37c-.12.09-.39.29-.11.09l-.93.67c-.61.41-1.23.79-1.87,1.14-.3.17-.61.33-.93.49l-.43.2c-.12.06-.67.29-.26.12a19,19,0,0,1-9.91,1.35s-.34,0-.13,0l-.31-.05-.66-.12c-.46-.09-.91-.19-1.36-.3-.82-.21-1.62-.46-2.42-.75-.37-.13-.74-.28-1.11-.43l-.1,0-.47-.21c-.49-.24-1-.48-1.47-.74a2,2,0,1,0-2,3.45c6.09,3.28,13.41,4.46,20,2.09a27,27,0,0,0,14.56-13.18,35.14,35.14,0,0,0,3.61-12.1,2,2,0,0,0-2-2,2.05,2.05,0,0,0-2,2Z"/></g><rect class="cls-4" x="163.87" y="430.54" width="24.56" height="170.53" transform="translate(352.3 1031.6) rotate(-180)"/><path class="cls-8" d="M198.81,449.09l-43.72-3.75,4.64-54.17c1.32-15.32,12.17-26.9,24.24-25.86h0c12.07,1,20.79,14.29,19.48,29.61Z"/><path class="cls-10" d="M188.21,446.93c.35-11.71.38-23.42.81-35.13.12-3.27.27-6.54.47-9.81a1.5,1.5,0,0,0-3,0c-.7,11.57-.81,23.17-1,34.76-.07,3.39-.15,6.79-.25,10.18-.05,1.93,2.95,1.93,3,0Z"/><path class="cls-14" d="M213.38,247.65a15,15,0,0,1-7.76,19.8,15.21,15.21,0,0,1-20-7.59,15,15,0,0,1,7.76-19.8A15.21,15.21,0,0,1,213.38,247.65Z"/><path class="cls-14" d="M321.92,247.65a15,15,0,0,1-7.76,19.8,15.22,15.22,0,0,1-20-7.59,15,15,0,0,1,7.77-19.8A15.21,15.21,0,0,1,321.92,247.65Z"/><rect class="cls-1" x="462.3" y="-48.57" width="639.38" height="639.38"/></svg>