<?xml version="1.0" encoding="utf-8"?>
<!-- Generator: Adobe Illustrator 26.0.3, SVG Export Plug-In . SVG Version: 6.00 Build 0)  -->
<svg version="1.1" id="Capa_1" xmlns="http://www.w3.org/2000/svg" xmlns:xlink="http://www.w3.org/1999/xlink" x="0px" y="0px"
	 viewBox="0 0 93.3 84.5" style="enable-background:new 0 0 93.3 84.5;" xml:space="preserve">
<style type="text/css">
	.st0{fill:#ACA967;}
	.st1{fill:#8C8746;}
	.st2{fill:#F8F3AE;}
	.st3{enable-background:new    ;}
	.st4{fill:#716B37;}
	.st5{fill:none;stroke:#716B37;stroke-miterlimit:10;}
</style>
<g>
	<g>
		<path class="st0" d="M94.1,42.3c0,0.8,0,1.6-0.1,2.4c0,0.7-0.1,1.3-0.2,1.9c-0.1,1.4-0.4,2.8-0.6,4.2c-0.1,0.7-0.3,1.3-0.4,1.9
			c-0.7,2.7-1.6,5.2-2.8,7.7c-0.3,0.7-0.6,1.3-1,1.9c-0.8,1.5-1.7,2.9-2.7,4.3c-0.4,0.7-0.9,1.3-1.5,1.9c-1.2,1.5-2.4,2.9-3.8,4.2
			c-0.7,0.7-1.4,1.3-2.2,1.9c-1.7,1.5-3.6,2.8-5.6,3.9c-1.2,0.7-2.4,1.4-3.6,1.9c-5.4,2.6-11.5,4-17.9,4h-9.6V0c0,0,2.9,0,9.6,0
			C58.6,0,65.2,1.7,71,4.7c1.2,0.6,2.3,1.2,3.4,1.9c2,1.2,3.8,2.6,5.5,4.2c0.7,0.6,1.4,1.3,2,1.9c2.2,2.2,4.1,4.7,5.8,7.3
			c0.4,0.6,0.8,1.3,1.1,1.9c1.4,2.5,2.5,5.1,3.3,7.9c0.2,0.6,0.4,1.3,0.5,1.9c0.5,2.1,0.9,4.2,1.1,6.3c0.1,0.6,0.1,1.3,0.2,1.9
			C94.1,40.8,94.1,41.6,94.1,42.3z"/>
	</g>
	<g>
		<g>
			<path class="st1" d="M94.1,44.6c0,0.7-0.1,1.3-0.2,1.9H82.1v-1.9H94.1z"/>
		</g>
		<g>
			<path class="st1" d="M93.3,50.8c-0.1,0.7-0.3,1.3-0.4,1.9H78.3v-1.9H93.3z"/>
		</g>
		<g>
			<path class="st1" d="M90.1,60.4c-0.3,0.7-0.6,1.3-1,1.9H74.8v-1.9H90.1z"/>
		</g>
		<g>
			<path class="st1" d="M86.4,66.6c-0.4,0.7-0.9,1.3-1.5,1.9H70.1v-1.9H86.4z"/>
		</g>
		<g>
			<path class="st1" d="M81.1,72.8c-0.7,0.7-1.4,1.3-2.2,1.9H65.1v-1.9H81.1z"/>
		</g>
		<g>
			<path class="st1" d="M73.4,78.6c-1.2,0.7-2.4,1.4-3.6,1.9H57.9v-1.9H73.4z"/>
		</g>
		<g>
			<path class="st1" d="M94.1,40.1H81.3v-1.9h12.6C94,38.8,94.1,39.5,94.1,40.1z"/>
		</g>
		<g>
			<path class="st1" d="M92.8,31.8h-13v-1.9h12.4C92.5,30.6,92.7,31.2,92.8,31.8z"/>
		</g>
		<g>
			<path class="st1" d="M88.9,22h-13v-1.9h11.9C88.2,20.7,88.6,21.3,88.9,22z"/>
		</g>
		<g>
			<path class="st1" d="M82.1,12.7H67.6v-1.9H80C80.7,11.4,81.4,12,82.1,12.7z"/>
		</g>
		<g>
			<path class="st1" d="M74.5,6.6h-14V4.7h10.7C72.3,5.2,73.4,5.9,74.5,6.6z"/>
		</g>
	</g>
	<g>
		<path class="st2" d="M84.5,42.3c0,23.3-18.9,42.3-42.3,42.3C18.9,84.5,0,65.6,0,42.3C0,18.9,18.9,0,42.3,0
			C65.6,0,84.5,18.9,84.5,42.3z"/>
	</g>
	<g>
		<path class="st0" d="M77.4,42.3c0,19.4-15.7,35.1-35.1,35.1S7.2,61.7,7.2,42.3S22.9,7.2,42.3,7.2C61.6,7.2,77.4,22.9,77.4,42.3z"
			/>
	</g>
	<g>
		<path class="st1" d="M45.2,74.4c-19.4,0-35.1-15.7-35.1-35.1c0-8.9,3.4-17.1,8.9-23.3C11.7,22.5,7.2,31.8,7.2,42.3
			c0,19.4,15.7,35.1,35.1,35.1c10.4,0,19.8-4.6,26.2-11.8C62.3,71.1,54.1,74.4,45.2,74.4z"/>
	</g>
	<g class="st3">
		<path class="st4" d="M33.5,64.1C32.3,63.7,31,63,30,62.4c-0.5-0.3-0.9-0.6-1.4-0.8c-2-1.1-4-2.3-5.5-4.2c-1.9-2.4-2.3-5.6-2.3-8.5
			c0-1.3,0.1-2.6,0.1-3.7c0.2-4.3,0.7-9,4.6-12.2c2.2-1.8,5.6-1.8,8.4-1.8c0.9-0.1,1.6-0.1,2.4-0.1h0.1c0.6,0,1,0.5,1,1
			c0,0.6-0.4,1-0.9,1c-0.8,0.1-1.7,0.1-2.5,0.1c-2.7,0-5.4,0.1-7.1,1.4c-3.3,2.7-3.6,6.5-3.8,10.7c-0.1,1.1-0.1,2.4-0.1,3.6
			c0,3.4,0.6,5.6,1.8,7.2c1.3,1.7,2.9,2.7,4.9,3.7c0.5,0.3,1,0.6,1.4,0.8c1.1,0.6,2.1,1.2,3.2,1.6c0.9,0.3,2.9,0.4,5.2,0.4
			c2.7,0,5-0.2,5.9-0.6c2.1-0.8,3.1-1.4,4.5-2.6c3.6-3.1,6.5-6.4,8-9c0.6-1.1,0.8-2.4,0.8-4.5c0-6.2-1.9-10.1-7.4-14.8
			c-0.3-0.2-0.5-0.5-0.7-0.7c-0.6-0.7-0.9-0.9-1.1-1c-3.3-1.4-7.6-2.1-12-2.1c-5.6,0-11.1,0.7-11.1,1c-0.1,0.5-0.5,0.9-1,0.9
			c-0.6,0-1-0.4-1-1v-0.2c0.4-2.4,6.7-2.8,13.2-2.8c4.6,0,9.2,0.8,12.8,2.3c0.8,0.3,1.3,1,1.8,1.5c0.2,0.2,0.4,0.4,0.6,0.6
			c5.9,5,8.1,9.5,8.1,16.4c0,2.4-0.3,4.1-1,5.4c-1.9,3.5-5.5,7.2-8.4,9.6c-1.6,1.4-2.9,2.1-5,3c-1.2,0.5-3.7,0.8-6.7,0.8
			C36.8,64.7,34.7,64.5,33.5,64.1z M31.9,41.7v-0.5c0-0.6,0.5-1,1-1c0.6,0,1,0.5,1,1v0.1c0,0.2-0.1,0.3-0.1,0.6
			c0,0.5-0.1,1.1-0.1,1.7c0,0.8,0.1,1.3,0.2,1.6c0.4,1.1,2.2,1.8,4.5,1.8c1.3,0,2.5-0.2,3.1-0.6c1.6-1.1,3.1-3.5,3.6-5.9
			c0.1-0.5,0.5-0.8,1-0.8c0.6,0,1,0.4,1,1v0.2c-0.6,2.9-2.4,5.9-4.5,7.2c-1,0.6-2.5,1-4.2,1c-3.2,0-5.6-1.2-6.4-3.2
			c-0.2-0.6-0.3-1.3-0.3-2.3C31.7,43,31.9,42.3,31.9,41.7z M36.5,35.9c1,0,1.8,0.7,1.8,1.8c0,1-0.7,1.8-1.8,1.8
			c-1,0-1.8-0.8-1.8-1.8C34.7,36.7,35.5,35.9,36.5,35.9z M42.3,36.4c1,0,1.8,0.8,1.8,1.8c0,1-0.7,1.8-1.8,1.8c-1,0-1.8-0.8-1.8-1.8
			C40.5,37.2,41.3,36.4,42.3,36.4z M49.8,22.1c0.6-1.5,1.2-3,1.8-4.6c0.2-0.6,0.4-1.1,0.6-1.8c0.2-0.4,0.6-0.7,1-0.7
			c0.6,0,1,0.4,1,1c0,0.2,0,0.3-0.1,0.4c-0.2,0.6-0.5,1.2-0.6,1.8c-0.6,1.5-1.1,3.1-1.8,4.6c-0.2,0.4-0.5,0.7-1,0.7
			c-0.6,0-1-0.4-1-1C49.6,22.4,49.7,22.3,49.8,22.1z M56.8,25.3c0.9-0.4,1.8-1,3.3-3.2c0.2-0.3,0.4-0.6,0.7-0.9
			c0.2-0.2,0.5-0.4,0.8-0.4c0.6,0,1,0.4,1,1c0,0.2-0.1,0.4-0.2,0.7c-0.2,0.3-0.4,0.5-0.6,0.9c-1,1.4-2.6,3-4.3,3.8
			c-0.1,0.1-0.3,0.1-0.4,0.1c-0.6,0-1-0.4-1-1C56,25.8,56.3,25.4,56.8,25.3z M59.7,32.6c0.8-0.2,1.2-0.4,1.5-0.4h0.4
			c0.4,0.1,1,0.1,2.5,0.1h2.1c0.6-0.1,1.1,0.4,1.1,1c0,0.5-0.4,1-1,1h-2.2c-1.6,0-2.3-0.1-2.7-0.1h-0.3c-0.1,0-0.1,0-0.9,0.2
			c-0.1,0.1-0.2,0.1-0.3,0.1c-0.6,0-1-0.4-1-1C59,33.1,59.3,32.7,59.7,32.6z"/>
	</g>
	<g class="st3">
		<path class="st5" d="M33.5,64.1C32.3,63.7,31,63,30,62.4c-0.5-0.3-0.9-0.6-1.4-0.8c-2-1.1-4-2.3-5.5-4.2c-1.9-2.4-2.3-5.6-2.3-8.5
			c0-1.3,0.1-2.6,0.1-3.7c0.2-4.3,0.7-9,4.6-12.2c2.2-1.8,5.6-1.8,8.4-1.8c0.9-0.1,1.6-0.1,2.4-0.1h0.1c0.6,0,1,0.5,1,1
			c0,0.6-0.4,1-0.9,1c-0.8,0.1-1.7,0.1-2.5,0.1c-2.7,0-5.4,0.1-7.1,1.4c-3.3,2.7-3.6,6.5-3.8,10.7c-0.1,1.1-0.1,2.4-0.1,3.6
			c0,3.4,0.6,5.6,1.8,7.2c1.3,1.7,2.9,2.7,4.9,3.7c0.5,0.3,1,0.6,1.4,0.8c1.1,0.6,2.1,1.2,3.2,1.6c0.9,0.3,2.9,0.4,5.2,0.4
			c2.7,0,5-0.2,5.9-0.6c2.1-0.8,3.1-1.4,4.5-2.6c3.6-3.1,6.5-6.4,8-9c0.6-1.1,0.8-2.4,0.8-4.5c0-6.2-1.9-10.1-7.4-14.8
			c-0.3-0.2-0.5-0.5-0.7-0.7c-0.6-0.7-0.9-0.9-1.1-1c-3.3-1.4-7.6-2.1-12-2.1c-5.6,0-11.1,0.7-11.1,1c-0.1,0.5-0.5,0.9-1,0.9
			c-0.6,0-1-0.4-1-1v-0.2c0.4-2.4,6.7-2.8,13.2-2.8c4.6,0,9.2,0.8,12.8,2.3c0.8,0.3,1.3,1,1.8,1.5c0.2,0.2,0.4,0.4,0.6,0.6
			c5.9,5,8.1,9.5,8.1,16.4c0,2.4-0.3,4.1-1,5.4c-1.9,3.5-5.5,7.2-8.4,9.6c-1.6,1.4-2.9,2.1-5,3c-1.2,0.5-3.7,0.8-6.7,0.8
			C36.8,64.7,34.7,64.5,33.5,64.1z M31.9,41.7v-0.5c0-0.6,0.5-1,1-1c0.6,0,1,0.5,1,1v0.1c0,0.2-0.1,0.3-0.1,0.6
			c0,0.5-0.1,1.1-0.1,1.7c0,0.8,0.1,1.3,0.2,1.6c0.4,1.1,2.2,1.8,4.5,1.8c1.3,0,2.5-0.2,3.1-0.6c1.6-1.1,3.1-3.5,3.6-5.9
			c0.1-0.5,0.5-0.8,1-0.8c0.6,0,1,0.4,1,1v0.2c-0.6,2.9-2.4,5.9-4.5,7.2c-1,0.6-2.5,1-4.2,1c-3.2,0-5.6-1.2-6.4-3.2
			c-0.2-0.6-0.3-1.3-0.3-2.3C31.7,43,31.9,42.3,31.9,41.7z M36.5,35.9c1,0,1.8,0.7,1.8,1.8c0,1-0.7,1.8-1.8,1.8
			c-1,0-1.8-0.8-1.8-1.8C34.7,36.7,35.5,35.9,36.5,35.9z M42.3,36.4c1,0,1.8,0.8,1.8,1.8c0,1-0.7,1.8-1.8,1.8c-1,0-1.8-0.8-1.8-1.8
			C40.5,37.2,41.3,36.4,42.3,36.4z M49.8,22.1c0.6-1.5,1.2-3,1.8-4.6c0.2-0.6,0.4-1.1,0.6-1.8c0.2-0.4,0.6-0.7,1-0.7
			c0.6,0,1,0.4,1,1c0,0.2,0,0.3-0.1,0.4c-0.2,0.6-0.5,1.2-0.6,1.8c-0.6,1.5-1.1,3.1-1.8,4.6c-0.2,0.4-0.5,0.7-1,0.7
			c-0.6,0-1-0.4-1-1C49.6,22.4,49.7,22.3,49.8,22.1z M56.8,25.3c0.9-0.4,1.8-1,3.3-3.2c0.2-0.3,0.4-0.6,0.7-0.9
			c0.2-0.2,0.5-0.4,0.8-0.4c0.6,0,1,0.4,1,1c0,0.2-0.1,0.4-0.2,0.7c-0.2,0.3-0.4,0.5-0.6,0.9c-1,1.4-2.6,3-4.3,3.8
			c-0.1,0.1-0.3,0.1-0.4,0.1c-0.6,0-1-0.4-1-1C56,25.8,56.3,25.4,56.8,25.3z M59.7,32.6c0.8-0.2,1.2-0.4,1.5-0.4h0.4
			c0.4,0.1,1,0.1,2.5,0.1h2.1c0.6-0.1,1.1,0.4,1.1,1c0,0.5-0.4,1-1,1h-2.2c-1.6,0-2.3-0.1-2.7-0.1h-0.3c-0.1,0-0.1,0-0.9,0.2
			c-0.1,0.1-0.2,0.1-0.3,0.1c-0.6,0-1-0.4-1-1C59,33.1,59.3,32.7,59.7,32.6z"/>
	</g>
</g>
</svg>
