<svg xmlns="http://www.w3.org/2000/svg" viewBox="0 0 610.64 56.01"><defs><style>.cls-1{fill:#252131;}.cls-2{fill:#4b94bc;}.cls-3{fill:#57c4c0;}.cls-4{fill:#f9f5ad;}.cls-5{fill:#de5d5c;}</style></defs><g id="Layer_2" data-name="Layer 2"><g id="Layer_1-2" data-name="Layer 1"><path class="cls-1" d="M0,1.45H26.18c12.08,0,18.2,7.87,18.2,18.72S37.18,39.27,26,39.27H19.91a6.56,6.56,0,0,1-6.63-6.64,6.43,6.43,0,0,1,6.63-6.49h2.91c3.81,0,6.27-1.83,6.27-6s-2.46-5.48-6.34-5.48H20.21c-2.12,0-3.2-1.08-3.2-2.91V11a5.54,5.54,0,0,0-5.56-5.63,5.59,5.59,0,0,0-5.74,5.56,5.71,5.71,0,0,0,5.81,5.74h1.31c2.2,0,3.5,1.16,3.5,3.43v2.69a3.15,3.15,0,0,1-3.5,3.5h-.78a6.42,6.42,0,1,0,0,12.83h1.23c2.12,0,3,1.08,3,3.21v12.6H0Z"/><path class="cls-1" d="M48.85,15.22H62.31v3.35a2.05,2.05,0,0,1-2.16,2.13H57.5A5.34,5.34,0,0,0,51.91,26a5.24,5.24,0,0,0,5.25,5.34c2.91,0,4.74-2,5.3-5.34a14.82,14.82,0,0,1,2.31-6.11,11.9,11.9,0,0,1,10.29-5.26,9.87,9.87,0,0,1,2.2.22v15a13.34,13.34,0,0,0-3.58-.45,8.89,8.89,0,0,0-9.09,9.25V54.93H48.85Z"/><path class="cls-1" d="M79.54,35.09c0-13,8.57-21,21.55-21s21.52,7.95,21.52,21S114.07,56,101.09,56,79.54,48.07,79.54,35.09Zm8.24,5.41a5.43,5.43,0,1,0-5.41-5.41A5.47,5.47,0,0,0,87.78,40.5ZM97.81,0h17.9l-8.35,11.78H93.93Zm3.28,44.53c3.36,0,5.48-2.73,5.48-9.44s-2.12-9.47-5.48-9.47-5.52,2.8-5.52,9.47S97.73,44.53,101.09,44.53Zm13.28-4A5.43,5.43,0,1,0,109,35.09,5.43,5.43,0,0,0,114.37,40.5Z"/><path class="cls-1" d="M135.17,34.91,121.78,15.22h18.65l3.21,5.66a3.22,3.22,0,0,1-.3,4.11l-1.83,1.9a6.28,6.28,0,0,0-1.83,4.29,6,6,0,1,0,11.9,0A6.18,6.18,0,0,0,149.9,27L148.07,25a3.15,3.15,0,0,1-.37-4.11l3.21-5.66h18.24L155.83,34.46l13.95,20.47H150.13l-4.93-9-5.22,9h-18.2Z"/><path class="cls-1" d="M172.38.34h15.89V12.23H172.38Zm.08,14.88H188.2V54.93H172.46Z"/><path class="cls-1" d="M195.06,15.22h13.31v3.35a2,2,0,0,1-2.16,2.13h-3.14A5.3,5.3,0,0,0,197.52,26a5.18,5.18,0,0,0,5.26,5.34c2.9,0,4.73-2,5.33-5.34,1.45-8.5,6.34-11.86,13.31-11.86a10.35,10.35,0,0,1,10.11,6.53c2.46-4.14,7.08-6.53,12.42-6.53,7.94,0,12.38,5.82,12.38,14.51V54.93H240.59V29.5c0-2.35-1.16-3.88-3.21-3.88-2.53,0-3.84,1.83-3.84,4.33v25H217.8V29.5c0-2.35-1.11-3.88-3.2-3.88-2.5,0-3.81,1.83-3.81,4.33v25H195.06Z"/><path class="cls-1" d="M261.32,35.09c0-13,8.57-21,21.55-21s21.52,7.95,21.52,21S295.85,56,282.87,56,261.32,48.07,261.32,35.09Zm8.24,5.41a5.43,5.43,0,1,0-5.41-5.41A5.47,5.47,0,0,0,269.56,40.5Zm13.31,4c3.36,0,5.48-2.73,5.48-9.44s-2.12-9.47-5.48-9.47-5.52,2.8-5.52,9.47S279.52,44.53,282.87,44.53Zm13.28-4a5.43,5.43,0,1,0-5.41-5.41A5.44,5.44,0,0,0,296.15,40.5Z"/><path class="cls-1" d="M323,42.77h16.56c0,2.47,1.6,4.07,4.36,4.07,2.47,0,3.66-1.08,3.66-2.69s-1.12-2.16-3.28-2.57l-7.69-1.45c-9.17-1.76-13-5.75-13-12.24,0-8.24,7.12-13.76,19.69-13.76,13,0,19.06,5.9,19.5,12.76H346.52c0-2.35-1.15-3.73-3.61-3.73-2.05,0-3.43,1.08-3.43,2.68,0,1.38,1,2.13,3.28,2.58l7.64,1.45c9.85,1.87,13.13,5.82,13.13,12.38,0,9.55-8.69,13.76-19.84,13.76C331.23,56,323.37,51.28,323,42.77ZM343.62,39a4.2,4.2,0,1,0-4.22-4.21A4.11,4.11,0,0,0,343.62,39Z"/><path class="cls-1" d="M372,41.73V26.66h-6.26V15.22h1.15c4.74,0,7.35-1.76,7.57-8.32l.15-3.84h13.13v8.35c0,1.68-.75,2.43-2.43,2.43h-2.53a4.94,4.94,0,0,0-5.11,5,5,5,0,1,0,10.07,0V17.34c0-1.34.78-2.12,2.38-2.12h6.05V26.66h-8.43V39.27c0,3.21,1.75,4.29,4.51,4.29a13.83,13.83,0,0,0,3.36-.38V54.41a27.4,27.4,0,0,1-8.1,1.12C378.26,55.53,372,51.72,372,41.73Z"/><path class="cls-1" d="M401.75.34h15.88V12.23H401.75Zm.07,14.88h15.74V54.93H401.82Z"/><path class="cls-1" d="M422.85,35.24c0-13.09,8.24-21.11,21.15-21.11,12,0,20.25,6.19,20.73,17.49h-16c-.15-4.1-1.75-6-4.62-6-3.21,0-5.22,2.65-5.22,9.36s1.82,9.55,5.22,9.55c2.65,0,4.47-1.68,4.62-6.08h16C464,49.75,455.85,56,443.92,56,431,56,422.85,48.14,422.85,35.24Zm8.24,5.41a5.58,5.58,0,1,0-5.55-5.56A5.63,5.63,0,0,0,431.09,40.65Z"/><path class="cls-1" d="M469.84,1.45h15.73V22a2.12,2.12,0,0,1-2,2.09h-2.05a5.45,5.45,0,0,0-5.75,5.41A5.11,5.11,0,1,0,486,29.35v-1.9c0-1.61.86-2.91,2.31-4.59l6.57-7.64h18.79L498.51,31.4l15.93,23.53H496.13l-7.76-12.68-2.8,3v9.73H469.84Z"/><path class="cls-1" d="M515,35.17c0-13.8,9.25-21,21.7-21,11.9,0,20.78,7.2,20.78,20.55,0,1.53,0,3.06-.08,4.36H535.5c-3,0-5-1.75-5-4.58s2-4.59,5-4.59h6.27c0-4.55-2.09-6.19-5-6.19s-4.59,1.68-5.19,4.36a1.67,1.67,0,0,1-1.93,1.53h-.83c-3,0-5.25,1.9-5.25,4.89s2.27,4.88,5.25,4.88H530A1.52,1.52,0,0,1,531.62,41a5,5,0,0,0,5.19,5c2.87,0,4.44-1.52,4.81-4.06h15.74c-1.31,9.25-9,14.13-20.63,14.13C523.42,56,515,49,515,35.17Z"/><path class="cls-1" d="M563,15.22h13.46v3.35a2.05,2.05,0,0,1-2.16,2.13h-2.65A5.34,5.34,0,0,0,566.08,26a5.25,5.25,0,0,0,5.26,5.34c2.9,0,4.73-2,5.29-5.34a14.82,14.82,0,0,1,2.31-6.11,11.91,11.91,0,0,1,10.3-5.26,10,10,0,0,1,2.2.22v15a13.44,13.44,0,0,0-3.58-.45,8.9,8.9,0,0,0-9.1,9.25V54.93H563Z"/><path class="cls-1" d="M596,15.22h14.66v15H596ZM596,40h14.66v15H596Z"/><circle class="cls-2" cx="57.14" cy="26.15" r="5.44"/><circle class="cls-3" cx="202.57" cy="26.2" r="5.57"/><circle class="cls-4" cx="382.64" cy="18.91" r="5.19"/><circle class="cls-5" cx="269.81" cy="35.17" r="5.57"/><circle class="cls-3" cx="480.87" cy="29.05" r="5.57"/></g></g></svg>