<svg width="410" height="98" viewBox="0 0 410 98" fill="none" xmlns="http://www.w3.org/2000/svg">
<path d="M77 63H88.6875V49.6562C88.6875 48.0625 88 47.3438 86.5 47.3438H86.0625C83.5312 47.3438 81.5625 45.375 81.5625 42.8438C81.5625 40.2812 83.5312 38.4062 86.0625 38.4062H86.5C88 38.4062 88.6875 37.75 88.6875 36.1875V31.4062C88.6875 29.875 88 29.1875 86.5 29.1875H86.0312C83.6875 29.1875 81.9688 27.375 81.9688 25.2188C81.9688 23.0625 83.75 21.3125 85.9688 21.3125C88.1562 21.3125 89.8438 23.0625 89.8438 25.25V25.5938C89.8438 27 90.5625 27.8125 92.0312 27.8125H96.1562C99.5 27.8125 101.688 29.2812 101.688 32.75C101.688 36.4375 98.875 38.25 95.3438 38.25H91.9375C89.2812 38.25 87.1875 40.2812 87.1875 42.875C87.1875 45.4688 89.2812 47.5938 91.9375 47.5938H94.0312C98.8125 47.5938 100.875 49.5625 101.438 54.375L102.438 63H114.375L112.938 52.7812C112.094 46.75 109.031 43.5 103.688 42.625C109.688 41.1875 113.25 37.0938 113.25 30.4062C113.25 22.6875 107.469 18.1875 98.5312 18.1875H77V63ZM135.594 63.9062C144.906 63.9062 151 59.625 152 52.0625H140.625C140.25 54.75 138.531 56.3125 135.719 56.3125C132.406 56.3125 130.406 54.0625 130.156 50.625C130.094 49.7812 129.656 49.375 128.844 49.375H128.062C125.875 49.375 124.219 47.9375 124.219 45.7812C124.219 43.5938 125.875 42.1562 128.062 42.1562H128.688C129.656 42.1562 130.031 41.8125 130.219 40.9688C130.844 38.0625 132.781 36.2812 135.625 36.2812C138.625 36.2812 140.531 38.0312 140.719 42.3438H133.219C131 42.3438 129.5 43.6875 129.5 45.8125C129.5 47.9062 131 49.25 133.219 49.25H152.094C152.125 48.2812 152.125 47.1562 152.125 46.0312C152.125 34.9688 145.156 28.9688 135.594 28.9688C125.625 28.9688 118.219 35.1562 118.219 46.4688C118.219 58.1562 125.094 63.9062 135.594 63.9062ZM173.625 75.6562C183.688 75.6562 190.344 70.9688 190.344 61.5V29.875H178.938V34.4688C177.125 30.9062 173.969 28.9688 169.594 28.9688C161.344 28.9688 156.219 35.6875 156.219 45.3438C156.219 54.9375 161.312 61.4688 169.531 61.4688C172.844 61.4688 175.25 60.5312 176.812 58.6562C177.688 57.625 178.312 56.2812 178.656 54.6562C179.125 52.4062 180.531 50.8125 182.75 50.8125C185.062 50.8125 186.625 52.4375 186.625 54.75C186.625 57.0625 184.75 58.625 182.469 58.625H180.25C179.406 58.625 178.812 59.3125 178.812 60.1562V62.5312C178.812 65.9375 177.031 68 173.594 68C170.688 68 168.688 66.5312 168.5 63.8125H156.938C157.062 71.0625 162.406 75.6562 173.625 75.6562ZM168 45.25C168 40.375 169.906 37.3125 173.438 37.3125C176.969 37.3125 178.906 40.375 178.906 45.25C178.906 50.0625 176.969 53.1562 173.438 53.1562C169.906 53.1562 168 50.0625 168 45.25ZM197.062 63H208.406V29.875H197.062V63ZM196.938 26.625H208.562V17.4688H196.938V26.625ZM229.969 63.9062C238.781 63.9062 245.656 60.3438 245.656 52.5938C245.656 47.25 242.75 44.0312 235.094 42.5625L228.781 41.375C226.531 40.9375 225.531 40.1562 225.531 38.75C225.531 37.0625 227.062 35.9375 229.344 35.9375C231.906 35.9375 233.312 37.3438 233.375 39.7188H245.062C244.719 33.875 239.812 28.9688 229.594 28.9688C219.688 28.9688 214.031 33.5625 214.031 40.2188C214.031 45.4062 217.156 48.6562 224.5 50.0938L230.688 51.2812C233 51.7188 234.125 52.375 234.125 54C234.125 55.75 232.688 56.8438 230.125 56.8438C227.25 56.8438 225.438 55.2812 225.375 52.7188H213.469C213.75 59.9062 220 63.9062 229.969 63.9062ZM226.719 46.2188C226.719 44.4375 228.094 43.0312 229.938 43.0312C231.75 43.0312 233.156 44.4375 233.156 46.2188C233.156 48.0312 231.75 49.4375 229.969 49.4375C228.125 49.4375 226.719 48.0312 226.719 46.2188ZM265.375 63.5312C267.719 63.5312 270 63.1562 271.375 62.7188V54.4688C270.562 54.6562 269.688 54.7812 268.656 54.7812C266.312 54.7812 264.781 53.8438 264.781 51.0625V38.25H271.875V29.875H266.5C265.375 29.875 264.812 30.4375 264.812 31.4375V32.4062C264.812 34.5938 263.156 36.25 261.094 36.25C258.906 36.25 257.25 34.5938 257.25 32.4062C257.25 30.3125 258.906 28.6875 261.094 28.6875H263.031C264.219 28.6875 264.781 28.125 264.781 26.9375V19.8438H255.375L255.219 23.0625C255 28.3125 252.969 29.875 248.938 29.875H248.062V38.25H253.438V52.6875C253.438 60.5625 258.25 63.5312 265.375 63.5312ZM286.031 63.9062C291 63.9062 294.438 61.6875 296.281 58.7188C296.406 60.375 296.625 61.7812 296.906 63H308.625V61.8438C307.719 61.1562 307.344 58 307.344 55.4375V41.9062C307.344 33.9375 302.219 28.9688 292.031 28.9688C282.406 28.9688 276.281 33.6562 276 40.5H287.688C287.781 38 289.469 36.375 292.219 36.375C294.719 36.375 296.031 37.8125 296.031 39.5625C296.031 41.4688 294.844 42.25 291.844 42.6562L285.844 43.4688C279.156 44.375 275.156 47.2812 275.156 53.7188C275.156 60.0625 279.781 63.9062 286.031 63.9062ZM286.719 52.6875C286.719 50.4375 288.312 49.3438 290.906 48.8125L292.906 48.4062C293.312 48.3125 293.719 48.2188 294.125 48.1562C295.5 47.875 295.969 47.125 295.969 45.875V44.9062C295.969 42.7188 297.656 41.125 299.781 41.125C301.906 41.125 303.594 42.7188 303.594 44.9062C303.594 47.125 301.875 48.75 299.781 48.75H298.438C297.25 48.75 296.625 49.1562 296.406 50.25L296.281 50.8438C295.688 54 293.812 56.0625 290.656 56.0625C288.375 56.0625 286.719 54.8125 286.719 52.6875ZM313.812 63H325.156V48.5625C325.156 42.7812 329.062 40.0312 333.125 40.0312C334.125 40.0312 335.062 40.1562 335.938 40.375V29.5C335.469 29.4062 334.812 29.3438 334.188 29.3438C330.469 29.3438 327.531 30.9062 325.719 33.6875C324.875 34.9375 324.281 36.4688 323.969 38.1875C323.5 40.625 322.219 42.0938 320.062 42.0938C317.906 42.0938 316.219 40.375 316.219 38.1875C316.219 35.8438 318.125 34.3125 320.312 34.3125H322.188C323.094 34.3125 323.719 33.6562 323.719 32.7812V29.875H313.812V63Z" fill="#2D2F44"/>
<circle cx="86.5" cy="25.5" r="4.5" fill="#FAF5AC"/>
<circle cx="182.5" cy="54.5" r="4.5" fill="#DE5E5D"/>
<circle cx="260.5" cy="32.5" r="4.5" fill="#54C5C3"/>
</svg>
