<?xml version="1.0" encoding="utf-8"?>
<!-- Generator: Adobe Illustrator 26.0.3, SVG Export Plug-In . SVG Version: 6.00 Build 0)  -->
<svg version="1.1" xmlns="http://www.w3.org/2000/svg" xmlns:xlink="http://www.w3.org/1999/xlink" x="0px" y="0px"
	 viewBox="0 0 93.3 84.5" style="enable-background:new 0 0 93.3 84.5;" xml:space="preserve">
<style type="text/css">
	.st0{fill:#DD5E5C;stroke:#DD5E5C;stroke-width:0.75;stroke-miterlimit:10;}
</style>
<g id="Capa_1">
	<path class="st0" d="M36.7,77.6c-2.1-0.7-4.4-1.9-6.2-3c-0.9-0.5-1.6-1.1-2.5-1.4c-3.5-1.9-7.1-4.1-9.7-7.4
		c-3.4-4.2-4.1-9.9-4.1-15c0-2.3,0.2-4.6,0.2-6.5c0.4-7.6,1.2-15.9,8.1-21.6c3.9-3.2,9.9-3.2,14.9-3.2c1.6-0.2,2.8-0.2,4.2-0.2h0.2
		c1.1,0,1.8,0.9,1.8,1.8c0,1.1-0.7,1.8-1.6,1.8c-1.4,0.2-3,0.2-4.4,0.2c-4.8,0-9.6,0.2-12.6,2.5c-5.8,4.8-6.4,11.5-6.7,18.9
		c-0.2,1.9-0.2,4.2-0.2,6.4c0,6,1.1,9.9,3.2,12.7c2.3,3,5.1,4.8,8.7,6.5c0.9,0.5,1.8,1.1,2.5,1.4c1.9,1.1,3.7,2.1,5.7,2.8
		c1.6,0.5,5.1,0.7,9.2,0.7c4.8,0,8.8-0.4,10.4-1.1c3.7-1.4,5.5-2.5,8-4.6c6.4-5.5,11.5-11.3,14.2-15.9c1.1-1.9,1.4-4.2,1.4-8
		c0-11-3.4-17.9-13.1-26.2c-0.5-0.4-0.9-0.9-1.2-1.2c-1.1-1.2-1.6-1.6-1.9-1.8c-5.8-2.5-13.4-3.7-21.2-3.7c-9.9,0-19.6,1.2-19.6,1.8
		c-0.2,0.9-0.9,1.6-1.8,1.6c-1.1,0-1.8-0.7-1.8-1.8v-0.4c0.7-4.2,11.9-5,23.4-5c8.1,0,16.3,1.4,22.6,4.1c1.4,0.5,2.3,1.8,3.2,2.7
		c0.4,0.4,0.7,0.7,1.1,1.1c10.4,8.8,14.3,16.8,14.3,29c0,4.2-0.5,7.3-1.8,9.6c-3.4,6.2-9.7,12.7-14.9,17c-2.8,2.5-5.1,3.7-8.8,5.3
		c-2.1,0.9-6.5,1.4-11.9,1.4C42.5,78.6,38.8,78.3,36.7,77.6z M33.6,46.3c0-1.8,0.2-3,0.6-4.1c1.5-3.5,5.8-5.6,11.4-5.5
		c3,0.1,5.6,0.8,7.4,1.9c3.7,2.4,6.8,7.7,7.7,12.9l0,0.4c0,1.1-0.7,1.8-1.8,1.7c-0.9,0-1.6-0.6-1.7-1.4c-0.8-4.3-3.4-8.6-6.2-10.5
		c-1-0.7-3.2-1.1-5.5-1.2c-4.1-0.1-7.3,1.1-8,3c-0.2,0.5-0.4,1.4-0.4,2.8c0,1.1,0.1,2.1,0.1,3c0,0.5,0.2,0.7,0.2,1.1l0,0.2
		c0,0.9-0.7,1.8-1.8,1.7c-0.9,0-1.8-0.7-1.7-1.8l0-0.9C33.9,48.6,33.6,47.4,33.6,46.3z M42,27.7c1.8,0,3.2,1.2,3.2,3.2
		c0,1.8-1.2,3.2-3.2,3.2c-1.8,0-3.2-1.4-3.2-3.2C38.8,29.1,40.2,27.7,42,27.7z M52.3,28.6c1.8,0,3.2,1.4,3.2,3.2s-1.2,3.2-3.2,3.2
		c-1.8,0-3.2-1.4-3.2-3.2S50.5,28.6,52.3,28.6z"/>
</g>
<g id="Layer_2">
</g>
</svg>
