<svg width="36" height="151" viewBox="0 0 36 151" fill="none" xmlns="http://www.w3.org/2000/svg">
<path fill-rule="evenodd" clip-rule="evenodd" d="M14.4767 65.9996H21.0782C21.211 65.9996 21.3188 66.1498 21.3188 66.335V145.315C21.3188 145.5 21.211 145.65 21.0782 145.65H14.4767C14.3437 145.65 14.2358 145.5 14.2358 145.315V66.335C14.2358 66.1498 14.3437 65.9996 14.4767 65.9996Z" fill="#2B2B2B"/>
<path fill-rule="evenodd" clip-rule="evenodd" d="M14.4767 70.9735H21.0782C21.211 70.9735 21.3188 71.1225 21.3188 71.3065V149.724C21.3188 149.908 21.211 150.057 21.0782 150.057H14.4767C14.3437 150.057 14.2358 149.908 14.2358 149.724V71.3065C14.2358 71.1225 14.3437 70.9735 14.4767 70.9735Z" fill="#3F3F3F"/>
<path fill-rule="evenodd" clip-rule="evenodd" d="M20.4944 0.713684C26.428 0.713684 31.2325 4.16076 31.2325 8.41271V58.5422C31.2325 62.794 26.428 66.241 20.4944 66.241H24.5874C30.5209 66.241 35.3321 62.794 35.3321 58.5422V8.41271C35.3321 4.16076 30.5209 0.713684 24.5874 0.713684H20.4944Z" fill="#2B2B2B"/>
<path fill-rule="evenodd" clip-rule="evenodd" d="M9.93838 0.713684C4.95733 0.713684 0.918457 4.16076 0.918457 8.41271V58.5422C0.918457 62.794 4.95733 66.241 9.93838 66.241H14.046H17.4819H22.7108C27.6921 66.241 31.7253 62.794 31.7253 58.5422V8.41271C31.7253 4.16076 27.6919 0.713684 22.7108 0.713684H9.93838Z" fill="#3F3F3F"/>
<path fill-rule="evenodd" clip-rule="evenodd" d="M17.7773 34.5446C17.027 34.5446 16.2945 34.6209 15.5801 34.7459C21.7012 35.6444 26.4076 40.9059 26.4076 47.2764C26.4076 53.5238 21.8816 58.7063 15.934 59.752C16.5373 59.8401 17.1496 59.8985 17.7773 59.8985C24.7787 59.8985 30.4543 54.2229 30.4543 47.2215C30.4543 40.2199 24.7787 34.5446 17.7773 34.5446Z" fill="black"/>
<path fill-rule="evenodd" clip-rule="evenodd" d="M15.5802 34.7458C9.62749 35.7875 5.10034 40.9705 5.10034 47.2214C5.10034 53.5951 9.80874 58.8574 15.9341 59.7519C21.8818 58.7062 26.4078 53.5238 26.4078 47.2763C26.4078 40.9058 21.7013 35.6443 15.5802 34.7458Z" fill="#262231"/>
<path fill-rule="evenodd" clip-rule="evenodd" d="M17.7773 5.81073C17.027 5.81073 16.2945 5.8871 15.5801 6.01229C21.7012 6.91073 26.4076 12.1721 26.4076 18.5428C26.4076 24.7902 21.8816 29.9724 15.934 31.0183C16.5373 31.1064 17.1496 31.1648 17.7773 31.1648C24.7787 31.1648 30.4543 25.4892 30.4543 18.4879C30.4543 11.4863 24.7787 5.81073 17.7773 5.81073Z" fill="black"/>
<path fill-rule="evenodd" clip-rule="evenodd" d="M15.5802 6.01233C9.62749 7.05393 5.10034 12.2367 5.10034 18.4879C5.10034 24.8615 9.80874 30.1237 15.9341 31.0184C21.8818 29.9725 26.4078 24.7903 26.4078 18.5428C26.4078 12.1721 21.7013 6.91077 15.5802 6.01233Z" fill="#262231"/>
<path fill-rule="evenodd" clip-rule="evenodd" d="M17.1707 37.6848C18.1506 37.6848 18.9447 38.4792 18.9447 39.459C18.9447 40.4387 18.1506 41.2331 17.1707 41.2331C16.1908 41.2331 15.3967 40.4389 15.3967 39.459C15.3967 38.4792 16.1908 37.6848 17.1707 37.6848ZM13.0314 47.0344C13.3756 46.8768 15.6627 45.7415 15.6627 45.7415C15.6627 45.7415 16.476 44.0127 16.8939 43.0661C17.2871 42.1741 17.5724 41.9428 18.1351 41.9428C18.343 41.9428 18.7752 41.9428 19.0002 41.9428C19.4551 41.9428 19.6211 42.1088 19.8986 42.2643L22.2388 44.2569C22.4461 44.376 22.5767 44.5514 22.6576 44.8012L23.1586 48.1741C23.2303 48.712 22.9478 48.9391 22.6264 49.0057C22.366 49.0598 21.972 48.9284 21.8947 48.5508C21.8308 48.2401 21.3576 45.4817 21.3576 45.4817L19.8291 44.3086C20.0803 45.4782 20.3363 46.762 20.4215 47.1956C20.567 47.9407 20.1945 48.5077 19.9027 48.9491C19.6353 49.3536 16.1779 54.8028 15.7217 55.3961C15.2652 55.9893 14.851 56.2825 14.2137 55.9284C13.6814 55.6325 13.7701 54.9526 14.066 54.4502C14.3619 53.9477 17.8506 48.2706 17.8506 48.2706L17.2637 45.7428C17.2637 45.7428 16.8584 46.3192 16.6492 46.6448C16.549 46.8002 16.4461 46.8598 16.1722 47.011C15.8508 47.1883 14.2875 47.8981 13.8127 48.1102C13.3918 48.2983 12.8681 48.3708 12.6574 47.9981C12.4467 47.6256 12.7156 47.1792 13.0314 47.0344Z" fill="#56D7D5"/>
<path fill-rule="evenodd" clip-rule="evenodd" d="M20.7487 49.3271L21.4585 51.8187C21.4585 51.8187 22.9323 53.9527 23.3425 54.5502C23.6499 54.9986 23.8819 55.5457 23.3546 55.9445C22.7636 56.3916 22.2901 55.809 21.9835 55.4643C21.7026 55.1477 20.5614 53.5518 20.2378 53.1443C20.0229 52.8732 19.9036 52.6441 19.812 52.4162C19.7511 52.2637 19.519 51.6314 19.3706 51.224L20.7487 49.3271Z" fill="#56D7D5"/>
<path opacity="0.248564" fill-rule="evenodd" clip-rule="evenodd" d="M17.9171 9.0744C16.7673 9.0744 15.8351 10.0066 15.8351 11.1564C15.8351 12.3064 16.7673 13.2385 17.9171 13.2385C19.0669 13.2385 19.9991 12.3064 19.9991 11.1564C19.9991 10.0066 19.0669 9.0744 17.9171 9.0744ZM19.9991 13.6549H16.2515C15.0884 13.6549 14.1694 14.5314 14.1694 15.6933V20.3486C14.1694 20.7719 14.5792 21.0986 15.0022 21.0986C15.4253 21.0986 15.8351 20.7719 15.8351 20.3486V16.7264C15.8351 16.6223 15.9392 16.5182 16.0433 16.5182C16.1474 16.5182 16.2515 16.6223 16.2515 16.7264V26.7267C16.2515 27.3256 16.4843 27.7611 17.0843 27.7611C17.3009 27.7611 17.5216 27.6801 17.6673 27.5164C17.7489 27.4252 17.8056 27.3148 17.8438 27.199C17.8634 27.1402 17.878 27.0799 17.8895 27.0191C17.8954 26.9887 17.9005 26.9584 17.905 26.9275C17.9083 26.9043 17.9163 26.8756 17.9171 26.8455C17.9171 26.8418 17.9171 25.4631 17.9171 25.4631V20.8908C17.9171 20.7851 18.0194 20.6826 18.1253 20.6826C18.2312 20.6826 18.3335 20.7851 18.3335 20.8908V25.4631C18.3335 25.4631 18.3317 26.8426 18.3335 26.8455C18.336 26.8713 18.3415 26.8951 18.3448 26.9201C18.3677 27.1279 18.4358 27.3443 18.5741 27.5051C18.722 27.6771 18.9427 27.7611 19.1663 27.7611C19.7663 27.7611 19.9991 27.3252 19.9991 26.7267V16.726C19.9991 16.6219 20.1032 16.5178 20.2073 16.5178C20.3114 16.5178 20.4155 16.6219 20.4155 16.726V20.3482C20.4155 20.7713 20.8253 21.0982 21.2483 21.0982C21.6714 21.0982 22.0812 20.7713 22.0812 20.3482V15.6928C22.0812 14.5314 21.1622 13.6549 19.9991 13.6549Z" fill="#DE5E5D"/>
</svg>
