<svg width="81" height="333" viewBox="0 0 81 333" fill="none" xmlns="http://www.w3.org/2000/svg">
<path fill-rule="evenodd" clip-rule="evenodd" d="M46.2472 0.548828C59.9802 0.548828 71.1001 10.7901 71.1001 23.4235V172.367C71.1001 185 59.9802 195.241 46.2472 195.241H55.7201C69.4531 195.241 80.5883 185 80.5883 172.367V23.4235C80.5883 10.7901 69.4531 0.548828 55.7201 0.548828H46.2472Z" fill="#2B2B2B"/>
<path fill-rule="evenodd" clip-rule="evenodd" d="M21.8165 0.548828C10.2877 0.548828 0.939941 10.7901 0.939941 23.4235V172.367C0.940354 185 10.2877 195.241 21.8165 195.241H31.3232H39.2751H51.3769C62.9057 195.241 72.2406 185 72.2406 172.367V23.4235C72.2402 10.7901 62.9057 0.548828 51.3769 0.548828H21.8165Z" fill="#3F3F3F"/>
<path fill-rule="evenodd" clip-rule="evenodd" d="M40.7643 69.844C39.1772 69.844 37.6281 70.0055 36.1171 70.2699C49.0632 72.1701 59.0173 83.2982 59.0173 96.7718C59.0173 109.985 49.4449 120.946 36.8656 123.158C38.1416 123.344 39.4366 123.468 40.7643 123.468C55.5722 123.468 67.576 111.464 67.576 96.6558C67.576 81.8479 55.5722 69.844 40.7643 69.844Z" fill="#D5D38D"/>
<path fill-rule="evenodd" clip-rule="evenodd" d="M36.1171 70.2699C23.5271 72.4729 13.9521 83.4349 13.9521 96.6558C13.9521 110.136 23.9104 121.266 36.8656 123.158C49.4449 120.946 59.0173 109.985 59.0173 96.7718C59.0173 83.2982 49.0632 72.1701 36.1171 70.2699Z" fill="#FDFAA9"/>
<path fill-rule="evenodd" clip-rule="evenodd" d="M40.7643 128.834C39.1772 128.834 37.6281 128.995 36.1171 129.26C49.0632 131.16 59.0173 142.288 59.0173 155.762C59.0173 168.975 49.4449 179.936 36.8656 182.148C38.1416 182.334 39.4366 182.457 40.7643 182.457C55.5722 182.457 67.576 170.454 67.576 155.646C67.576 140.838 55.5722 128.834 40.7643 128.834Z" fill="#3E908F"/>
<path fill-rule="evenodd" clip-rule="evenodd" d="M36.1171 129.26C23.5271 131.463 13.9521 142.425 13.9521 155.646C13.9521 169.126 23.9104 180.256 36.8656 182.148C49.4449 179.936 59.0173 168.975 59.0173 155.762C59.0173 142.288 49.0632 131.16 36.1171 129.26Z" fill="#54C5C3"/>
<path fill-rule="evenodd" clip-rule="evenodd" d="M40.7643 9.07202C39.1772 9.07202 37.6281 9.23354 36.1171 9.49833C49.0632 11.3985 59.0173 22.5266 59.0173 36.0003C59.0173 49.2136 49.4449 60.1745 36.8656 62.3861C38.1416 62.5724 39.4366 62.6959 40.7643 62.6959C55.5722 62.6959 67.576 50.6921 67.576 35.8842C67.576 21.0759 55.5722 9.07202 40.7643 9.07202Z" fill="#9F4747"/>
<path fill-rule="evenodd" clip-rule="evenodd" d="M36.1171 9.49829C23.5271 11.7013 13.9521 22.6629 13.9521 35.8842C13.9521 49.3644 23.9104 60.4937 36.8656 62.3861C49.4449 60.1744 59.0173 49.2136 59.0173 36.0002C59.0173 22.5266 49.0632 11.3985 36.1171 9.49829Z" fill="#DE5E5D"/>
<path fill-rule="evenodd" clip-rule="evenodd" d="M33.7831 194.154H47.7455C48.0264 194.154 48.2544 194.379 48.2544 194.656V312.927C48.2544 313.204 48.0264 313.429 47.7455 313.429H33.7831C33.5018 313.429 33.2738 313.204 33.2738 312.927V194.656C33.2738 194.379 33.5018 194.154 33.7831 194.154Z" fill="#2B2B2B"/>
<path fill-rule="evenodd" clip-rule="evenodd" d="M33.7831 201.602H47.7455C48.0264 201.602 48.2544 201.826 48.2544 202.101V319.53C48.2544 319.805 48.0264 320.028 47.7455 320.028H33.7831C33.5018 320.028 33.2738 319.805 33.2738 319.53V202.101C33.2738 201.826 33.5018 201.602 33.7831 201.602Z" fill="#3F3F3F"/>
<path fill-rule="evenodd" clip-rule="evenodd" d="M75.4622 332.621H6.06628V322.312C6.06628 317.258 10.1558 313.161 15.2009 313.161H66.3277C71.3723 313.161 75.4622 317.258 75.4622 322.312V332.621Z" fill="#2B2B2B"/>
<path fill-rule="evenodd" clip-rule="evenodd" d="M75.4622 332.308H6.06628V324.78C6.06628 321.089 10.1558 318.098 15.2009 318.098H66.3277C71.3723 318.098 75.4622 321.089 75.4622 324.78V332.308Z" fill="#3F3F3F"/>
</svg>
