<svg width="110" height="62" viewBox="0 0 110 62" fill="none" xmlns="http://www.w3.org/2000/svg">
<path d="M-0.000274658 31L41.9188 62L41.9188 42.5652L87.9863 42.5652C85.1121 42.3094 82.4371 40.9771 80.4886 38.8308C78.54 36.6845 77.4593 33.88 77.4593 30.97C77.4593 28.0599 78.54 25.2554 80.4886 23.1091C82.4371 20.9629 85.1121 19.6305 87.9863 19.3747L41.9188 19.3747L41.9188 3.8147e-06L-0.000274658 31ZM26.8518 39.6432C21.9933 39.6432 18.0434 35.7698 18.0434 31C18.0434 26.2302 21.9933 22.2967 26.8518 22.2967C31.7102 22.2967 35.7222 26.2302 35.7222 31C35.7222 35.7698 31.7127 39.6432 26.8518 39.6432Z" fill="#252131"/>
<path d="M98.4558 19.4524C92.0801 19.4524 86.9116 24.665 86.9116 31.0952C86.9116 37.5254 92.0801 42.738 98.4558 42.738C104.831 42.738 110 37.5254 110 31.0952C110 24.665 104.831 19.4524 98.4558 19.4524Z" fill="#252131"/>
</svg>
