<svg xmlns="http://www.w3.org/2000/svg" viewBox="0 0 2481.5 1796.85"><defs><style>.cls-1{fill:#d7e9fd;}.cls-2{opacity:0.5;}.cls-3{fill:#daebe8;}.cls-4{fill:#8fb3e3;}.cls-5{fill:#9eb269;}.cls-6{opacity:0.6;}.cls-7{fill:#fff;}.cls-8{opacity:0.4;}.cls-9{fill:#3f3c4c;}.cls-10{fill:#ccd39c;}.cls-11{fill:#66627a;}.cls-12{fill:#c4c66d;}.cls-13{fill:#331832;}.cls-14{fill:#fff9f9;}.cls-14,.cls-15,.cls-16,.cls-17{fill-rule:evenodd;}.cls-15{fill:#4c94be;}.cls-16,.cls-17{fill:#1e1c29;}.cls-17{stroke:#fff9f9;stroke-linecap:round;stroke-linejoin:round;stroke-width:4.61px;}.cls-18{fill:none;}</style></defs><g id="Layer_2" data-name="Layer 2"><g id="_Layer_" data-name="&lt;Layer&gt;"><path class="cls-1" d="M2481.44,325V1404c0,175-149.09,290.08-323.5,313.29-217,28.89-453.67,13.77-854.15-12.73-244.28-16.14-735.47,10.61-980.14,12.73C145,1718.81.19,1577,.19,1404V325c0-173,145.13-323.46,323.46-313.3,168.91,9.66,409.56,46.86,663.18,24C1284,8.85,1859.42-15,2157.94,11.65,2333.63,27.38,2481.44,150.16,2481.44,325Z"/><g class="cls-2"><polygon class="cls-3" points="1327.51 706.14 1305.14 703.49 1303.92 666.89 1327.51 665.55 1327.51 706.14"/><polygon class="cls-4" points="1342.96 548.61 1337.47 853.44 1313.55 1017.54 1260.73 1017.06 1242.89 1016.89 1158.11 1016.1 1150.96 916.03 1140.8 596.65 1342.96 548.61"/><polygon class="cls-4" points="1675.56 1019.84 1611.55 1019.84 1428.03 1018.85 1430.67 874.53 1436.96 589.88 1653.48 601.04 1667.9 874.53 1675.56 1019.84"/><polygon class="cls-4" points="920.83 701.28 920.83 1014.73 797.8 1013.69 551.58 1011.64 533.96 648.67 920.83 701.28"/><polygon class="cls-4" points="1769.29 756.71 1769.29 1019.84 1611.55 1019.84 1428.03 1018.05 1355.98 1017.34 1271.64 1016.53 1276.22 632.22 1769.29 756.71"/><polygon class="cls-4" points="1871.13 574.42 1871.1 575.37 1864.22 1019.84 1685.54 1019.84 1690.25 821.92 1695.51 599.97 1871.13 574.42"/><polygon class="cls-4" points="1243.15 771.62 1243.15 1016.53 1107.75 1014.61 1041.42 1013.69 926.58 1012.05 926.58 771.62 1243.15 771.62"/><polygon class="cls-4" points="652.6 1012.56 559.2 1011.97 468.08 1011.38 426.67 1011.12 429.01 861.13 434.75 489.73 632.63 567.28 645.81 861.13 652.6 1012.56"/><polygon class="cls-4" points="289.66 550.71 289.66 1039.83 198.35 1039.24 97.52 1038.56 97.52 545.4 260.88 549.91 289.66 550.71"/><polygon class="cls-4" points="746.56 778 746.56 1013.39 691.35 1012.89 652.6 1012.56 550.4 1011.64 450.7 1010.74 405.39 1010.33 333.39 1009.7 248.91 1008.94 248.91 778 746.56 778"/><polygon class="cls-4" points="926.58 441.14 918.28 1014.25 904.28 1014.16 828.72 1013.65 780.39 1013.33 701.13 1012.81 706.7 762.89 713.09 474.35 926.58 441.14"/><polygon class="cls-4" points="2209.02 380.51 2202.06 778 2198.01 1009.7 2113.52 1008.94 2085.03 1008.67 1949.04 1007.47 1938.21 861.32 1903.71 395.81 1967.38 392.61 2130.23 384.45 2209.02 380.51"/><polygon class="cls-4" points="1943.9 701.66 1943.9 1039.83 1902.18 1039.42 1846.58 1038.85 1847.86 878.76 1849.31 697.71 1943.9 701.66"/><polygon class="cls-4" points="2153.63 773.49 2153.63 1041.83 2017.64 1039.64 1951.9 1038.55 1909.63 1037.87 1853.3 1036.94 1854.58 773.49 2153.63 773.49"/><polygon class="cls-3" points="870.53 525.17 852.32 522.51 851.32 485.91 870.53 484.57 870.53 525.17"/><polygon class="cls-3" points="165.53 633.03 143.25 633.03 141.94 593.77 165.53 596.18 165.53 633.03"/><polygon class="cls-3" points="248.91 741.74 226.63 741.74 225.32 702.48 248.91 704.89 248.91 741.74"/><polygon class="cls-3" points="1966.58 460.26 1944.3 460.26 1942.99 421.01 1966.58 423.41 1966.58 460.26"/><polygon class="cls-3" points="1617.34 668.3 1595.06 668.3 1593.75 629.04 1617.34 631.45 1617.34 668.3"/><polygon class="cls-3" points="509.53 598.7 487.25 598.7 485.94 559.44 509.53 561.85 509.53 598.7"/><polygon class="cls-3" points="2150.92 489.73 2128.64 489.73 2127.33 450.48 2150.92 452.88 2150.92 489.73"/><polygon class="cls-3" points="2150.92 695.11 2128.64 695.11 2127.33 655.85 2150.92 658.26 2150.92 695.11"/><polygon class="cls-3" points="2015.26 609.51 1992.98 609.51 1991.67 570.25 2015.26 572.66 2015.26 609.51"/><polygon class="cls-3" points="1842.21 675.48 1819.93 675.48 1818.62 636.22 1842.21 638.63 1842.21 675.48"/><polygon class="cls-3" points="1894.71 816.12 1872.43 816.12 1871.13 776.87 1894.71 779.27 1894.71 816.12"/></g><path class="cls-5" d="M479.21,960.86l-479,35.5V781.26c22.53,3.43,46.86,13.61,63.27,38.62,38.48,58.69,108.15,63.38,137,33.73s113-13,132.76,42.13S485,876.79,479.21,960.86Z"/><path class="cls-5" d="M2481.44,729.74v281.88l-616.75-58.76c15.89-66.4,167.36-17.32,195.08-89s136.15-89.82,171.78-49.43,125,37.42,176.87-38.15C2428.08,747.58,2455.27,734.7,2481.44,729.74Z"/><g class="cls-6"><path class="cls-7" d="M1026.16,186.07s-16.24-31.24-57.35-27.33S932.6,194,913,191s-47,0-52.85,19.57-32.3,8.81-33.28,25.45,30.34,28.38,66.55,13.7,53.83,11.4,104.72,6.68,57.2-10.6,87.32-7.66,29.41-17.69,15.71-31.39S1032,205,1026.16,186.07Z"/></g><g class="cls-6"><path class="cls-7" d="M1815.5,266.29s-13-25.07-46-21.93-29.06,28.27-44.77,25.92-37.69,0-42.4,15.7-25.92,7.07-26.71,20.42,24.35,22.78,53.41,11,43.19,9.15,84,5.36,45.9-8.5,70.07-6.15,23.6-14.19,12.6-25.19S1820.21,281.47,1815.5,266.29Z"/></g><g class="cls-8"><path class="cls-7" d="M700.51,276.88s-26.57-46-75.18-38.46-1.08,28.31-64.82,38.46-77.78,31.76-48.61,49,76.7-31.32,128.55-7.56S761.65,321.83,700.51,276.88Z"/></g><g class="cls-8"><path class="cls-7" d="M1581,185s-18-31.11-50.82-26-.73,19.14-43.82,26-52.57,21.46-32.86,33.15,51.85-21.18,86.9-5.11S1622.37,215.35,1581,185Z"/></g><path class="cls-9" d="M2481.44,949c0,496,.41,461.93-1,479.11-13.32,164.35-159.61,267.49-322.53,289.17-312.79,41.64-725.88-13.25-976-17.28-261-4.29-649.18,15.47-858.33,17.28-164,1.42-298.18-117.55-320.25-269C-1.17,1417.05.19,1438.31.19,949Z"/><polygon class="cls-10" points="400.97 948.98 0.19 1071.46 0.19 948.98 400.97 948.98"/><polygon class="cls-10" points="2007.86 948.98 2481.44 1159.99 2481.44 948.98 2007.86 948.98"/><polygon class="cls-7" points="1482.52 1531.07 1057.03 1531.07 1190.33 1241.85 1357.77 1241.85 1482.52 1531.07"/><polygon class="cls-7" points="831.05 1531.07 492.39 1530.66 874.26 1241.85 1057.03 1242.09 831.05 1531.07"/><polygon class="cls-7" points="1714.6 1531.07 2016.19 1530.7 1694.38 1241.85 1487.99 1242.09 1714.6 1531.07"/><path class="cls-7" d="M2465.12,1499.82a277,277,0,0,1-13.25,30.92l-253.07.32-355.34-289,209.17-.2Z"/><path class="cls-7" d="M680.21,1241.89l-479.63,289-172.93-.16A304.78,304.78,0,0,1,3.4,1448.26l436.17-206.61Z"/><polygon class="cls-11" points="2481.44 1090.37 2481.44 1320.78 1818.62 948.98 2016.19 948.98 2481.44 1090.37"/><path class="cls-12" d="M137.05,991.43c-1.2-.07-2.39-.17-3.63-.28-2.36-.22-4.77-.5-7.25-.85A127,127,0,0,0,112,989.17c-1.24,0-2.45,0-3.7,0-.66,0-1.32,0-2,0-23.7.63-86,6-83.93-30C25,913,71.18,932.56,74.17,913.72c3.54-22.24,46.84-46.88,65.07-11.3,17.66,34.46,27.52,7.46,49.1,18.9C219.52,937.85,212.07,996.57,137.05,991.43Z"/><path class="cls-5" d="M86.48,957.94S39,963.56,40,968.2s46-7.79,46-7.79Z"/><path class="cls-5" d="M107.2,970.71S56.06,934.9,54.07,936.47s50.52,36.81,50.52,36.81Z"/><path class="cls-5" d="M112,989.17c-1.24,0-2.45,0-3.7,0-.78-2.89-2.45-8.93-4.45-16.38-.47-1.73-1-3.54-1.46-5.41C96.55,945.39,89,916,90.57,916.18c1.1.13,5.35,14.17,9.81,30.06.32,1.07.63,2.17.92,3.26,2,7.19,4,14.59,5.78,21.11l.06.16C109.38,979.14,111.2,986.05,112,989.17Z"/><path class="cls-5" d="M109.56,937.12c-.74,1.15-1.49,2.29-2.21,3.38-3.44,5.25-6.31,9.4-6.31,9.4l-1.85-1.66s3.24-5.52,7.12-11.75c.73-1.2,1.49-2.41,2.26-3.61,4.78-7.55,9.74-14.78,10.43-13.51S114.55,929.38,109.56,937.12Z"/><path class="cls-5" d="M140.09,973.28s39-21.15,41.36-17.81-39.37,19.07-39.37,19.07Z"/><path class="cls-5" d="M143.11,971.67c-.28,1-.55,1.9-.83,2.82-2.43,8.1-4.64,15.12-5.23,16.94-1.2-.07-2.39-.17-3.63-.28.89-3,5.37-18.26,9.48-30.68.38-1.18.78-2.34,1.15-3.47,2.59-7.58,4.84-13.4,5.71-13.42C151.17,943.53,147.05,958.41,143.11,971.67Z"/><path class="cls-5" d="M167,960.25s.7-18.75,2.56-19.25.52,17.94.52,17.94Z"/><path class="cls-5" d="M144.14,962s-16.49-20.7-15.57-22.5,16.66,19,16.66,19Z"/><path class="cls-12" d="M2204.08,967c-1.16-.07-2.32-.17-3.52-.27q-3.42-.33-7-.82a118.93,118.93,0,0,0-13.7-1.1c-1.2,0-2.37,0-3.58,0-.64,0-1.28,0-1.92,0-23,.61-83.28,5.79-81.3-29.08,2.54-44.7,47.24-25.76,50.13-44,3.44-21.54,45.38-45.41,63-11,17.1,33.39,26.66,7.23,47.56,18.32C2284,915.1,2276.75,972,2204.08,967Z"/><path class="cls-5" d="M2155.09,934.56s-46,5.44-45,9.94,44.59-7.55,44.59-7.55Z"/><path class="cls-5" d="M2175.16,946.92s-49.53-34.68-51.46-33.16,48.94,35.66,48.94,35.66Z"/><path class="cls-5" d="M2179.83,964.81c-1.2,0-2.37,0-3.58,0-.76-2.8-2.38-8.65-4.31-15.86-.45-1.69-.92-3.43-1.41-5.25-5.69-21.29-13-49.75-11.47-49.58,1.06.12,5.18,13.72,9.5,29.11.3,1,.61,2.1.89,3.16,2,7,3.9,14.13,5.6,20.45a.75.75,0,0,1,0,.16C2177.27,955.09,2179,961.78,2179.83,964.81Z"/><path class="cls-5" d="M2177.45,914.39c-.72,1.12-1.44,2.22-2.14,3.27-3.33,5.08-6.12,9.11-6.12,9.11l-1.78-1.61s3.13-5.35,6.89-11.38c.71-1.16,1.44-2.33,2.19-3.5,4.63-7.31,9.43-14.32,10.11-13.08S2182.28,906.89,2177.45,914.39Z"/><path class="cls-5" d="M2207,949.42s37.81-20.49,40.07-17.26S2209,950.64,2209,950.64Z"/><path class="cls-5" d="M2210,947.86c-.27.92-.54,1.83-.81,2.72-2.35,7.86-4.49,14.65-5.06,16.42-1.16-.07-2.32-.17-3.52-.27.86-2.94,5.2-17.69,9.19-29.72.37-1.14.75-2.27,1.11-3.36,2.5-7.35,4.69-13,5.53-13C2217.75,920.6,2213.77,935,2210,947.86Z"/><path class="cls-5" d="M2233.09,936.79s.67-18.15,2.48-18.64.51,17.37.51,17.37Z"/><path class="cls-5" d="M2210.94,938.53s-16-20-15.07-21.8S2212,935.14,2212,935.14Z"/><path class="cls-13" d="M2283.47,1285.66h0c6.62,0,12-3.83,12-8.56V615.85c0-4.73-5.37-8.56-12-8.56h0c-6.62,0-12,3.83-12,8.56V1277.1C2271.48,1281.83,2276.85,1285.66,2283.47,1285.66Z"/><path class="cls-13" d="M2283.84,1111.85a23.9,23.9,0,0,1-12.6-3.85l.49-.82c13.46,8.29,23,.4,23.43,0l.61.72A19.78,19.78,0,0,1,2283.84,1111.85Z"/><g id="Camada-1"><path class="cls-14" d="M2164.53,452.14h243.9a19.63,19.63,0,0,1,19.63,19.63v243.9a19.62,19.62,0,0,1-19.63,19.62h-243.9a19.61,19.61,0,0,1-19.62-19.62V471.77A19.62,19.62,0,0,1,2164.53,452.14Z"/><path class="cls-15" d="M2170.2,458.73h232.56a18.71,18.71,0,0,1,18.71,18.71V710a18.71,18.71,0,0,1-18.71,18.71H2170.2A18.71,18.71,0,0,1,2151.49,710V477.44A18.71,18.71,0,0,1,2170.2,458.73Z"/><path class="cls-14" d="M2286.25,491.57l52.32,90.35,52.32,90.36-104.41.13-104.41.13,52.09-90.49Z"/><path class="cls-16" d="M2278.31,621.92h16.34v39.51h-16.34Z"/><path class="cls-16" d="M2304.38,622.2l12.73-.13,4.77,39.36h-16.34Z"/><path class="cls-16" d="M2326.33,621.81l11.68-.39,11.69,40h-16.33Z"/><path class="cls-16" d="M2255.67,621.55l13.64.26L2267,661.43h-16.34Z"/><path class="cls-16" d="M2237.49,621l11.43.39-8.94,40h-16.34Z"/><path class="cls-17" d="M2282,550.65a8.3,8.3,0,1,1-8.3,8.29A8.29,8.29,0,0,1,2282,550.65Zm-19.36,43.72c1.61-.74,12.31-6,12.31-6s3.8-8.08,5.75-12.51c1.84-4.17,3.18-5.25,5.81-5.25h4c2.13,0,2.91.77,4.2,1.5l10.95,9.32a4.27,4.27,0,0,1,2,2.54L2310,599.7c.34,2.51-1,3.57-2.49,3.89a2.9,2.9,0,0,1-3.42-2.13c-.3-1.45-2.51-14.35-2.51-14.35l-7.15-5.49c1.17,5.47,2.37,11.47,2.77,13.5.68,3.49-1.06,6.14-2.43,8.2-1.25,1.89-17.41,27.38-19.55,30.15s-4.07,4.14-7,2.49c-2.49-1.39-2.07-4.56-.69-6.91s17.7-28.9,17.7-28.9l-2.75-11.82s-1.89,2.69-2.87,4.22a5.2,5.2,0,0,1-2.23,1.71c-1.5.83-8.81,4.15-11,5.14-2,.88-4.42,1.22-5.41-.53S2261.19,595,2262.66,594.37Z"/><path class="cls-17" d="M2298.75,605.09l3.32,11.65,8.81,12.77c1.44,2.1,2.52,4.66.06,6.52-2.77,2.09-5-.63-6.42-2.24s-6.65-8.95-8.16-10.85a13.37,13.37,0,0,1-2-3.4c-.29-.72-1.37-3.68-2.06-5.58Z"/><path class="cls-16" d="M2282,550.65a8.3,8.3,0,1,1-8.3,8.29A8.29,8.29,0,0,1,2282,550.65Zm-19.36,43.72c1.61-.74,12.31-6,12.31-6s3.8-8.08,5.75-12.51c1.84-4.17,3.18-5.25,5.81-5.25h4c2.13,0,2.91.77,4.2,1.5l10.95,9.32a4.27,4.27,0,0,1,2,2.54L2310,599.7c.34,2.51-1,3.57-2.49,3.89a2.9,2.9,0,0,1-3.42-2.13c-.3-1.45-2.51-14.35-2.51-14.35l-7.15-5.49c1.17,5.47,2.37,11.47,2.77,13.5.68,3.49-1.06,6.14-2.43,8.2-1.25,1.89-17.41,27.38-19.55,30.15s-4.07,4.14-7,2.49c-2.49-1.39-2.07-4.56-.69-6.91s17.7-28.9,17.7-28.9l-2.75-11.82s-1.89,2.69-2.87,4.22a5.2,5.2,0,0,1-2.23,1.71c-1.5.83-8.81,4.15-11,5.14-2,.88-4.42,1.22-5.41-.53S2261.19,595,2262.66,594.37Z"/><path class="cls-16" d="M2298.75,605.09l3.32,11.65,8.81,12.77c1.44,2.1,2.52,4.66.06,6.52-2.77,2.09-5-.63-6.42-2.24s-6.65-8.95-8.16-10.85a13.37,13.37,0,0,1-2-3.4c-.29-.72-1.37-3.68-2.06-5.58Z"/></g><line class="cls-18" x1="815.66" y1="31.29" x2="812.53" y2="1796.85"/></g></g></svg>