<svg xmlns="http://www.w3.org/2000/svg" viewBox="0 0 2481.5 1732.92"><defs><style>.cls-1{fill:#d7e9fd;}.cls-2{opacity:0.5;}.cls-3{fill:#daebe8;}.cls-4{fill:#8fb3e3;}.cls-5{fill:#9eb269;}.cls-6{opacity:0.6;}.cls-7{fill:#fff;}.cls-8{opacity:0.4;}.cls-9{fill:#3a354c;}.cls-10{fill:#ccd39c;}.cls-11{fill:#46415e;}.cls-12{fill:#331832;}.cls-13,.cls-33{fill:#ef8062;}.cls-14{fill:#764678;}.cls-15{fill:#ff9e89;}.cls-16{fill:#c4c66d;}.cls-17{fill:#ffb27d;}.cls-18{fill:#73b3ce;}.cls-19{fill:#5c305d;}.cls-20{fill:#080435;}.cls-21{fill:#020202;}.cls-22,.cls-23{fill:#366f90;}.cls-23{stroke:#1d1d1b;stroke-miterlimit:10;}.cls-24{fill:#5a8e85;}.cls-25{fill:#6da49a;}.cls-26{fill:#f18e7b;}.cls-27{fill:#2b2b2b;}.cls-27,.cls-28,.cls-30{stroke:#de5e5d;stroke-linecap:round;stroke-linejoin:round;stroke-opacity:0;stroke-width:5.37px;}.cls-27,.cls-28,.cls-30,.cls-31{fill-rule:evenodd;}.cls-28{fill:#3f3f3f;}.cls-29{fill:#fdfaa9;}.cls-30{fill:#d6d38d;}.cls-31{fill:#1e1c29;}.cls-32{font-size:150px;}.cls-32,.cls-33{font-family:Bauhaus93, "Bauhaus 93";}.cls-33{font-size:206px;}</style></defs><g id="Layer_2" data-name="Layer 2"><g id="_Layer_" data-name="&lt;Layer&gt;"><path class="cls-1" d="M2481.44,325V1404c0,175-149.09,290.08-323.5,313.29-217,28.89-453.67,13.77-854.15-12.73-244.28-16.14-735.47,10.61-980.14,12.73C145,1718.81.19,1577,.19,1404V325c0-173,145.13-323.46,323.46-313.3,168.91,9.66,409.56,46.86,663.18,24C1284,8.85,1859.42-15,2157.94,11.65,2333.63,27.38,2481.44,150.16,2481.44,325Z"/><g class="cls-2"><polygon class="cls-3" points="1327.51 706.14 1305.14 703.49 1303.92 666.89 1327.51 665.55 1327.51 706.14"/><polygon class="cls-4" points="1342.96 548.61 1337.47 853.44 1313.55 1017.54 1260.73 1017.06 1242.89 1016.89 1158.11 1016.1 1150.96 916.03 1140.8 596.65 1342.96 548.61"/><polygon class="cls-4" points="1675.56 1019.84 1611.55 1019.84 1428.03 1018.85 1430.67 874.53 1436.96 589.88 1653.48 601.04 1667.9 874.53 1675.56 1019.84"/><polygon class="cls-4" points="920.83 701.28 920.83 1014.73 797.8 1013.69 551.58 1011.64 533.96 648.67 920.83 701.28"/><polygon class="cls-4" points="1769.29 756.71 1769.29 1019.84 1611.55 1019.84 1428.03 1018.05 1355.98 1017.34 1271.64 1016.53 1276.22 632.22 1769.29 756.71"/><polygon class="cls-4" points="1871.13 574.42 1871.1 575.37 1864.22 1019.84 1685.54 1019.84 1690.25 821.92 1695.51 599.97 1871.13 574.42"/><polygon class="cls-4" points="1243.15 771.62 1243.15 1016.53 1107.75 1014.61 1041.42 1013.69 926.58 1012.05 926.58 771.62 1243.15 771.62"/><polygon class="cls-4" points="652.6 1012.56 559.2 1011.97 468.08 1011.38 426.67 1011.12 429.01 861.13 434.75 489.73 632.63 567.28 645.81 861.13 652.6 1012.56"/><polygon class="cls-4" points="289.66 550.71 289.66 1039.83 198.35 1039.24 97.52 1038.56 97.52 545.4 260.88 549.91 289.66 550.71"/><polygon class="cls-4" points="746.56 778 746.56 1013.39 691.35 1012.89 652.6 1012.56 550.4 1011.64 450.7 1010.74 405.39 1010.33 333.39 1009.7 248.91 1008.94 248.91 778 746.56 778"/><polygon class="cls-4" points="926.58 441.14 918.28 1014.25 904.28 1014.16 828.72 1013.65 780.39 1013.33 701.13 1012.81 706.7 762.89 713.09 474.35 926.58 441.14"/><polygon class="cls-4" points="2209.02 380.51 2202.06 778 2198.01 1009.7 2113.52 1008.94 2085.03 1008.67 1949.04 1007.47 1938.21 861.32 1903.71 395.81 1967.38 392.61 2130.23 384.45 2209.02 380.51"/><polygon class="cls-4" points="1943.9 701.66 1943.9 1039.83 1902.18 1039.42 1846.58 1038.85 1847.86 878.76 1849.31 697.71 1943.9 701.66"/><polygon class="cls-4" points="2153.63 773.49 2153.63 1041.83 2017.64 1039.64 1951.9 1038.55 1909.63 1037.87 1853.3 1036.94 1854.58 773.49 2153.63 773.49"/><polygon class="cls-3" points="870.53 525.17 852.32 522.51 851.32 485.91 870.53 484.57 870.53 525.17"/><polygon class="cls-3" points="165.53 633.03 143.25 633.03 141.94 593.77 165.53 596.18 165.53 633.03"/><polygon class="cls-3" points="248.91 741.74 226.63 741.74 225.32 702.48 248.91 704.89 248.91 741.74"/><polygon class="cls-3" points="1966.58 460.26 1944.3 460.26 1942.99 421.01 1966.58 423.41 1966.58 460.26"/><polygon class="cls-3" points="1617.34 668.3 1595.06 668.3 1593.75 629.04 1617.34 631.45 1617.34 668.3"/><polygon class="cls-3" points="509.53 598.7 487.25 598.7 485.94 559.44 509.53 561.85 509.53 598.7"/><polygon class="cls-3" points="2150.92 489.73 2128.64 489.73 2127.33 450.48 2150.92 452.88 2150.92 489.73"/><polygon class="cls-3" points="2150.92 695.11 2128.64 695.11 2127.33 655.85 2150.92 658.26 2150.92 695.11"/><polygon class="cls-3" points="2015.26 609.51 1992.98 609.51 1991.67 570.25 2015.26 572.66 2015.26 609.51"/><polygon class="cls-3" points="1842.21 675.48 1819.93 675.48 1818.62 636.22 1842.21 638.63 1842.21 675.48"/><polygon class="cls-3" points="1894.71 816.12 1872.43 816.12 1871.13 776.87 1894.71 779.27 1894.71 816.12"/></g><path class="cls-5" d="M479.21,960.86l-479,35.5V781.26c22.53,3.43,46.86,13.61,63.27,38.62,38.48,58.69,108.15,63.38,137,33.73s113-13,132.76,42.13S485,876.79,479.21,960.86Z"/><path class="cls-5" d="M2481.44,729.74v281.88l-616.75-58.76c15.89-66.4,167.36-17.32,195.08-89s136.15-89.82,171.78-49.43,125,37.42,176.87-38.15C2428.08,747.58,2455.27,734.7,2481.44,729.74Z"/><g class="cls-6"><path class="cls-7" d="M1026.16,186.07s-16.24-31.24-57.35-27.33S932.6,194,913,191s-47,0-52.85,19.57-32.3,8.81-33.28,25.45,30.34,28.38,66.55,13.7,53.83,11.4,104.72,6.68,57.2-10.6,87.32-7.66,29.41-17.69,15.71-31.39S1032,205,1026.16,186.07Z"/></g><g class="cls-6"><path class="cls-7" d="M1815.5,266.29s-13-25.07-46-21.93-29.06,28.27-44.77,25.92-37.69,0-42.4,15.7-25.92,7.07-26.71,20.42,24.35,22.78,53.41,11,43.19,9.15,84,5.36,45.9-8.5,70.07-6.15,23.6-14.19,12.6-25.19S1820.21,281.47,1815.5,266.29Z"/></g><g class="cls-8"><path class="cls-7" d="M700.51,276.88s-26.57-46-75.18-38.46-1.08,28.31-64.82,38.46-77.78,31.76-48.61,49,76.7-31.32,128.55-7.56S761.65,321.83,700.51,276.88Z"/></g><g class="cls-8"><path class="cls-7" d="M1581,185s-18-31.11-50.82-26-.73,19.14-43.82,26-52.57,21.46-32.86,33.15,51.85-21.18,86.9-5.11S1622.37,215.35,1581,185Z"/></g><path class="cls-9" d="M2481.44,949c0,496,.41,461.93-1,479.11-13.32,164.35-159.61,267.49-322.53,289.17-312.79,41.64-725.88-13.25-976-17.28-261-4.29-649.18,15.47-858.33,17.28-164,1.42-298.18-117.55-320.25-269C-1.17,1417.05.19,1438.31.19,949Z"/><polygon class="cls-10" points="400.97 948.98 0.19 1071.46 0.19 948.98 400.97 948.98"/><polygon class="cls-10" points="2007.86 948.98 2481.44 1159.99 2481.44 948.98 2007.86 948.98"/><polygon class="cls-1" points="1482.52 1531.07 1057.03 1531.07 1190.33 1241.85 1357.77 1241.85 1482.52 1531.07"/><polygon class="cls-1" points="831.05 1531.07 492.39 1530.66 874.26 1241.85 1057.03 1242.09 831.05 1531.07"/><polygon class="cls-1" points="1714.6 1531.07 2016.19 1530.7 1694.38 1241.85 1487.99 1242.09 1714.6 1531.07"/><path class="cls-1" d="M2465.12,1499.82a277,277,0,0,1-13.25,30.92l-253.07.32-355.34-289,209.17-.2Z"/><path class="cls-1" d="M680.21,1241.89l-479.63,289-172.93-.16A304.78,304.78,0,0,1,3.4,1448.26l436.17-206.61Z"/><polygon class="cls-11" points="2481.44 1090.37 2481.44 1320.78 1818.62 948.98 2016.19 948.98 2481.44 1090.37"/><polygon class="cls-12" points="1619.52 762.66 1663.54 762.66 1663.54 773.55 1615.19 773.55 1619.52 762.66"/><polygon class="cls-12" points="924.56 762.66 968.58 762.66 968.58 773.55 920.24 773.55 924.56 762.66"/><path class="cls-12" d="M1608.16,819.1h-624c-20.64,0-31.28,6.82-26.12-9.54l48.15-154.73c13-44.45,67.39-54.11,100.59-54.11h395.47c70.67,2.81,77.3,39.59,81,50.84l54.91,149.63C1643.67,817.62,1629,819.1,1608.16,819.1Z"/><path class="cls-13" d="M962.87,828.61c-4.64,0-8.61-1-11.54-4.54-4-5-2.76-11.35-1-16.94l48.14-154.7c16.24-55.51,87-59.83,108.33-59.83h395.47c72.39,2.88,83.77,40.18,88,54.22L1591,649l54.82,149.39c2.6,7.82,2.07,14.18-1.51,19.13-6.47,9-20.2,9.71-36.16,9.71h-624a131,131,0,0,0-13.42.83C968,828.34,965.33,828.61,962.87,828.61ZM1502,608.82H1106.81c-18.45,0-79.69,3.48-92.8,48.28L965.82,812c0,.09-.06.19-.09.28,1.12-.09,2.32-.21,3.42-.33a142.42,142.42,0,0,1,15-.93h624c18.4,0,22.31-1.85,23-3,0,0,.42-1.07-.65-4.3l-55.7-152.16C1571.13,639.5,1562.51,611.24,1502,608.82Z"/><path class="cls-13" d="M1706.08,1025.78H897.38c-15.75,0-29-12.24-30.66-28.38L854.8,884.08c-5.57-53,34.66-99.17,86.32-99.17,0,0,71.25-13.41,349.2-13.41,218.5,0,387.09,13.41,387.09,13.41,50.87,0,89.25,47.64,79.92,99.2l-20.93,115.7C1733.67,1014.86,1720.93,1025.78,1706.08,1025.78Z"/><path class="cls-3" d="M1487.93,920.55s20.65-22.63,84.09-35.69,127.14-16,136.59,8.52,3.19,54.26-28.89,58.32S1466.34,957.11,1487.93,920.55Z"/><path class="cls-12" d="M939,1025s-39.6,113.37-3.7,123.09,129.28,11.49,144.35-7.94-14.74-120.3-14.74-120.3Z"/><path class="cls-12" d="M1571.42,1025.29s-50.61,109.92-12.8,120.15,114.87,11,130.74-9.44.44-110.71.44-110.71Z"/><path class="cls-3" d="M1150.08,921.22s-22.87-25.06-93.12-39.53S916.16,864,905.69,891.13s-3.53,60.08,32,64.58S1174,961.71,1150.08,921.22Z"/><path class="cls-14" d="M1178.35,949.8,1196,909.21c3-6.87,8.59-11.12,14.66-11.12h217c5.8,0,11.19,3.88,14.28,10.28L1461.59,949c7,14.61-1,33.59-14.28,33.59H1193C1180.1,982.54,1172,964.42,1178.35,949.8Z"/><path class="cls-12" d="M1312.87,867.89c-51.65,0-104.58-1.34-145.74-4.64s-64.12-8.15-68.53-14.41c-33.18-47.23-54.41-72-54.62-72.22l.58-.5c.21.24,21.46,25,54.68,72.27,4.2,6,27.7,10.85,67.94,14.09,50.67,4.06,128.24,5.57,207.52,4,71.74-1.42,124.42-5.05,128.11-8.83,10.33-10.59,18.1-22,27.1-35.25,8.73-12.85,18.64-27.42,33.15-44.55l.6.5c-14.5,17.09-24.39,31.65-33.12,44.48-9,13.28-16.8,24.72-27.18,35.35C1498.31,863.37,1407.77,867.89,1312.87,867.89Z"/><path class="cls-13" d="M1745.82,1092.48H862.7c-5.35,0-9.87-6.07-10.52-14.15l-4.66-57.48c-.78-9.61,4.15-18.09,10.52-18.09h891.54c6.27,0,11.17,8.23,10.55,17.72l-3.76,57.48C1755.83,1086.2,1751.27,1092.48,1745.82,1092.48Z"/><path class="cls-12" d="M1745.82,1093H862.7c-5.6,0-10.32-6.27-11-14.58L847,1020.89c-.49-6,1.24-11.94,4.5-15.48a8.84,8.84,0,0,1,6.5-3.14h891.54a8.79,8.79,0,0,1,6.43,3.07c3.22,3.44,5,9.25,4.6,15.16l-3.76,57.48C1756.29,1086.52,1751.55,1093,1745.82,1093ZM858,1003.23a7.92,7.92,0,0,0-5.8,2.82c-3.08,3.35-4.72,9-4.25,14.76l4.66,57.49c.64,7.81,5,13.71,10.05,13.71h883.12c5.22,0,9.55-6.06,10.08-14.08l3.76-57.48c.37-5.67-1.3-11.21-4.35-14.46a7.84,7.84,0,0,0-5.73-2.76Z"/><path class="cls-13" d="M1653.46,767.48s4.84-30.51,43.22-29.61,42,14,33,29.61S1651,786,1653.46,767.48Z"/><path class="cls-13" d="M934.6,767.48s-4.85-30.51-43.22-29.61-42,14-33,29.61S937.05,786,934.6,767.48Z"/><path class="cls-15" d="M1685.88,749.22s10.81-5.77,20.85-4.22,17.24,3.22,17,8.43S1680,751.65,1685.88,749.22Z"/><path class="cls-15" d="M1733.77,836.11s-20.35-31.54-44-35.72-63.31-6.29-65.88.43,42.87,11.86,59.27,27.3S1749.67,855.18,1733.77,836.11Z"/><path class="cls-15" d="M1686.14,1015.48s48.38-5.55,55.59,2.63,13.9,29.73,4.12,29.51-15-12.14-27.4-17S1676.17,1016.41,1686.14,1015.48Z"/><path class="cls-14" d="M1551.58,683.1s1.82-43.1-41.93-47.67-134.9-10.92-132.17,0S1497.8,675.22,1514.2,695,1556,704.83,1551.58,683.1Z"/><path class="cls-16" d="M137.05,991.43c-1.2-.07-2.39-.17-3.63-.28-2.36-.22-4.77-.5-7.25-.85A127,127,0,0,0,112,989.17c-1.24,0-2.45,0-3.7,0-.66,0-1.32,0-2,0-23.7.63-86,6-83.93-30C25,913,71.18,932.56,74.17,913.72c3.54-22.24,46.84-46.88,65.07-11.3,17.66,34.46,27.52,7.46,49.1,18.9C219.52,937.85,212.07,996.57,137.05,991.43Z"/><path class="cls-5" d="M86.48,957.94S39,963.56,40,968.2s46-7.79,46-7.79Z"/><path class="cls-5" d="M107.2,970.71S56.06,934.9,54.07,936.47s50.52,36.81,50.52,36.81Z"/><path class="cls-5" d="M112,989.17c-1.24,0-2.45,0-3.7,0-.78-2.89-2.45-8.93-4.45-16.38-.47-1.73-1-3.54-1.46-5.41C96.55,945.39,89,916,90.57,916.18c1.1.13,5.35,14.17,9.81,30.06.32,1.07.63,2.17.92,3.26,2,7.19,4,14.59,5.78,21.11l.06.16C109.38,979.14,111.2,986.05,112,989.17Z"/><path class="cls-5" d="M109.56,937.12c-.74,1.15-1.49,2.29-2.21,3.38-3.44,5.25-6.31,9.4-6.31,9.4l-1.85-1.66s3.24-5.52,7.12-11.75c.73-1.2,1.49-2.41,2.26-3.61,4.78-7.55,9.74-14.78,10.43-13.51S114.55,929.38,109.56,937.12Z"/><path class="cls-5" d="M140.09,973.28s39-21.15,41.36-17.81-39.37,19.07-39.37,19.07Z"/><path class="cls-5" d="M143.11,971.67c-.28,1-.55,1.9-.83,2.82-2.43,8.1-4.64,15.12-5.23,16.94-1.2-.07-2.39-.17-3.63-.28.89-3,5.37-18.26,9.48-30.68.38-1.18.78-2.34,1.15-3.47,2.59-7.58,4.84-13.4,5.71-13.42C151.17,943.53,147.05,958.41,143.11,971.67Z"/><path class="cls-5" d="M167,960.25s.7-18.75,2.56-19.25.52,17.94.52,17.94Z"/><path class="cls-5" d="M144.14,962s-16.49-20.7-15.57-22.5,16.66,19,16.66,19Z"/><path class="cls-16" d="M2204.08,967c-1.16-.07-2.32-.17-3.52-.27q-3.42-.33-7-.82a118.93,118.93,0,0,0-13.7-1.1c-1.2,0-2.37,0-3.58,0-.64,0-1.28,0-1.92,0-23,.61-83.28,5.79-81.3-29.08,2.54-44.7,47.24-25.76,50.13-44,3.44-21.54,45.38-45.41,63-11,17.1,33.39,26.66,7.23,47.56,18.32C2284,915.1,2276.75,972,2204.08,967Z"/><path class="cls-5" d="M2155.09,934.56s-46,5.44-45,9.94,44.59-7.55,44.59-7.55Z"/><path class="cls-5" d="M2175.16,946.92s-49.53-34.68-51.46-33.16,48.94,35.66,48.94,35.66Z"/><path class="cls-5" d="M2179.83,964.81c-1.2,0-2.37,0-3.58,0-.76-2.8-2.38-8.65-4.31-15.86-.45-1.69-.92-3.43-1.41-5.25-5.69-21.29-13-49.75-11.47-49.58,1.06.12,5.18,13.72,9.5,29.11.3,1,.61,2.1.89,3.16,2,7,3.9,14.13,5.6,20.45a.75.75,0,0,1,0,.16C2177.27,955.09,2179,961.78,2179.83,964.81Z"/><path class="cls-5" d="M2177.45,914.39c-.72,1.12-1.44,2.22-2.14,3.27-3.33,5.08-6.12,9.11-6.12,9.11l-1.78-1.61s3.13-5.35,6.89-11.38c.71-1.16,1.44-2.33,2.19-3.5,4.63-7.31,9.43-14.32,10.11-13.08S2182.28,906.89,2177.45,914.39Z"/><path class="cls-5" d="M2207,949.42s37.81-20.49,40.07-17.26S2209,950.64,2209,950.64Z"/><path class="cls-5" d="M2210,947.86c-.27.92-.54,1.83-.81,2.72-2.35,7.86-4.49,14.65-5.06,16.42-1.16-.07-2.32-.17-3.52-.27.86-2.94,5.2-17.69,9.19-29.72.37-1.14.75-2.27,1.11-3.36,2.5-7.35,4.69-13,5.53-13C2217.75,920.6,2213.77,935,2210,947.86Z"/><path class="cls-5" d="M2233.09,936.79s.67-18.15,2.48-18.64.51,17.37.51,17.37Z"/><path class="cls-5" d="M2210.94,938.53s-16-20-15.07-21.8S2212,935.14,2212,935.14Z"/><path class="cls-12" d="M2275.6,1201.14s10,8.39,37.07,8.39c27.38,0,37.07-8.39,37.07-8.39V1054a31,31,0,0,0-31.13-30.89h-10a32.92,32.92,0,0,0-33.05,32.79Z"/><path class="cls-12" d="M2311.64,1201.14h0c6.63,0,12-3.55,12-7.93V580.78c0-4.38-5.36-7.93-12-7.93h0c-6.62,0-12,3.55-12,7.93v612.43C2299.65,1197.59,2305,1201.14,2311.64,1201.14Z"/><path class="cls-12" d="M2312,1027.32a23.88,23.88,0,0,1-12.61-3.84l.5-.82c13.45,8.29,23,.39,23.42.05l.61.71A19.7,19.7,0,0,1,2312,1027.32Z"/><path class="cls-14" d="M2312.78,1081a82.38,82.38,0,0,1-37.72-9.28l1.07-2.12c39.71,20.22,72.65.25,73,.06l1.25,2C2350.13,1071.78,2335,1081,2312.78,1081Z"/><path class="cls-14" d="M2312.78,1182.6a82.38,82.38,0,0,1-37.72-9.28l1.07-2.12c39.71,20.21,72.65.25,73,.06l1.25,2C2350.13,1173.41,2335,1182.6,2312.78,1182.6Z"/><path class="cls-17" d="M569.13,931.34c-3.26-17.55-8.32-28.32-8.32-28.32s-37.55-3.69-39.7-.58c-5,7.17-11.52,23.51-16.34,30.77-2.08,3.15-8.38,14.22-5.51,16.71,2.5,2.17,11.7-4.25,15.71-7.83.62,24.93,11.86,36.91,15,13.21h0c.24,5.32,1.54,12.6,9.19,13.06,3.94.24,6.53-6.15,6.24-14.9.82,3.48,0,0,.08,0,1.07,8.87,4.6,15,9.62,10.53a17,17,0,0,0,5.65-13.22s3.13,8.44,8.38,5.16c5.68-3.55,1.63-12.91.71-21.36A13.89,13.89,0,0,0,569.13,931.34Z"/><path class="cls-12" d="M197.54,1015.71c-.65-7.77-3.71-21.83-9.17-26.4-7.1-6-56.56-15.89-74.57-13.62-8.08,1-13.69,21.9-14.64,36.58l-13.31-.84c.49-7.71,4.09-46.23,26.31-49,17.81-2.2,72.68,6.48,84.78,16.64,11.48,9.61,13.68,32.92,13.9,35.53Z"/><path class="cls-12" d="M254.77,908.24c.25,9.65,28.44,20.63,130.33,18.33,72.92-1.65,132.94-19.33,132.69-29S458.87,882.25,386,884.51,254.52,898.58,254.77,908.24Z"/><path class="cls-18" d="M272.61,634.84s12.9-50.62,108-51.13C517.79,583,505.09,707.83,517.79,897.58c0,0-83.17-34.39-263,10.66C254.77,908.24,242.83,712.18,272.61,634.84Z"/><path class="cls-18" d="M237.5,627.58l62.13,34s139,30.38,175.1,24.48,43.06-20.51,43.06-20.51S479.33,596.39,414,585.87q-9.21-1.5-19.11-2.16a189.65,189.65,0,0,0-33,.66C278.94,593.62,237.5,627.58,237.5,627.58Z"/><path class="cls-17" d="M367.55,572.13l7.18-23,2.09-6.68,12.29-39.3,1.61,39.09,1,23.46.31,7.43c.2,5,3.31,6.1,7.08,10.48,1.53,1.77,11.32,12.54.21,17.4-13.84,6.06-39.71-3.12-49.54-15.13C349.82,585.9,365.23,579.54,367.55,572.13Z"/><path class="cls-19" d="M420.73,488.44a51.24,51.24,0,0,1,0,21.43C418.22,521.8,406,492.49,406,492.49Z"/><ellipse class="cls-17" cx="387.23" cy="517.86" rx="35.25" ry="42.12" transform="translate(-67.3 57.94) rotate(-7.88)"/><path class="cls-20" d="M389.09,516.1a.73.73,0,0,0,.33-.55.71.71,0,0,0-.65-.76,7.76,7.76,0,0,0-8.24,4.65.7.7,0,0,0,.32.94.79.79,0,0,0,1-.31,12.3,12.3,0,0,1,6.84-3.87A.74.74,0,0,0,389.09,516.1Z"/><path class="cls-20" d="M386,525.18c.45,1.63,1.78,2.69,3,2.36s1.8-1.9,1.35-3.53-1.78-2.69-3-2.37S385.54,523.55,386,525.18Z"/><path class="cls-20" d="M415.52,514a.52.52,0,0,0,.39-.35.85.85,0,0,0-.28-1,5,5,0,0,0-7.28.82.84.84,0,0,0,0,1,.53.53,0,0,0,.79.11,7.57,7.57,0,0,1,6.05-.69A.47.47,0,0,0,415.52,514Z"/><path class="cls-20" d="M409,521.25c-.21,1.67.61,3.16,1.84,3.31s2.39-1.08,2.6-2.76-.61-3.16-1.84-3.31S409.22,519.57,409,521.25Z"/><path class="cls-19" d="M328.8,511.47s11.78,25.19,28.49,27c0,0-13.51-19.2,15-30.9C372.26,507.61,346.11,503.53,328.8,511.47Z"/><path class="cls-17" d="M352.36,525.37c3.57,2.25,8.11,1.51,10.15-1.65s.78-7.55-2.8-9.81-8.11-1.51-10.15,1.65S348.78,523.12,352.36,525.37Z"/><path class="cls-19" d="M372.26,507.61s-2.28,21.14,2.06,25.14,33,5.71,46.41.59h0a27.69,27.69,0,0,1-23,27.81,40.87,40.87,0,0,1-13.69,0h0c-9.37-1.62-18.48-5.46-22.34-14.07-1.18-2.62,2.24-18.74,2.24-18.74s1.29-9.46-4.27-14.38C359.71,513.91,366.13,508.2,372.26,507.61Z"/><path class="cls-12" d="M372.26,507.61s-2.36-14.78,9.34-15.84,25-3,29.63,0,10.07,14.79,10.07,14.79,6.42-22.16-5.34-31.64-49.25-22-73.17-5.45-14,42-14,42S345.89,506.31,372.26,507.61Z"/><path class="cls-12" d="M356,469.47S338.4,455,342.39,444.37s22.65-7.29,29.87-5.62,8.43,14.43,2.64,22.67S356,469.47,356,469.47Z"/><path class="cls-12" d="M481,1401a22.59,22.59,0,0,1,22.17,8.86,18.79,18.79,0,0,0,10.09,7.3c13.57,3.78,51.61,4.06,39.09,17.92-7.19,8-45.58,8-56.27,9.32s-20.16,7.12-29,1c-5.27-3.67-6.47-17.16-6.47-28.68a15.18,15.18,0,0,1,15.11-15.24,23.9,23.9,0,0,0,3.79-.25Z"/><path class="cls-12" d="M245.14,1381.61s-5.14,18.38,5.74,27.28,45.55,24.41,28.46,32.07c-9.81,4.4-44.95-10.93-55.24-14s-21.34-1.57-26.89-10.7c-6.12-10,13.78-44.9,13.78-44.9s7.48,7.26,15.53,9.46C238.13,1384,245.14,1381.61,245.14,1381.61Z"/><path class="cls-13" d="M484.4,912.85c2.51,11.42,40.13,177.78,44.67,244.89,6.64,98.09-7,206.36-6.3,228.27.44,13.2-.48,21.58-18.52,28.22L479.44,1419c-19.49,7.19-31.8-12.55-34.87-26.2,0,0-4.33-155.63-13-206.67-9.05-53.15-58.42-207.62-58.42-207.62l-20.24-69.4S480.82,896.59,484.4,912.85Z"/><path class="cls-13" d="M419,905.44s-50.93,208.45-69.82,276.43c-19.67,70.76-74.77,216-117.17,219.72l-8.71.21c-20.56.52-36.43-18.19-32.85-38.72,0,0,42-144.11,50.69-193.77,10.28-58.82,27.34-250.67,27.34-250.67C269.58,913.48,392.17,903.29,419,905.44Z"/><path class="cls-21" d="M388.77,1025.17l-2.31-.52c6.78-29.29,19.19-41.45,37-51.56l1.18,2.06C407.39,985,395.36,996.74,388.77,1025.17Z"/><path class="cls-13" d="M319.47,595.18s-3.27-13.53,14.51-18.3c7-1.89,16.82-12.93,26.6-11.45s8.82,33.82,47.13,63.27c0,0,6.47,11.8-9.25,11.43S319.47,595.18,319.47,595.18Z"/><path class="cls-13" d="M404.53,632.16s19.63-19.13,16.2-37,6.56-33.12,11.42-25,10.49,3,11.61,13.16-14.05,59.8-27.8,59.8S404.53,632.16,404.53,632.16Z"/><path class="cls-13" d="M400.08,635.92s-12.69,5.66-8,19-1.88,18.79-1.88,18.79,15.38.74,17.24-13.6S400.08,635.92,400.08,635.92Z"/><path class="cls-13" d="M407.29,635.92s16.11,5.44,16.81,15.83-8.54,12.85-11.79,6.67-10-18.28-10-18.28Z"/><path class="cls-19" d="M361.74,547s.11,14.54,10.52,22.7,3.52,15.28,12.68,26.86,5.28,18.32,14.47,20.28c17.91,3.82,28.45.79,25.26-12.11s10.9-9.48,4.25-25.81-11.48-6.32-5.87-23.7-2.32-21.91-2.32-21.91-9,.61-16.2,1.89-13.75-1-18.8.63S361.74,547,361.74,547Z"/><path class="cls-7" d="M392.44,550.3a73.13,73.13,0,0,1,23-1s-1.37-11.07-13.59-9.3C394.78,541,392.44,550.3,392.44,550.3Z"/><path class="cls-19" d="M407.71,714.12a4.68,4.68,0,1,1,4.67,4.63A4.66,4.66,0,0,1,407.71,714.12Z"/><path class="cls-19" d="M407.71,770.57a4.68,4.68,0,1,1,4.67,4.63A4.66,4.66,0,0,1,407.71,770.57Z"/><ellipse class="cls-19" cx="412.38" cy="837.48" rx="4.68" ry="4.63"/><path class="cls-22" d="M508.92,766c-2.61-42-23.7-96.06-23.91-96.6l2.21-.86c.23.54,21.45,54.9,24.08,97.3Z"/><path class="cls-13" d="M105,977.91s72.69,7.58,83.82,14.46,13-20.17,9.6-21.55-82.51-14.37-86.32-12.65S101.4,975.53,105,977.91Z"/><path class="cls-17" d="M124.16,955.81c7.91-16,15.7-25,15.7-25S177,937.47,178.23,941c2.82,8.25,4.7,25.76,7.36,34.05,1.16,3.6,4.2,16,.76,17.59-3,1.41-10.1-7.27-13-11.81-7.37,23.82-21.45,32.3-18,8.63h0c-1.67,5.06-4.9,11.71-12.4,10.08-3.84-.84-4.61-7.69-1.94-16-1.74,3.12,0,0-.08,0-3.45,8.24-8.51,13.19-12.13,7.51a17.1,17.1,0,0,1-1.84-14.26s-5.31,7.28-9.46,2.69c-4.5-5,1.94-12.87,5.11-20.74A14.16,14.16,0,0,1,124.16,955.81Z"/><path class="cls-18" d="M237.5,627.58s-22.65,15.51-69,138.35C117,902.14,128.71,933.62,128.71,933.62s42.76,9.41,56,4.73S242.77,773,269.18,729,305.05,617.48,237.5,627.58Z"/><path class="cls-23" d="M253.56,772.43l-2.32-.56c9-37.78,24.43-73,24.59-73.39l2.17,1C277.85,699.78,262.49,734.85,253.56,772.43Z"/><path class="cls-12" d="M128.71,933.62s36.56,7,56,4.73c0,0,1.64,9.95-2.73,14,0,0-44.49-.42-54.5-4.6C127.49,947.8,120.51,939.85,128.71,933.62Z"/><path class="cls-19" d="M151.78,958l-2.71-.23a12.19,12.19,0,0,1-11.15-13.1l.41-4.68a12.23,12.23,0,0,1,13.23-11.05l2.7.23a12.19,12.19,0,0,1,11.15,13.1l-.4,4.69A12.24,12.24,0,0,1,151.78,958Z"/><path class="cls-24" d="M53.16,1014.92,40.68,1148.06a11.53,11.53,0,0,0,9.84,12.43l212.92,35.25,38.15,2a11.58,11.58,0,0,0,13.22-9.9l20.34-156.51a11.52,11.52,0,0,0-10.87-12.94L65.33,1004.51A11.55,11.55,0,0,0,53.16,1014.92Z"/><path class="cls-25" d="M13.3,1012.84.82,1146a11.51,11.51,0,0,0,9.83,12.42l251.08,37.21a11.59,11.59,0,0,0,13.22-9.9l20.34-156.51a11.52,11.52,0,0,0-10.87-12.94l-259-13.84A11.56,11.56,0,0,0,13.3,1012.84Z"/><path class="cls-21" d="M249.44,1186.91a11,11,0,0,1-1.62-.12l-224-33.35a10.69,10.69,0,0,1-9.1-11.55l11.13-119.36a10.67,10.67,0,0,1,10.66-9.7h.6l231,12.4a10.81,10.81,0,0,1,7.7,3.87,10.56,10.56,0,0,1,2.38,8.19l-18.15,140.29a10.74,10.74,0,0,1-10.62,9.32Zm-212.9-173.3a9.9,9.9,0,0,0-9.88,9h0L15.53,1142a9.92,9.92,0,0,0,8.44,10.7l224,33.36a10.18,10.18,0,0,0,7.48-1.91,9.85,9.85,0,0,0,3.86-6.63l18.15-140.3A9.91,9.91,0,0,0,268.1,1026l-231-12.4Zm-10.27,9h0Z"/><path class="cls-22" d="M105.24,1049.14a50.78,50.78,0,0,1,16.23-2.27c9.66.1,14.74-5.18,16.77-2.92s4.6,12.07,5.22,17.35.62,10.57-10.42,10.57-27,8.67-27.8,2.64S97.83,1050.81,105.24,1049.14Z"/><path class="cls-13" d="M68.26,1068.82a50.7,50.7,0,0,1,15.32,5.78c8.41,4.72,15.43,2.52,16.1,5.47s-1.85,12.77-3.88,17.7-4.61,9.54-14.28,4.26-27.91-5.34-25.63-11S61,1066.74,68.26,1068.82Z"/><path class="cls-26" d="M70.46,1072.76a39.71,39.71,0,0,1,12,4.51c6.56,3.67,12,2,12.56,4.27s-1.45,10-3,13.79-3.6,7.44-11.14,3.32-21.76-4.16-20-8.56S64.77,1071.14,70.46,1072.76Z"/><path class="cls-13" d="M157.35,1122.25a50.61,50.61,0,0,1,15.54-5.17c9.52-1.64,13.53-7.75,15.94-5.9s6.76,11,8.34,16.12,2.56,10.27-8.3,12.27-25,13.42-26.85,7.63S150.37,1125.24,157.35,1122.25Z"/><path class="cls-26" d="M161.57,1123.91a39.68,39.68,0,0,1,12.12-4c7.42-1.28,10.55-6.05,12.44-4.6s5.26,8.6,6.5,12.57,2,8-6.48,9.56-19.48,10.47-20.93,5.95S156.13,1126.24,161.57,1123.91Z"/><path class="cls-13" d="M76.76,1004.49s-15-7.12-24.46-6-13.68,40-8.66,42.14,16.48,5.63,19.83,0,4.19-31.08,6.42-32.74A36.3,36.3,0,0,1,76.76,1004.49Z"/><path class="cls-13" d="M244.05,1013.86s-15-7.12-24.46-6-13.69,40-8.66,42.14,16.47,5.64,19.82,0,4.19-31.08,6.43-32.74A37,37,0,0,1,244.05,1013.86Z"/><path class="cls-18" d="M513.24,658.29s15.67,14.55,37.3,114.44c24,110.77,11.4,133.67,11.4,133.67s-34,2.35-43.67-2.77-25.75-134-41-170.91S462.39,642.77,513.24,658.29Z"/><path class="cls-22" d="M513.7,900.91,519,900c-9-102.78-33.22-200.39-33.47-201.39l-5.13,2C480.67,701.56,504.73,798.67,513.7,900.91Z"/><path class="cls-27" d="M2331.67,445.45a33.08,33.08,0,0,1,33.07,33.09v99.9a33.08,33.08,0,0,1-33.07,33.09h19.07a33.1,33.1,0,0,0,33.09-33.09v-99.9a33.1,33.1,0,0,0-33.09-33.09Z"/><path class="cls-28" d="M2263.48,445.45A33.3,33.3,0,0,0,2230,478.54v99.9a33.3,33.3,0,0,0,33.51,33.09h69.57a33.31,33.31,0,0,0,33.52-33.09v-99.9a33.31,33.31,0,0,0-33.52-33.09Z"/><circle class="cls-29" cx="2307.36" cy="526.78" r="54.89"/><path class="cls-30" d="M2308.26,472.79a54.86,54.86,0,0,0-9.4.86,54.2,54.2,0,0,1,1.51,107,54.23,54.23,0,1,0,7.89-107.87Z"/><path class="cls-31" d="M2302.6,486.74a7.59,7.59,0,1,1-7.59,7.59A7.59,7.59,0,0,1,2302.6,486.74Zm-17.71,40c1.47-.67,11.26-5.53,11.26-5.53s3.48-7.4,5.27-11.45c1.68-3.82,2.9-4.81,5.31-4.81h3.7c1.94,0,2.66.71,3.84,1.38l10,8.52a3.92,3.92,0,0,1,1.79,2.33l2.14,14.44c.31,2.3-.9,3.27-2.27,3.56a2.67,2.67,0,0,1-3.14-2c-.27-1.33-2.29-13.13-2.29-13.13l-6.55-5c1.08,5,2.18,10.49,2.54,12.35.62,3.19-1,5.61-2.22,7.5-1.14,1.73-15.94,25-17.89,27.59s-3.73,3.79-6.45,2.28c-2.28-1.27-1.9-4.18-.64-6.33s16.2-26.44,16.2-26.44L2303,521.22s-1.74,2.47-2.63,3.86c-.43.67-.87.92-2,1.57-1.38.76-8.07,3.8-10.1,4.7-1.8.81-4,1.12-4.94-.48S2283.53,527.37,2284.89,526.75Z"/><path class="cls-31" d="M2317.91,536.56l3,10.66,8.06,11.69c1.31,1.92,2.31,4.26,0,6-2.53,1.91-4.55-.58-5.87-2.06s-6.08-8.18-7.47-9.92a12,12,0,0,1-1.82-3.12c-.26-.65-1.25-3.36-1.89-5.1Z"/><text class="cls-32" transform="translate(439.71 444.27)">?</text><text class="cls-33" transform="translate(1570.26 536.77)">?</text><path class="cls-17" d="M124.16,955.81c7.91-16,15.7-25,15.7-25S177,937.47,178.23,941c2.82,8.25,4.7,25.76,7.36,34.05,1.16,3.6,4.2,16,.76,17.59-3,1.41-10.1-7.27-13-11.81-7.37,23.82-21.45,32.3-18,8.63h0c-1.67,5.06-4.9,11.71-12.4,10.08-3.84-.84-4.61-7.69-1.94-16-1.74,3.12,0,0-.08,0-3.45,8.24-8.51,13.19-12.13,7.51a17.1,17.1,0,0,1-1.84-14.26s-5.31,7.28-9.46,2.69c-4.5-5,1.94-12.87,5.11-20.74A14.16,14.16,0,0,1,124.16,955.81Z"/></g></g></svg>