<svg width="566" height="66" viewBox="0 0 566 66" fill="none" xmlns="http://www.w3.org/2000/svg">
<path d="M20.875 63.9062C31.9062 63.9062 38.6875 58.25 38.6875 49C38.6875 41 33.5 37.4375 26.3125 35.9688L19.6875 34.5938C16.0938 33.875 14.625 32.5625 14.625 30.375C14.625 27.75 17 26.0312 20.125 26.0312C23.8125 26.0312 25.8438 28.0625 25.9375 31.0312H37.875C37.4688 23.1562 31.3125 17.3125 20.4688 17.3125C9.6875 17.3125 2.625 23.1562 2.625 31.5312C2.625 38.9375 6.6875 43.125 15.7812 45.0312L22.3125 46.4062C25.5 47.0938 26.75 48.2812 26.75 50.5938C26.75 53.3438 24.625 55.0312 21.0625 55.0312C16.8438 55.0312 14.25 52.5938 14.125 48.8438H2.0625C2.21875 58.6875 9.8125 63.9062 20.875 63.9062ZM16.4688 40.3438C16.4688 37.9688 18.3438 36.125 20.6875 36.125C23.0312 36.125 24.875 38 24.875 40.3438C24.875 42.7188 23.0312 44.5938 20.6875 44.5938C18.3438 44.5938 16.4688 42.7188 16.4688 40.3438ZM59.7812 63.9062C70.125 63.9062 76.9375 57.2188 76.9375 46.4375C76.9375 35.625 70.125 28.9688 59.7812 28.9688C49.4062 28.9688 42.5625 35.625 42.5625 46.4375C42.5625 57.2188 49.4062 63.9062 59.7812 63.9062ZM44.5938 46.4375C44.5938 44.2812 46.3438 42.5 48.5 42.5C50.6562 42.5 52.4688 44.2812 52.4688 46.4375C52.4688 48.5938 50.6562 50.375 48.5 50.375C46.3438 50.375 44.5938 48.5938 44.5938 46.4375ZM54.1562 46.4375C54.1562 40.2812 56.3125 37.4062 59.7812 37.4062C63.2188 37.4062 65.3438 40.2188 65.3438 46.4375C65.3438 52.625 63.2188 55.4688 59.7812 55.4688C56.3125 55.4688 54.1562 52.5625 54.1562 46.4375ZM67.0938 46.4375C67.0938 44.2812 68.8438 42.5 71 42.5C73.1875 42.5 74.9375 44.2812 74.9375 46.4375C74.9375 48.5938 73.1875 50.375 71 50.375C68.8438 50.375 67.0938 48.5938 67.0938 46.4375ZM102.969 63.9062C111 63.9062 116.219 57.4375 116.219 46.4375C116.219 35.375 111.188 28.9688 103.469 28.9688C99.6875 28.9688 96.8438 30.375 94.9375 33.1875C94.125 34.4375 93.5 35.9688 93.0625 37.7812C92.5625 39.9062 91.2812 41.5938 89.0625 41.5938C86.9062 41.5938 85.2812 39.9062 85.2812 37.8125C85.2812 35.7188 86.8438 34.0312 89.2812 34.0312H91.7188C92.5312 34.0312 93.0938 33.4688 93.0938 32.4375V18.1875H82.1562V63H93.4375V58.2812C95.25 61.9688 98.5312 63.9062 102.969 63.9062ZM93.4062 46.4375C93.4062 40.9062 95.3438 37.3438 99.0312 37.3438C102.719 37.3438 104.625 40.9062 104.625 46.4375C104.625 52 102.719 55.5 99.0312 55.5C95.3438 55.5 93.4062 52 93.4062 46.4375ZM121.469 63H132.812V48.5625C132.812 42.7812 136.719 40.0312 140.781 40.0312C141.781 40.0312 142.719 40.1562 143.594 40.375V29.5C143.125 29.4062 142.469 29.3438 141.844 29.3438C138.125 29.3438 135.188 30.9062 133.375 33.6875C132.531 34.9375 131.938 36.4688 131.625 38.1875C131.156 40.625 129.875 42.0938 127.719 42.0938C125.562 42.0938 123.875 40.375 123.875 38.1875C123.875 35.8438 125.781 34.3125 127.969 34.3125H129.844C130.75 34.3125 131.375 33.6562 131.375 32.7812V29.875H121.469V63ZM163.875 63.9062C173.188 63.9062 179.281 59.625 180.281 52.0625H168.906C168.531 54.75 166.812 56.3125 164 56.3125C160.688 56.3125 158.688 54.0625 158.438 50.625C158.375 49.7812 157.938 49.375 157.125 49.375H156.344C154.156 49.375 152.5 47.9375 152.5 45.7812C152.5 43.5938 154.156 42.1562 156.344 42.1562H156.969C157.938 42.1562 158.312 41.8125 158.5 40.9688C159.125 38.0625 161.062 36.2812 163.906 36.2812C166.906 36.2812 168.812 38.0312 169 42.3438H161.5C159.281 42.3438 157.781 43.6875 157.781 45.8125C157.781 47.9062 159.281 49.25 161.5 49.25H180.375C180.406 48.2812 180.406 47.1562 180.406 46.0312C180.406 34.9688 173.438 28.9688 163.875 28.9688C153.906 28.9688 146.5 35.1562 146.5 46.4688C146.5 58.1562 153.375 63.9062 163.875 63.9062ZM199.156 63H209.938V32.5312C209.938 31.5625 209.469 31 208.562 31H207.875C205.594 31 203.812 29.2188 203.812 26.875C203.812 24.5312 205.625 22.8125 207.969 22.8125C210.25 22.8125 212 24.5312 212 27.3438V29.4688C212 31.0312 212.219 32.9062 212.562 34.0938L221.875 63H240.031V18.1875H229.25V47.5312C229.25 48.4688 229.719 49 230.625 49H231.25C233.812 49 235.344 50.8438 235.344 53.1875C235.344 55.5312 233.531 57.1875 231.25 57.1875C228.969 57.1875 227.156 55.4688 227.156 52.5V50.0938C227.156 48.125 226.969 46.9375 226.5 45.4375L217.656 18.1875H199.156V63ZM262.594 63.9062C272.938 63.9062 279.75 57.2188 279.75 46.4375C279.75 35.625 272.938 28.9688 262.594 28.9688C252.219 28.9688 245.375 35.625 245.375 46.4375C245.375 57.2188 252.219 63.9062 262.594 63.9062ZM247.406 46.4375C247.406 44.2812 249.156 42.5 251.312 42.5C253.469 42.5 255.281 44.2812 255.281 46.4375C255.281 48.5938 253.469 50.375 251.312 50.375C249.156 50.375 247.406 48.5938 247.406 46.4375ZM256.969 46.4375C256.969 40.2812 259.125 37.4062 262.594 37.4062C266.031 37.4062 268.156 40.2188 268.156 46.4375C268.156 52.625 266.031 55.4688 262.594 55.4688C259.125 55.4688 256.969 52.5625 256.969 46.4375ZM257.469 26.75H267.062L273.844 17.0312H260.75L257.469 26.75ZM269.906 46.4375C269.906 44.2812 271.656 42.5 273.812 42.5C276 42.5 277.75 44.2812 277.75 46.4375C277.75 48.5938 276 50.375 273.812 50.375C271.656 50.375 269.906 48.5938 269.906 46.4375ZM299.812 63.9062C308.625 63.9062 315.5 60.3438 315.5 52.5938C315.5 47.25 312.594 44.0312 304.938 42.5625L298.625 41.375C296.375 40.9375 295.375 40.1562 295.375 38.75C295.375 37.0625 296.906 35.9375 299.188 35.9375C301.75 35.9375 303.156 37.3438 303.219 39.7188H314.906C314.562 33.875 309.656 28.9688 299.438 28.9688C289.531 28.9688 283.875 33.5625 283.875 40.2188C283.875 45.4062 287 48.6562 294.344 50.0938L300.531 51.2812C302.844 51.7188 303.969 52.375 303.969 54C303.969 55.75 302.531 56.8438 299.969 56.8438C297.094 56.8438 295.281 55.2812 295.219 52.7188H283.312C283.594 59.9062 289.844 63.9062 299.812 63.9062ZM296.562 46.2188C296.562 44.4375 297.938 43.0312 299.781 43.0312C301.594 43.0312 303 44.4375 303 46.2188C303 48.0312 301.594 49.4375 299.812 49.4375C297.969 49.4375 296.562 48.0312 296.562 46.2188Z" fill="#2D2F44"/>
<circle cx="20.5" cy="40.5" r="4.5" fill="#DD5E5C"/>
<path d="M93 37.4998C93 39.9851 90.9853 41.9998 88.5 41.9998C86.0147 41.9998 84 39.9851 84 37.4998C84 35.0145 86.0147 32.9998 88.5 32.9998C90.9853 32.9998 93 35.0145 93 37.4998Z" fill="#4B94BC"/>
<circle cx="231.5" cy="53.5" r="4.5" fill="#56C4C0"/>
<circle cx="273.5" cy="46.5" r="4.5" fill="#FAF5AC"/>
</svg>
