<?xml version="1.0" encoding="utf-8"?>
<!-- Generator: Adobe Illustrator 26.0.3, SVG Export Plug-In . SVG Version: 6.00 Build 0)  -->
<svg version="1.1" id="Layer_1" xmlns="http://www.w3.org/2000/svg" xmlns:xlink="http://www.w3.org/1999/xlink" x="0px" y="0px"
	 viewBox="0 0 2607.9 1755.5" style="enable-background:new 0 0 2607.9 1755.5;" xml:space="preserve">
<style type="text/css">
	.st0{fill:#D7E9FD;}
	.st1{opacity:0.5;}
	.st2{fill:#DAEBE8;}
	.st3{fill:#8FB3E3;}
	.st4{fill:#9EB269;}
	.st5{opacity:0.6;}
	.st6{fill:#FFFFFF;}
	.st7{opacity:0.4;}
	.st8{fill:#3C374F;}
	.st9{fill:#CCD39C;}
	.st10{fill:#595277;}
	.st11{fill:#C4C66D;}
	.st12{fill:#331832;}
	.st13{fill:#EF8062;}
	.st14{fill:#764678;}
	.st15{fill:#FF9E89;}
	
		.st16{fill-rule:evenodd;clip-rule:evenodd;fill:#2B2B2B;stroke:#DE5E5D;stroke-width:8.7891;stroke-linecap:round;stroke-linejoin:round;stroke-miterlimit:8.7891;stroke-opacity:0;}
	
		.st17{fill-rule:evenodd;clip-rule:evenodd;fill:#3F3F3F;stroke:#DE5E5D;stroke-width:8.7891;stroke-linecap:round;stroke-linejoin:round;stroke-miterlimit:8.7891;stroke-opacity:0;}
	
		.st18{fill-rule:evenodd;clip-rule:evenodd;fill:#D5D38D;stroke:#DE5E5D;stroke-width:8.7891;stroke-linecap:round;stroke-linejoin:round;stroke-miterlimit:8.7891;stroke-opacity:0;}
	
		.st19{fill-rule:evenodd;clip-rule:evenodd;fill:#FDFAA9;stroke:#DE5E5D;stroke-width:8.7891;stroke-linecap:round;stroke-linejoin:round;stroke-miterlimit:8.7891;stroke-opacity:0;}
	.st20{fill-rule:evenodd;clip-rule:evenodd;fill:#0F0F0F;}
	
		.st21{opacity:0;fill:none;stroke:#DE5E5D;stroke-width:8.7891;stroke-linecap:round;stroke-linejoin:round;stroke-miterlimit:8.7891;}
	.st22{fill-rule:evenodd;clip-rule:evenodd;fill:#2D2D2D;}
	
		.st23{fill-rule:evenodd;clip-rule:evenodd;fill:#0F0F0F;stroke:#DE5E5D;stroke-width:8.7891;stroke-linecap:round;stroke-linejoin:round;stroke-miterlimit:8.7891;stroke-opacity:0;}
	
		.st24{fill-rule:evenodd;clip-rule:evenodd;fill:#2D2D2D;stroke:#DE5E5D;stroke-width:8.7891;stroke-linecap:round;stroke-linejoin:round;stroke-miterlimit:8.7891;stroke-opacity:0;}
	
		.st25{fill-rule:evenodd;clip-rule:evenodd;fill:#2B2B2B;stroke:#DE5E5D;stroke-width:134.2951;stroke-linecap:round;stroke-linejoin:round;stroke-miterlimit:8.7891;stroke-opacity:0;}
	
		.st26{fill-rule:evenodd;clip-rule:evenodd;fill:#3F3F3F;stroke:#DE5E5D;stroke-width:134.2951;stroke-linecap:round;stroke-linejoin:round;stroke-miterlimit:8.7891;stroke-opacity:0;}
</style>
<g id="Layer_2_00000093134612619173731960000012136502261144888728_">
	<g id="_Layer_">
		<path class="st0" d="M2544.6,340v1079c0,175-149.1,290.1-323.5,313.3c-217,28.9-453.7,13.8-854.2-12.7
			c-244.3-16.1-735.5,10.6-980.1,12.7C208.2,1733.8,63.4,1592,63.4,1419V340c0-173,145.1-323.5,323.5-313.3
			c168.9,9.7,409.6,46.9,663.2,24C1347.2,23.9,1922.6,0,2221.1,26.7C2396.8,42.4,2544.6,165.2,2544.6,340z"/>
		<g class="st1">
			<polygon class="st2" points="1390.7,721.2 1368.3,718.5 1367.1,681.9 1390.7,680.6 			"/>
			<polygon class="st3" points="1406.2,563.6 1400.7,868.5 1376.7,1032.6 1323.9,1032.1 1306.1,1031.9 1221.3,1031.1 1214.2,931.1 
				1204,611.7 			"/>
			<polygon class="st3" points="1738.8,1034.9 1674.7,1034.9 1491.2,1033.9 1493.9,889.6 1500.2,604.9 1716.7,616.1 1731.1,889.6 
							"/>
			<polygon class="st3" points="984,716.3 984,1029.8 861,1028.7 614.8,1026.7 597.2,663.7 			"/>
			<polygon class="st3" points="1832.5,771.7 1832.5,1034.9 1674.7,1034.9 1491.2,1033.1 1419.2,1032.4 1334.8,1031.6 1339.4,647.3 
							"/>
			<polygon class="st3" points="1934.3,589.5 1934.3,590.4 1927.4,1034.9 1748.7,1034.9 1753.4,837 1758.7,615 			"/>
			<polygon class="st3" points="1306.3,786.7 1306.3,1031.6 1170.9,1029.6 1104.6,1028.7 989.8,1027.1 989.8,786.7 			"/>
			<polygon class="st3" points="715.8,1027.6 622.4,1027 531.3,1026.4 489.9,1026.2 492.2,876.2 497.9,504.8 695.8,582.3 709,876.2 
							"/>
			<polygon class="st3" points="352.9,565.7 352.9,1054.9 261.5,1054.3 160.7,1053.6 160.7,560.4 324.1,564.9 			"/>
			<polygon class="st3" points="809.8,793 809.8,1028.4 754.5,1027.9 715.8,1027.6 613.6,1026.7 513.9,1025.8 468.6,1025.4 
				396.6,1024.7 312.1,1024 312.1,793 			"/>
			<polygon class="st3" points="989.8,456.2 981.5,1029.3 967.5,1029.2 891.9,1028.7 843.6,1028.4 764.3,1027.8 769.9,777.9 
				776.3,489.4 			"/>
			<polygon class="st3" points="2272.2,395.5 2265.3,793 2261.2,1024.7 2176.7,1024 2148.2,1023.7 2012.2,1022.5 2001.4,876.4 
				1966.9,410.8 2030.6,407.6 2193.4,399.5 			"/>
			<polygon class="st3" points="2007.1,716.7 2007.1,1054.9 1965.4,1054.5 1909.8,1053.9 1911.1,893.8 1912.5,712.7 			"/>
			<polygon class="st3" points="2216.8,788.5 2216.8,1056.9 2080.8,1054.7 2015.1,1053.6 1972.8,1052.9 1916.5,1052 1917.8,788.5 
							"/>
			<polygon class="st2" points="933.7,540.2 915.5,537.5 914.5,500.9 933.7,499.6 			"/>
			<polygon class="st2" points="228.7,648.1 206.4,648.1 205.1,608.8 228.7,611.2 			"/>
			<polygon class="st2" points="312.1,756.8 289.8,756.8 288.5,717.5 312.1,719.9 			"/>
			<polygon class="st2" points="2029.8,475.3 2007.5,475.3 2006.2,436 2029.8,438.4 			"/>
			<polygon class="st2" points="1680.5,683.3 1658.3,683.3 1656.9,644.1 1680.5,646.5 			"/>
			<polygon class="st2" points="572.7,613.7 550.4,613.7 549.1,574.5 572.7,576.9 			"/>
			<polygon class="st2" points="2214.1,504.8 2191.8,504.8 2190.5,465.5 2214.1,467.9 			"/>
			<polygon class="st2" points="2214.1,710.1 2191.8,710.1 2190.5,670.9 2214.1,673.3 			"/>
			<polygon class="st2" points="2078.5,624.5 2056.2,624.5 2054.9,585.3 2078.5,587.7 			"/>
			<polygon class="st2" points="1905.4,690.5 1883.1,690.5 1881.8,651.3 1905.4,653.7 			"/>
			<polygon class="st2" points="1957.9,831.2 1935.6,831.2 1934.3,791.9 1957.9,794.3 			"/>
		</g>
		<path class="st4" d="M542.4,975.9l-479,35.5V796.3c22.5,3.4,46.9,13.6,63.3,38.6c38.5,58.7,108.1,63.4,137,33.7s113-13,132.8,42.1
			S548.2,891.8,542.4,975.9z"/>
		<path class="st4" d="M2544.6,744.8v281.9l-616.8-58.8c15.9-66.4,167.4-17.3,195.1-89c27.7-71.7,136.1-89.8,171.8-49.4
			s125,37.4,176.9-38.2C2491.3,762.6,2518.5,749.7,2544.6,744.8z"/>
		<g class="st5">
			<path class="st6" d="M1089.4,201.1c0,0-16.2-31.2-57.3-27.3c-41.1,3.9-36.2,35.3-55.8,32.3s-47,0-52.8,19.6s-32.3,8.8-33.3,25.4
				s30.3,28.4,66.5,13.7s53.8,11.4,104.7,6.7c50.9-4.7,57.2-10.6,87.3-7.7s29.4-17.7,15.7-31.4S1095.2,220,1089.4,201.1z"/>
		</g>
		<g class="st5">
			<path class="st6" d="M1878.7,281.3c0,0-13-25.1-46-21.9s-29.1,28.3-44.8,25.9s-37.7,0-42.4,15.7s-25.9,7.1-26.7,20.4
				s24.3,22.8,53.4,11s43.2,9.1,84,5.4s45.9-8.5,70.1-6.1s23.6-14.2,12.6-25.2S1883.4,296.5,1878.7,281.3z"/>
		</g>
		<g class="st7">
			<path class="st6" d="M763.7,291.9c0,0-26.6-46-75.2-38.5s-1.1,28.3-64.8,38.5s-77.8,31.8-48.6,49s76.7-31.3,128.5-7.6
				S824.8,336.9,763.7,291.9z"/>
		</g>
		<g class="st7">
			<path class="st6" d="M1644.2,200c0,0-18-31.1-50.8-26s-0.7,19.1-43.8,26s-52.6,21.5-32.9,33.1s51.8-21.2,86.9-5.1
				S1685.6,230.4,1644.2,200z"/>
		</g>
		<path class="st8" d="M2544.6,964c0,496,0.4,461.9-1,479.1c-13.3,164.3-159.6,267.5-322.5,289.2c-312.8,41.6-725.9-13.2-976-17.3
			c-261-4.3-649.2,15.5-858.3,17.3c-164,1.4-298.2-117.6-320.2-269c-4.5-31.2-3.1-10-3.1-499.3H2544.6z"/>
		<polygon class="st9" points="464.2,964 63.4,1086.5 63.4,964 		"/>
		<polygon class="st9" points="2071.1,964 2544.6,1175 2544.6,964 		"/>
		<polygon class="st0" points="1580.1,1708.9 1154.7,1708.9 1288,1419.7 1455.4,1419.7 		"/>
		<polygon class="st0" points="928.7,1708.9 590,1708.5 971.9,1419.7 1154.7,1419.9 		"/>
		<polygon class="st0" points="1812.2,1708.9 2113.8,1708.5 1792,1419.7 1585.6,1419.9 		"/>
		<path class="st0" d="M2471.3,1605c-3.8,10.6-72.5,71.5-128.7,89.9c-11.5,3.8-46.1,14-46.1,14l-355.3-289l209.2-0.2L2471.3,1605z"
			/>
		<polygon class="st10" points="2544.6,1105.4 2544.6,1335.8 1881.8,964 2079.4,964 		"/>
		<path class="st11" d="M200.2,1006.5c-1.2-0.1-2.4-0.2-3.6-0.3c-2.4-0.2-4.8-0.5-7.2-0.8c-4.7-0.6-9.4-1-14.2-1.1
			c-1.2,0-2.4,0-3.7,0c-0.7,0-1.3,0-2,0c-23.7,0.6-86,6-83.9-30c2.6-46.2,48.8-26.6,51.8-45.5c3.5-22.2,46.8-46.9,65.1-11.3
			c17.7,34.5,27.5,7.5,49.1,18.9C282.7,952.9,275.3,1011.6,200.2,1006.5z"/>
		<path class="st4" d="M149.7,973c0,0-47.5,5.6-46.5,10.3s46-7.8,46-7.8L149.7,973z"/>
		<path class="st4" d="M170.4,985.7c0,0-51.1-35.8-53.1-34.2c-2,1.6,50.5,36.8,50.5,36.8L170.4,985.7z"/>
		<path class="st4" d="M175.2,1004.2c-1.2,0-2.4,0-3.7,0c-0.8-2.9-2.4-8.9-4.4-16.4c-0.5-1.7-1-3.5-1.5-5.4
			c-5.8-22-13.4-51.4-11.8-51.2c1.1,0.1,5.3,14.2,9.8,30.1c0.3,1.1,0.6,2.2,0.9,3.3c2,7.2,4,14.6,5.8,21.1l0.1,0.2
			C172.6,994.2,174.4,1001.1,175.2,1004.2z"/>
		<path class="st4" d="M172.8,952.2c-0.7,1.2-1.5,2.3-2.2,3.4c-3.4,5.2-6.3,9.4-6.3,9.4l-1.9-1.7c0,0,3.2-5.5,7.1-11.8
			c0.7-1.2,1.5-2.4,2.3-3.6c4.8-7.5,9.7-14.8,10.4-13.5S177.7,944.4,172.8,952.2z"/>
		<path class="st4" d="M203.3,988.3c0,0,39-21.2,41.4-17.8s-39.4,19.1-39.4,19.1L203.3,988.3z"/>
		<path class="st4" d="M206.3,986.7c-0.3,1-0.6,1.9-0.8,2.8c-2.4,8.1-4.6,15.1-5.2,16.9c-1.2-0.1-2.4-0.2-3.6-0.3
			c0.9-3,5.4-18.3,9.5-30.7c0.4-1.2,0.8-2.3,1.1-3.5c2.6-7.6,4.8-13.4,5.7-13.4C214.4,958.6,210.2,973.4,206.3,986.7z"/>
		<path class="st4" d="M230.2,975.3c0,0,0.7-18.8,2.6-19.2s0.5,17.9,0.5,17.9L230.2,975.3z"/>
		<path class="st4" d="M207.3,977c0,0-16.5-20.7-15.6-22.5c0.9-1.8,16.7,19,16.7,19L207.3,977z"/>
		<polygon class="st12" points="957.2,783.7 1001.2,783.7 1001.2,794.6 952.9,794.6 		"/>
		<polygon class="st12" points="262.3,783.7 306.3,783.7 306.3,794.6 257.9,794.6 		"/>
		<path class="st12" d="M945.9,840.2h-624c-20.6,0-31.3,6.8-26.1-9.5l48.2-154.7c13-44.5,67.4-54.1,100.6-54.1H840
			c70.7,2.8,77.3,39.6,81,50.8l54.9,149.6C981.4,838.7,966.7,840.2,945.9,840.2z"/>
		<path class="st13" d="M300.6,849.7c-4.6,0-8.6-1-11.5-4.5c-4-5-2.8-11.3-1-16.9l48.1-154.7c16.2-55.5,87-59.8,108.3-59.8H840
			c72.4,2.9,83.8,40.2,88.1,54.2l0.7,2.2l54.8,149.4c2.6,7.8,2.1,14.2-1.5,19.1c-6.5,9-20.2,9.7-36.2,9.7h-624
			c-4.5,0-9,0.3-13.4,0.8C305.7,849.4,303,849.7,300.6,849.7z M839.7,629.9H444.5c-18.5,0-79.7,3.5-92.8,48.3L303.5,833
			c0,0.1-0.1,0.2-0.1,0.3c1.1-0.1,2.3-0.2,3.4-0.3c5-0.6,10-0.9,15-0.9h624c18.4,0,22.3-1.8,23-3c0,0,0.4-1.1-0.7-4.3l-55.7-152.2
			C908.8,660.6,900.2,632.3,839.7,629.9z"/>
		<path class="st13" d="M1043.8,1046.9H235.1c-15.7,0-29-12.2-30.7-28.4l-11.9-113.3c-5.6-53,34.7-99.1,86.3-99.1
			c0,0,71.3-13.4,349.2-13.4c218.5,0,387.1,13.4,387.1,13.4c50.9,0,89.2,47.6,79.9,99.2l-20.9,115.7
			C1071.4,1035.9,1058.6,1046.9,1043.8,1046.9z"/>
		<path class="st2" d="M825.6,941.6c0,0,20.6-22.6,84.1-35.7s127.1-15.9,136.6,8.5c9.5,24.4,3.2,54.2-28.9,58.3
			S804,978.2,825.6,941.6z"/>
		<path class="st12" d="M276.7,1046c0,0-39.6,113.4-3.7,123.1s129.3,11.5,144.4-7.9s-14.8-120.3-14.8-120.3L276.7,1046z"/>
		<path class="st12" d="M909.1,1046.4c0,0-50.6,109.9-12.8,120.2s114.9,11,130.7-9.4c15.9-20.4,0.4-110.7,0.4-110.7L909.1,1046.4z"
			/>
		<path class="st2" d="M487.8,942.3c0,0-22.9-25.1-93.1-39.5s-140.8-17.7-151.3,9.4s-3.5,60.1,32,64.6S511.7,982.8,487.8,942.3z"/>
		<path class="st14" d="M516.1,970.9l17.7-40.6c3-6.9,8.6-11.1,14.7-11.1h217c5.8,0,11.2,3.9,14.3,10.3l19.6,40.6
			c7,14.6-1,33.6-14.3,33.6H530.7C517.8,1003.6,509.7,985.5,516.1,970.9z"/>
		<path class="st12" d="M650.6,889c-51.7,0-104.6-1.3-145.8-4.6s-64.1-8.2-68.5-14.4c-33.2-47.2-54.4-72-54.6-72.2l0.6-0.5
			c0.2,0.2,21.5,25,54.7,72.3c4.2,6,27.7,10.8,68,14.1c50.7,4.1,128.2,5.6,207.5,4c71.7-1.4,124.4-5,128.1-8.8
			c10.3-10.6,18.1-22,27.1-35.2c8.7-12.8,18.6-27.4,33.2-44.5l0.6,0.5c-14.5,17.1-24.4,31.7-33.1,44.5c-9,13.3-16.8,24.7-27.2,35.3
			C836,884.4,745.5,889,650.6,889z"/>
		<path class="st13" d="M1083.5,1113.6H200.4c-5.4,0-9.9-6.1-10.5-14.2l-4.7-57.5c-0.8-9.6,4.2-18.1,10.5-18.1h891.6
			c6.3,0,11.2,8.2,10.6,17.7l-3.8,57.5C1093.5,1107.3,1089,1113.6,1083.5,1113.6z"/>
		<path class="st12" d="M1083.5,1114H200.4c-5.6,0-10.3-6.3-11-14.6l-4.7-57.5c-0.5-6,1.2-11.9,4.5-15.5c1.6-1.9,4-3.1,6.5-3.1
			h891.5c2.5,0.1,4.8,1.2,6.4,3.1c3.2,3.4,5,9.2,4.6,15.2l-3.8,57.5C1094,1107.6,1089.3,1114,1083.5,1114z M195.8,1024.3
			c-2.2,0.1-4.4,1.1-5.8,2.8c-3.1,3.3-4.7,9-4.2,14.8l4.7,57.5c0.6,7.8,5,13.7,10,13.7h883.1c5.2,0,9.5-6.1,10.1-14.1l3.8-57.5
			c0.4-5.7-1.3-11.2-4.3-14.5c-1.4-1.7-3.5-2.7-5.7-2.8L195.8,1024.3z"/>
		<path class="st13" d="M991.2,788.6c0,0,4.8-30.5,43.2-29.6c38.4,0.9,42,14,33,29.6S988.7,807,991.2,788.6z"/>
		<path class="st13" d="M272.3,788.6c0,0-4.9-30.5-43.2-29.6s-42,14-33,29.6S274.8,807,272.3,788.6z"/>
		<path class="st15" d="M1023.6,770.3c0,0,10.8-5.8,20.8-4.2s17.2,3.2,17,8.4S1017.8,772.7,1023.6,770.3z"/>
		<path class="st15" d="M1071.5,857.2c0,0-20.3-31.5-44-35.7s-63.3-6.3-65.9,0.4s42.9,11.9,59.3,27.3S1087.4,876.3,1071.5,857.2z"/>
		<path class="st15" d="M1023.9,1036.6c0,0,48.4-5.6,55.6,2.6c7.2,8.2,13.9,29.7,4.1,29.5s-15-12.1-27.4-17
			S1013.9,1037.5,1023.9,1036.6z"/>
		<path class="st14" d="M889.3,704.2c0,0,1.8-43.1-41.9-47.7s-134.9-10.9-132.2,0s120.3,39.8,136.7,59.5S893.7,725.9,889.3,704.2z"
			/>
		<path class="st11" d="M2267.3,982c-1.2-0.1-2.3-0.2-3.5-0.3c-2.3-0.2-4.6-0.5-7-0.8c-4.5-0.6-9.1-1-13.7-1.1c-1.2,0-2.4,0-3.6,0
			c-0.6,0-1.3,0-1.9,0c-23,0.6-83.3,5.8-81.3-29.1c2.5-44.7,47.2-25.8,50.1-44c3.4-21.5,45.4-45.4,63-11
			c17.1,33.4,26.7,7.2,47.6,18.3C2347.2,930.1,2339.9,987,2267.3,982z"/>
		<path class="st4" d="M2218.3,949.6c0,0-46,5.4-45,9.9s44.6-7.5,44.6-7.5L2218.3,949.6z"/>
		<path class="st4" d="M2238.4,962c0,0-49.5-34.7-51.5-33.2s48.9,35.7,48.9,35.7L2238.4,962z"/>
		<path class="st4" d="M2243,979.8c-1.2,0-2.4,0-3.6,0c-0.8-2.8-2.4-8.7-4.3-15.9c-0.4-1.7-0.9-3.4-1.4-5.2
			c-5.7-21.3-13-49.8-11.5-49.6c1.1,0.1,5.2,13.7,9.5,29.1c0.3,1,0.6,2.1,0.9,3.2c2,7,3.9,14.1,5.6,20.5c0,0.1,0,0.1,0,0.2
			C2240.5,970.1,2242.2,976.8,2243,979.8z"/>
		<path class="st4" d="M2240.6,929.4c-0.7,1.1-1.4,2.2-2.1,3.3c-3.3,5.1-6.1,9.1-6.1,9.1l-1.8-1.6c0,0,3.1-5.3,6.9-11.4
			c0.7-1.2,1.4-2.3,2.2-3.5c4.6-7.3,9.4-14.3,10.1-13.1S2245.5,921.9,2240.6,929.4z"/>
		<path class="st4" d="M2270.2,964.5c0,0,37.8-20.5,40.1-17.3s-38.1,18.5-38.1,18.5L2270.2,964.5z"/>
		<path class="st4" d="M2273.2,962.9c-0.3,0.9-0.5,1.8-0.8,2.7c-2.4,7.9-4.5,14.7-5.1,16.4c-1.2-0.1-2.3-0.2-3.5-0.3
			c0.9-2.9,5.2-17.7,9.2-29.7c0.4-1.1,0.8-2.3,1.1-3.4c2.5-7.3,4.7-13,5.5-13C2280.9,935.6,2277,950,2273.2,962.9z"/>
		<path class="st4" d="M2296.3,951.8c0,0,0.7-18.2,2.5-18.6s0.5,17.4,0.5,17.4L2296.3,951.8z"/>
		<path class="st4" d="M2274.1,953.6c0,0-16-20-15.1-21.8s16.1,18.4,16.1,18.4L2274.1,953.6z"/>
	</g>
</g>
<g id="Camada-2" vectornator:layerName="Camada 2" xmlns:vectornator="http://vectornator.io">
	<g xmlns:vectornator="http://vectornator.io">
		<path xmlns:vectornator="http://vectornator.io" class="st16" d="M1599.2,253.2c-0.3-52.4,38.5-95,86.7-95.2l567.9-3.2
			c48.2-0.3,87.5,41.9,87.7,94.3l-0.2-36.1c-0.3-52.4-39.6-94.6-87.7-94.3l-567.9,3.2c-48.2,0.3-87,42.9-86.7,95.3L1599.2,253.2z"/>
		<path xmlns:vectornator="http://vectornator.io" class="st17" d="M1599.7,346.3c0.2,44,39.5,79.4,87.7,79.1l567.9-3.2
			c48.2-0.3,87-36.1,86.8-80.1l-0.2-36.2l-0.2-30.3l-0.3-46.1c-0.2-44-39.5-79.3-87.7-79.1l-567.9,3.2c-48.2,0.3-87,36.1-86.8,80
			L1599.7,346.3z"/>
	</g>
	<g xmlns:vectornator="http://vectornator.io">
		<path xmlns:vectornator="http://vectornator.io" class="st18" d="M1863.5,272.6c0,6.1,0.7,12,1.7,17.7
			c7-49.4,49.2-87.6,100.6-87.9c50.4-0.3,92.4,36,101.1,83.9c0.7-4.9,1.1-9.8,1.1-14.9c-0.3-56.5-46.3-102-102.8-101.7
			C1908.7,170.1,1863.2,216.2,1863.5,272.6z"/>
		<path xmlns:vectornator="http://vectornator.io" class="st19" d="M1865.2,290.3c8.7,48,50.7,84.2,101.1,83.9
			c51.4-0.3,93.6-38.5,100.6-87.9c-8.7-47.9-50.7-84.2-101.1-83.9C1914.4,202.7,1872.2,240.9,1865.2,290.3z"/>
	</g>
	<g xmlns:vectornator="http://vectornator.io">
		<g>
			<g xmlns:vectornator="http://vectornator.io">
				<path class="st20" d="M2088.4,271.4c0,6.1,0.7,12,1.7,17.7c7-49.4,49.2-87.6,100.6-87.9c50.4-0.3,92.4,36,101.1,83.9
					c0.7-4.9,1.1-9.8,1.1-14.9c-0.3-56.5-46.3-102-102.8-101.7S2088.1,214.9,2088.4,271.4z"/>
				<path class="st21" d="M2088.4,271.4c0,6.1,0.7,12,1.7,17.7c7-49.4,49.2-87.6,100.6-87.9c50.4-0.3,92.4,36,101.1,83.9
					c0.7-4.9,1.1-9.8,1.1-14.9c-0.3-56.5-46.3-102-102.8-101.7S2088.1,214.9,2088.4,271.4z"/>
			</g>
			<g xmlns:vectornator="http://vectornator.io">
				<path class="st22" d="M2090.1,289.1c8.7,48,50.7,84.2,101.1,83.9c51.4-0.3,93.6-38.5,100.6-87.9c-8.7-47.9-50.7-84.2-101.1-83.9
					C2139.3,201.5,2097.1,239.7,2090.1,289.1z"/>
				<path class="st21" d="M2090.1,289.1c8.7,48,50.7,84.2,101.1,83.9c51.4-0.3,93.6-38.5,100.6-87.9c-8.7-47.9-50.7-84.2-101.1-83.9
					C2139.3,201.5,2097.1,239.7,2090.1,289.1z"/>
			</g>
		</g>
	</g>
	<g xmlns:vectornator="http://vectornator.io">
		<path xmlns:vectornator="http://vectornator.io" class="st23" d="M1631.8,273.9c0,6.1,0.7,12,1.7,17.7
			c7-49.4,49.2-87.6,100.6-87.9c50.4-0.3,92.4,36,101.1,83.9c0.7-4.9,1.1-9.8,1.1-14.9c-0.3-56.5-46.3-102-102.8-101.7
			C1677,171.4,1631.5,217.4,1631.8,273.9z"/>
		<path xmlns:vectornator="http://vectornator.io" class="st24" d="M1633.5,291.6c8.7,48,50.7,84.2,101.1,83.9
			c51.4-0.3,93.6-38.5,100.6-87.9c-8.7-47.9-50.7-84.2-101.1-83.9C1682.7,204,1640.5,242.2,1633.5,291.6z"/>
	</g>
	<g xmlns:vectornator="http://vectornator.io">
		<path xmlns:vectornator="http://vectornator.io" class="st16" d="M2337.6,296.6l-0.3-53.2c0-1.1,0.8-1.9,1.9-2l450.9-2.5
			c1.1,0,1.9,0.9,1.9,1.9l0.3,53.2c0,1.1-0.8,1.9-1.9,2l-450.9,2.5C2338.5,298.5,2337.6,297.7,2337.6,296.6z"/>
		<path xmlns:vectornator="http://vectornator.io" class="st17" d="M2366,296.4l-0.3-53.2c0-1.1,0.8-1.9,1.9-2l447.7-2.5
			c1.1,0,1.9,0.9,1.9,1.9l0.3,53.2c0,1.1-0.8,1.9-1.9,2l-447.7,2.5C2366.9,298.4,2366,297.5,2366,296.4z"/>
	</g>
</g>
</svg>
